<?xml version="1.0" encoding="UTF-8"?>
<svg id="Capa_2" data-name="Capa 2" xmlns="http://www.w3.org/2000/svg" xmlns:xlink="http://www.w3.org/1999/xlink" viewBox="0 0 1053.7 360.47">
  <defs>
    <style>
      .cls-1 {
        fill: none;
        stroke: #6e00a3;
        stroke-linecap: round;
        stroke-linejoin: round;
        stroke-width: 50px;
      }

      .cls-2 {
        fill: #6e00a3;
      }

      .cls-3 {
        fill: url(#Degradado_sin_nombre_8);
      }
    </style>
    <linearGradient id="Degradado_sin_nombre_8" data-name="Degradado sin nombre 8" x1="285.49" y1="226" x2="1053.7" y2="226" gradientTransform="translate(0 481.36) scale(1 -1)" gradientUnits="userSpaceOnUse">
      <stop offset="0" stop-color="#6e00a3"/>
      <stop offset=".99" stop-color="#3fa9f5"/>
    </linearGradient>
  </defs>
  <g id="iso">
    <path class="cls-1" d="M25.92,291.18V89.01c23.04,23.04,63.8,48.6,102.16,48.6s79.76-26.19,102.16-48.6v201.4"/>
  </g>
  <g id="circle_l" data-name="circle l">
    <circle class="cls-2" cx="230.55" cy="25.62" r="25.62"/>
  </g>
  <g id="circle_r" data-name="circle r">
    <circle class="cls-2" cx="25.62" cy="25.62" r="25.62"/>
  </g>
  <g id="text">
    <path class="cls-3" d="M285.49,168.08c0-2.15.41-4.18,1.23-6.07.82-1.89,1.92-3.53,3.29-4.91,1.38-1.38,3.01-2.47,4.91-3.29,1.89-.82,3.88-1.23,5.94-1.23s4.05.41,5.94,1.23c1.89.82,3.55,1.92,4.97,3.29,1.42,1.38,2.54,3.02,3.36,4.91.82,1.9,1.23,3.92,1.23,6.07s-.41,4.03-1.23,5.88-1.94,3.47-3.36,4.85c-1.42,1.38-3.08,2.48-4.97,3.29-1.9.82-3.88,1.23-5.94,1.23s-4.05-.41-5.94-1.23c-1.9-.82-3.53-1.92-4.91-3.29-1.38-1.38-2.48-2.99-3.29-4.85-.82-1.85-1.23-3.81-1.23-5.88ZM314.95,302.84c0,1.9-.37,3.71-1.1,5.43s-1.72,3.21-2.97,4.46-2.71,2.24-4.39,2.97c-1.68.73-3.51,1.1-5.49,1.1s-3.7-.37-5.43-1.1c-1.72-.73-3.23-1.72-4.52-2.97-1.29-1.25-2.31-2.73-3.04-4.46-.73-1.72-1.1-3.53-1.1-5.43v-92.25c0-1.89.39-3.68,1.16-5.36.78-1.68,1.81-3.16,3.1-4.46s2.8-2.3,4.52-3.04c1.72-.73,3.57-1.1,5.56-1.1s3.79.37,5.43,1.1c1.64.73,3.08,1.74,4.33,3.04,1.25,1.29,2.22,2.78,2.91,4.46.69,1.68,1.03,3.47,1.03,5.36v92.25h0ZM457.2,303.23c0,1.98-.37,3.81-1.1,5.49s-1.7,3.15-2.91,4.39c-1.21,1.25-2.65,2.22-4.33,2.91s-3.47,1.03-5.36,1.03-3.73-.34-5.49-1.03c-1.77-.69-3.29-1.66-4.59-2.91-1.29-1.25-2.33-2.71-3.1-4.39-.78-1.68-1.16-3.51-1.16-5.49v-48.06c0-.69.04-1.2.13-1.55-.17-4.22-1.03-8.18-2.58-11.89-1.55-3.7-3.66-6.93-6.33-9.69-2.67-2.76-5.79-4.93-9.37-6.52-3.58-1.59-7.52-2.39-11.82-2.39s-8.44.8-12.14,2.39c-3.7,1.6-6.87,3.81-9.5,6.65s-4.7,6.18-6.2,10.01c-1.51,3.83-2.26,7.95-2.26,12.34v48.71c0,1.98-.35,3.81-1.03,5.49-.69,1.68-1.66,3.15-2.91,4.39-1.25,1.25-2.69,2.22-4.33,2.91-1.64.69-3.45,1.03-5.43,1.03s-3.7-.34-5.43-1.03c-1.72-.69-3.25-1.66-4.59-2.91s-2.39-2.71-3.17-4.39c-.78-1.68-1.16-3.51-1.16-5.49v-48.71c0-8.27,1.49-16,4.46-23.19s7.06-13.48,12.27-18.86,11.37-9.63,18.48-12.73c7.11-3.1,14.75-4.65,22.93-4.65s15.93,1.55,23,4.65c7.06,3.1,13.18,7.34,18.35,12.73,5.17,5.38,9.24,11.67,12.21,18.86s4.46,14.92,4.46,23.19v48.71h0ZM541.05,251.16l39.67,42.25c1.29,1.29,2.26,2.8,2.91,4.52.65,1.72.97,3.49.97,5.3s-.35,3.58-1.03,5.3c-.69,1.72-1.77,3.27-3.23,4.65-2.76,2.58-5.99,3.88-9.69,3.88-1.81,0-3.58-.37-5.3-1.1s-3.23-1.83-4.52-3.29l-39.28-43.02-11.37,10.85v22.61c0,1.9-.37,3.68-1.1,5.36s-1.72,3.12-2.97,4.33-2.69,2.18-4.33,2.91c-1.64.73-3.4,1.1-5.3,1.1s-3.7-.37-5.43-1.1c-1.72-.73-3.23-1.7-4.52-2.91-1.29-1.2-2.33-2.65-3.1-4.33-.78-1.68-1.16-3.47-1.16-5.36v-139.15c0-1.89.39-3.68,1.16-5.36.78-1.68,1.81-3.12,3.1-4.33,1.29-1.2,2.8-2.17,4.52-2.91,1.72-.73,3.53-1.1,5.43-1.1s3.81.37,5.49,1.1c1.68.73,3.12,1.7,4.33,2.91,1.2,1.21,2.17,2.65,2.91,4.33.73,1.68,1.1,3.47,1.1,5.36v79.72l44.06-43.15c1.29-1.29,2.71-2.24,4.26-2.84,1.55-.6,3.14-.9,4.78-.9s3.47.37,5.23,1.1c1.76.73,3.38,1.87,4.84,3.42,1.29,1.38,2.28,2.91,2.97,4.59.69,1.68,1.01,3.4.97,5.17-.04,1.77-.41,3.49-1.1,5.17s-1.72,3.16-3.1,4.46l-32.17,30.49v-.03ZM593.25,256.72c0-8.53,1.64-16.52,4.91-23.97,3.27-7.45,7.71-13.97,13.31-19.57s12.12-10.01,19.57-13.24c7.45-3.23,15.4-4.84,23.84-4.84s16.54,1.61,24.03,4.84c7.49,3.23,14.02,7.65,19.57,13.24,5.56,5.6,9.93,12.12,13.11,19.57,3.19,7.45,4.78,15.44,4.78,23.97v45.74c0,1.98-.37,3.83-1.1,5.56-.73,1.72-1.74,3.23-3.04,4.52-1.29,1.29-2.82,2.33-4.59,3.1-1.77.78-3.64,1.16-5.62,1.16-3.36,0-6.2-.99-8.53-2.97s-3.88-4.48-4.65-7.49c-4.91,3.7-10.23,6.63-15.96,8.79-5.73,2.15-11.74,3.23-18.02,3.23-8.44,0-16.39-1.61-23.84-4.84s-13.98-7.64-19.57-13.24c-5.6-5.6-10.04-12.14-13.31-19.64-3.27-7.49-4.91-15.46-4.91-23.9l.02-.02ZM621.28,256.72c0,4.57.88,8.89,2.65,12.98,1.76,4.09,4.18,7.67,7.23,10.72s6.61,5.47,10.66,7.24,8.4,2.65,13.05,2.65,9.02-.88,13.11-2.65c4.09-1.76,7.64-4.18,10.66-7.24,3.01-3.06,5.38-6.63,7.11-10.72,1.72-4.09,2.58-8.42,2.58-12.98s-.86-9.02-2.58-13.11c-1.72-4.09-4.09-7.64-7.11-10.66-3.02-3.01-6.57-5.4-10.66-7.17-4.09-1.76-8.46-2.65-13.11-2.65s-8.89.88-12.98,2.65c-4.09,1.77-7.67,4.16-10.72,7.17-3.06,3.02-5.47,6.57-7.23,10.66-1.77,4.09-2.65,8.46-2.65,13.11h-.01ZM768.44,258.91c0,4.39.82,8.51,2.45,12.34,1.64,3.83,3.88,7.15,6.72,9.95,2.84,2.8,6.2,5,10.08,6.59,3.88,1.6,8.01,2.39,12.4,2.39s8.51-.84,12.34-2.52,7.15-3.96,9.95-6.85c2.8-2.88,5.02-6.27,6.65-10.14,1.64-3.88,2.46-8.05,2.46-12.53v-47.55c0-1.89.39-3.68,1.16-5.36.77-1.68,1.81-3.16,3.1-4.46,1.29-1.29,2.82-2.3,4.59-3.04,1.76-.73,3.6-1.1,5.49-1.1s3.79.37,5.43,1.1c1.64.73,3.08,1.74,4.33,3.04,1.25,1.29,2.22,2.78,2.91,4.46.69,1.68,1.03,3.47,1.03,5.36v48.06c0,7.06-1.16,13.76-3.49,20.09s-5.51,12.04-9.56,17.12-8.87,9.43-14.47,13.05-11.67,6.2-18.22,7.75v29.72c0,1.98-.37,3.83-1.1,5.56-.73,1.72-1.74,3.21-3.04,4.46-1.29,1.25-2.78,2.24-4.46,2.97s-3.47,1.1-5.36,1.1c-4.05,0-7.41-1.34-10.08-4.01-2.67-2.67-4.01-6.03-4.01-10.08v-29.85c-6.55-1.64-12.58-4.26-18.09-7.88s-10.29-7.97-14.34-13.05c-4.05-5.08-7.21-10.77-9.5-17.05-2.28-6.29-3.42-12.92-3.42-19.9v-48.06c0-1.89.37-3.68,1.1-5.36.73-1.68,1.72-3.16,2.97-4.46,1.25-1.29,2.73-2.3,4.46-3.04,1.72-.73,3.53-1.1,5.43-1.1s3.7.37,5.43,1.1c1.72.73,3.23,1.74,4.52,3.04s2.3,2.78,3.04,4.46c.73,1.68,1.1,3.47,1.1,5.36v48.32h0ZM998.16,303.23c0,1.98-.37,3.81-1.1,5.49s-1.7,3.15-2.91,4.39c-1.21,1.25-2.65,2.22-4.33,2.91s-3.47,1.03-5.36,1.03-3.73-.34-5.49-1.03c-1.77-.69-3.29-1.66-4.59-2.91-1.29-1.25-2.33-2.71-3.1-4.39-.78-1.68-1.16-3.51-1.16-5.49v-48.06c0-.69.04-1.2.13-1.55-.17-4.22-1.03-8.18-2.58-11.89-1.55-3.7-3.66-6.93-6.33-9.69-2.67-2.76-5.79-4.93-9.37-6.52-3.57-1.59-7.52-2.39-11.82-2.39s-8.44.8-12.14,2.39c-3.7,1.6-6.87,3.81-9.5,6.65s-4.7,6.18-6.2,10.01c-1.51,3.83-2.26,7.95-2.26,12.34v48.71c0,1.98-.35,3.81-1.03,5.49-.69,1.68-1.66,3.15-2.91,4.39-1.25,1.25-2.69,2.22-4.33,2.91s-3.45,1.03-5.43,1.03-3.7-.34-5.43-1.03c-1.72-.69-3.25-1.66-4.59-2.91s-2.39-2.71-3.17-4.39-1.16-3.51-1.16-5.49v-48.71c0-8.27,1.49-16,4.46-23.19,2.97-7.19,7.06-13.48,12.27-18.86s11.37-9.63,18.48-12.73c7.11-3.1,14.75-4.65,22.93-4.65s15.93,1.55,23,4.65c7.06,3.1,13.18,7.34,18.35,12.73,5.17,5.38,9.24,11.67,12.21,18.86,2.97,7.19,4.46,14.92,4.46,23.19v48.71h0ZM1022.83,168.08c0-2.15.41-4.18,1.23-6.07.82-1.89,1.92-3.53,3.29-4.91,1.38-1.38,3.01-2.47,4.91-3.29,1.89-.82,3.88-1.23,5.94-1.23s4.05.41,5.94,1.23c1.89.82,3.55,1.92,4.97,3.29,1.42,1.38,2.54,3.02,3.36,4.91.82,1.9,1.23,3.92,1.23,6.07s-.41,4.03-1.23,5.88c-.82,1.85-1.94,3.47-3.36,4.85s-3.08,2.48-4.97,3.29c-1.9.82-3.88,1.23-5.94,1.23s-4.05-.41-5.94-1.23c-1.9-.82-3.53-1.92-4.91-3.29-1.38-1.38-2.48-2.99-3.29-4.85-.82-1.85-1.23-3.81-1.23-5.88h0ZM1052.29,302.84c0,1.9-.37,3.71-1.1,5.43s-1.72,3.21-2.97,4.46-2.71,2.24-4.39,2.97-3.51,1.1-5.49,1.1-3.7-.37-5.43-1.1c-1.72-.73-3.23-1.72-4.52-2.97s-2.31-2.73-3.04-4.46c-.73-1.72-1.1-3.53-1.1-5.43v-92.25c0-1.89.39-3.68,1.16-5.36.77-1.68,1.81-3.16,3.1-4.46,1.29-1.29,2.8-2.3,4.52-3.04,1.72-.73,3.57-1.1,5.56-1.1s3.79.37,5.43,1.1c1.64.73,3.08,1.74,4.33,3.04,1.25,1.29,2.22,2.78,2.91,4.46.69,1.68,1.03,3.47,1.03,5.36v92.25h0Z"/>
  </g>
</svg>