<?xml version="1.0" encoding="UTF-8"?>
<svg id="Capa_2" data-name="Capa 2" xmlns="http://www.w3.org/2000/svg" viewBox="0 0 766.32 351.48">
  <defs>
    <style>
      .cls-1 {
        fill: #fff;
      }
    </style>
  </defs>
  <g id="text">
    <g>
      <g>
        <path id="_R_G_L_3_G_D_0_P_0" data-name=" R G L 3 G D 0 P 0" class="cls-1" d="M129.4,344.1c-.85,0-1.67-.11-2.48-.33-3.59-1.14-6.19-3.41-7.78-6.82-1.59-3.41-2.39-7.41-2.39-11.99s.7-9.55,2.09-14.66c1.39-5.11,3.27-9.88,5.61-14.3,2.35-4.42,5.03-8.02,8.03-10.81,3.01-2.79,6.12-4.18,9.35-4.18.8,0,1.62.09,2.42.28,1.28.33,2.3,1.15,3.05,2.48.75,1.32,1.13,3.11,1.13,5.39,0,2.93-.73,6.63-2.2,11.11-.73,2.13-1.51,3.87-2.34,5.22-.83,1.35-1.44,2.04-1.84,2.04-.48-.04-.72-.53-.72-1.48s.24-2.24.72-3.96c.22-.51.56-.77,1.04-.77l.55.17c.51-1.06,1.14-2.91,1.9-5.56.75-2.64,1.13-5.17,1.13-7.59,0-1.39-.2-2.59-.61-3.58-.59-1.58-1.93-2.37-4.01-2.37-2.64,0-5.32,1.41-8.05,4.24-2.73,2.82-5.22,6.43-7.48,10.83-2.25,4.4-4.08,9.12-5.48,14.16-1.39,5.04-2.09,9.8-2.09,14.28,0,3.96.67,7.39,2.01,10.31,1.34,2.91,3.53,4.89,6.57,5.91.73.22,1.5.33,2.31.33,2.27,0,4.7-.8,7.29-2.42,2.59-1.62,5.15-3.69,7.7-6.21,2.55-2.53,4.94-5.24,7.18-8.11,2.24-2.88,4.18-5.63,5.83-8.28,1.65-2.64,2.86-4.86,3.63-6.66.14-.33.38-.49.72-.49.11,0,.23.03.35.08.13.06.24.16.33.3.09.14.14.3.14.44l-.06.28c-.85,1.98-2.14,4.35-3.87,7.12-1.75,2.77-3.79,5.63-6.13,8.58-2.35,2.95-4.87,5.72-7.56,8.31s-5.41,4.69-8.14,6.29c-2.73,1.62-5.35,2.42-7.84,2.42Z"/>
        <path id="_R_G_L_3_G_D_0_P_1" data-name=" R G L 3 G D 0 P 1" class="cls-1" d="M164.98,320.95h-.22c-.92-.18-1.68-.9-2.28-2.14-.61-1.25-.91-2.82-.91-4.73v-.44c-.73-.48-1.1-1.35-1.1-2.64,0-.84.17-1.73.52-2.67s.87-1.72,1.56-2.37,1.59-.96,2.69-.96l.83.06c2.46.48,3.69,2.53,3.69,6.16,0,1.35-.14,2.59-.44,3.69,1.58-.25,2.98-.8,4.21-1.62,1.22-.83,2.41-1.8,3.55-2.94.18-.18.38-.28.61-.28.18,0,.35.09.52.28.17.18.25.37.25.55,0,.22-.09.42-.28.6-1.32,1.32-2.73,2.45-4.24,3.38-1.51.93-3.19,1.51-5.06,1.73-1.14,2.9-2.44,4.35-3.9,4.35h0ZM167.67,315c.33-1.1.49-2.37.49-3.8,0-2.72-.84-4.16-2.53-4.35-.88,0-1.7.66-2.48,1.98.22.07.41.21.58.41.17.2.25.45.25.75-.18,1.39-.28,2.62-.28,3.69,1.03.88,2.35,1.32,3.96,1.32ZM165.2,318.91c.73,0,1.39-.77,1.98-2.31-1.14,0-2.25-.29-3.35-.88.14,2.06.61,3.11,1.38,3.19Z"/>
        <path id="_R_G_L_3_G_D_0_P_2" data-name=" R G L 3 G D 0 P 2" class="cls-1" d="M180.32,336.18h-.22c-2.82-.41-4.24-4.27-4.24-11.6,0-4.18.35-8.58,1.04-13.2,1.25-9.02,2.82-17.22,4.73-24.58,1.03-3.89,2.06-6.79,3.11-8.72,1.04-1.93,1.88-2.89,2.51-2.89s1.01.9,1.04,2.69c0,4.66-2.88,14.61-8.63,29.86-.11.3-.33,1.59-.66,3.9-.66,4.73-.99,9.11-.99,13.15,0,5.53.83,8.63,2.48,9.29l.61.11c1.32,0,2.85-1.03,4.59-3.08,1.74-2.05,3.46-4.48,5.17-7.26,1.7-2.79,3.2-5.41,4.48-7.87,1.28-2.46,2.14-4.2,2.59-5.22.18-.33.44-.49.77-.49.51.14.77.42.77.83l-.06.33c-2.01,4.55-4.64,9.33-7.87,14.35-4.44,6.93-8.18,10.39-11.22,10.39ZM181.09,299.06c1.39-3.93,2.67-7.88,3.85-11.88,1.14-4.48,1.7-7.15,1.7-8.03,0-.22-.04-.33-.11-.33-.3,0-1.21,2.79-2.75,8.36-.92,3.52-1.82,7.48-2.69,11.88h0Z"/>
        <path id="_R_G_L_3_G_D_0_P_3" data-name=" R G L 3 G D 0 P 3" class="cls-1" d="M209.14,321c-2.64,0-3.96-2.07-3.96-6.21l.11-1.93-.66.83-1.32,1.59c-2.09,2.56-3.83,3.85-5.22,3.85-1.17,0-1.77-.93-1.82-2.8,0-1.46.51-3.3,1.54-5.5.8-1.62,1.85-3.01,3.14-4.18s2.73-1.76,4.35-1.76c.8,0,1.63.2,2.48.61.41.25.6.59.6.99,0,.14-.04.3-.11.44-.26.41-.59.6-.99.6l-.44-.11c-.48-.22-.96-.33-1.43-.33-1.17,0-2.25.49-3.24,1.46-.99.97-1.82,2.08-2.48,3.32-.85,1.72-1.27,3.06-1.27,4.01,0,.73.24,1.14.72,1.21.66,0,1.74-.9,3.24-2.69.88-1.14,1.67-2.2,2.37-3.19.41-.59.72-1.04.93-1.35.22-.31.46-.58.72-.8.26-.22.51-.33.77-.33.37,0,.59.38.66,1.15l-.11,1.32c-.22,1.47-.33,2.6-.33,3.41,0,2.9.91,4.35,2.75,4.35,2.01,0,5.02-1.67,9.02-5l4.18-3.69c.14-.14.31-.22.49-.22.22,0,.41.08.58.25.17.17.25.35.25.58,0,.41-1.51,1.85-4.51,4.35-4.66,3.85-8.32,5.77-11,5.77h0Z"/>
        <path id="_R_G_L_3_G_D_0_P_4" data-name=" R G L 3 G D 0 P 4" class="cls-1" d="M222.06,330.63c-1.98,0-3.04-1.06-3.19-3.19,0-1.06.44-2.21,1.32-3.44.88-1.23,2.29-2.3,4.24-3.22l.17-.06c2.17-.88,4.45-1.56,6.87-2.04.25-.7.52-1.69.8-3,.28-1.3.41-2.56.41-3.77,0-1.87-.46-3.01-1.38-3.41l-.49-.11c-.92,0-1.93.72-3.03,2.17s-2.09,3.44-2.97,5.97c0,.3-.12.51-.35.66-.24.14-.51.22-.8.22-.25,0-.51-.07-.75-.22-.24-.14-.35-.38-.35-.72,1.32-13.78,2.97-24.7,4.95-32.72,1.1-4.55,2.25-6.95,3.46-7.21.84,0,1.27.85,1.27,2.53,0,4.03-1.9,12.25-5.72,24.64l-.61,1.98-.6,5.72c1.87-3.27,3.81-4.9,5.83-4.9h.33c2.17.37,3.24,2.31,3.24,5.83,0,1.8-.28,3.74-.83,5.83,2.35-.48,4.3-1.27,5.86-2.37,1.56-1.1,3.03-2.88,4.43-5.34.18-.25.41-.38.66-.38.14,0,.3.04.44.11.25.18.38.41.38.66,0,.14-.04.3-.11.44-1.69,2.9-3.48,4.93-5.39,6.11-1.9,1.17-4.2,2.01-6.87,2.53-.99,2.82-2.72,5.39-5.17,7.7-2.24,1.98-4.25,2.97-6.05,2.97v.02ZM222.17,328.48c1.21,0,2.75-.83,4.62-2.48,1.72-1.65,3.04-3.48,3.96-5.5-1.98.41-3.82.97-5.5,1.7l-.17.06c-1.51.7-2.6,1.51-3.3,2.42-.7.92-1.04,1.7-1.04,2.37,0,.85.48,1.32,1.43,1.43ZM227.67,293.39c1.9-7.08,2.91-11.83,3.03-14.25-.92,2.13-1.83,6.29-2.75,12.49l-.28,1.76Z"/>
        <path id="_R_G_L_3_G_D_0_P_5" data-name=" R G L 3 G D 0 P 5" class="cls-1" d="M247.69,320.95h-.22c-.92-.18-1.68-.9-2.28-2.14-.61-1.25-.91-2.82-.91-4.73v-.44c-.73-.48-1.1-1.35-1.1-2.64,0-.84.17-1.73.52-2.67.35-.93.87-1.72,1.56-2.37.7-.64,1.59-.96,2.69-.96l.83.06c2.46.48,3.69,2.53,3.69,6.16,0,1.35-.14,2.59-.44,3.69,1.58-.25,2.98-.8,4.21-1.62,1.22-.83,2.41-1.8,3.55-2.94.18-.18.38-.28.61-.28.18,0,.35.09.52.28s.25.37.25.55c0,.22-.09.42-.28.6-1.32,1.32-2.73,2.45-4.24,3.38-1.51.93-3.19,1.51-5.06,1.73-1.14,2.9-2.44,4.35-3.9,4.35h0ZM250.38,315c.33-1.1.49-2.37.49-3.8,0-2.72-.84-4.16-2.53-4.35-.88,0-1.7.66-2.48,1.98.22.07.41.21.58.41.17.2.25.45.25.75-.18,1.39-.28,2.62-.28,3.69,1.03.88,2.35,1.32,3.96,1.32ZM247.91,318.91c.73,0,1.39-.77,1.98-2.31-1.14,0-2.25-.29-3.35-.88.14,2.06.6,3.11,1.38,3.19Z"/>
        <path id="_R_G_L_3_G_D_0_P_6" data-name=" R G L 3 G D 0 P 6" class="cls-1" d="M260.51,321.28c-.3-.04-.54-.17-.75-.38-.2-.22-.3-.46-.3-.72l.55-14.08c0-.29.11-.54.33-.75.22-.2.48-.3.77-.3s.54.11.75.33c.2.22.3.48.3.77l-.33,8.36c.18-.55.58-1.56,1.18-3.05.61-1.48,1.34-2.93,2.2-4.32.86-1.39,1.72-2.09,2.56-2.09.59,0,1.12.37,1.59,1.1.33.51.65,1.11.96,1.79.31.68.66,1.29,1.04,1.84.38.55.85.83,1.41.83.7,0,1.58-.64,2.64-1.93.22-.18.42-.28.6-.28s.33.06.44.17.17.24.17.38c0,.18-.09.38-.28.61-1.83,1.8-3.3,2.69-4.4,2.69-.8,0-1.48-.32-2.01-.96-.53-.64-.98-1.31-1.35-2.01-.48-.92-.92-1.43-1.32-1.54-.59,0-1.25.82-1.98,2.45-.73,1.63-1.42,3.38-2.06,5.25-.64,1.87-1.13,3.34-1.46,4.4-.11.3-.2.53-.25.72-.06.18-.17.35-.35.49-.18.14-.41.22-.66.22h0Z"/>
        <path id="_R_G_L_3_G_D_0_P_7" data-name=" R G L 3 G D 0 P 7" class="cls-1" d="M289.38,321c-2.64,0-3.96-2.07-3.96-6.21l.11-1.93-.66.83-1.32,1.59c-2.09,2.56-3.83,3.85-5.22,3.85-1.17,0-1.77-.93-1.82-2.8,0-1.46.51-3.3,1.54-5.5.8-1.62,1.85-3.01,3.14-4.18,1.28-1.17,2.73-1.76,4.35-1.76.8,0,1.63.2,2.48.61.41.25.6.59.6.99,0,.14-.04.3-.11.44-.26.41-.59.6-.99.6l-.44-.11c-.48-.22-.96-.33-1.43-.33-1.17,0-2.25.49-3.24,1.46-.99.97-1.82,2.08-2.48,3.32-.85,1.72-1.27,3.06-1.27,4.01,0,.73.24,1.14.72,1.21.66,0,1.74-.9,3.24-2.69.88-1.14,1.67-2.2,2.37-3.19.41-.59.72-1.04.93-1.35.22-.31.46-.58.72-.8s.51-.33.77-.33c.37,0,.59.38.66,1.15l-.11,1.32c-.22,1.47-.33,2.6-.33,3.41,0,2.9.91,4.35,2.75,4.35,2.01,0,5.02-1.67,9.02-5l4.18-3.69c.14-.14.31-.22.49-.22.22,0,.41.08.58.25.17.17.25.35.25.58,0,.41-1.51,1.85-4.51,4.35-4.66,3.85-8.32,5.77-11,5.77h0Z"/>
        <path id="_R_G_L_3_G_D_0_P_8" data-name=" R G L 3 G D 0 P 8" class="cls-1" d="M307.31,321c-1.83-.04-3.14-.56-3.93-1.59-.79-1.03-1.18-2.27-1.18-3.74,0-2.31.72-4.61,2.17-6.9,1.45-2.29,3.13-3.53,5.03-3.72.84,0,1.56.4,2.14,1.18.59.79.88,2.08.88,3.87v.8c0,.24-.08.43-.25.58s-.38.22-.63.22c-.22-.04-.39-.13-.52-.28s-.2-.31-.2-.49v-.99c0-1.98-.44-2.97-1.32-2.97h-.17c-1.14.26-2.25,1.34-3.35,3.24-1.1,1.9-1.65,3.74-1.65,5.5,0,2.27,1.15,3.45,3.46,3.52,1.54,0,3.22-.51,5.06-1.54,1.83-1.03,3.56-2.23,5.2-3.6,1.63-1.38,2.94-2.63,3.93-3.77.18-.18.38-.28.6-.28.18,0,.37.08.55.25s.28.35.28.58c0,.18-.07.37-.22.55-1.21,1.35-2.69,2.77-4.45,4.24-1.76,1.47-3.65,2.72-5.66,3.77s-3.94,1.56-5.77,1.56h-.01Z"/>
        <path id="_R_G_L_3_G_D_0_P_9" data-name=" R G L 3 G D 0 P 9" class="cls-1" d="M325.18,321h-.28c-2.2-.14-3.3-2.22-3.3-6.21,0-2.01.3-4.55.88-7.59.14-.62.53-.93,1.15-.93.25,0,.49.08.69.25.2.17.3.39.3.69v.22c-.62,3.19-.93,5.76-.93,7.7,0,2.49.53,3.87,1.59,4.12l.49.06c1.32,0,2.94-.8,4.87-2.39,1.93-1.59,3.98-3.75,6.19-6.46.18-.22.41-.33.66-.33.14,0,.31.07.49.2.18.13.28.3.28.52,0,.18-.07.37-.22.55-2.42,2.93-4.77,5.27-7.04,7.01-2.27,1.75-4.22,2.61-5.83,2.61h0ZM323.98,304.23c-.41,0-.66-.59-.77-1.76.04-.22.07-.47.11-.75.04-.28.17-.49.38-.63.22-.14.44-.22.66-.22.3,0,.54.08.75.25s.3.41.3.75v.11c-.48,1.51-.96,2.25-1.43,2.25h0Z"/>
        <path id="_R_G_L_3_G_D_0_P_10" data-name=" R G L 3 G D 0 P 10" class="cls-1" d="M340.36,320.95h-.22c-.92-.18-1.68-.9-2.28-2.14-.61-1.25-.91-2.82-.91-4.73v-.44c-.73-.48-1.1-1.35-1.1-2.64,0-.84.17-1.73.52-2.67.35-.93.87-1.72,1.56-2.37s1.59-.96,2.69-.96l.83.06c2.46.48,3.69,2.53,3.69,6.16,0,1.35-.14,2.59-.44,3.69,1.58-.25,2.98-.8,4.21-1.62,1.22-.83,2.41-1.8,3.55-2.94.18-.18.38-.28.61-.28.18,0,.35.09.52.28.17.18.25.37.25.55,0,.22-.09.42-.28.6-1.32,1.32-2.73,2.45-4.24,3.38-1.51.93-3.19,1.51-5.06,1.73-1.14,2.9-2.44,4.35-3.9,4.35h0ZM336.84,300.76c-.22,0-.39-.07-.52-.2s-.2-.27-.2-.41c0-.29.22-.56.66-.83,5.61-2.56,8.54-3.89,8.8-3.96.41,0,.73.22.99.66.07.14.11.31.11.49,0,.37-.2.68-.6.93-6.01,2.2-9.1,3.3-9.24,3.3h0ZM343.05,315c.33-1.1.49-2.37.49-3.8,0-2.72-.84-4.16-2.53-4.35-.88,0-1.7.66-2.48,1.98.22.07.41.21.58.41.17.2.25.45.25.75-.18,1.39-.28,2.62-.28,3.69,1.03.88,2.35,1.32,3.96,1.32ZM340.58,318.91c.73,0,1.39-.77,1.98-2.31-1.14,0-2.25-.29-3.35-.88.14,2.06.6,3.11,1.38,3.19Z"/>
        <path id="_R_G_L_3_G_D_0_P_11" data-name=" R G L 3 G D 0 P 11" class="cls-1" d="M366.32,321h-.17c-1.87-.3-3.09-1.59-3.66-3.87s-.91-4.52-1.01-6.68c-.04-.91-.1-1.67-.2-2.25-.09-.59-.23-.88-.41-.88-.66.11-1.93,1.98-3.8,5.61-1.8,3.48-2.82,5.81-3.08,6.98-.04.37-.17.63-.38.8-.22.17-.46.25-.72.25s-.49-.08-.72-.25c-.22-.17-.33-.41-.33-.75l.77-13.91c.04-.25.15-.48.35-.66s.47-.28.8-.28c.3.04.53.16.72.35.18.2.28.43.28.69l-.55,9.24c3.01-6.56,5.37-9.92,7.1-10.07.62,0,1.1.31,1.43.93.51,1.03.92,2.97,1.21,5.83.14,1.8.41,3.43.77,4.9.37,1.47,1.04,2.22,2.04,2.25,1.72,0,4.84-2.95,9.35-8.86.18-.22.41-.33.66-.33.18,0,.35.07.52.22s.25.35.25.61c0,.18-.04.35-.11.49-4.87,6.42-8.58,9.63-11.11,9.63h.01Z"/>
        <path id="_R_G_L_3_G_D_0_P_12" data-name=" R G L 3 G D 0 P 12" class="cls-1" d="M387.66,351.47c-1.1,0-2.03-.48-2.77-1.43-.75-.96-1.13-2.33-1.13-4.12,0-3.34,1.35-7.35,4.07-12.04,2.31-4,5.3-7.92,8.97-11.77v-1.65c0-3.63-.11-6.98-.33-10.07-.62,2.13-1.41,4.16-2.37,6.11s-2.04,3.17-3.24,3.69c-.25.07-.51.11-.77.11-.85,0-1.48-.47-1.9-1.41-.42-.93-.72-2.09-.88-3.46-.17-1.38-.25-2.69-.25-3.93,0-1.65.04-2.9.11-3.74.07-.84.46-1.27,1.15-1.27.3.04.54.17.75.38s.3.48.3.77c-.07.85-.11,2.06-.11,3.63,0,4.73.48,7.09,1.43,7.09.51-.04,1.1-.7,1.76-1.98,1.06-2.17,2.09-5.02,3.08-8.58.37-1.32.56-2.15.58-2.5.01-.35.12-.62.3-.83.18-.2.44-.3.77-.3.3,0,.54.09.75.28s.32.43.35.75c.04.31.07.69.11,1.13.37,4.8.55,9.06.55,12.76v.88l.06-.06c4.18-4.03,8.78-7.28,13.8-9.73l.33-.06c.33,0,.59.14.77.44l.06.33c0,.3-.14.53-.44.72-5.21,2.56-10.07,6.11-14.57,10.62-.04,5.5-.62,10.91-1.76,16.22-1.1,4.48-2.56,7.76-4.4,9.87-1.83,2.11-3.54,3.16-5.11,3.16h0ZM387.49,349.38c1.14,0,2.46-.93,3.96-2.8,1.51-1.87,2.73-4.75,3.69-8.63.88-4.32,1.41-8.8,1.59-13.42-3.04,3.38-5.56,6.75-7.53,10.12-2.64,4.66-3.96,8.42-3.96,11.28,0,2.27.75,3.43,2.25,3.46Z"/>
        <path id="_R_G_L_3_G_D_0_P_13" data-name=" R G L 3 G D 0 P 13" class="cls-1" d="M424.18,321.28c-.3-.04-.54-.17-.75-.38s-.3-.46-.3-.72l.55-14.08c0-.29.11-.54.33-.75.22-.2.48-.3.77-.3s.54.11.75.33c.2.22.3.48.3.77l-.33,8.36c.18-.55.58-1.56,1.18-3.05.61-1.48,1.34-2.93,2.2-4.32.86-1.39,1.72-2.09,2.56-2.09.59,0,1.12.37,1.59,1.1.33.51.65,1.11.96,1.79.31.68.66,1.29,1.04,1.84.38.55.85.83,1.41.83.7,0,1.58-.64,2.64-1.93.22-.18.42-.28.6-.28s.33.06.44.17c.11.11.17.24.17.38,0,.18-.09.38-.28.61-1.83,1.8-3.3,2.69-4.4,2.69-.8,0-1.48-.32-2.01-.96-.53-.64-.99-1.31-1.35-2.01-.48-.92-.92-1.43-1.32-1.54-.59,0-1.25.82-1.98,2.45-.73,1.63-1.42,3.38-2.06,5.25-.64,1.87-1.13,3.34-1.46,4.4-.11.3-.2.53-.25.72-.06.18-.17.35-.35.49-.18.14-.41.22-.66.22h0Z"/>
        <path id="_R_G_L_3_G_D_0_P_14" data-name=" R G L 3 G D 0 P 14" class="cls-1" d="M446.45,321c-2.13,0-3.76-.64-4.9-1.93-.73-.88-1.1-2.01-1.1-3.41,0-1.21.33-2.64.99-4.29.92-2.2,2.31-3.93,4.18-5.17l.28-.22c1.25-.7,2.35-1.04,3.3-1.04,1.46,0,2.27.62,2.42,1.87,0,1.28-1.14,2.62-3.41,4.01-1.83,1.06-3.38,1.59-4.62,1.59h-.28c-.44,1.17-.66,2.17-.66,2.97,0,.88.2,1.59.61,2.11s.96.92,1.65,1.15c.7.24,1.43.35,2.2.35,1.65,0,3.32-.49,5.03-1.46,1.7-.97,3.28-2.11,4.73-3.44,1.45-1.32,2.65-2.56,3.6-3.74.18-.22.38-.33.6-.33.18,0,.35.08.52.25.17.17.25.35.25.58,0,.18-.06.35-.17.49-1.1,1.39-2.48,2.82-4.12,4.29-1.65,1.47-3.44,2.72-5.36,3.77-1.93,1.04-3.84,1.56-5.75,1.56v.02ZM444.14,310.77l.38-.11c.91-.22,1.87-.62,2.86-1.21,1.58-.99,2.37-1.67,2.37-2.04,0-.22-.18-.33-.55-.33-.48,0-1.28.3-2.42.88-1.03.73-1.9,1.67-2.64,2.8h0Z"/>
        <path id="_R_G_L_3_G_D_0_P_15" data-name=" R G L 3 G D 0 P 15" class="cls-1" d="M464.32,321c-1.83-.04-3.14-.56-3.93-1.59-.79-1.03-1.18-2.27-1.18-3.74,0-2.31.72-4.61,2.17-6.9s3.13-3.53,5.03-3.72c.84,0,1.56.4,2.14,1.18.59.79.88,2.08.88,3.87v.8c0,.24-.08.43-.25.58-.17.14-.38.22-.63.22-.22-.04-.39-.13-.52-.28-.13-.14-.2-.31-.2-.49v-.99c0-1.98-.44-2.97-1.32-2.97h-.17c-1.14.26-2.25,1.34-3.35,3.24-1.1,1.9-1.65,3.74-1.65,5.5,0,2.27,1.15,3.45,3.46,3.52,1.54,0,3.22-.51,5.06-1.54,1.83-1.03,3.56-2.23,5.2-3.6,1.63-1.38,2.94-2.63,3.93-3.77.18-.18.38-.28.6-.28.18,0,.37.08.55.25s.28.35.28.58c0,.18-.07.37-.22.55-1.21,1.35-2.69,2.77-4.45,4.24-1.76,1.47-3.65,2.72-5.66,3.77-2.01,1.04-3.94,1.56-5.77,1.56h-.01Z"/>
        <path id="_R_G_L_3_G_D_0_P_16" data-name=" R G L 3 G D 0 P 16" class="cls-1" d="M482.2,321h-.28c-2.2-.14-3.3-2.22-3.3-6.21,0-2.01.3-4.55.88-7.59.14-.62.53-.93,1.15-.93.25,0,.49.08.69.25s.3.39.3.69v.22c-.62,3.19-.93,5.76-.93,7.7,0,2.49.53,3.87,1.59,4.12l.49.06c1.32,0,2.94-.8,4.87-2.39,1.93-1.59,3.98-3.75,6.19-6.46.18-.22.41-.33.66-.33.14,0,.31.07.49.2.18.13.28.3.28.52,0,.18-.07.37-.22.55-2.42,2.93-4.77,5.27-7.04,7.01-2.27,1.75-4.22,2.61-5.83,2.61h0ZM480.99,304.23c-.41,0-.66-.59-.77-1.76.04-.22.07-.47.11-.75s.17-.49.38-.63.44-.22.66-.22c.3,0,.54.08.75.25s.3.41.3.75v.11c-.48,1.51-.96,2.25-1.43,2.25h0Z"/>
        <path id="_R_G_L_3_G_D_0_P_17" data-name=" R G L 3 G D 0 P 17" class="cls-1" d="M493.75,344.92c-.25,0-.49-.11-.72-.33-.22-.22-.33-.48-.33-.77v-4.35c0-17.09.7-28.88,2.09-35.37.66-3.19,1.56-4.79,2.69-4.79.59,0,1.04.26,1.38.77.11.18.17.38.17.61,0,.33-.14.62-.44.88-.18.14-.37.22-.55.22l-.33-.06c-1.32,2.64-2.22,10.97-2.69,24.97.92-5.83,2.24-10.98,3.96-15.46.96-2.24,2.01-3.87,3.16-4.9,1.16-1.03,2.25-1.54,3.27-1.54,1.1,0,2.04.52,2.8,1.56s1.15,2.47,1.15,4.27c0,.96-.13,2-.38,3.14,4-1.98,7.26-3.22,9.79-3.74h.17c.25,0,.45.08.58.25s.2.35.2.58c0,.44-.22.7-.66.77-2.49.48-6.07,1.89-10.73,4.24-.7,1.94-1.72,3.72-3.08,5.34-1.69,1.94-3.21,2.91-4.56,2.91-1.06,0-1.65-.59-1.76-1.76,0-.7.29-1.49.88-2.39.59-.9,1.54-1.8,2.86-2.72,1.14-.73,2.37-1.46,3.69-2.2.59-1.65.88-3.1.88-4.35,0-2.42-.8-3.7-2.42-3.85-.7,0-1.45.38-2.25,1.15-.8.77-1.58,2.01-2.31,3.74-1.83,4.8-3.19,10.6-4.07,17.38-.88,6.79-1.32,11.59-1.32,14.41v.28c0,.29-.11.55-.33.77-.22.22-.48.33-.77.33h-.02ZM500.95,322.04c.41,0,1.28-.73,2.64-2.2.55-.62,1.08-1.39,1.59-2.31l-1.65,1.04c-.99.7-1.72,1.33-2.17,1.9-.46.57-.69,1-.69,1.29,0,.18.09.28.28.28h0Z"/>
        <path id="_R_G_L_3_G_D_0_P_18" data-name=" R G L 3 G D 0 P 18" class="cls-1" d="M519.1,321.28c-.3-.04-.54-.17-.75-.38-.2-.22-.3-.46-.3-.72l.55-14.08c0-.29.11-.54.33-.75.22-.2.48-.3.77-.3s.54.11.75.33c.2.22.3.48.3.77l-.33,8.36c.18-.55.58-1.56,1.18-3.05.61-1.48,1.34-2.93,2.2-4.32.86-1.39,1.72-2.09,2.56-2.09.59,0,1.12.37,1.59,1.1.33.51.65,1.11.96,1.79.31.68.66,1.29,1.04,1.84.38.55.85.83,1.41.83.7,0,1.58-.64,2.64-1.93.22-.18.42-.28.6-.28s.33.06.44.17c.11.11.17.24.17.38,0,.18-.09.38-.28.61-1.83,1.8-3.3,2.69-4.4,2.69-.8,0-1.48-.32-2.01-.96-.53-.64-.98-1.31-1.35-2.01-.48-.92-.92-1.43-1.32-1.54-.59,0-1.25.82-1.98,2.45s-1.42,3.38-2.06,5.25c-.64,1.87-1.13,3.34-1.46,4.4-.11.3-.2.53-.25.72-.06.18-.17.35-.35.49-.18.14-.41.22-.66.22h0Z"/>
        <path id="_R_G_L_3_G_D_0_P_19" data-name=" R G L 3 G D 0 P 19" class="cls-1" d="M540.33,320.95h-.22c-.92-.18-1.68-.9-2.28-2.14-.61-1.25-.91-2.82-.91-4.73v-.44c-.73-.48-1.1-1.35-1.1-2.64,0-.84.17-1.73.52-2.67.35-.93.87-1.72,1.56-2.37.7-.64,1.59-.96,2.69-.96l.83.06c2.46.48,3.69,2.53,3.69,6.16,0,1.35-.14,2.59-.44,3.69,1.58-.25,2.98-.8,4.21-1.62,1.22-.83,2.41-1.8,3.55-2.94.18-.18.38-.28.61-.28.18,0,.35.09.52.28s.25.37.25.55c0,.22-.09.42-.28.6-1.32,1.32-2.73,2.45-4.24,3.38-1.51.93-3.19,1.51-5.06,1.73-1.14,2.9-2.44,4.35-3.9,4.35h0ZM543.03,315c.33-1.1.49-2.37.49-3.8,0-2.72-.84-4.16-2.53-4.35-.88,0-1.7.66-2.48,1.98.22.07.41.21.58.41.17.2.25.45.25.75-.18,1.39-.28,2.62-.28,3.69,1.03.88,2.35,1.32,3.96,1.32ZM540.55,318.91c.73,0,1.39-.77,1.98-2.31-1.14,0-2.25-.29-3.35-.88.14,2.06.6,3.11,1.38,3.19Z"/>
        <path id="_R_G_L_3_G_D_0_P_20" data-name=" R G L 3 G D 0 P 20" class="cls-1" d="M556.22,321c-1.83-.04-3.14-.56-3.93-1.59-.79-1.03-1.18-2.27-1.18-3.74,0-2.31.72-4.61,2.17-6.9s3.13-3.53,5.03-3.72c.84,0,1.56.4,2.14,1.18.59.79.88,2.08.88,3.87v.8c0,.24-.08.43-.25.58-.17.14-.38.22-.63.22-.22-.04-.39-.13-.52-.28s-.2-.31-.2-.49v-.99c0-1.98-.44-2.97-1.32-2.97h-.17c-1.14.26-2.25,1.34-3.35,3.24-1.1,1.9-1.65,3.74-1.65,5.5,0,2.27,1.15,3.45,3.46,3.52,1.54,0,3.22-.51,5.06-1.54,1.83-1.03,3.56-2.23,5.2-3.6,1.63-1.38,2.94-2.63,3.93-3.77.18-.18.38-.28.6-.28.18,0,.37.08.55.25s.28.35.28.58c0,.18-.07.37-.22.55-1.21,1.35-2.69,2.77-4.45,4.24-1.76,1.47-3.65,2.72-5.66,3.77-2.01,1.04-3.94,1.56-5.77,1.56h-.01Z"/>
        <path id="_R_G_L_3_G_D_0_P_21" data-name=" R G L 3 G D 0 P 21" class="cls-1" d="M574.1,321h-.28c-2.2-.14-3.3-2.22-3.3-6.21,0-2.01.3-4.55.88-7.59.14-.62.53-.93,1.15-.93.25,0,.49.08.69.25.2.17.3.39.3.69v.22c-.62,3.19-.93,5.76-.93,7.7,0,2.49.53,3.87,1.59,4.12l.49.06c1.32,0,2.94-.8,4.87-2.39,1.93-1.59,3.98-3.75,6.19-6.46.18-.22.41-.33.66-.33.14,0,.31.07.49.2.18.13.28.3.28.52,0,.18-.07.37-.22.55-2.42,2.93-4.77,5.27-7.04,7.01-2.27,1.75-4.22,2.61-5.83,2.61h0ZM572.89,304.23c-.41,0-.66-.59-.77-1.76.04-.22.07-.47.11-.75s.17-.49.38-.63.44-.22.66-.22c.3,0,.54.08.75.25.2.17.3.41.3.75v.11c-.48,1.51-.96,2.25-1.43,2.25h0Z"/>
        <path id="_R_G_L_3_G_D_0_P_22" data-name=" R G L 3 G D 0 P 22" class="cls-1" d="M599.23,344.49h-.49c-1.28-.18-2.07-1.7-2.37-4.56-.18-1.58-.28-3.5-.28-5.77.14-9.09.84-18.71,2.09-28.88-2.46,4.29-4.79,7.74-6.98,10.34-2.97,3.59-5.22,5.39-6.76,5.39-.99-.11-1.48-.86-1.48-2.25,0-1.46.46-3.27,1.38-5.39.92-2.12,2.07-4.03,3.46-5.69s2.82-2.51,4.29-2.51c.51,0,.98.13,1.41.38.42.26.63.59.63.99,0,.14-.04.31-.11.49-.25.37-.57.55-.93.55-.18,0-.35-.04-.52-.14-.17-.09-.35-.14-.58-.14-.96,0-1.97.76-3.05,2.28-1.08,1.52-2.01,3.18-2.8,4.98-.79,1.8-1.18,3.1-1.18,3.9.04.44.17.66.38.66.66,0,2.22-1.5,4.68-4.51,3.04-3.81,5.98-8.42,8.8-13.8.55-4,1.35-8.23,2.42-12.7,1.54-6.63,3.08-9.96,4.62-9.96.91.14,1.38,1.01,1.38,2.59,0,2.93-1.3,7.61-3.9,14.02-.96,2.35-1.69,4.03-2.2,5.06-1.72,11.99-2.68,23.41-2.86,34.26,0,2.2.09,4.08.28,5.66s.31,2.44.38,2.59h.11c.25,0,.49.09.72.28.22.18.33.44.33.77,0,.55-.28.92-.83,1.1h-.01ZM602.15,293.62c.22-.55.59-1.62,1.13-3.19.53-1.58,1.04-3.19,1.54-4.84.49-1.65.75-2.79.75-3.41,0-.22-.04-.35-.11-.38-.41.07-1.03,1.82-1.87,5.22-.66,2.72-1.14,4.91-1.43,6.6h-.01Z"/>
        <path id="_R_G_L_3_G_D_0_P_23" data-name=" R G L 3 G D 0 P 23" class="cls-1" d="M616.34,321c-2.64,0-3.96-2.07-3.96-6.21l.11-1.93-.66.83-1.32,1.59c-2.09,2.56-3.83,3.85-5.22,3.85-1.17,0-1.77-.93-1.82-2.8,0-1.46.51-3.3,1.54-5.5.8-1.62,1.85-3.01,3.14-4.18,1.28-1.17,2.73-1.76,4.35-1.76.8,0,1.63.2,2.48.61.41.25.6.59.6.99,0,.14-.04.3-.11.44-.26.41-.59.6-.99.6l-.44-.11c-.48-.22-.96-.33-1.43-.33-1.17,0-2.25.49-3.24,1.46s-1.82,2.08-2.48,3.32c-.85,1.72-1.27,3.06-1.27,4.01,0,.73.24,1.14.72,1.21.66,0,1.74-.9,3.24-2.69.88-1.14,1.67-2.2,2.37-3.19.41-.59.72-1.04.93-1.35s.46-.58.72-.8.51-.33.77-.33c.37,0,.59.38.66,1.15l-.11,1.32c-.22,1.47-.33,2.6-.33,3.41,0,2.9.91,4.35,2.75,4.35,2.01,0,5.02-1.67,9.02-5l4.18-3.69c.14-.14.31-.22.49-.22.22,0,.41.08.58.25.17.17.25.35.25.58,0,.41-1.51,1.85-4.51,4.35-4.66,3.85-8.32,5.77-11,5.77h0Z"/>
        <path id="_R_G_L_3_G_D_0_P_24" data-name=" R G L 3 G D 0 P 24" class="cls-1" d="M643.84,344.49h-.49c-1.28-.18-2.07-1.7-2.37-4.56-.18-1.58-.28-3.5-.28-5.77.14-9.09.84-18.71,2.09-28.88-2.46,4.29-4.79,7.74-6.98,10.34-2.97,3.59-5.22,5.39-6.76,5.39-.99-.11-1.48-.86-1.48-2.25,0-1.46.46-3.27,1.38-5.39s2.07-4.03,3.46-5.69c1.39-1.67,2.82-2.51,4.29-2.51.51,0,.98.13,1.41.38.42.26.63.59.63.99,0,.14-.04.31-.11.49-.25.37-.57.55-.93.55-.18,0-.35-.04-.52-.14-.17-.09-.35-.14-.58-.14-.96,0-1.97.76-3.05,2.28-1.08,1.52-2.01,3.18-2.8,4.98-.79,1.8-1.18,3.1-1.18,3.9.04.44.17.66.38.66.66,0,2.22-1.5,4.68-4.51,3.04-3.81,5.98-8.42,8.8-13.8.55-4,1.35-8.23,2.42-12.7,1.54-6.63,3.08-9.96,4.62-9.96.91.14,1.38,1.01,1.38,2.59,0,2.93-1.3,7.61-3.9,14.02-.96,2.35-1.69,4.03-2.2,5.06-1.72,11.99-2.68,23.41-2.86,34.26,0,2.2.09,4.08.28,5.66s.31,2.44.38,2.59h.11c.25,0,.49.09.72.28.22.18.33.44.33.77,0,.55-.28.92-.83,1.1h-.01ZM646.75,293.62c.22-.55.59-1.62,1.13-3.19.53-1.58,1.04-3.19,1.54-4.84.49-1.65.75-2.79.75-3.41,0-.22-.04-.35-.11-.38-.41.07-1.03,1.82-1.87,5.22-.66,2.72-1.14,4.91-1.43,6.6h-.01Z"/>
        <path id="_R_G_L_3_G_D_1_P_0" data-name=" R G L 3 G D 1 P 0" class="cls-1" d="M129.4,344.1c-.85,0-1.67-.11-2.48-.33-3.59-1.14-6.19-3.41-7.78-6.82-1.59-3.41-2.39-7.41-2.39-11.99s.7-9.55,2.09-14.66c1.39-5.11,3.27-9.88,5.61-14.3,2.35-4.42,5.03-8.02,8.03-10.81,3.01-2.79,6.12-4.18,9.35-4.18.8,0,1.62.09,2.42.28,1.28.33,2.3,1.15,3.05,2.48.75,1.32,1.13,3.11,1.13,5.39,0,2.93-.73,6.63-2.2,11.11-.73,2.13-1.51,3.87-2.34,5.22-.83,1.35-1.44,2.04-1.84,2.04-.48-.04-.72-.53-.72-1.48s.24-2.24.72-3.96c.22-.51.56-.77,1.04-.77l.55.17c.51-1.06,1.14-2.91,1.9-5.56.75-2.64,1.13-5.17,1.13-7.59,0-1.39-.2-2.59-.61-3.58-.59-1.58-1.93-2.37-4.01-2.37-2.64,0-5.32,1.41-8.05,4.24-2.73,2.82-5.22,6.43-7.48,10.83-2.25,4.4-4.08,9.12-5.48,14.16-1.39,5.04-2.09,9.8-2.09,14.28,0,3.96.67,7.39,2.01,10.31,1.34,2.91,3.53,4.89,6.57,5.91.73.22,1.5.33,2.31.33,2.27,0,4.7-.8,7.29-2.42,2.59-1.62,5.15-3.69,7.7-6.21,2.55-2.53,4.94-5.24,7.18-8.11,2.24-2.88,4.18-5.63,5.83-8.28,1.65-2.64,2.86-4.86,3.63-6.66.14-.33.38-.49.72-.49.11,0,.23.03.35.08.13.06.24.16.33.3.09.14.14.3.14.44l-.06.28c-.85,1.98-2.14,4.35-3.87,7.12-1.75,2.77-3.79,5.63-6.13,8.58-2.35,2.95-4.87,5.72-7.56,8.31s-5.41,4.69-8.14,6.29c-2.73,1.62-5.35,2.42-7.84,2.42Z"/>
        <path id="_R_G_L_3_G_D_1_P_1" data-name=" R G L 3 G D 1 P 1" class="cls-1" d="M164.98,320.95h-.22c-.92-.18-1.68-.9-2.28-2.14-.61-1.25-.91-2.82-.91-4.73v-.44c-.73-.48-1.1-1.35-1.1-2.64,0-.84.17-1.73.52-2.67s.87-1.72,1.56-2.37,1.59-.96,2.69-.96l.83.06c2.46.48,3.69,2.53,3.69,6.16,0,1.35-.14,2.59-.44,3.69,1.58-.25,2.98-.8,4.21-1.62,1.22-.83,2.41-1.8,3.55-2.94.18-.18.38-.28.61-.28.18,0,.35.09.52.28.17.18.25.37.25.55,0,.22-.09.42-.28.6-1.32,1.32-2.73,2.45-4.24,3.38-1.51.93-3.19,1.51-5.06,1.73-1.14,2.9-2.44,4.35-3.9,4.35h0ZM167.67,315c.33-1.1.49-2.37.49-3.8,0-2.72-.84-4.16-2.53-4.35-.88,0-1.7.66-2.48,1.98.22.07.41.21.58.41.17.2.25.45.25.75-.18,1.39-.28,2.62-.28,3.69,1.03.88,2.35,1.32,3.96,1.32ZM165.2,318.91c.73,0,1.39-.77,1.98-2.31-1.14,0-2.25-.29-3.35-.88.14,2.06.61,3.11,1.38,3.19Z"/>
        <path id="_R_G_L_3_G_D_1_P_2" data-name=" R G L 3 G D 1 P 2" class="cls-1" d="M180.32,336.18h-.22c-2.82-.41-4.24-4.27-4.24-11.6,0-4.18.35-8.58,1.04-13.2,1.25-9.02,2.82-17.22,4.73-24.58,1.03-3.89,2.06-6.79,3.11-8.72,1.04-1.93,1.88-2.89,2.51-2.89s1.01.9,1.04,2.69c0,4.66-2.88,14.61-8.63,29.86-.11.3-.33,1.59-.66,3.9-.66,4.73-.99,9.11-.99,13.15,0,5.53.83,8.63,2.48,9.29l.61.11c1.32,0,2.85-1.03,4.59-3.08,1.74-2.05,3.46-4.48,5.17-7.26,1.7-2.79,3.2-5.41,4.48-7.87,1.28-2.46,2.14-4.2,2.59-5.22.18-.33.44-.49.77-.49.51.14.77.42.77.83l-.06.33c-2.01,4.55-4.64,9.33-7.87,14.35-4.44,6.93-8.18,10.39-11.22,10.39ZM181.09,299.06c1.39-3.93,2.67-7.88,3.85-11.88,1.14-4.48,1.7-7.15,1.7-8.03,0-.22-.04-.33-.11-.33-.3,0-1.21,2.79-2.75,8.36-.92,3.52-1.82,7.48-2.69,11.88h0Z"/>
        <path id="_R_G_L_3_G_D_1_P_3" data-name=" R G L 3 G D 1 P 3" class="cls-1" d="M209.14,321c-2.64,0-3.96-2.07-3.96-6.21l.11-1.93-.66.83-1.32,1.59c-2.09,2.56-3.83,3.85-5.22,3.85-1.17,0-1.77-.93-1.82-2.8,0-1.46.51-3.3,1.54-5.5.8-1.62,1.85-3.01,3.14-4.18s2.73-1.76,4.35-1.76c.8,0,1.63.2,2.48.61.41.25.6.59.6.99,0,.14-.04.3-.11.44-.26.41-.59.6-.99.6l-.44-.11c-.48-.22-.96-.33-1.43-.33-1.17,0-2.25.49-3.24,1.46-.99.97-1.82,2.08-2.48,3.32-.85,1.72-1.27,3.06-1.27,4.01,0,.73.24,1.14.72,1.21.66,0,1.74-.9,3.24-2.69.88-1.14,1.67-2.2,2.37-3.19.41-.59.72-1.04.93-1.35.22-.31.46-.58.72-.8.26-.22.51-.33.77-.33.37,0,.59.38.66,1.15l-.11,1.32c-.22,1.47-.33,2.6-.33,3.41,0,2.9.91,4.35,2.75,4.35,2.01,0,5.02-1.67,9.02-5l4.18-3.69c.14-.14.31-.22.49-.22.22,0,.41.08.58.25.17.17.25.35.25.58,0,.41-1.51,1.85-4.51,4.35-4.66,3.85-8.32,5.77-11,5.77h0Z"/>
        <path id="_R_G_L_3_G_D_1_P_4" data-name=" R G L 3 G D 1 P 4" class="cls-1" d="M222.06,330.63c-1.98,0-3.04-1.06-3.19-3.19,0-1.06.44-2.21,1.32-3.44.88-1.23,2.29-2.3,4.24-3.22l.17-.06c2.17-.88,4.45-1.56,6.87-2.04.25-.7.52-1.69.8-3,.28-1.3.41-2.56.41-3.77,0-1.87-.46-3.01-1.38-3.41l-.49-.11c-.92,0-1.93.72-3.03,2.17s-2.09,3.44-2.97,5.97c0,.3-.12.51-.35.66-.24.14-.51.22-.8.22-.25,0-.51-.07-.75-.22-.24-.14-.35-.38-.35-.72,1.32-13.78,2.97-24.7,4.95-32.72,1.1-4.55,2.25-6.95,3.46-7.21.84,0,1.27.85,1.27,2.53,0,4.03-1.9,12.25-5.72,24.64l-.61,1.98-.6,5.72c1.87-3.27,3.81-4.9,5.83-4.9h.33c2.17.37,3.24,2.31,3.24,5.83,0,1.8-.28,3.74-.83,5.83,2.35-.48,4.3-1.27,5.86-2.37,1.56-1.1,3.03-2.88,4.43-5.34.18-.25.41-.38.66-.38.14,0,.3.04.44.11.25.18.38.41.38.66,0,.14-.04.3-.11.44-1.69,2.9-3.48,4.93-5.39,6.11-1.9,1.17-4.2,2.01-6.87,2.53-.99,2.82-2.72,5.39-5.17,7.7-2.24,1.98-4.25,2.97-6.05,2.97v.02ZM222.17,328.48c1.21,0,2.75-.83,4.62-2.48,1.72-1.65,3.04-3.48,3.96-5.5-1.98.41-3.82.97-5.5,1.7l-.17.06c-1.51.7-2.6,1.51-3.3,2.42-.7.92-1.04,1.7-1.04,2.37,0,.85.48,1.32,1.43,1.43ZM227.67,293.39c1.9-7.08,2.91-11.83,3.03-14.25-.92,2.13-1.83,6.29-2.75,12.49l-.28,1.76Z"/>
        <path id="_R_G_L_3_G_D_1_P_5" data-name=" R G L 3 G D 1 P 5" class="cls-1" d="M247.69,320.95h-.22c-.92-.18-1.68-.9-2.28-2.14-.61-1.25-.91-2.82-.91-4.73v-.44c-.73-.48-1.1-1.35-1.1-2.64,0-.84.17-1.73.52-2.67.35-.93.87-1.72,1.56-2.37.7-.64,1.59-.96,2.69-.96l.83.06c2.46.48,3.69,2.53,3.69,6.16,0,1.35-.14,2.59-.44,3.69,1.58-.25,2.98-.8,4.21-1.62,1.22-.83,2.41-1.8,3.55-2.94.18-.18.38-.28.61-.28.18,0,.35.09.52.28s.25.37.25.55c0,.22-.09.42-.28.6-1.32,1.32-2.73,2.45-4.24,3.38-1.51.93-3.19,1.51-5.06,1.73-1.14,2.9-2.44,4.35-3.9,4.35h0ZM250.38,315c.33-1.1.49-2.37.49-3.8,0-2.72-.84-4.16-2.53-4.35-.88,0-1.7.66-2.48,1.98.22.07.41.21.58.41.17.2.25.45.25.75-.18,1.39-.28,2.62-.28,3.69,1.03.88,2.35,1.32,3.96,1.32ZM247.91,318.91c.73,0,1.39-.77,1.98-2.31-1.14,0-2.25-.29-3.35-.88.14,2.06.6,3.11,1.38,3.19Z"/>
        <path id="_R_G_L_3_G_D_1_P_6" data-name=" R G L 3 G D 1 P 6" class="cls-1" d="M260.51,321.28c-.3-.04-.54-.17-.75-.38-.2-.22-.3-.46-.3-.72l.55-14.08c0-.29.11-.54.33-.75.22-.2.48-.3.77-.3s.54.11.75.33c.2.22.3.48.3.77l-.33,8.36c.18-.55.58-1.56,1.18-3.05.61-1.48,1.34-2.93,2.2-4.32.86-1.39,1.72-2.09,2.56-2.09.59,0,1.12.37,1.59,1.1.33.51.65,1.11.96,1.79.31.68.66,1.29,1.04,1.84.38.55.85.83,1.41.83.7,0,1.58-.64,2.64-1.93.22-.18.42-.28.6-.28s.33.06.44.17.17.24.17.38c0,.18-.09.38-.28.61-1.83,1.8-3.3,2.69-4.4,2.69-.8,0-1.48-.32-2.01-.96-.53-.64-.98-1.31-1.35-2.01-.48-.92-.92-1.43-1.32-1.54-.59,0-1.25.82-1.98,2.45-.73,1.63-1.42,3.38-2.06,5.25-.64,1.87-1.13,3.34-1.46,4.4-.11.3-.2.53-.25.72-.06.18-.17.35-.35.49-.18.14-.41.22-.66.22h0Z"/>
        <path id="_R_G_L_3_G_D_1_P_7" data-name=" R G L 3 G D 1 P 7" class="cls-1" d="M289.38,321c-2.64,0-3.96-2.07-3.96-6.21l.11-1.93-.66.83-1.32,1.59c-2.09,2.56-3.83,3.85-5.22,3.85-1.17,0-1.77-.93-1.82-2.8,0-1.46.51-3.3,1.54-5.5.8-1.62,1.85-3.01,3.14-4.18,1.28-1.17,2.73-1.76,4.35-1.76.8,0,1.63.2,2.48.61.41.25.6.59.6.99,0,.14-.04.3-.11.44-.26.41-.59.6-.99.6l-.44-.11c-.48-.22-.96-.33-1.43-.33-1.17,0-2.25.49-3.24,1.46-.99.97-1.82,2.08-2.48,3.32-.85,1.72-1.27,3.06-1.27,4.01,0,.73.24,1.14.72,1.21.66,0,1.74-.9,3.24-2.69.88-1.14,1.67-2.2,2.37-3.19.41-.59.72-1.04.93-1.35.22-.31.46-.58.72-.8s.51-.33.77-.33c.37,0,.59.38.66,1.15l-.11,1.32c-.22,1.47-.33,2.6-.33,3.41,0,2.9.91,4.35,2.75,4.35,2.01,0,5.02-1.67,9.02-5l4.18-3.69c.14-.14.31-.22.49-.22.22,0,.41.08.58.25.17.17.25.35.25.58,0,.41-1.51,1.85-4.51,4.35-4.66,3.85-8.32,5.77-11,5.77h0Z"/>
        <path id="_R_G_L_3_G_D_1_P_8" data-name=" R G L 3 G D 1 P 8" class="cls-1" d="M307.31,321c-1.83-.04-3.14-.56-3.93-1.59-.79-1.03-1.18-2.27-1.18-3.74,0-2.31.72-4.61,2.17-6.9,1.45-2.29,3.13-3.53,5.03-3.72.84,0,1.56.4,2.14,1.18.59.79.88,2.08.88,3.87v.8c0,.24-.08.43-.25.58s-.38.22-.63.22c-.22-.04-.39-.13-.52-.28s-.2-.31-.2-.49v-.99c0-1.98-.44-2.97-1.32-2.97h-.17c-1.14.26-2.25,1.34-3.35,3.24-1.1,1.9-1.65,3.74-1.65,5.5,0,2.27,1.15,3.45,3.46,3.52,1.54,0,3.22-.51,5.06-1.54,1.83-1.03,3.56-2.23,5.2-3.6,1.63-1.38,2.94-2.63,3.93-3.77.18-.18.38-.28.6-.28.18,0,.37.08.55.25s.28.35.28.58c0,.18-.07.37-.22.55-1.21,1.35-2.69,2.77-4.45,4.24-1.76,1.47-3.65,2.72-5.66,3.77s-3.94,1.56-5.77,1.56h-.01Z"/>
        <path id="_R_G_L_3_G_D_1_P_9" data-name=" R G L 3 G D 1 P 9" class="cls-1" d="M325.18,321h-.28c-2.2-.14-3.3-2.22-3.3-6.21,0-2.01.3-4.55.88-7.59.14-.62.53-.93,1.15-.93.25,0,.49.08.69.25.2.17.3.39.3.69v.22c-.62,3.19-.93,5.76-.93,7.7,0,2.49.53,3.87,1.59,4.12l.49.06c1.32,0,2.94-.8,4.87-2.39,1.93-1.59,3.98-3.75,6.19-6.46.18-.22.41-.33.66-.33.14,0,.31.07.49.2.18.13.28.3.28.52,0,.18-.07.37-.22.55-2.42,2.93-4.77,5.27-7.04,7.01-2.27,1.75-4.22,2.61-5.83,2.61h0ZM323.98,304.23c-.41,0-.66-.59-.77-1.76.04-.22.07-.47.11-.75.04-.28.17-.49.38-.63.22-.14.44-.22.66-.22.3,0,.54.08.75.25s.3.41.3.75v.11c-.48,1.51-.96,2.25-1.43,2.25h0Z"/>
        <path id="_R_G_L_3_G_D_1_P_10" data-name=" R G L 3 G D 1 P 10" class="cls-1" d="M340.36,320.95h-.22c-.92-.18-1.68-.9-2.28-2.14-.61-1.25-.91-2.82-.91-4.73v-.44c-.73-.48-1.1-1.35-1.1-2.64,0-.84.17-1.73.52-2.67.35-.93.87-1.72,1.56-2.37s1.59-.96,2.69-.96l.83.06c2.46.48,3.69,2.53,3.69,6.16,0,1.35-.14,2.59-.44,3.69,1.58-.25,2.98-.8,4.21-1.62,1.22-.83,2.41-1.8,3.55-2.94.18-.18.38-.28.61-.28.18,0,.35.09.52.28.17.18.25.37.25.55,0,.22-.09.42-.28.6-1.32,1.32-2.73,2.45-4.24,3.38-1.51.93-3.19,1.51-5.06,1.73-1.14,2.9-2.44,4.35-3.9,4.35h0ZM336.84,300.76c-.22,0-.39-.07-.52-.2s-.2-.27-.2-.41c0-.29.22-.56.66-.83,5.61-2.56,8.54-3.89,8.8-3.96.41,0,.73.22.99.66.07.14.11.31.11.49,0,.37-.2.68-.6.93-6.01,2.2-9.1,3.3-9.24,3.3h0ZM343.05,315c.33-1.1.49-2.37.49-3.8,0-2.72-.84-4.16-2.53-4.35-.88,0-1.7.66-2.48,1.98.22.07.41.21.58.41.17.2.25.45.25.75-.18,1.39-.28,2.62-.28,3.69,1.03.88,2.35,1.32,3.96,1.32ZM340.58,318.91c.73,0,1.39-.77,1.98-2.31-1.14,0-2.25-.29-3.35-.88.14,2.06.6,3.11,1.38,3.19Z"/>
        <path id="_R_G_L_3_G_D_1_P_11" data-name=" R G L 3 G D 1 P 11" class="cls-1" d="M366.32,321h-.17c-1.87-.3-3.09-1.59-3.66-3.87s-.91-4.52-1.01-6.68c-.04-.91-.1-1.67-.2-2.25-.09-.59-.23-.88-.41-.88-.66.11-1.93,1.98-3.8,5.61-1.8,3.48-2.82,5.81-3.08,6.98-.04.37-.17.63-.38.8-.22.17-.46.25-.72.25s-.49-.08-.72-.25c-.22-.17-.33-.41-.33-.75l.77-13.91c.04-.25.15-.48.35-.66s.47-.28.8-.28c.3.04.53.16.72.35.18.2.28.43.28.69l-.55,9.24c3.01-6.56,5.37-9.92,7.1-10.07.62,0,1.1.31,1.43.93.51,1.03.92,2.97,1.21,5.83.14,1.8.41,3.43.77,4.9.37,1.47,1.04,2.22,2.04,2.25,1.72,0,4.84-2.95,9.35-8.86.18-.22.41-.33.66-.33.18,0,.35.07.52.22s.25.35.25.61c0,.18-.04.35-.11.49-4.87,6.42-8.58,9.63-11.11,9.63h.01Z"/>
        <path id="_R_G_L_3_G_D_1_P_12" data-name=" R G L 3 G D 1 P 12" class="cls-1" d="M387.66,351.47c-1.1,0-2.03-.48-2.77-1.43-.75-.96-1.13-2.33-1.13-4.12,0-3.34,1.35-7.35,4.07-12.04,2.31-4,5.3-7.92,8.97-11.77v-1.65c0-3.63-.11-6.98-.33-10.07-.62,2.13-1.41,4.16-2.37,6.11s-2.04,3.17-3.24,3.69c-.25.07-.51.11-.77.11-.85,0-1.48-.47-1.9-1.41-.42-.93-.72-2.09-.88-3.46-.17-1.38-.25-2.69-.25-3.93,0-1.65.04-2.9.11-3.74.07-.84.46-1.27,1.15-1.27.3.04.54.17.75.38s.3.48.3.77c-.07.85-.11,2.06-.11,3.63,0,4.73.48,7.09,1.43,7.09.51-.04,1.1-.7,1.76-1.98,1.06-2.17,2.09-5.02,3.08-8.58.37-1.32.56-2.15.58-2.5.01-.35.12-.62.3-.83.18-.2.44-.3.77-.3.3,0,.54.09.75.28s.32.43.35.75c.04.31.07.69.11,1.13.37,4.8.55,9.06.55,12.76v.88l.06-.06c4.18-4.03,8.78-7.28,13.8-9.73l.33-.06c.33,0,.59.14.77.44l.06.33c0,.3-.14.53-.44.72-5.21,2.56-10.07,6.11-14.57,10.62-.04,5.5-.62,10.91-1.76,16.22-1.1,4.48-2.56,7.76-4.4,9.87-1.83,2.11-3.54,3.16-5.11,3.16h0ZM387.49,349.38c1.14,0,2.46-.93,3.96-2.8,1.51-1.87,2.73-4.75,3.69-8.63.88-4.32,1.41-8.8,1.59-13.42-3.04,3.38-5.56,6.75-7.53,10.12-2.64,4.66-3.96,8.42-3.96,11.28,0,2.27.75,3.43,2.25,3.46Z"/>
        <path id="_R_G_L_3_G_D_1_P_13" data-name=" R G L 3 G D 1 P 13" class="cls-1" d="M424.18,321.28c-.3-.04-.54-.17-.75-.38s-.3-.46-.3-.72l.55-14.08c0-.29.11-.54.33-.75.22-.2.48-.3.77-.3s.54.11.75.33c.2.22.3.48.3.77l-.33,8.36c.18-.55.58-1.56,1.18-3.05.61-1.48,1.34-2.93,2.2-4.32.86-1.39,1.72-2.09,2.56-2.09.59,0,1.12.37,1.59,1.1.33.51.65,1.11.96,1.79.31.68.66,1.29,1.04,1.84.38.55.85.83,1.41.83.7,0,1.58-.64,2.64-1.93.22-.18.42-.28.6-.28s.33.06.44.17c.11.11.17.24.17.38,0,.18-.09.38-.28.61-1.83,1.8-3.3,2.69-4.4,2.69-.8,0-1.48-.32-2.01-.96-.53-.64-.99-1.31-1.35-2.01-.48-.92-.92-1.43-1.32-1.54-.59,0-1.25.82-1.98,2.45-.73,1.63-1.42,3.38-2.06,5.25-.64,1.87-1.13,3.34-1.46,4.4-.11.3-.2.53-.25.72-.06.18-.17.35-.35.49-.18.14-.41.22-.66.22h0Z"/>
        <path id="_R_G_L_3_G_D_1_P_14" data-name=" R G L 3 G D 1 P 14" class="cls-1" d="M446.45,321c-2.13,0-3.76-.64-4.9-1.93-.73-.88-1.1-2.01-1.1-3.41,0-1.21.33-2.64.99-4.29.92-2.2,2.31-3.93,4.18-5.17l.28-.22c1.25-.7,2.35-1.04,3.3-1.04,1.46,0,2.27.62,2.42,1.87,0,1.28-1.14,2.62-3.41,4.01-1.83,1.06-3.38,1.59-4.62,1.59h-.28c-.44,1.17-.66,2.17-.66,2.97,0,.88.2,1.59.61,2.11s.96.92,1.65,1.15c.7.24,1.43.35,2.2.35,1.65,0,3.32-.49,5.03-1.46,1.7-.97,3.28-2.11,4.73-3.44,1.45-1.32,2.65-2.56,3.6-3.74.18-.22.38-.33.6-.33.18,0,.35.08.52.25.17.17.25.35.25.58,0,.18-.06.35-.17.49-1.1,1.39-2.48,2.82-4.12,4.29-1.65,1.47-3.44,2.72-5.36,3.77-1.93,1.04-3.84,1.56-5.75,1.56v.02ZM444.14,310.77l.38-.11c.91-.22,1.87-.62,2.86-1.21,1.58-.99,2.37-1.67,2.37-2.04,0-.22-.18-.33-.55-.33-.48,0-1.28.3-2.42.88-1.03.73-1.9,1.67-2.64,2.8h0Z"/>
        <path id="_R_G_L_3_G_D_1_P_15" data-name=" R G L 3 G D 1 P 15" class="cls-1" d="M464.32,321c-1.83-.04-3.14-.56-3.93-1.59-.79-1.03-1.18-2.27-1.18-3.74,0-2.31.72-4.61,2.17-6.9s3.13-3.53,5.03-3.72c.84,0,1.56.4,2.14,1.18.59.79.88,2.08.88,3.87v.8c0,.24-.08.43-.25.58-.17.14-.38.22-.63.22-.22-.04-.39-.13-.52-.28-.13-.14-.2-.31-.2-.49v-.99c0-1.98-.44-2.97-1.32-2.97h-.17c-1.14.26-2.25,1.34-3.35,3.24-1.1,1.9-1.65,3.74-1.65,5.5,0,2.27,1.15,3.45,3.46,3.52,1.54,0,3.22-.51,5.06-1.54,1.83-1.03,3.56-2.23,5.2-3.6,1.63-1.38,2.94-2.63,3.93-3.77.18-.18.38-.28.6-.28.18,0,.37.08.55.25s.28.35.28.58c0,.18-.07.37-.22.55-1.21,1.35-2.69,2.77-4.45,4.24-1.76,1.47-3.65,2.72-5.66,3.77-2.01,1.04-3.94,1.56-5.77,1.56h-.01Z"/>
        <path id="_R_G_L_3_G_D_1_P_16" data-name=" R G L 3 G D 1 P 16" class="cls-1" d="M482.2,321h-.28c-2.2-.14-3.3-2.22-3.3-6.21,0-2.01.3-4.55.88-7.59.14-.62.53-.93,1.15-.93.25,0,.49.08.69.25s.3.39.3.69v.22c-.62,3.19-.93,5.76-.93,7.7,0,2.49.53,3.87,1.59,4.12l.49.06c1.32,0,2.94-.8,4.87-2.39,1.93-1.59,3.98-3.75,6.19-6.46.18-.22.41-.33.66-.33.14,0,.31.07.49.2.18.13.28.3.28.52,0,.18-.07.37-.22.55-2.42,2.93-4.77,5.27-7.04,7.01-2.27,1.75-4.22,2.61-5.83,2.61h0ZM480.99,304.23c-.41,0-.66-.59-.77-1.76.04-.22.07-.47.11-.75s.17-.49.38-.63.44-.22.66-.22c.3,0,.54.08.75.25s.3.41.3.75v.11c-.48,1.51-.96,2.25-1.43,2.25h0Z"/>
        <path id="_R_G_L_3_G_D_1_P_17" data-name=" R G L 3 G D 1 P 17" class="cls-1" d="M493.75,344.92c-.25,0-.49-.11-.72-.33-.22-.22-.33-.48-.33-.77v-4.35c0-17.09.7-28.88,2.09-35.37.66-3.19,1.56-4.79,2.69-4.79.59,0,1.04.26,1.38.77.11.18.17.38.17.61,0,.33-.14.62-.44.88-.18.14-.37.22-.55.22l-.33-.06c-1.32,2.64-2.22,10.97-2.69,24.97.92-5.83,2.24-10.98,3.96-15.46.96-2.24,2.01-3.87,3.16-4.9,1.16-1.03,2.25-1.54,3.27-1.54,1.1,0,2.04.52,2.8,1.56s1.15,2.47,1.15,4.27c0,.96-.13,2-.38,3.14,4-1.98,7.26-3.22,9.79-3.74h.17c.25,0,.45.08.58.25s.2.35.2.58c0,.44-.22.7-.66.77-2.49.48-6.07,1.89-10.73,4.24-.7,1.94-1.72,3.72-3.08,5.34-1.69,1.94-3.21,2.91-4.56,2.91-1.06,0-1.65-.59-1.76-1.76,0-.7.29-1.49.88-2.39.59-.9,1.54-1.8,2.86-2.72,1.14-.73,2.37-1.46,3.69-2.2.59-1.65.88-3.1.88-4.35,0-2.42-.8-3.7-2.42-3.85-.7,0-1.45.38-2.25,1.15-.8.77-1.58,2.01-2.31,3.74-1.83,4.8-3.19,10.6-4.07,17.38-.88,6.79-1.32,11.59-1.32,14.41v.28c0,.29-.11.55-.33.77-.22.22-.48.33-.77.33h-.02ZM500.95,322.04c.41,0,1.28-.73,2.64-2.2.55-.62,1.08-1.39,1.59-2.31l-1.65,1.04c-.99.7-1.72,1.33-2.17,1.9-.46.57-.69,1-.69,1.29,0,.18.09.28.28.28h0Z"/>
        <path id="_R_G_L_3_G_D_1_P_18" data-name=" R G L 3 G D 1 P 18" class="cls-1" d="M519.1,321.28c-.3-.04-.54-.17-.75-.38-.2-.22-.3-.46-.3-.72l.55-14.08c0-.29.11-.54.33-.75.22-.2.48-.3.77-.3s.54.11.75.33c.2.22.3.48.3.77l-.33,8.36c.18-.55.58-1.56,1.18-3.05.61-1.48,1.34-2.93,2.2-4.32.86-1.39,1.72-2.09,2.56-2.09.59,0,1.12.37,1.59,1.1.33.51.65,1.11.96,1.79.31.68.66,1.29,1.04,1.84.38.55.85.83,1.41.83.7,0,1.58-.64,2.64-1.93.22-.18.42-.28.6-.28s.33.06.44.17c.11.11.17.24.17.38,0,.18-.09.38-.28.61-1.83,1.8-3.3,2.69-4.4,2.69-.8,0-1.48-.32-2.01-.96-.53-.64-.98-1.31-1.35-2.01-.48-.92-.92-1.43-1.32-1.54-.59,0-1.25.82-1.98,2.45s-1.42,3.38-2.06,5.25c-.64,1.87-1.13,3.34-1.46,4.4-.11.3-.2.53-.25.72-.06.18-.17.35-.35.49-.18.14-.41.22-.66.22h0Z"/>
        <path id="_R_G_L_3_G_D_1_P_19" data-name=" R G L 3 G D 1 P 19" class="cls-1" d="M540.33,320.95h-.22c-.92-.18-1.68-.9-2.28-2.14-.61-1.25-.91-2.82-.91-4.73v-.44c-.73-.48-1.1-1.35-1.1-2.64,0-.84.17-1.73.52-2.67.35-.93.87-1.72,1.56-2.37.7-.64,1.59-.96,2.69-.96l.83.06c2.46.48,3.69,2.53,3.69,6.16,0,1.35-.14,2.59-.44,3.69,1.58-.25,2.98-.8,4.21-1.62,1.22-.83,2.41-1.8,3.55-2.94.18-.18.38-.28.61-.28.18,0,.35.09.52.28s.25.37.25.55c0,.22-.09.42-.28.6-1.32,1.32-2.73,2.45-4.24,3.38-1.51.93-3.19,1.51-5.06,1.73-1.14,2.9-2.44,4.35-3.9,4.35h0ZM543.03,315c.33-1.1.49-2.37.49-3.8,0-2.72-.84-4.16-2.53-4.35-.88,0-1.7.66-2.48,1.98.22.07.41.21.58.41.17.2.25.45.25.75-.18,1.39-.28,2.62-.28,3.69,1.03.88,2.35,1.32,3.96,1.32ZM540.55,318.91c.73,0,1.39-.77,1.98-2.31-1.14,0-2.25-.29-3.35-.88.14,2.06.6,3.11,1.38,3.19Z"/>
        <path id="_R_G_L_3_G_D_1_P_20" data-name=" R G L 3 G D 1 P 20" class="cls-1" d="M556.22,321c-1.83-.04-3.14-.56-3.93-1.59-.79-1.03-1.18-2.27-1.18-3.74,0-2.31.72-4.61,2.17-6.9s3.13-3.53,5.03-3.72c.84,0,1.56.4,2.14,1.18.59.79.88,2.08.88,3.87v.8c0,.24-.08.43-.25.58-.17.14-.38.22-.63.22-.22-.04-.39-.13-.52-.28s-.2-.31-.2-.49v-.99c0-1.98-.44-2.97-1.32-2.97h-.17c-1.14.26-2.25,1.34-3.35,3.24-1.1,1.9-1.65,3.74-1.65,5.5,0,2.27,1.15,3.45,3.46,3.52,1.54,0,3.22-.51,5.06-1.54,1.83-1.03,3.56-2.23,5.2-3.6,1.63-1.38,2.94-2.63,3.93-3.77.18-.18.38-.28.6-.28.18,0,.37.08.55.25s.28.35.28.58c0,.18-.07.37-.22.55-1.21,1.35-2.69,2.77-4.45,4.24-1.76,1.47-3.65,2.72-5.66,3.77-2.01,1.04-3.94,1.56-5.77,1.56h-.01Z"/>
        <path id="_R_G_L_3_G_D_1_P_21" data-name=" R G L 3 G D 1 P 21" class="cls-1" d="M574.1,321h-.28c-2.2-.14-3.3-2.22-3.3-6.21,0-2.01.3-4.55.88-7.59.14-.62.53-.93,1.15-.93.25,0,.49.08.69.25.2.17.3.39.3.69v.22c-.62,3.19-.93,5.76-.93,7.7,0,2.49.53,3.87,1.59,4.12l.49.06c1.32,0,2.94-.8,4.87-2.39,1.93-1.59,3.98-3.75,6.19-6.46.18-.22.41-.33.66-.33.14,0,.31.07.49.2.18.13.28.3.28.52,0,.18-.07.37-.22.55-2.42,2.93-4.77,5.27-7.04,7.01-2.27,1.75-4.22,2.61-5.83,2.61h0ZM572.89,304.23c-.41,0-.66-.59-.77-1.76.04-.22.07-.47.11-.75s.17-.49.38-.63.44-.22.66-.22c.3,0,.54.08.75.25.2.17.3.41.3.75v.11c-.48,1.51-.96,2.25-1.43,2.25h0Z"/>
        <path id="_R_G_L_3_G_D_1_P_22" data-name=" R G L 3 G D 1 P 22" class="cls-1" d="M599.23,344.49h-.49c-1.28-.18-2.07-1.7-2.37-4.56-.18-1.58-.28-3.5-.28-5.77.14-9.09.84-18.71,2.09-28.88-2.46,4.29-4.79,7.74-6.98,10.34-2.97,3.59-5.22,5.39-6.76,5.39-.99-.11-1.48-.86-1.48-2.25,0-1.46.46-3.27,1.38-5.39.92-2.12,2.07-4.03,3.46-5.69s2.82-2.51,4.29-2.51c.51,0,.98.13,1.41.38.42.26.63.59.63.99,0,.14-.04.31-.11.49-.25.37-.57.55-.93.55-.18,0-.35-.04-.52-.14-.17-.09-.35-.14-.58-.14-.96,0-1.97.76-3.05,2.28-1.08,1.52-2.01,3.18-2.8,4.98-.79,1.8-1.18,3.1-1.18,3.9.04.44.17.66.38.66.66,0,2.22-1.5,4.68-4.51,3.04-3.81,5.98-8.42,8.8-13.8.55-4,1.35-8.23,2.42-12.7,1.54-6.63,3.08-9.96,4.62-9.96.91.14,1.38,1.01,1.38,2.59,0,2.93-1.3,7.61-3.9,14.02-.96,2.35-1.69,4.03-2.2,5.06-1.72,11.99-2.68,23.41-2.86,34.26,0,2.2.09,4.08.28,5.66s.31,2.44.38,2.59h.11c.25,0,.49.09.72.28.22.18.33.44.33.77,0,.55-.28.92-.83,1.1h-.01ZM602.15,293.62c.22-.55.59-1.62,1.13-3.19.53-1.58,1.04-3.19,1.54-4.84.49-1.65.75-2.79.75-3.41,0-.22-.04-.35-.11-.38-.41.07-1.03,1.82-1.87,5.22-.66,2.72-1.14,4.91-1.43,6.6h-.01Z"/>
        <path id="_R_G_L_3_G_D_1_P_23" data-name=" R G L 3 G D 1 P 23" class="cls-1" d="M616.34,321c-2.64,0-3.96-2.07-3.96-6.21l.11-1.93-.66.83-1.32,1.59c-2.09,2.56-3.83,3.85-5.22,3.85-1.17,0-1.77-.93-1.82-2.8,0-1.46.51-3.3,1.54-5.5.8-1.62,1.85-3.01,3.14-4.18,1.28-1.17,2.73-1.76,4.35-1.76.8,0,1.63.2,2.48.61.41.25.6.59.6.99,0,.14-.04.3-.11.44-.26.41-.59.6-.99.6l-.44-.11c-.48-.22-.96-.33-1.43-.33-1.17,0-2.25.49-3.24,1.46s-1.82,2.08-2.48,3.32c-.85,1.72-1.27,3.06-1.27,4.01,0,.73.24,1.14.72,1.21.66,0,1.74-.9,3.24-2.69.88-1.14,1.67-2.2,2.37-3.19.41-.59.72-1.04.93-1.35s.46-.58.72-.8.51-.33.77-.33c.37,0,.59.38.66,1.15l-.11,1.32c-.22,1.47-.33,2.6-.33,3.41,0,2.9.91,4.35,2.75,4.35,2.01,0,5.02-1.67,9.02-5l4.18-3.69c.14-.14.31-.22.49-.22.22,0,.41.08.58.25.17.17.25.35.25.58,0,.41-1.51,1.85-4.51,4.35-4.66,3.85-8.32,5.77-11,5.77h0Z"/>
        <path id="_R_G_L_3_G_D_1_P_24" data-name=" R G L 3 G D 1 P 24" class="cls-1" d="M643.84,344.49h-.49c-1.28-.18-2.07-1.7-2.37-4.56-.18-1.58-.28-3.5-.28-5.77.14-9.09.84-18.71,2.09-28.88-2.46,4.29-4.79,7.74-6.98,10.34-2.97,3.59-5.22,5.39-6.76,5.39-.99-.11-1.48-.86-1.48-2.25,0-1.46.46-3.27,1.38-5.39s2.07-4.03,3.46-5.69c1.39-1.67,2.82-2.51,4.29-2.51.51,0,.98.13,1.41.38.42.26.63.59.63.99,0,.14-.04.31-.11.49-.25.37-.57.55-.93.55-.18,0-.35-.04-.52-.14-.17-.09-.35-.14-.58-.14-.96,0-1.97.76-3.05,2.28-1.08,1.52-2.01,3.18-2.8,4.98-.79,1.8-1.18,3.1-1.18,3.9.04.44.17.66.38.66.66,0,2.22-1.5,4.68-4.51,3.04-3.81,5.98-8.42,8.8-13.8.55-4,1.35-8.23,2.42-12.7,1.54-6.63,3.08-9.96,4.62-9.96.91.14,1.38,1.01,1.38,2.59,0,2.93-1.3,7.61-3.9,14.02-.96,2.35-1.69,4.03-2.2,5.06-1.72,11.99-2.68,23.41-2.86,34.26,0,2.2.09,4.08.28,5.66s.31,2.44.38,2.59h.11c.25,0,.49.09.72.28.22.18.33.44.33.77,0,.55-.28.92-.83,1.1h-.01ZM646.75,293.62c.22-.55.59-1.62,1.13-3.19.53-1.58,1.04-3.19,1.54-4.84.49-1.65.75-2.79.75-3.41,0-.22-.04-.35-.11-.38-.41.07-1.03,1.82-1.87,5.22-.66,2.72-1.14,4.91-1.43,6.6h-.01Z"/>
      </g>
      <path class="cls-1" d="M753.04,234.97c3.46,0,6.39-1.22,8.77-3.66,2.38-2.44,3.56-5.39,3.56-8.86v-64.94c0-3.46-1.16-6.39-3.47-8.77-2.31-2.38-5.2-3.56-8.67-3.56s-6.65,1.19-9.15,3.56c-2.51,2.38-3.75,5.3-3.75,8.77v64.94c0,3.46,1.25,6.42,3.75,8.86,2.51,2.45,5.49,3.66,8.96,3.66ZM752.84,136.7c3.59,0,6.75-1.32,9.44-3.95,2.7-2.63,4.04-5.74,4.04-9.34s-1.32-6.9-3.94-9.53c-2.64-2.64-5.82-3.95-9.54-3.95s-6.9,1.32-9.53,3.95-3.95,5.81-3.95,9.53,1.35,6.72,4.05,9.34c2.7,2.64,5.84,3.95,9.43,3.95ZM682.71,144.22c-7.97,0-15.28,1.96-21.96,5.87-6.68,3.92-11.95,9.28-15.8,16.09-3.85,6.81-5.78,14.26-5.78,22.35v34.29c0,3.47,1.29,6.39,3.85,8.77,2.58,2.38,5.59,3.56,9.05,3.56s6.39-1.19,8.78-3.56c2.38-2.38,3.56-5.29,3.56-8.77v-35.64c0-5.4,1.76-9.95,5.29-13.69,3.53-3.72,8-5.58,13.4-5.58,5.78,0,10.3,1.86,13.58,5.58,3.28,3.73,4.92,8.36,4.92,13.88v35.45c0,3.47,1.28,6.39,3.85,8.77,2.57,2.38,5.58,3.56,9.05,3.56s6.39-1.19,8.77-3.56,3.56-5.29,3.56-8.77v-34.29c0-8.1-1.96-15.54-5.88-22.35-3.91-6.81-9.24-12.17-15.99-16.09-6.74-3.91-14.16-5.87-22.25-5.87ZM613.34,145.18c-3.59,0-6.65,1.16-9.15,3.47-2.5,2.31-3.75,5.2-3.75,8.67v35.45c0,5.66-1.64,10.34-4.91,14.07-3.27,3.73-7.87,5.59-13.78,5.59-5.39,0-9.82-1.83-13.3-5.49-3.46-3.66-5.2-8.26-5.2-13.78v-35.84c0-3.46-1.22-6.36-3.66-8.67-2.44-2.32-5.33-3.47-8.67-3.47s-6.49,1.16-9.05,3.47c-2.58,2.31-3.85,5.2-3.85,8.67v34.49c0,10.14,2.89,19.14,8.67,26.97,5.78,7.84,13.3,13.04,22.54,15.6v20.62c0,3.59,1.23,6.59,3.66,8.96,2.44,2.38,5.46,3.56,9.05,3.56s6.39-1.19,8.77-3.56c2.38-2.38,3.56-5.37,3.56-8.96v-20.62c9.25-2.7,16.8-7.97,22.64-15.79,5.85-7.84,8.77-16.77,8.77-26.78v-34.49c0-3.46-1.19-6.36-3.56-8.67-2.38-2.32-5.29-3.47-8.77-3.47ZM478.47,212.43c-6.29,0-11.59-2.15-15.89-6.46-4.3-4.3-6.46-9.59-6.46-15.89s2.16-11.56,6.46-15.79c4.3-4.24,9.6-6.36,15.89-6.36s11.56,2.12,15.8,6.36c4.23,4.23,6.36,9.5,6.36,15.79s-2.13,11.59-6.36,15.89c-4.24,4.31-9.51,6.46-15.8,6.46ZM477.51,144.22c-8.23,0-15.87,2.06-22.93,6.16-7.07,4.11-12.69,9.67-16.86,16.67-4.17,7-6.26,14.68-6.26,23.02s1.9,16.06,5.68,23.12c3.79,7.07,8.99,12.69,15.61,16.86,6.61,4.17,14.03,6.26,22.25,6.26,11.56,0,20.86-3.66,27.93-10.98.51,2.96,1.67,5.3,3.47,7.04,1.8,1.73,4.17,2.6,7.13,2.6s5.49-1.09,7.61-3.27c2.12-2.19,3.17-5.07,3.17-8.68v-32.94c0-8.35-2.06-16.02-6.16-23.02-4.11-7-9.76-12.56-16.95-16.67-7.2-4.1-15.09-6.16-23.7-6.16ZM360.75,234.97c3.33,0,6.23-1.22,8.67-3.66,2.45-2.44,3.66-5.33,3.66-8.67v-12.91l6.55-5.98,25.63,27.55c2.44,2.58,5.4,3.85,8.87,3.85s6.17-1.16,8.48-3.46c2.57-2.44,3.85-5.39,3.85-8.87s-1.16-6.55-3.46-8.87l-26.21-26.97,21.58-20.23c2.57-2.57,3.85-5.46,3.85-8.68s-1.23-6.23-3.66-8.67c-2.45-2.7-5.46-4.04-9.05-4.04-3.08,0-5.78,1.15-8.1,3.46l-28.13,27.93v-53.75c0-3.34-1.22-6.23-3.65-8.68-2.45-2.44-5.4-3.65-8.87-3.65s-6.3,1.22-8.87,3.65c-2.57,2.45-3.85,5.33-3.85,8.68v99.61c0,3.46,1.26,6.39,3.75,8.77,2.51,2.38,5.49,3.56,8.96,3.56ZM290.42,144.22c-7.97,0-15.28,1.96-21.96,5.87-6.68,3.92-11.94,9.28-15.79,16.09-3.85,6.81-5.78,14.26-5.78,22.35v34.29c0,3.47,1.28,6.39,3.85,8.77,2.57,2.38,5.58,3.56,9.05,3.56s6.39-1.19,8.77-3.56c2.38-2.38,3.56-5.29,3.56-8.77v-35.64c0-5.4,1.77-9.95,5.3-13.69,3.52-3.72,8-5.58,13.39-5.58,5.78,0,10.3,1.86,13.59,5.58,3.27,3.73,4.91,8.36,4.91,13.88v35.45c0,3.47,1.28,6.39,3.85,8.77,2.57,2.38,5.58,3.56,9.05,3.56s6.39-1.19,8.77-3.56c2.38-2.38,3.56-5.29,3.56-8.77v-34.29c0-8.1-1.96-15.54-5.88-22.35-3.91-6.81-9.24-12.17-15.98-16.09-6.75-3.91-14.17-5.87-22.26-5.87ZM221.05,234.97c3.47,0,6.39-1.22,8.78-3.66,2.37-2.44,3.56-5.39,3.56-8.86v-64.94c0-3.46-1.16-6.39-3.47-8.77-2.31-2.38-5.2-3.56-8.67-3.56s-6.65,1.19-9.15,3.56c-2.51,2.38-3.75,5.3-3.75,8.77v64.94c0,3.46,1.25,6.42,3.75,8.86,2.51,2.45,5.49,3.66,8.95,3.66ZM220.86,136.7c3.59,0,6.75-1.32,9.44-3.95,2.7-2.63,4.04-5.74,4.04-9.34s-1.32-6.9-3.95-9.53c-2.63-2.64-5.81-3.95-9.53-3.95s-6.91,1.32-9.53,3.95c-2.64,2.64-3.95,5.81-3.95,9.53s1.35,6.72,4.04,9.34c2.71,2.64,5.85,3.95,9.44,3.95Z"/>
      <g>
        <g id="_R_G_L_1_G_D_0_P_0" data-name=" R G L 1 G D 0 P 0">
          <path class="cls-1" d="M164.64,233.93c-10.36,0-18.77-8.24-18.77-18.4v-107.33c-4.92,2.49-10.23,4.61-15.91,6.35-8.35,2.56-21.92,5.59-39.2,5.55-6.7.3-13.3-2.92-16.97-8.93-3.48-5.69-3.56-12.78-.21-18.55,2.02-3.48,6.93-9.31,17.14-9.31.13,0,.26,0,.39,0,10.94,0,45.75-2.03,56.15-26.91,3.4-8.13,12.19-12.78,20.99-11.08,8.8,1.7,15.14,9.26,15.14,18.05v152.16c0,10.16-8.4,18.4-18.77,18.4Z"/>
        </g>
        <path id="_R_G_L_1_G_D_1_P_0" data-name=" R G L 1 G D 1 P 0" class="cls-1" d="M165.4,0c-10.74,0-19.46,8.72-19.46,19.46s8.72,19.46,19.46,19.46,19.46-8.72,19.46-19.46S176.14,0,165.4,0Z"/>
        <g id="_R_G_L_0_G_D_0_P_0" data-name=" R G L 0 G D 0 P 0">
          <path class="cls-1" d="M20.21,233.93c-10.36,0-18.77-8.24-18.77-18.4V63.37c0-8.79,6.34-16.35,15.14-18.05,8.8-1.7,17.59,2.94,20.99,11.08,10.49,25.11,45.87,26.99,56.45,26.91,10.3-.01,15.22,5.83,17.25,9.33,3.34,5.78,3.25,12.88-.25,18.57-3.68,5.99-10.29,9.19-16.94,8.89-.14,0-.29,0-.43,0-17.08,0-30.49-3.01-38.77-5.55-5.67-1.74-10.99-3.86-15.91-6.35v107.33c0,10.16-8.4,18.4-18.77,18.4Z"/>
        </g>
        <path id="_R_G_L_0_G_D_1_P_0" data-name=" R G L 0 G D 1 P 0" class="cls-1" d="M19.46.98c10.74,0,19.46,8.72,19.46,19.46s-8.72,19.46-19.46,19.46S0,31.17,0,20.44,8.72.98,19.46.98Z"/>
      </g>
    </g>
  </g>
</svg>