<svg xmlns="http://www.w3.org/2000/svg" id="Capa_2" data-name="Capa 2" viewBox="0 0 766.3 351.5"><defs><style>.cls-1{fill:#fff}</style></defs><g id="text"><path id="_R_G_L_3_G_D_0_P_0" d="M129.4 344.1q-1.2 0-2.5-.3a12 12 0 0 1-7.8-6.8q-2.3-5.2-2.3-12c0-6.8.7-9.6 2-14.7q2.1-7.7 5.7-14.3 3.5-6.6 8-10.8t9.3-4.2l2.4.3q2 .4 3.1 2.5a11 11 0 0 1 1.1 5.4 37 37 0 0 1-4.5 16.3q-1.2 2-1.9 2t-.7-1.4c0-1.5.3-2.3.7-4q.4-.8 1-.8l.6.2a40 40 0 0 0 3-13.2q0-2-.5-3.5-1-2.4-4-2.4-4 0-8.1 4.2a45 45 0 0 0-7.5 10.9q-3.3 6.5-5.5 14.1-2 7.5-2 14.3 0 6 2 10.3t6.5 6l2.3.3q3.4 0 7.3-2.5a45 45 0 0 0 7.7-6.2 86 86 0 0 0 16.7-23q.1-.5.7-.5h.3l.4.4.1.4v.3q-1.3 3-4 7.1a99 99 0 0 1-13.6 16.9 44 44 0 0 1-8.2 6.3 15 15 0 0 1-7.8 2.4" class="cls-1" data-name="R G L 3 G D 0 P 0"/><path id="_R_G_L_3_G_D_0_P_1" d="M165 321h-.2q-1.4-.4-2.3-2.2-1-1.8-1-4.7v-.5q-1-.6-1-2.6 0-1.2.5-2.7c.5-1.5.9-1.7 1.6-2.3s1.5-1 2.6-1h.9q3.7.8 3.7 6.2a14 14 0 0 1-.5 3.7q2.4-.4 4.2-1.6t3.6-3l.6-.2q.3 0 .5.3t.3.5l-.3.6a23 23 0 0 1-4.3 3.4q-2.2 1.4-5 1.7-1.8 4.4-4 4.4Zm2.7-6q.5-1.7.5-3.8 0-4.1-2.6-4.3-1.3 0-2.4 2 .3 0 .5.3t.3.8l-.3 3.7q1.5 1.3 4 1.3m-2.5 4q1 0 2-2.4a7 7 0 0 1-3.4-.9q.3 3 1.4 3.2" class="cls-1" data-name="R G L 3 G D 0 P 1"/><path id="_R_G_L_3_G_D_0_P_2" d="M180.3 336.2h-.2q-4.2-.6-4.2-11.6 0-6.3 1-13.2 1.8-13.5 4.7-24.6 1.5-5.8 3.1-8.7 1.6-3 2.5-3c1 0 1 1 1 2.8q0 7-8.5 29.8-.3.4-.7 4-1 7-1 13 0 8.4 2.5 9.4h.6q2 0 4.6-3a59 59 0 0 0 5.2-7.3 135 135 0 0 0 7-13q.3-.5.8-.5.8.2.8.8v.3q-3.1 6.9-8 14.4-6.6 10.4-11.2 10.4m.8-37.1q2.1-6 3.8-12a54 54 0 0 0 1.6-8.3q-.4 0-2.7 8.4z" class="cls-1" data-name="R G L 3 G D 0 P 2"/><path id="_R_G_L_3_G_D_0_P_3" d="M209.1 321q-4 0-4-6.2l.2-2-.7.9-1.3 1.6q-3 3.8-5.2 3.8-1.8 0-1.8-2.8 0-2.1 1.5-5.5 1.3-2.4 3.1-4.2c1.8-1.8 2.8-1.7 4.4-1.7q1.2 0 2.5.6.6.4.6 1l-.1.4q-.4.6-1 .6h-.5q-.7-.4-1.4-.4-1.7 0-3.2 1.5-1.6 1.4-2.5 3.3a10 10 0 0 0-1.3 4q0 1 .7 1.2 1 0 3.3-2.7l4-5.3q.4-.4.8-.4t.6 1.2v1.3q-.4 2.2-.4 3.4 0 4.4 2.7 4.4 3 0 9-5l4.2-3.7q.3-.3.5-.3l.6.3q.3.2.3.6 0 .6-4.6 4.3-7 5.8-11 5.8" class="cls-1" data-name="R G L 3 G D 0 P 3"/><path id="_R_G_L_3_G_D_0_P_4" d="M222 330.6q-3 0-3.1-3.2a6 6 0 0 1 1.3-3.4q1.4-1.8 4.2-3.2h.2q3.3-1.4 6.9-2.1a25 25 0 0 0 1.2-6.8q0-2.8-1.4-3.4l-.5-.1q-1.5 0-3 2.2a21 21 0 0 0-3 6l-.3.6-.8.2-.8-.2q-.3-.2-.3-.7 2-20.7 5-32.8 1.5-6.7 3.4-7.2 1.2 0 1.2 2.6 0 6-5.7 24.6l-.6 2-.6 5.7q2.8-5 5.8-4.9h.4q3.2.6 3.2 5.8a23 23 0 0 1-.8 5.9q3.5-.8 5.8-2.4 2.3-1.7 4.5-5.3.3-.4.6-.4h.5l.4.8-.2.4a17 17 0 0 1-5.3 6.1q-2.9 1.8-7 2.5-1.4 4.3-5 7.7-3.4 3-6.1 3m.2-2.1q1.8 0 4.6-2.5 2.5-2.5 4-5.5-3 .6-5.6 1.7h-.1a9 9 0 0 0-3.3 2.5q-1 1.3-1 2.4 0 1.2 1.4 1.4m5.5-35.1a86 86 0 0 0 3-14.3q-1.4 3.3-2.7 12.5z" class="cls-1" data-name="R G L 3 G D 0 P 4"/><path id="_R_G_L_3_G_D_0_P_5" d="M247.7 321h-.2q-1.4-.4-2.3-2.2-1-1.8-1-4.7v-.5q-1-.6-1-2.6 0-1.2.5-2.7.6-1.4 1.6-2.3 1-1 2.7-1h.8q3.6.8 3.7 6.2a14 14 0 0 1-.5 3.7q2.4-.4 4.2-1.6 2-1.2 3.6-3l.6-.2q.3 0 .5.3t.3.5l-.3.6a23 23 0 0 1-4.2 3.4q-2.3 1.4-5.1 1.7-1.6 4.4-4 4.4Zm2.7-6q.5-1.7.5-3.8 0-4.1-2.6-4.3-1.3 0-2.4 2 .3 0 .5.3t.3.8l-.3 3.7q1.5 1.3 4 1.3m-2.5 4q1 0 2-2.4a7 7 0 0 1-3.4-.9q.2 3 1.4 3.2" class="cls-1" data-name="R G L 3 G D 0 P 5"/><path id="_R_G_L_3_G_D_0_P_6" d="M260.5 321.3q-.4 0-.7-.4l-.3-.7.5-14.1q0-.4.3-.8.4-.3.8-.3t.8.4.3.7l-.4 8.4a64 64 0 0 1 3.4-7.4q1.3-2 2.6-2 .8 0 1.6 1l1 1.8q.4 1 1 1.9t1.4.8q1 0 2.6-2l.6-.2q.3 0 .4.2l.2.3q0 .3-.3.7-2.7 2.6-4.4 2.6-1.1 0-2-1-.8-.8-1.3-2-.8-1.2-1.3-1.5-1 0-2 2.5a62 62 0 0 0-3.5 9.6l-.3.8-.3.4z" class="cls-1" data-name="R G L 3 G D 0 P 6"/><path id="_R_G_L_3_G_D_0_P_7" d="M289.4 321q-4 0-4-6.2l.1-2-.6.9-1.3 1.6q-3.2 3.8-5.3 3.8-1.7 0-1.8-2.8 0-2.1 1.5-5.5 1.3-2.4 3.2-4.2a6 6 0 0 1 4.3-1.7q1.3 0 2.5.6.6.4.6 1v.4q-.5.6-1 .6h-.5q-.8-.4-1.4-.4-1.8 0-3.3 1.5-1.5 1.4-2.5 3.3a10 10 0 0 0-1.2 4q0 1 .7 1.2 1 0 3.2-2.7l4-5.3q.5-.4.8-.4.6 0 .7 1.2l-.1 1.3q-.4 2.2-.4 3.4 0 4.4 2.8 4.4 3 0 9-5l4.2-3.7q.2-.3.5-.3l.6.3.2.6q0 .6-4.5 4.3-7 5.8-11 5.8" class="cls-1" data-name="R G L 3 G D 0 P 7"/><path id="_R_G_L_3_G_D_0_P_8" d="M307.3 321q-2.7 0-4-1.6a6 6 0 0 1-1.1-3.7q0-3.4 2.2-7 2.1-3.4 5-3.6 1.3 0 2.1 1.1 1 1.2 1 3.9v.8l-.3.6q-.2.2-.7.2-.3 0-.5-.3l-.2-.5v-1q0-3-1.3-3h-.2q-1.7.4-3.3 3.3a11 11 0 0 0-1.7 5.5q0 3.5 3.5 3.5 2.3 0 5-1.5a35 35 0 0 0 9.2-7.4l.6-.3q.3 0 .5.3t.3.6-.2.5a43 43 0 0 1-10.1 8q-3 1.6-5.8 1.6" class="cls-1" data-name="R G L 3 G D 0 P 8"/><path id="_R_G_L_3_G_D_0_P_9" d="M325.2 321h-.3q-3.3-.2-3.3-6.2 0-3 .9-7.6.2-1 1.1-1 .4 0 .7.3t.3.7v.2q-1 4.8-1 7.7 0 3.7 1.7 4.2h.5q2 0 4.8-2.4 3-2.4 6.2-6.4.3-.4.7-.4l.5.2q.3.2.3.6l-.3.5q-3.6 4.5-7 7-3.4 2.7-5.8 2.6m-1.2-16.8q-.6 0-.8-1.7l.1-.8q0-.5.4-.6l.7-.2q.4 0 .7.2.4.3.3.8-.8 2.4-1.4 2.3" class="cls-1" data-name="R G L 3 G D 0 P 9"/><path id="_R_G_L_3_G_D_0_P_10" d="M340.4 321h-.3q-1.3-.4-2.2-2.2t-1-4.7v-.5q-1-.6-1-2.6 0-1.2.5-2.7.4-1.4 1.5-2.3c1.1-1 1.6-1 2.7-1h.8q3.7.8 3.7 6.2a14 14 0 0 1-.4 3.7q2.4-.4 4.2-1.6t3.6-3l.6-.2q.2 0 .5.3t.2.5-.2.6a23 23 0 0 1-4.3 3.4q-2.3 1.4-5 1.7-1.8 4.4-4 4.4Zm-3.6-20.2-.5-.2-.2-.5q0-.3.7-.8l8.8-4q.6 0 1 .7v.5q0 .6-.5 1zm6.3 14.2q.4-1.7.4-3.8 0-4.1-2.5-4.3-1.3 0-2.5 2 .4 0 .6.3.3.3.3.8l-.3 3.7q1.5 1.3 4 1.3m-2.5 4q1 0 2-2.4a7 7 0 0 1-3.4-.9q.2 3 1.4 3.2" class="cls-1" data-name="R G L 3 G D 0 P 10"/><path id="_R_G_L_3_G_D_0_P_11" d="M366.3 321h-.2q-2.7-.5-3.6-3.9c-1-3.4-1-4.5-1-6.7l-.2-2.2q-.2-.9-.4-.9-1 .2-3.8 5.6a38 38 0 0 0-3.5 7.8q-.3.3-.7.3-.5 0-.7-.3-.4-.3-.4-.7l.8-14q0-.3.4-.6c.4-.3.4-.3.8-.3q.4 0 .7.4.3.3.3.7l-.6 9.2q4.5-10 7.1-10 1 0 1.4.9.8 1.6 1.2 5.8l.8 4.9q.6 2.2 2 2.2 2.7 0 9.4-8.8.3-.4.7-.4l.5.3q.2.2.2.6v.5q-7.5 9.6-11.2 9.6" class="cls-1" data-name="R G L 3 G D 0 P 11"/><path id="_R_G_L_3_G_D_0_P_12" d="M387.7 351.5q-1.6 0-2.8-1.5t-1.1-4q0-5 4-12.1 3.4-6 9-11.8v-1.6q0-5.5-.3-10.1-.9 3.2-2.4 6.1c-1.5 2.9-2 3.2-3.2 3.7l-.8.1q-1.3 0-2-1.4-.5-1.5-.8-3.5a32 32 0 0 1-.1-7.6q0-1.3 1.1-1.3.5 0 .8.4t.3.7l-.1 3.7q0 7 1.4 7 .7 0 1.8-2a51 51 0 0 0 4-11.8q.1-.3.7-.3.4 0 .7.3.4.3.4.7v1.1q.7 7.2.6 12.8v.9h.1q6.3-6.2 13.8-9.8h.3q.6-.1.8.4v.3q.1.4-.4.7-7.8 3.9-14.5 10.6 0 8.3-1.8 16.2a24 24 0 0 1-4.4 10q-2.7 3-5.1 3Zm-.2-2.1q1.7 0 4-2.8t3.6-8.7q1.4-6.4 1.6-13.4-4.5 5.1-7.5 10.1-4 7-4 11.3 0 3.5 2.3 3.5" class="cls-1" data-name="R G L 3 G D 0 P 12"/><path id="_R_G_L_3_G_D_0_P_13" d="M424.2 321.3q-.5 0-.8-.4t-.3-.7l.6-14.1q0-.4.3-.8.3-.3.8-.3t.7.4.3.7l-.3 8.4a64 64 0 0 1 3.4-7.4q1.3-2 2.5-2 1 0 1.6 1l1 1.8 1 1.9q.6.8 1.4.8 1 0 2.7-2l.6-.2q.3 0 .4.2l.2.3-.3.7q-2.7 2.6-4.4 2.6-1.2 0-2-1-.8-.8-1.3-2-.8-1.2-1.4-1.5-.8 0-2 2.5a62 62 0 0 0-3.5 9.6l-.2.8-.4.4z" class="cls-1" data-name="R G L 3 G D 0 P 13"/><path id="_R_G_L_3_G_D_0_P_14" d="M446.5 321q-3.3 0-5-2-1-1.3-1-3.3t1-4.3q1.3-3.3 4.1-5.2l.3-.2a7 7 0 0 1 3.3-1q2.3 0 2.4 1.8 0 2-3.4 4a10 10 0 0 1-4.6 1.6h-.3a9 9 0 0 0-.7 3q0 1.4.7 2 .9 1 1.6 1.2 1 .4 2.2.4 2.5 0 5-1.5 2.6-1.4 4.8-3.4a34 34 0 0 0 3.6-3.8q.2-.3.6-.3l.5.3q.3.2.2.5l-.1.5a35 35 0 0 1-9.5 8.1 12 12 0 0 1-5.8 1.6Zm-2.4-10.2.4-.1q1.4-.4 2.9-1.3 2.4-1.5 2.4-2 0-.3-.6-.3-.8 0-2.4.9t-2.7 2.8" class="cls-1" data-name="R G L 3 G D 0 P 14"/><path id="_R_G_L_3_G_D_0_P_15" d="M464.3 321q-2.7 0-4-1.6a6 6 0 0 1-1-3.7q0-3.4 2-7c2-3.5 3.2-3.5 5.1-3.6q1.3 0 2.1 1.1 1 1.2 1 3.9v.8l-.3.6-.7.2-.5-.3-.2-.5v-1q0-3-1.3-3h-.2q-1.6.4-3.3 3.3a11 11 0 0 0-1.7 5.5q0 3.5 3.5 3.5 2.3 0 5-1.5a35 35 0 0 0 9.2-7.4l.6-.3q.3 0 .5.3t.3.6-.2.5a43 43 0 0 1-10.1 8q-3 1.6-5.8 1.6" class="cls-1" data-name="R G L 3 G D 0 P 15"/><path id="_R_G_L_3_G_D_0_P_16" d="M482.2 321h-.3q-3.3-.2-3.3-6.2 0-3 .9-7.6.2-1 1.2-1l.6.3q.3.2.3.7v.2q-.9 4.8-.9 7.7 0 3.7 1.6 4.2h.5q2 0 4.9-2.4t6.1-6.4q.4-.4.7-.4l.5.2q.3.2.3.6l-.2.5q-3.7 4.5-7 7-3.5 2.7-6 2.6Zm-1.2-16.8q-.6 0-.8-1.7l.1-.8q.1-.5.4-.6l.7-.2q.4 0 .7.2.4.3.3.8-.8 2.4-1.4 2.3" class="cls-1" data-name="R G L 3 G D 0 P 16"/><path id="_R_G_L_3_G_D_0_P_17" d="M493.8 345a1 1 0 0 1-.8-.4l-.3-.8v-4.3q0-25.7 2-35.4 1-4.8 2.8-4.8.9 0 1.4.8l.1.6q0 .5-.4.9l-.6.2h-.3a91 91 0 0 0-2.7 24.9q1.5-8.7 4-15.5 1.5-3.3 3.1-4.9 1.8-1.5 3.3-1.5 1.6 0 2.8 1.6c1.2 1.6 1.2 2.4 1.2 4.2q0 1.4-.4 3.2 6-3 9.8-3.8h.1q.4 0 .6.3l.2.6q0 .6-.6.7-3.7.8-10.8 4.3-1 3-3 5.3-2.6 3-4.6 3-1.6 0-1.8-1.8 0-1 1-2.4.8-1.4 2.8-2.7l3.7-2.3q.9-2.4.8-4.3 0-3.6-2.4-3.8-1 0-2.2 1.1t-2.3 3.7a77 77 0 0 0-4.1 17.4 130 130 0 0 0-1.3 14.4v.3q0 .5-.4.8zm7.1-23q.7 0 2.7-2.2l1.6-2.3-1.7 1q-1.5 1.1-2.1 2t-.7 1.3q0 .2.2.2" class="cls-1" data-name="R G L 3 G D 0 P 17"/><path id="_R_G_L_3_G_D_0_P_18" d="M519.1 321.3q-.4 0-.7-.4l-.3-.7.5-14.1q0-.4.3-.8.4-.3.8-.3t.8.4.3.7l-.4 8.4a64 64 0 0 1 3.4-7.4q1.3-2 2.6-2 .8 0 1.5 1l1 1.8 1 1.9q.6.8 1.5.8t2.6-2l.6-.2q.3 0 .4.2l.2.3q0 .3-.3.7-2.7 2.6-4.4 2.6-1.2 0-2-1-.8-.8-1.3-2-.8-1.2-1.4-1.5-.8 0-2 2.5c-1.1 2.5-1.4 3.4-2 5.2l-1.5 4.4-.2.8-.4.4z" class="cls-1" data-name="R G L 3 G D 0 P 18"/><path id="_R_G_L_3_G_D_0_P_19" d="M540.3 321h-.2q-1.5-.4-2.3-2.2-.9-1.8-.9-4.7v-.5q-1-.6-1-2.6-.1-1.2.4-2.7.6-1.4 1.6-2.3 1-1 2.7-1h.8q3.7.8 3.7 6.2a14 14 0 0 1-.4 3.7q2.4-.4 4.2-1.6t3.5-3l.6-.2q.3 0 .6.3t.2.5-.3.6a23 23 0 0 1-4.2 3.4q-2.3 1.4-5 1.7-1.8 4.4-4 4.4m2.7-6q.5-1.7.5-3.8 0-4.1-2.5-4.3-1.3 0-2.5 2l.6.3q.3.3.2.8l-.2 3.7q1.5 1.3 4 1.3m-2.5 4q1.1 0 2-2.4a7 7 0 0 1-3.3-.9q.2 3 1.4 3.2" class="cls-1" data-name="R G L 3 G D 0 P 19"/><path id="_R_G_L_3_G_D_0_P_20" d="M556.2 321q-2.7 0-4-1.6a6 6 0 0 1-1-3.7q0-3.4 2-7c2-3.5 3.2-3.5 5.1-3.6q1.3 0 2.2 1.1.8 1.2.8 3.9v.8l-.2.6-.6.2q-.4 0-.6-.3l-.2-.5v-1q0-3-1.3-3h-.2q-1.7.4-3.3 3.3a11 11 0 0 0-1.7 5.5q0 3.5 3.5 3.5 2.3 0 5-1.5a35 35 0 0 0 9.2-7.4l.6-.3q.3 0 .5.3t.3.6-.2.5a43 43 0 0 1-10.1 8q-3 1.6-5.8 1.6" class="cls-1" data-name="R G L 3 G D 0 P 20"/><path id="_R_G_L_3_G_D_0_P_21" d="M574.1 321h-.3q-3.3-.2-3.3-6.2 0-3 .9-7.6.2-1 1.2-1l.6.3q.3.3.3.7v.2q-.9 4.8-.9 7.7 0 3.7 1.6 4.2h.5q2 0 4.9-2.4t6.2-6.4q.2-.4.6-.4l.5.2q.3.2.3.6l-.2.5q-3.7 4.5-7 7-3.4 2.7-6 2.6Zm-1.2-16.8q-.6 0-.8-1.7l.1-.8q.1-.5.4-.6l.7-.2q.4 0 .7.2t.3.8q-.8 2.4-1.4 2.3" class="cls-1" data-name="R G L 3 G D 0 P 21"/><path id="_R_G_L_3_G_D_0_P_22" d="M599.2 344.5h-.5q-1.8-.3-2.3-4.6-.3-2.3-.3-5.7.2-13.6 2-29a71 71 0 0 1-6.9 10.4q-4.5 5.4-6.8 5.4-1.4-.2-1.4-2.2 0-2.2 1.3-5.4 1.4-3.1 3.5-5.7c2.1-2.6 2.8-2.5 4.3-2.5q.8 0 1.4.4.6.3.6 1v.4q-.5.6-1 .6l-.5-.2-.6-.1q-1.5 0-3 2.3a28 28 0 0 0-2.9 5q-1 2.6-1.1 3.9 0 .6.3.6 1 0 4.7-4.5 4.6-5.7 8.8-13.8.9-6 2.4-12.7 2.3-10 4.7-10 1.3.3 1.3 2.6 0 4.5-3.9 14-1.4 3.5-2.2 5.1-2.5 18-2.8 34.3 0 3.3.3 5.6l.3 2.6h.1q.4 0 .8.3.3.3.3.8 0 .8-.8 1Zm3-50.9a93 93 0 0 0 3.3-11.8q-.6 0-2 5.2z" class="cls-1" data-name="R G L 3 G D 0 P 22"/><path id="_R_G_L_3_G_D_0_P_23" d="M616.3 321q-4 0-4-6.2l.2-2-.7.9-1.3 1.6q-3 3.8-5.2 3.8-1.8 0-1.8-2.8 0-2.1 1.5-5.5 1.2-2.4 3.1-4.2a6 6 0 0 1 4.4-1.7q1.2 0 2.5.6.6.4.6 1l-.1.4q-.4.6-1 .6h-.5q-.7-.4-1.4-.4-1.7 0-3.2 1.5a11 11 0 0 0-2.5 3.3 10 10 0 0 0-1.3 4q0 1 .7 1.2 1 0 3.3-2.7l4-5.3q.4-.4.8-.4t.6 1.2v1.3q-.4 2.2-.4 3.4 0 4.4 2.7 4.4 3 0 9-5l4.2-3.7q.3-.3.5-.3l.6.3q.3.2.3.6 0 .6-4.6 4.3-7 5.8-11 5.8" class="cls-1" data-name="R G L 3 G D 0 P 23"/><path id="_R_G_L_3_G_D_0_P_24" d="M643.8 344.5h-.4q-2-.3-2.4-4.6-.3-2.3-.3-5.7.2-13.6 2-29a71 71 0 0 1-6.9 10.4q-4.5 5.4-6.7 5.4-1.5-.2-1.5-2.2 0-2.2 1.4-5.4c1.4-3.2 2-4 3.4-5.7q2-2.5 4.3-2.5.8 0 1.4.4.6.3.6 1v.4q-.4.6-1 .6l-.5-.2-.6-.1q-1.5 0-3 2.3a28 28 0 0 0-2.8 5q-1.2 2.6-1.2 3.9 0 .6.4.6 1 0 4.6-4.5 4.5-5.7 8.8-13.8.9-6 2.5-12.7 2.2-10 4.6-10 1.4.3 1.4 2.6 0 4.5-4 14l-2.1 5.1q-2.6 18-3 34.3 0 3.3.4 5.6l.3 2.6h.2l.7.3q.3.3.3.8 0 .8-.8 1Zm3-50.9a93 93 0 0 0 3.3-11.8q-.6 0-2 5.2z" class="cls-1" data-name="R G L 3 G D 0 P 24"/><path id="_R_G_L_3_G_D_1_P_0" d="M129.4 344.1q-1.2 0-2.5-.3a12 12 0 0 1-7.8-6.8q-2.3-5.2-2.3-12c0-6.8.7-9.6 2-14.7q2.1-7.7 5.7-14.3 3.5-6.6 8-10.8t9.3-4.2l2.4.3q2 .4 3.1 2.5a11 11 0 0 1 1.1 5.4 37 37 0 0 1-4.5 16.3q-1.2 2-1.9 2t-.7-1.4c0-1.5.3-2.3.7-4q.4-.8 1-.8l.6.2a40 40 0 0 0 3-13.2q0-2-.5-3.5-1-2.4-4-2.4-4 0-8.1 4.2a45 45 0 0 0-7.5 10.9q-3.3 6.5-5.5 14.1-2 7.5-2 14.3 0 6 2 10.3t6.5 6l2.3.3q3.4 0 7.3-2.5a45 45 0 0 0 7.7-6.2 86 86 0 0 0 16.7-23q.1-.5.7-.5h.3l.4.4.1.4v.3q-1.3 3-4 7.1a99 99 0 0 1-13.6 16.9 44 44 0 0 1-8.2 6.3 15 15 0 0 1-7.8 2.4" class="cls-1" data-name="R G L 3 G D 1 P 0"/><path id="_R_G_L_3_G_D_1_P_1" d="M165 321h-.2q-1.4-.4-2.3-2.2-1-1.8-1-4.7v-.5q-1-.6-1-2.6 0-1.2.5-2.7c.5-1.5.9-1.7 1.6-2.3s1.5-1 2.6-1h.9q3.7.8 3.7 6.2a14 14 0 0 1-.5 3.7q2.4-.4 4.2-1.6t3.6-3l.6-.2q.3 0 .5.3t.3.5l-.3.6a23 23 0 0 1-4.3 3.4q-2.2 1.4-5 1.7-1.8 4.4-4 4.4Zm2.7-6q.5-1.7.5-3.8 0-4.1-2.6-4.3-1.3 0-2.4 2 .3 0 .5.3t.3.8l-.3 3.7q1.5 1.3 4 1.3m-2.5 4q1 0 2-2.4a7 7 0 0 1-3.4-.9q.3 3 1.4 3.2" class="cls-1" data-name="R G L 3 G D 1 P 1"/><path id="_R_G_L_3_G_D_1_P_2" d="M180.3 336.2h-.2q-4.2-.6-4.2-11.6 0-6.3 1-13.2 1.8-13.5 4.7-24.6 1.5-5.8 3.1-8.7 1.6-3 2.5-3c1 0 1 1 1 2.8q0 7-8.5 29.8-.3.4-.7 4-1 7-1 13 0 8.4 2.5 9.4h.6q2 0 4.6-3a59 59 0 0 0 5.2-7.3 135 135 0 0 0 7-13q.3-.5.8-.5.8.2.8.8v.3q-3.1 6.9-8 14.4-6.6 10.4-11.2 10.4m.8-37.1q2.1-6 3.8-12a54 54 0 0 0 1.6-8.3q-.4 0-2.7 8.4z" class="cls-1" data-name="R G L 3 G D 1 P 2"/><path id="_R_G_L_3_G_D_1_P_3" d="M209.1 321q-4 0-4-6.2l.2-2-.7.9-1.3 1.6q-3 3.8-5.2 3.8-1.8 0-1.8-2.8 0-2.1 1.5-5.5 1.3-2.4 3.1-4.2c1.8-1.8 2.8-1.7 4.4-1.7q1.2 0 2.5.6.6.4.6 1l-.1.4q-.4.6-1 .6h-.5q-.7-.4-1.4-.4-1.7 0-3.2 1.5-1.6 1.4-2.5 3.3a10 10 0 0 0-1.3 4q0 1 .7 1.2 1 0 3.3-2.7l4-5.3q.4-.4.8-.4t.6 1.2v1.3q-.4 2.2-.4 3.4 0 4.4 2.7 4.4 3 0 9-5l4.2-3.7q.3-.3.5-.3l.6.3q.3.2.3.6 0 .6-4.6 4.3-7 5.8-11 5.8" class="cls-1" data-name="R G L 3 G D 1 P 3"/><path id="_R_G_L_3_G_D_1_P_4" d="M222 330.6q-3 0-3.1-3.2a6 6 0 0 1 1.3-3.4q1.4-1.8 4.2-3.2h.2q3.3-1.4 6.9-2.1a25 25 0 0 0 1.2-6.8q0-2.8-1.4-3.4l-.5-.1q-1.5 0-3 2.2a21 21 0 0 0-3 6l-.3.6-.8.2-.8-.2q-.3-.2-.3-.7 2-20.7 5-32.8 1.5-6.7 3.4-7.2 1.2 0 1.2 2.6 0 6-5.7 24.6l-.6 2-.6 5.7q2.8-5 5.8-4.9h.4q3.2.6 3.2 5.8a23 23 0 0 1-.8 5.9q3.5-.8 5.8-2.4 2.3-1.7 4.5-5.3.3-.4.6-.4h.5l.4.8-.2.4a17 17 0 0 1-5.3 6.1q-2.9 1.8-7 2.5-1.4 4.3-5 7.7-3.4 3-6.1 3m.2-2.1q1.8 0 4.6-2.5 2.5-2.5 4-5.5-3 .6-5.6 1.7h-.1a9 9 0 0 0-3.3 2.5q-1 1.3-1 2.4 0 1.2 1.4 1.4m5.5-35.1a86 86 0 0 0 3-14.3q-1.4 3.3-2.7 12.5z" class="cls-1" data-name="R G L 3 G D 1 P 4"/><path id="_R_G_L_3_G_D_1_P_5" d="M247.7 321h-.2q-1.4-.4-2.3-2.2-1-1.8-1-4.7v-.5q-1-.6-1-2.6 0-1.2.5-2.7.6-1.4 1.6-2.3 1-1 2.7-1h.8q3.6.8 3.7 6.2a14 14 0 0 1-.5 3.7q2.4-.4 4.2-1.6 2-1.2 3.6-3l.6-.2q.3 0 .5.3t.3.5l-.3.6a23 23 0 0 1-4.2 3.4q-2.3 1.4-5.1 1.7-1.6 4.4-4 4.4Zm2.7-6q.5-1.7.5-3.8 0-4.1-2.6-4.3-1.3 0-2.4 2 .3 0 .5.3t.3.8l-.3 3.7q1.5 1.3 4 1.3m-2.5 4q1 0 2-2.4a7 7 0 0 1-3.4-.9q.2 3 1.4 3.2" class="cls-1" data-name="R G L 3 G D 1 P 5"/><path id="_R_G_L_3_G_D_1_P_6" d="M260.5 321.3q-.4 0-.7-.4l-.3-.7.5-14.1q0-.4.3-.8.4-.3.8-.3t.8.4.3.7l-.4 8.4a64 64 0 0 1 3.4-7.4q1.3-2 2.6-2 .8 0 1.6 1l1 1.8q.4 1 1 1.9t1.4.8q1 0 2.6-2l.6-.2q.3 0 .4.2l.2.3q0 .3-.3.7-2.7 2.6-4.4 2.6-1.1 0-2-1-.8-.8-1.3-2-.8-1.2-1.3-1.5-1 0-2 2.5a62 62 0 0 0-3.5 9.6l-.3.8-.3.4z" class="cls-1" data-name="R G L 3 G D 1 P 6"/><path id="_R_G_L_3_G_D_1_P_7" d="M289.4 321q-4 0-4-6.2l.1-2-.6.9-1.3 1.6q-3.2 3.8-5.3 3.8-1.7 0-1.8-2.8 0-2.1 1.5-5.5 1.3-2.4 3.2-4.2a6 6 0 0 1 4.3-1.7q1.3 0 2.5.6.6.4.6 1v.4q-.5.6-1 .6h-.5q-.8-.4-1.4-.4-1.8 0-3.3 1.5-1.5 1.4-2.5 3.3a10 10 0 0 0-1.2 4q0 1 .7 1.2 1 0 3.2-2.7l4-5.3q.5-.4.8-.4.6 0 .7 1.2l-.1 1.3q-.4 2.2-.4 3.4 0 4.4 2.8 4.4 3 0 9-5l4.2-3.7q.2-.3.5-.3l.6.3.2.6q0 .6-4.5 4.3-7 5.8-11 5.8" class="cls-1" data-name="R G L 3 G D 1 P 7"/><path id="_R_G_L_3_G_D_1_P_8" d="M307.3 321q-2.7 0-4-1.6a6 6 0 0 1-1.1-3.7q0-3.4 2.2-7 2.1-3.4 5-3.6 1.3 0 2.1 1.1 1 1.2 1 3.9v.8l-.3.6q-.2.2-.7.2-.3 0-.5-.3l-.2-.5v-1q0-3-1.3-3h-.2q-1.7.4-3.3 3.3a11 11 0 0 0-1.7 5.5q0 3.5 3.5 3.5 2.3 0 5-1.5a35 35 0 0 0 9.2-7.4l.6-.3q.3 0 .5.3t.3.6-.2.5a43 43 0 0 1-10.1 8q-3 1.6-5.8 1.6" class="cls-1" data-name="R G L 3 G D 1 P 8"/><path id="_R_G_L_3_G_D_1_P_9" d="M325.2 321h-.3q-3.3-.2-3.3-6.2 0-3 .9-7.6.2-1 1.1-1 .4 0 .7.3t.3.7v.2q-1 4.8-1 7.7 0 3.7 1.7 4.2h.5q2 0 4.8-2.4 3-2.4 6.2-6.4.3-.4.7-.4l.5.2q.3.2.3.6l-.3.5q-3.6 4.5-7 7-3.4 2.7-5.8 2.6m-1.2-16.8q-.6 0-.8-1.7l.1-.8q0-.5.4-.6l.7-.2q.4 0 .7.2.4.3.3.8-.8 2.4-1.4 2.3" class="cls-1" data-name="R G L 3 G D 1 P 9"/><path id="_R_G_L_3_G_D_1_P_10" d="M340.4 321h-.3q-1.3-.4-2.2-2.2t-1-4.7v-.5q-1-.6-1-2.6 0-1.2.5-2.7.4-1.4 1.5-2.3c1.1-1 1.6-1 2.7-1h.8q3.7.8 3.7 6.2a14 14 0 0 1-.4 3.7q2.4-.4 4.2-1.6t3.6-3l.6-.2q.2 0 .5.3t.2.5-.2.6a23 23 0 0 1-4.3 3.4q-2.3 1.4-5 1.7-1.8 4.4-4 4.4Zm-3.6-20.2-.5-.2-.2-.5q0-.3.7-.8l8.8-4q.6 0 1 .7v.5q0 .6-.5 1zm6.3 14.2q.4-1.7.4-3.8 0-4.1-2.5-4.3-1.3 0-2.5 2 .4 0 .6.3.3.3.3.8l-.3 3.7q1.5 1.3 4 1.3m-2.5 4q1 0 2-2.4a7 7 0 0 1-3.4-.9q.2 3 1.4 3.2" class="cls-1" data-name="R G L 3 G D 1 P 10"/><path id="_R_G_L_3_G_D_1_P_11" d="M366.3 321h-.2q-2.7-.5-3.6-3.9c-1-3.4-1-4.5-1-6.7l-.2-2.2q-.2-.9-.4-.9-1 .2-3.8 5.6a38 38 0 0 0-3.5 7.8q-.3.3-.7.3-.5 0-.7-.3-.4-.3-.4-.7l.8-14q0-.3.4-.6c.4-.3.4-.3.8-.3q.4 0 .7.4.3.3.3.7l-.6 9.2q4.5-10 7.1-10 1 0 1.4.9.8 1.6 1.2 5.8l.8 4.9q.6 2.2 2 2.2 2.7 0 9.4-8.8.3-.4.7-.4l.5.3q.2.2.2.6v.5q-7.5 9.6-11.2 9.6" class="cls-1" data-name="R G L 3 G D 1 P 11"/><path id="_R_G_L_3_G_D_1_P_12" d="M387.7 351.5q-1.6 0-2.8-1.5t-1.1-4q0-5 4-12.1 3.4-6 9-11.8v-1.6q0-5.5-.3-10.1-.9 3.2-2.4 6.1c-1.5 2.9-2 3.2-3.2 3.7l-.8.1q-1.3 0-2-1.4-.5-1.5-.8-3.5a32 32 0 0 1-.1-7.6q0-1.3 1.1-1.3.5 0 .8.4t.3.7l-.1 3.7q0 7 1.4 7 .7 0 1.8-2a51 51 0 0 0 4-11.8q.1-.3.7-.3.4 0 .7.3.4.3.4.7v1.1q.7 7.2.6 12.8v.9h.1q6.3-6.2 13.8-9.8h.3q.6-.1.8.4v.3q.1.4-.4.7-7.8 3.9-14.5 10.6 0 8.3-1.8 16.2a24 24 0 0 1-4.4 10q-2.7 3-5.1 3Zm-.2-2.1q1.7 0 4-2.8t3.6-8.7q1.4-6.4 1.6-13.4-4.5 5.1-7.5 10.1-4 7-4 11.3 0 3.5 2.3 3.5" class="cls-1" data-name="R G L 3 G D 1 P 12"/><path id="_R_G_L_3_G_D_1_P_13" d="M424.2 321.3q-.5 0-.8-.4t-.3-.7l.6-14.1q0-.4.3-.8.3-.3.8-.3t.7.4.3.7l-.3 8.4a64 64 0 0 1 3.4-7.4q1.3-2 2.5-2 1 0 1.6 1l1 1.8 1 1.9q.6.8 1.4.8 1 0 2.7-2l.6-.2q.3 0 .4.2l.2.3-.3.7q-2.7 2.6-4.4 2.6-1.2 0-2-1-.8-.8-1.3-2-.8-1.2-1.4-1.5-.8 0-2 2.5a62 62 0 0 0-3.5 9.6l-.2.8-.4.4z" class="cls-1" data-name="R G L 3 G D 1 P 13"/><path id="_R_G_L_3_G_D_1_P_14" d="M446.5 321q-3.3 0-5-2-1-1.3-1-3.3t1-4.3q1.3-3.3 4.1-5.2l.3-.2a7 7 0 0 1 3.3-1q2.3 0 2.4 1.8 0 2-3.4 4a10 10 0 0 1-4.6 1.6h-.3a9 9 0 0 0-.7 3q0 1.4.7 2 .9 1 1.6 1.2 1 .4 2.2.4 2.5 0 5-1.5 2.6-1.4 4.8-3.4a34 34 0 0 0 3.6-3.8q.2-.3.6-.3l.5.3q.3.2.2.5l-.1.5a35 35 0 0 1-9.5 8.1 12 12 0 0 1-5.8 1.6Zm-2.4-10.2.4-.1q1.4-.4 2.9-1.3 2.4-1.5 2.4-2 0-.3-.6-.3-.8 0-2.4.9t-2.7 2.8" class="cls-1" data-name="R G L 3 G D 1 P 14"/><path id="_R_G_L_3_G_D_1_P_15" d="M464.3 321q-2.7 0-4-1.6a6 6 0 0 1-1-3.7q0-3.4 2-7c2-3.5 3.2-3.5 5.1-3.6q1.3 0 2.1 1.1 1 1.2 1 3.9v.8l-.3.6-.7.2-.5-.3-.2-.5v-1q0-3-1.3-3h-.2q-1.6.4-3.3 3.3a11 11 0 0 0-1.7 5.5q0 3.5 3.5 3.5 2.3 0 5-1.5a35 35 0 0 0 9.2-7.4l.6-.3q.3 0 .5.3t.3.6-.2.5a43 43 0 0 1-10.1 8q-3 1.6-5.8 1.6" class="cls-1" data-name="R G L 3 G D 1 P 15"/><path id="_R_G_L_3_G_D_1_P_16" d="M482.2 321h-.3q-3.3-.2-3.3-6.2 0-3 .9-7.6.2-1 1.2-1l.6.3q.3.2.3.7v.2q-.9 4.8-.9 7.7 0 3.7 1.6 4.2h.5q2 0 4.9-2.4t6.1-6.4q.4-.4.7-.4l.5.2q.3.2.3.6l-.2.5q-3.7 4.5-7 7-3.5 2.7-6 2.6Zm-1.2-16.8q-.6 0-.8-1.7l.1-.8q.1-.5.4-.6l.7-.2q.4 0 .7.2.4.3.3.8-.8 2.4-1.4 2.3" class="cls-1" data-name="R G L 3 G D 1 P 16"/><path id="_R_G_L_3_G_D_1_P_17" d="M493.8 345a1 1 0 0 1-.8-.4l-.3-.8v-4.3q0-25.7 2-35.4 1-4.8 2.8-4.8.9 0 1.4.8l.1.6q0 .5-.4.9l-.6.2h-.3a91 91 0 0 0-2.7 24.9q1.5-8.7 4-15.5 1.5-3.3 3.1-4.9 1.8-1.5 3.3-1.5 1.6 0 2.8 1.6c1.2 1.6 1.2 2.4 1.2 4.2q0 1.4-.4 3.2 6-3 9.8-3.8h.1q.4 0 .6.3l.2.6q0 .6-.6.7-3.7.8-10.8 4.3-1 3-3 5.3-2.6 3-4.6 3-1.6 0-1.8-1.8 0-1 1-2.4.8-1.4 2.8-2.7l3.7-2.3q.9-2.4.8-4.3 0-3.6-2.4-3.8-1 0-2.2 1.1t-2.3 3.7a77 77 0 0 0-4.1 17.4 130 130 0 0 0-1.3 14.4v.3q0 .5-.4.8zm7.1-23q.7 0 2.7-2.2l1.6-2.3-1.7 1q-1.5 1.1-2.1 2t-.7 1.3q0 .2.2.2" class="cls-1" data-name="R G L 3 G D 1 P 17"/><path id="_R_G_L_3_G_D_1_P_18" d="M519.1 321.3q-.4 0-.7-.4l-.3-.7.5-14.1q0-.4.3-.8.4-.3.8-.3t.8.4.3.7l-.4 8.4a64 64 0 0 1 3.4-7.4q1.3-2 2.6-2 .8 0 1.5 1l1 1.8 1 1.9q.6.8 1.5.8t2.6-2l.6-.2q.3 0 .4.2l.2.3q0 .3-.3.7-2.7 2.6-4.4 2.6-1.2 0-2-1-.8-.8-1.3-2-.8-1.2-1.4-1.5-.8 0-2 2.5c-1.1 2.5-1.4 3.4-2 5.2l-1.5 4.4-.2.8-.4.4z" class="cls-1" data-name="R G L 3 G D 1 P 18"/><path id="_R_G_L_3_G_D_1_P_19" d="M540.3 321h-.2q-1.5-.4-2.3-2.2-.9-1.8-.9-4.7v-.5q-1-.6-1-2.6-.1-1.2.4-2.7.6-1.4 1.6-2.3 1-1 2.7-1h.8q3.7.8 3.7 6.2a14 14 0 0 1-.4 3.7q2.4-.4 4.2-1.6t3.5-3l.6-.2q.3 0 .6.3t.2.5-.3.6a23 23 0 0 1-4.2 3.4q-2.3 1.4-5 1.7-1.8 4.4-4 4.4m2.7-6q.5-1.7.5-3.8 0-4.1-2.5-4.3-1.3 0-2.5 2l.6.3q.3.3.2.8l-.2 3.7q1.5 1.3 4 1.3m-2.5 4q1.1 0 2-2.4a7 7 0 0 1-3.3-.9q.2 3 1.4 3.2" class="cls-1" data-name="R G L 3 G D 1 P 19"/><path id="_R_G_L_3_G_D_1_P_20" d="M556.2 321q-2.7 0-4-1.6a6 6 0 0 1-1-3.7q0-3.4 2-7c2-3.5 3.2-3.5 5.1-3.6q1.3 0 2.2 1.1.8 1.2.8 3.9v.8l-.2.6-.6.2q-.4 0-.6-.3l-.2-.5v-1q0-3-1.3-3h-.2q-1.7.4-3.3 3.3a11 11 0 0 0-1.7 5.5q0 3.5 3.5 3.5 2.3 0 5-1.5a35 35 0 0 0 9.2-7.4l.6-.3q.3 0 .5.3t.3.6-.2.5a43 43 0 0 1-10.1 8q-3 1.6-5.8 1.6" class="cls-1" data-name="R G L 3 G D 1 P 20"/><path id="_R_G_L_3_G_D_1_P_21" d="M574.1 321h-.3q-3.3-.2-3.3-6.2 0-3 .9-7.6.2-1 1.2-1l.6.3q.3.3.3.7v.2q-.9 4.8-.9 7.7 0 3.7 1.6 4.2h.5q2 0 4.9-2.4t6.2-6.4q.2-.4.6-.4l.5.2q.3.2.3.6l-.2.5q-3.7 4.5-7 7-3.4 2.7-6 2.6Zm-1.2-16.8q-.6 0-.8-1.7l.1-.8q.1-.5.4-.6l.7-.2q.4 0 .7.2t.3.8q-.8 2.4-1.4 2.3" class="cls-1" data-name="R G L 3 G D 1 P 21"/><path id="_R_G_L_3_G_D_1_P_22" d="M599.2 344.5h-.5q-1.8-.3-2.3-4.6-.3-2.3-.3-5.7.2-13.6 2-29a71 71 0 0 1-6.9 10.4q-4.5 5.4-6.8 5.4-1.4-.2-1.4-2.2 0-2.2 1.3-5.4 1.4-3.1 3.5-5.7c2.1-2.6 2.8-2.5 4.3-2.5q.8 0 1.4.4.6.3.6 1v.4q-.5.6-1 .6l-.5-.2-.6-.1q-1.5 0-3 2.3a28 28 0 0 0-2.9 5q-1 2.6-1.1 3.9 0 .6.3.6 1 0 4.7-4.5 4.6-5.7 8.8-13.8.9-6 2.4-12.7 2.3-10 4.7-10 1.3.3 1.3 2.6 0 4.5-3.9 14-1.4 3.5-2.2 5.1-2.5 18-2.8 34.3 0 3.3.3 5.6l.3 2.6h.1q.4 0 .8.3.3.3.3.8 0 .8-.8 1Zm3-50.9a93 93 0 0 0 3.3-11.8q-.6 0-2 5.2z" class="cls-1" data-name="R G L 3 G D 1 P 22"/><path id="_R_G_L_3_G_D_1_P_23" d="M616.3 321q-4 0-4-6.2l.2-2-.7.9-1.3 1.6q-3 3.8-5.2 3.8-1.8 0-1.8-2.8 0-2.1 1.5-5.5 1.2-2.4 3.1-4.2a6 6 0 0 1 4.4-1.7q1.2 0 2.5.6.6.4.6 1l-.1.4q-.4.6-1 .6h-.5q-.7-.4-1.4-.4-1.7 0-3.2 1.5a11 11 0 0 0-2.5 3.3 10 10 0 0 0-1.3 4q0 1 .7 1.2 1 0 3.3-2.7l4-5.3q.4-.4.8-.4t.6 1.2v1.3q-.4 2.2-.4 3.4 0 4.4 2.7 4.4 3 0 9-5l4.2-3.7q.3-.3.5-.3l.6.3q.3.2.3.6 0 .6-4.6 4.3-7 5.8-11 5.8" class="cls-1" data-name="R G L 3 G D 1 P 23"/><path id="_R_G_L_3_G_D_1_P_24" d="M643.8 344.5h-.4q-2-.3-2.4-4.6-.3-2.3-.3-5.7.2-13.6 2-29a71 71 0 0 1-6.9 10.4q-4.5 5.4-6.7 5.4-1.5-.2-1.5-2.2 0-2.2 1.4-5.4c1.4-3.2 2-4 3.4-5.7q2-2.5 4.3-2.5.8 0 1.4.4.6.3.6 1v.4q-.4.6-1 .6l-.5-.2-.6-.1q-1.5 0-3 2.3a28 28 0 0 0-2.8 5q-1.2 2.6-1.2 3.9 0 .6.4.6 1 0 4.6-4.5 4.5-5.7 8.8-13.8.9-6 2.5-12.7 2.2-10 4.6-10 1.4.3 1.4 2.6 0 4.5-4 14l-2.1 5.1q-2.6 18-3 34.3 0 3.3.4 5.6l.3 2.6h.2l.7.3q.3.3.3.8 0 .8-.8 1Zm3-50.9a93 93 0 0 0 3.3-11.8q-.6 0-2 5.2z" class="cls-1" data-name="R G L 3 G D 1 P 24"/><path d="M753 235q5.2 0 8.8-3.7 3.6-3.6 3.6-8.9v-64.9q0-5.2-3.5-8.8-3.5-3.5-8.7-3.5c-5.2 0-6.6 1.2-9.1 3.5a12 12 0 0 0-3.8 8.8v65a12 12 0 0 0 3.8 8.8q3.8 3.7 9 3.7m-.2-98.3q5.4 0 9.5-4 4-3.9 4-9.3c0-5.4-1.3-6.9-4-9.5q-3.9-4-9.5-4c-5.6 0-6.9 1.3-9.5 4s-4 5.8-4 9.5 1.4 6.7 4.1 9.3a13 13 0 0 0 9.4 4m-70 7.5a43 43 0 0 0-37.8 22 45 45 0 0 0-5.8 22.3v34.3q0 5.2 3.8 8.8 3.9 3.6 9 3.6c5.2 0 6.5-1.2 8.9-3.6q3.5-3.6 3.5-8.8v-35.6q0-8.1 5.3-13.7t13.4-5.6q8.7 0 13.6 5.6t4.9 13.9v35.4q0 5.2 3.8 8.8 3.9 3.6 9.1 3.6c5.2 0 6.4-1.2 8.8-3.6s3.5-5.3 3.5-8.8v-34.3a44 44 0 0 0-44-44.3m-69.5 1a13 13 0 0 0-9.1 3.5 11 11 0 0 0-3.8 8.6v35.5q0 8.4-4.9 14a17 17 0 0 1-13.7 5.6q-8.1 0-13.3-5.5a19 19 0 0 1-5.2-13.7v-35.9q0-5.1-3.7-8.7-3.6-3.4-8.7-3.4c-5 0-6.5 1.1-9 3.4a11 11 0 0 0-3.9 8.7v34.5q0 15.2 8.7 27 8.7 11.7 22.5 15.6V255a12 12 0 0 0 3.7 9q3.7 3.5 9 3.5c5.3 0 6.4-1.2 8.8-3.5q3.6-3.6 3.6-9v-20.6q13.8-4 22.6-15.8a44 44 0 0 0 8.8-26.8v-34.5q0-5.1-3.6-8.7a12 12 0 0 0-8.8-3.4m-134.8 67.2q-9.4 0-16-6.4-6.4-6.4-6.4-16c0-9.5 2.2-11.5 6.5-15.7q6.5-6.4 15.9-6.4c9.4 0 11.5 2.1 15.8 6.4q6.3 6.3 6.3 15.8c0 9.5-2.1 11.6-6.3 15.9a21 21 0 0 1-15.8 6.4m-1-68.2q-12.3 0-23 6.2a47 47 0 0 0-23 39.7q0 12.5 5.6 23 5.7 10.8 15.6 17 10 6.2 22.3 6.2a37 37 0 0 0 28-11q.7 4.5 3.4 7 2.7 2.7 7.1 2.7c4.4 0 5.5-1.1 7.6-3.3a12 12 0 0 0 3.2-8.7v-33a45 45 0 0 0-23.1-39.6 47 47 0 0 0-23.7-6.2M360.8 235q5 0 8.6-3.7 3.7-3.6 3.7-8.7v-12.9l6.5-6 25.7 27.6q3.6 3.9 8.8 3.9c5.2 0 6.2-1.2 8.5-3.5q3.9-3.6 3.9-8.9c0-5.3-1.2-6.5-3.5-8.8l-26.2-27 21.6-20.2a12 12 0 0 0 .2-17.4 11.7 11.7 0 0 0-17.2-.6l-28.1 28V123a12 12 0 0 0-3.7-8.7q-3.6-3.6-8.8-3.6c-5.2 0-6.3 1.2-9 3.6a12 12 0 0 0-3.8 8.7v99.6q0 5.2 3.8 8.8 3.8 3.5 9 3.5Zm-70.4-90.8a43 43 0 0 0-37.7 22 45 45 0 0 0-5.8 22.3v34.3q0 5.2 3.8 8.8 3.9 3.6 9 3.6c5.2 0 6.5-1.2 8.9-3.6q3.5-3.6 3.5-8.8v-35.6q0-8.1 5.3-13.7t13.4-5.6q8.7 0 13.6 5.6t5 13.9v35.4q0 5.2 3.8 8.8t9 3.6c5.3 0 6.4-1.2 8.8-3.6q3.5-3.6 3.5-8.8v-34.3a44 44 0 0 0-44-44.3M221.1 235q5.1 0 8.7-3.7 3.6-3.6 3.6-8.9v-64.9q0-5.2-3.5-8.8-3.5-3.5-8.6-3.5c-5.1 0-6.7 1.2-9.2 3.5a12 12 0 0 0-3.7 8.8v65a12 12 0 0 0 3.7 8.8q3.8 3.7 9 3.7m-.2-98.3q5.4 0 9.4-4 4-3.9 4-9.3c0-5.4-1.3-6.9-4-9.5q-3.8-4-9.4-4c-5.6 0-7 1.3-9.6 4q-4 4-4 9.5c0 5.5 1.4 6.7 4.1 9.3q4 4 9.5 4" class="cls-1"/><path id="_R_G_L_1_G_D_0_P_0" d="M164.6 234a18.6 18.6 0 0 1-18.7-18.5V108.2q-7.5 3.7-16 6.4a137 137 0 0 1-39.1 5.5 19 19 0 0 1-17-9 18 18 0 0 1-.2-18.5c2-3.5 7-9.3 17.1-9.3h.4c11 0 45.8-2 56.2-26.9a18.8 18.8 0 0 1 36 7v152.1c0 10.2-8.3 18.4-18.7 18.4Z" class="cls-1" data-name="R G L 1 G D 0 P 0"/><path id="_R_G_L_1_G_D_1_P_0" d="M165.4 0a19.5 19.5 0 1 0 0 39 19.5 19.5 0 0 0 0-39" class="cls-1" data-name="R G L 1 G D 1 P 0"/><path id="_R_G_L_0_G_D_0_P_0" d="M20.2 234a18.6 18.6 0 0 1-18.8-18.5V63.4c0-8.8 6.4-16.4 15.2-18a19 19 0 0 1 21 11c10.5 25.1 45.8 27 56.4 27a19 19 0 0 1 17.3 9.2 18 18 0 0 1-.3 18.6 19 19 0 0 1-17 8.9h-.3c-17.1 0-30.5-3-38.8-5.5q-8.5-2.7-16-6.4v107.3c0 10.2-8.3 18.4-18.7 18.4Z" class="cls-1" data-name="R G L 0 G D 0 P 0"/><path id="_R_G_L_0_G_D_1_P_0" d="M19.5 1a19.5 19.5 0 1 1 0 39 19.5 19.5 0 0 1 0-39" class="cls-1" data-name="R G L 0 G D 1 P 0"/></g></svg>