<?xml version="1.0" encoding="UTF-8"?>
<svg id="Capa_2" data-name="Capa 2" xmlns="http://www.w3.org/2000/svg" viewBox="0 0 1127.02 155.28">
  <defs>
    <style>
      .cls-1 {
        fill: none;
        stroke: #6e00a3;
        stroke-linecap: round;
        stroke-linejoin: round;
      }

      .cls-2 {
        fill: #6e00a3;
      }
    </style>
  </defs>
  <g id="Capa_2-2" data-name="Capa 2">
    <g>
      <path id="path1" class="cls-1" d="M52.27,54.15c-5.32,21.81,5.06-.13,6.85-8.47C77.23-25.91,4.81,21.47.54,97.56c-.27,11.34.58,28.93,12.36,38.75,32.72,23.19,74.79-52.23,78.04-58.32.87-5.57,2.93-16.41,10.55-15.62,21.54,3.1-9.38,58.22-6.3,9.29.85,10.67,7.84,15.21,21.19,7.88,15.65-7.68,17.33-26.66,23.31-42.72,2.24-8.44,9.56-32.73,7.03-36.32-11.17,2.54-51.11,202.3,15.67,89.15,4.32-7.45,12.87-30.99,25.58-26.46-9.92-5.02-18.34,11.09-19.08,20.45-2.36,12.2,15.46-8.58,17.89-10.81,1.94-2.07.86,1.61.82,3.11-3.7,27.19,20.91,12.6,35.92-2.91,5.35-11.73,6.79-23.27,9.98-34.73,2.03-8.61,6.79-30.57,4.41-33.1-5.43,2.51-12.8,57.22-13.77,74.15-.61,6.3,2.97-1.33,4.18-2.8,28.3-40.92,16.53,43.98-10.99,34.24-6-17.13,22.6-18.84,34.12-22.26,2.9-1.54,11.84-7.09,14.57-13.84,1.51-6.45,6.66-15.93,13.79-10.03,2.37,4.03,4.85,17.58-1.04,23.65-2.96,3.04-6.79,2.93-8.04-1.69-1.46-3.41-1.67-14.34-.35-15.11-.91,22.03,33.82,8.64,31.99-7.81.23,5.85-.76,21.83.39,26.54,19.56-59.25,14.04-.92,31.26-21.21"/>
      <g id="path_2" data-name="path 2">
        <path class="cls-1" d="M359.02,63.15c-22.19-6.52-32.21,50.78-3.16,9.77,1.87-2.81,1.49-2.08,1.26,2.02-.1,5.28-.68,16.58,6.71,16.62,9.06-1.11,19.44-8.51,26.04-15.25,4.51-5.48,18.67-23.24,19.84-6.71-1.37-14.41-12.78-1.64-16.57,4.53-5.7,12.45,5.58,24.41,18.48,15.18,5.44-4.16,18.4-12.65,21.84-21.33-5.65,34.22,15.02,29.42,29.76,3.29,3.11-10.14,11.46-13.19,15.21-1.57,2.89,8.26-6.6,33.37-11.66,17.45-1.31-5.01-.02-12.3-.94-17-5.53,20.65,34.91,13,32.48-6.45-.49,7.23-1.1,19.8-1.14,27.26.67-1.24,11.04-25.27,16.17-27.38,10.15-1.14-3.28,58.63,33.31,9.33"/>
        <path class="cls-1" d="M480.77,41.15c-1.44.68-17.56,8.32-19,9"/>
        <circle class="cls-2" cx="434.06" cy="60.36" r="1.81"/>
      </g>
      <path id="path3" class="cls-1" d="M571.52,66.15c-1.11,41.45,13.9,20.65,19.01-5.79,16.42,155.25-87.68,89.26,32.24,13.04"/>
      <path id="path4" class="cls-1" d="M648.52,61.4c.29,5.16-.55,24.48.28,29.43,18.72-58.15,12.15-4.61,30.47-21.68"/>
      <g id="path5">
        <path class="cls-1" d="M688.77,73.52c4.55-1.26,14.91-3.86,12.97-10.54-5.1-9.68-23.03,16.35-14.29,25.54,10.55,11.01,32.12-8.27,34.34-11.76,4.87-8.34,19.01-23.06,19.65-6.36-2.76-9.05-5.33-9.97-11.78-1.59-22.88,38.45,33.49,20.75,36.09-3.66-6.6,34.97,10.33,32.36,28.28,10.13"/>
        <circle class="cls-2" cx="766.68" cy="59.69" r="1.81"/>
      </g>
      <path id="path6" class="cls-1" d="M801.77,50.9c-8.32,7.8-7.17,111.73-5.93,84.94,3.33-19.63,2.11-63.85,22.05-73.46,14.77-.15,3.16,29.83-4.31,34.06-1.51,1.11-4.29,2.42-5.45.42-3.7-10.7,28.46-21.55,40.4-23.72.64-.21.23.16.15-.58-.16-2.06.25-7.78.3-9.78.16,4.12-1.62,21.55-.8,26.05,19.67-52.18,13.43-5.44,31.59-19.18"/>
      <g id="path7">
        <path class="cls-1" d="M889.27,70.9c-.84,4.16-3.21,19.68,5.74,20.13,7.71-2.22,8.14-25.25,1.99-28.39-14.35-1.78-13.72,20.19,1.94,20.14,9.54.45,16.61-5.87,18.7-7.79,4.77-8.64,16.68-20.65,18.26-4.13-3.62-16.72-12.6-3.49-16.33,5.44-5.07,24.74,21.77,13.96,32.78,3.49,0,0,5.26-4.16,6.52-10.88-9.38,49.9,9.09,32.16,36.45-2.46,2.96-3.54,4.27-4.12,7.33-3.38,1.67.43,1.65.58-.04,1.06-10.16,3.34-17.77,14.33-15.67,26.11,3.55,9.15,25.32-26.96,30.16-34.2,1.04-4.11,20.54-42.88,13.8-49.43-9.24,12.02-23.7,110.98-15.38,134.29"/>
        <circle class="cls-2" cx="960.34" cy="62.04" r="1.81"/>
      </g>
      <path id="path8" class="cls-1" d="M1050.27,62.4c-23.63-3.96-29.93,45.12-5.45,13.15.95-1.05,1.68-2.22,2.27-1.48.51,1.29.29,2.8.47,4.55.74,15.47,12.56,15.3,25.01,3.71,5.32-4.37,17.86-21.78,24.57-19.79.52.9-1,1.8-1.67,2.38-3.42,2.4-7.21,5.36-10.07,8.78-2.78,3.32-4.78,7.01-5.06,11.2-.07,2.16,0,4.58,1.6,5.71,1.33.73,2.53-.64,3.41-1.52,4.7-4.84,13.14-14.01,19.94-24.18,7.3-12.06,25.5-47.65,20.32-57.58-5.9,8.45-26.89,90.53-14.34,133.32"/>
    </g>
  </g>
</svg>