<?xml version="1.0" encoding="UTF-8"?>
<svg id="Capa_2" data-name="Capa 2" xmlns="http://www.w3.org/2000/svg" viewBox="0 0 738.79 105.35">
  <defs>
    <style>
      .cls-1 {
        fill: #6e00a3;
      }
    </style>
  </defs>
  <g id="tag">
    <g>
      <path class="cls-1" d="M17.46,95.16c-1.17,0-2.3-.15-3.42-.46-4.96-1.57-8.54-4.71-10.74-9.42-2.2-4.71-3.3-10.23-3.3-16.55s.96-13.18,2.89-20.24c1.92-7.06,4.51-13.64,7.75-19.74,3.24-6.1,6.94-11.07,11.09-14.92s8.45-5.77,12.91-5.77c1.11,0,2.23.13,3.34.38,1.77.46,3.18,1.59,4.21,3.42,1.04,1.82,1.56,4.3,1.56,7.44,0,4.05-1.01,9.16-3.04,15.34-1.01,2.94-2.09,5.34-3.23,7.21s-1.99,2.81-2.54,2.81c-.66-.05-.99-.73-.99-2.05s.33-3.09.99-5.47c.3-.71.78-1.06,1.44-1.06l.76.23c.71-1.47,1.58-4.02,2.62-7.67,1.04-3.64,1.56-7.14,1.56-10.48,0-1.92-.28-3.57-.84-4.94-.81-2.18-2.66-3.27-5.54-3.27-3.64,0-7.35,1.95-11.12,5.85-3.77,3.9-7.21,8.88-10.33,14.96-3.11,6.07-5.63,12.59-7.56,19.55-1.92,6.96-2.89,13.53-2.89,19.71,0,5.47.92,10.21,2.77,14.24,1.85,4.02,4.87,6.75,9.07,8.16,1.01.3,2.07.46,3.19.46,3.14,0,6.49-1.11,10.06-3.34,3.57-2.23,7.11-5.09,10.63-8.58s6.82-7.23,9.91-11.2,5.77-7.78,8.05-11.43,3.95-6.71,5.01-9.19c.2-.46.53-.68.99-.68.15,0,.32.04.49.11.18.08.33.22.46.42s.19.41.19.61l-.08.38c-1.17,2.73-2.95,6.01-5.35,9.83-2.41,3.82-5.23,7.77-8.47,11.85-3.24,4.08-6.72,7.9-10.44,11.47s-7.47,6.47-11.24,8.69c-3.77,2.23-7.38,3.34-10.82,3.34h0Z"/>
      <path class="cls-1" d="M66.59,63.19h-.3c-1.27-.25-2.32-1.24-3.15-2.96-.84-1.72-1.25-3.9-1.25-6.53v-.61c-1.01-.66-1.52-1.87-1.52-3.64,0-1.16.24-2.39.72-3.68.48-1.29,1.2-2.38,2.16-3.27.96-.89,2.2-1.33,3.72-1.33l1.14.08c3.39.66,5.09,3.49,5.09,8.51,0,1.87-.2,3.57-.61,5.09,2.18-.35,4.11-1.1,5.81-2.24,1.69-1.14,3.33-2.49,4.9-4.06.25-.25.53-.38.84-.38.25,0,.49.13.72.38s.34.51.34.76c0,.3-.13.58-.38.83-1.82,1.82-3.77,3.38-5.85,4.67s-4.4,2.09-6.99,2.39c-1.57,4-3.37,6-5.39,6h0ZM70.31,54.98c.46-1.52.68-3.27.68-5.24,0-3.75-1.16-5.74-3.49-6-1.21,0-2.35.91-3.42,2.73.3.1.57.29.8.57s.34.62.34,1.03c-.25,1.92-.38,3.62-.38,5.09,1.42,1.22,3.24,1.82,5.47,1.82h0ZM66.89,60.38c1.01,0,1.92-1.06,2.73-3.19-1.57,0-3.11-.4-4.63-1.22.2,2.84.84,4.3,1.9,4.41h0Z"/>
      <path class="cls-1" d="M87.77,84.22h-.3c-3.9-.56-5.85-5.9-5.85-16.02,0-5.77.48-11.85,1.44-18.23,1.72-12.45,3.9-23.77,6.53-33.94,1.42-5.37,2.85-9.38,4.29-12.04,1.44-2.66,2.59-3.99,3.46-3.99s1.39,1.24,1.44,3.72c0,6.43-3.98,20.17-11.92,41.23-.15.41-.46,2.2-.91,5.39-.91,6.53-1.37,12.58-1.37,18.15,0,7.64,1.14,11.92,3.42,12.83l.84.15c1.82,0,3.94-1.42,6.34-4.25s4.78-6.18,7.14-10.02c2.35-3.85,4.42-7.47,6.19-10.86,1.77-3.39,2.96-5.8,3.57-7.21.25-.46.61-.68,1.06-.68.71.2,1.06.58,1.06,1.14l-.08.46c-2.78,6.28-6.41,12.88-10.86,19.82-6.13,9.57-11.29,14.35-15.49,14.35h0ZM88.84,32.96c1.92-5.42,3.69-10.88,5.32-16.4,1.57-6.18,2.35-9.87,2.35-11.09,0-.3-.05-.46-.15-.46-.41,0-1.67,3.85-3.8,11.54-1.27,4.86-2.51,10.33-3.72,16.4h0Z"/>
      <path class="cls-1" d="M127.56,63.26c-3.64,0-5.47-2.86-5.47-8.58l.15-2.66-.91,1.14-1.82,2.2c-2.89,3.54-5.29,5.32-7.21,5.32-1.62,0-2.45-1.29-2.51-3.87,0-2.02.71-4.56,2.13-7.59,1.11-2.23,2.56-4.15,4.33-5.77s3.77-2.43,6-2.43c1.11,0,2.25.28,3.42.84.56.35.83.81.83,1.37,0,.2-.05.41-.15.61-.36.56-.81.83-1.37.83l-.61-.15c-.66-.3-1.32-.46-1.97-.46-1.62,0-3.11.67-4.48,2.01-1.37,1.34-2.51,2.87-3.42,4.59-1.17,2.38-1.75,4.23-1.75,5.54,0,1.01.33,1.57.99,1.67.91,0,2.4-1.24,4.48-3.72,1.22-1.57,2.3-3.04,3.27-4.4.56-.81.99-1.43,1.29-1.86.3-.43.63-.8.99-1.1s.71-.46,1.06-.46c.51,0,.81.53.91,1.59l-.15,1.82c-.3,2.03-.46,3.59-.46,4.71,0,4,1.26,6,3.8,6,2.78,0,6.93-2.3,12.45-6.91l5.77-5.09c.2-.2.43-.3.68-.3.3,0,.57.11.8.34.23.23.34.49.34.8,0,.56-2.08,2.56-6.23,6-6.43,5.32-11.49,7.97-15.19,7.97h.01Z"/>
      <path class="cls-1" d="M145.41,76.55c-2.73,0-4.2-1.47-4.4-4.41,0-1.47.61-3.05,1.82-4.75s3.16-3.18,5.85-4.44l.23-.08c2.99-1.21,6.15-2.15,9.49-2.81.35-.96.72-2.34,1.1-4.14s.57-3.53.57-5.2c0-2.58-.63-4.15-1.9-4.71l-.68-.15c-1.27,0-2.66,1-4.18,3s-2.89,4.75-4.1,8.24c0,.41-.16.71-.49.91s-.7.3-1.1.3c-.35,0-.7-.1-1.03-.3-.33-.2-.49-.53-.49-.99,1.82-19.03,4.1-34.1,6.83-45.18,1.52-6.28,3.11-9.59,4.78-9.95,1.16,0,1.75,1.17,1.75,3.49,0,5.57-2.63,16.91-7.9,34.02l-.84,2.73-.83,7.9c2.58-4.51,5.26-6.76,8.05-6.76h.46c2.99.51,4.48,3.19,4.48,8.05,0,2.48-.38,5.16-1.14,8.05,3.24-.66,5.94-1.75,8.09-3.27s4.19-3.97,6.11-7.37c.25-.35.56-.53.91-.53.2,0,.41.05.61.15.35.25.53.56.53.91,0,.2-.05.41-.15.61-2.33,4-4.81,6.81-7.44,8.43s-5.8,2.78-9.49,3.49c-1.37,3.9-3.75,7.44-7.14,10.63-3.09,2.73-5.87,4.1-8.35,4.1v.03ZM145.56,73.59c1.67,0,3.8-1.14,6.38-3.42,2.38-2.28,4.2-4.81,5.47-7.59-2.73.56-5.27,1.34-7.59,2.35l-.23.08c-2.08.96-3.59,2.08-4.56,3.34-.96,1.27-1.44,2.35-1.44,3.27,0,1.17.66,1.82,1.97,1.97h0ZM153.15,25.14c2.63-9.77,4.02-16.33,4.18-19.67-1.27,2.94-2.53,8.68-3.8,17.24l-.38,2.43h0Z"/>
      <path class="cls-1" d="M180.79,63.19h-.3c-1.27-.25-2.32-1.24-3.15-2.96-.84-1.72-1.25-3.9-1.25-6.53v-.61c-1.01-.66-1.52-1.87-1.52-3.64,0-1.16.24-2.39.72-3.68.48-1.29,1.2-2.38,2.16-3.27.96-.89,2.2-1.33,3.72-1.33l1.14.08c3.39.66,5.09,3.49,5.09,8.51,0,1.87-.2,3.57-.61,5.09,2.18-.35,4.11-1.1,5.81-2.24,1.69-1.14,3.33-2.49,4.9-4.06.25-.25.53-.38.84-.38.25,0,.49.13.72.38s.34.51.34.76c0,.3-.13.58-.38.83-1.82,1.82-3.77,3.38-5.85,4.67-2.08,1.29-4.4,2.09-6.99,2.39-1.57,4-3.37,6-5.39,6h0ZM184.51,54.98c.46-1.52.68-3.27.68-5.24,0-3.75-1.16-5.74-3.49-6-1.21,0-2.35.91-3.42,2.73.3.1.57.29.8.57.23.28.34.62.34,1.03-.25,1.92-.38,3.62-.38,5.09,1.42,1.22,3.24,1.82,5.47,1.82h0ZM181.1,60.38c1.01,0,1.92-1.06,2.73-3.19-1.57,0-3.11-.4-4.63-1.22.2,2.84.83,4.3,1.9,4.41Z"/>
      <path class="cls-1" d="M198.49,63.64c-.41-.05-.75-.23-1.03-.53s-.42-.63-.42-.99l.76-19.44c0-.4.15-.75.46-1.03.3-.28.66-.42,1.06-.42s.75.15,1.03.46c.28.3.42.66.42,1.06l-.46,11.54c.25-.76.8-2.16,1.63-4.21.84-2.05,1.85-4.04,3.04-5.96,1.19-1.92,2.37-2.89,3.53-2.89.81,0,1.54.51,2.2,1.52.46.71.9,1.53,1.33,2.47s.91,1.78,1.44,2.54,1.18,1.14,1.94,1.14c.96,0,2.18-.89,3.64-2.66.3-.25.58-.38.83-.38s.46.08.61.23c.15.15.23.33.23.53,0,.25-.13.53-.38.84-2.53,2.48-4.56,3.72-6.08,3.72-1.11,0-2.04-.44-2.77-1.33-.73-.88-1.36-1.81-1.86-2.77-.66-1.27-1.27-1.97-1.82-2.13-.81,0-1.72,1.13-2.73,3.38s-1.96,4.67-2.85,7.25-1.56,4.61-2.01,6.08c-.15.41-.27.73-.34.99-.08.25-.24.48-.49.68-.25.2-.56.3-.91.3h0Z"/>
      <path class="cls-1" d="M238.35,63.26c-3.64,0-5.47-2.86-5.47-8.58l.15-2.66-.91,1.14-1.82,2.2c-2.89,3.54-5.29,5.32-7.21,5.32-1.62,0-2.45-1.29-2.51-3.87,0-2.02.71-4.56,2.13-7.59,1.11-2.23,2.56-4.15,4.33-5.77s3.77-2.43,6-2.43c1.11,0,2.25.28,3.42.84.56.35.83.81.83,1.37,0,.2-.05.41-.15.61-.36.56-.81.83-1.37.83l-.61-.15c-.66-.3-1.32-.46-1.97-.46-1.62,0-3.11.67-4.48,2.01-1.37,1.34-2.51,2.87-3.42,4.59-1.17,2.38-1.75,4.23-1.75,5.54,0,1.01.33,1.57.99,1.67.91,0,2.4-1.24,4.48-3.72,1.22-1.57,2.3-3.04,3.27-4.4.56-.81.99-1.43,1.29-1.86.3-.43.63-.8.99-1.1s.71-.46,1.06-.46c.51,0,.81.53.91,1.59l-.15,1.82c-.3,2.03-.46,3.59-.46,4.71,0,4,1.26,6,3.8,6,2.78,0,6.93-2.3,12.45-6.91l5.77-5.09c.2-.2.43-.3.68-.3.3,0,.57.11.8.34.23.23.34.49.34.8,0,.56-2.08,2.56-6.23,6-6.43,5.32-11.49,7.97-15.19,7.97h.01Z"/>
      <path class="cls-1" d="M263.11,63.26c-2.53-.05-4.34-.78-5.43-2.2s-1.63-3.14-1.63-5.16c0-3.19,1-6.37,3-9.53s4.32-4.87,6.95-5.13c1.16,0,2.15.55,2.96,1.63.81,1.09,1.22,2.87,1.22,5.35v1.1c0,.33-.11.6-.34.8-.23.2-.52.3-.87.3-.3-.05-.54-.18-.72-.38s-.27-.43-.27-.68v-1.37c0-2.73-.61-4.1-1.82-4.1h-.23c-1.57.36-3.11,1.85-4.63,4.48-1.52,2.63-2.28,5.16-2.28,7.59,0,3.14,1.59,4.76,4.78,4.86,2.13,0,4.45-.71,6.99-2.13,2.53-1.42,4.92-3.08,7.18-4.97,2.25-1.9,4.06-3.63,5.43-5.2.25-.25.53-.38.83-.38.25,0,.51.11.76.34s.38.49.38.8c0,.25-.1.51-.3.76-1.67,1.87-3.72,3.82-6.15,5.85s-5.04,3.76-7.82,5.2-5.44,2.16-7.97,2.16h-.02Z"/>
      <path class="cls-1" d="M287.79,63.26h-.38c-3.04-.2-4.56-3.06-4.56-8.58,0-2.78.41-6.28,1.22-10.48.2-.86.73-1.29,1.59-1.29.35,0,.67.11.95.34s.42.54.42.95v.3c-.86,4.41-1.29,7.95-1.29,10.63,0,3.44.73,5.34,2.2,5.69l.68.08c1.82,0,4.06-1.1,6.72-3.3,2.66-2.2,5.5-5.18,8.54-8.92.25-.3.56-.46.91-.46.2,0,.43.09.68.27s.38.42.38.72c0,.25-.1.51-.3.76-3.34,4.05-6.58,7.28-9.72,9.68-3.14,2.41-5.82,3.61-8.05,3.61h0ZM286.12,40.1c-.56,0-.91-.81-1.06-2.43.05-.3.1-.65.15-1.03s.23-.67.53-.87c.3-.2.61-.3.91-.3.41,0,.75.11,1.03.34s.42.57.42,1.03v.15c-.66,2.08-1.32,3.11-1.97,3.11h-.01Z"/>
      <path class="cls-1" d="M308.74,63.19h-.3c-1.27-.25-2.32-1.24-3.15-2.96-.84-1.72-1.25-3.9-1.25-6.53v-.61c-1.01-.66-1.52-1.87-1.52-3.64,0-1.16.24-2.39.72-3.68.48-1.29,1.2-2.38,2.16-3.27.96-.89,2.2-1.33,3.72-1.33l1.14.08c3.39.66,5.09,3.49,5.09,8.51,0,1.87-.2,3.57-.61,5.09,2.18-.35,4.11-1.1,5.81-2.24,1.69-1.14,3.33-2.49,4.9-4.06.25-.25.53-.38.84-.38.25,0,.49.13.72.38s.34.51.34.76c0,.3-.13.58-.38.83-1.82,1.82-3.77,3.38-5.85,4.67-2.08,1.29-4.4,2.09-6.99,2.39-1.57,4-3.37,6-5.39,6h0ZM303.88,35.32c-.3,0-.54-.09-.72-.27s-.27-.37-.27-.57c0-.4.3-.78.91-1.14,7.75-3.54,11.79-5.37,12.15-5.47.56,0,1.01.3,1.37.91.1.2.15.43.15.68,0,.51-.28.94-.83,1.29-8.3,3.04-12.56,4.56-12.76,4.56h0ZM312.46,54.98c.46-1.52.68-3.27.68-5.24,0-3.75-1.16-5.74-3.49-6-1.21,0-2.35.91-3.42,2.73.3.1.57.29.8.57.23.28.34.62.34,1.03-.25,1.92-.38,3.62-.38,5.09,1.42,1.22,3.24,1.82,5.47,1.82h0ZM309.05,60.38c1.01,0,1.92-1.06,2.73-3.19-1.57,0-3.11-.4-4.63-1.22.2,2.84.83,4.3,1.9,4.41Z"/>
      <path class="cls-1" d="M344.59,63.26h-.23c-2.58-.41-4.26-2.19-5.05-5.35-.79-3.16-1.25-6.24-1.4-9.23-.05-1.26-.14-2.3-.27-3.11-.13-.81-.32-1.21-.57-1.21-.91.15-2.66,2.73-5.24,7.74-2.48,4.81-3.9,8.02-4.25,9.64-.05.51-.23.87-.53,1.1s-.63.34-.99.34-.68-.11-.99-.34c-.3-.23-.46-.57-.46-1.03l1.06-19.21c.05-.35.21-.66.49-.91s.65-.38,1.1-.38c.41.05.73.22.99.49.25.28.38.6.38.95l-.76,12.76c4.15-9.06,7.42-13.69,9.8-13.9.86,0,1.52.43,1.97,1.29.71,1.42,1.27,4.1,1.67,8.05.2,2.48.56,4.73,1.06,6.76.51,2.03,1.44,3.06,2.81,3.11,2.38,0,6.68-4.07,12.91-12.23.25-.3.56-.46.91-.46.25,0,.49.1.72.3.23.2.34.48.34.84,0,.25-.05.48-.15.68-6.73,8.86-11.85,13.29-15.34,13.29l.02.02Z"/>
      <path class="cls-1" d="M374.05,105.33c-1.52,0-2.8-.66-3.83-1.97-1.04-1.32-1.56-3.22-1.56-5.69,0-4.61,1.87-10.15,5.62-16.63,3.19-5.52,7.32-10.93,12.38-16.25v-2.28c0-5.01-.15-9.64-.46-13.9-.86,2.94-1.95,5.75-3.27,8.43s-2.81,4.38-4.48,5.09c-.35.1-.71.15-1.06.15-1.17,0-2.04-.65-2.62-1.94s-.99-2.89-1.22-4.78c-.23-1.9-.34-3.71-.34-5.43,0-2.28.05-4,.15-5.16.1-1.16.63-1.75,1.59-1.75.41.05.75.23,1.03.53s.42.66.42,1.06c-.1,1.17-.15,2.84-.15,5.01,0,6.53.66,9.79,1.97,9.79.71-.05,1.52-.96,2.43-2.73,1.47-2.99,2.89-6.93,4.25-11.85.51-1.82.77-2.97.8-3.45.02-.48.16-.86.42-1.14.25-.28.61-.42,1.06-.42.41,0,.75.13,1.03.38s.44.6.49,1.03.1.95.15,1.56c.51,6.63.76,12.51.76,17.62v1.22l.08-.08c5.77-5.57,12.12-10.05,19.06-13.44l.46-.08c.46,0,.81.2,1.06.61l.08.46c0,.41-.2.73-.61.99-7.19,3.54-13.9,8.43-20.12,14.66-.05,7.59-.86,15.06-2.43,22.4-1.52,6.18-3.54,10.72-6.07,13.63s-4.89,4.37-7.06,4.37v-.02ZM373.82,102.44c1.57,0,3.39-1.29,5.47-3.87,2.08-2.58,3.77-6.56,5.09-11.92,1.22-5.97,1.95-12.15,2.2-18.53-4.2,4.66-7.67,9.32-10.4,13.97-3.64,6.43-5.47,11.62-5.47,15.57,0,3.14,1.04,4.73,3.11,4.78Z"/>
      <path class="cls-1" d="M424.47,63.64c-.41-.05-.75-.23-1.03-.53s-.42-.63-.42-.99l.76-19.44c0-.4.15-.75.46-1.03.3-.28.66-.42,1.06-.42s.75.15,1.03.46c.28.3.42.66.42,1.06l-.46,11.54c.25-.76.8-2.16,1.63-4.21.84-2.05,1.85-4.04,3.04-5.96,1.19-1.92,2.37-2.89,3.53-2.89.81,0,1.54.51,2.2,1.52.46.71.9,1.53,1.33,2.47s.91,1.78,1.44,2.54,1.18,1.14,1.94,1.14c.96,0,2.18-.89,3.64-2.66.3-.25.58-.38.83-.38s.46.08.61.23c.15.15.23.33.23.53,0,.25-.13.53-.38.84-2.53,2.48-4.56,3.72-6.08,3.72-1.11,0-2.04-.44-2.77-1.33-.73-.88-1.36-1.81-1.86-2.77-.66-1.27-1.27-1.97-1.82-2.13-.81,0-1.72,1.13-2.73,3.38s-1.96,4.67-2.85,7.25c-.89,2.58-1.56,4.61-2.01,6.08-.15.41-.27.73-.34.99-.08.25-.24.48-.49.68-.25.2-.56.3-.91.3h0Z"/>
      <path class="cls-1" d="M455.22,63.26c-2.94,0-5.19-.89-6.76-2.66-1.01-1.22-1.52-2.78-1.52-4.71,0-1.67.46-3.64,1.37-5.92,1.27-3.04,3.19-5.42,5.77-7.14l.38-.3c1.72-.96,3.24-1.44,4.56-1.44,2.02,0,3.14.86,3.34,2.58,0,1.77-1.57,3.62-4.71,5.54-2.53,1.47-4.66,2.2-6.38,2.2h-.38c-.61,1.62-.91,2.99-.91,4.1,0,1.22.28,2.19.84,2.92s1.32,1.27,2.28,1.59c.96.33,1.97.49,3.04.49,2.28,0,4.59-.67,6.95-2.01,2.35-1.34,4.53-2.92,6.53-4.75,2-1.82,3.66-3.54,4.97-5.16.25-.3.53-.46.83-.46.25,0,.49.11.72.34s.34.49.34.8c0,.25-.08.48-.23.68-1.52,1.92-3.42,3.9-5.69,5.92-2.28,2.03-4.75,3.76-7.4,5.2-2.66,1.44-5.3,2.16-7.94,2.16v.03ZM452.04,49.14l.53-.15c1.26-.3,2.58-.86,3.95-1.67,2.18-1.37,3.27-2.3,3.27-2.81,0-.3-.25-.46-.76-.46-.66,0-1.77.41-3.34,1.22-1.42,1.01-2.63,2.3-3.64,3.87h-.01Z"/>
      <path class="cls-1" d="M479.9,63.26c-2.53-.05-4.34-.78-5.43-2.2-1.09-1.42-1.63-3.14-1.63-5.16,0-3.19,1-6.37,3-9.53s4.32-4.87,6.95-5.13c1.16,0,2.15.55,2.96,1.63.81,1.09,1.22,2.87,1.22,5.35v1.1c0,.33-.11.6-.34.8-.23.2-.52.3-.87.3-.3-.05-.54-.18-.72-.38s-.27-.43-.27-.68v-1.37c0-2.73-.61-4.1-1.82-4.1h-.23c-1.57.36-3.11,1.85-4.63,4.48s-2.28,5.16-2.28,7.59c0,3.14,1.59,4.76,4.78,4.86,2.13,0,4.45-.71,6.99-2.13,2.53-1.42,4.92-3.08,7.18-4.97,2.25-1.9,4.06-3.63,5.43-5.2.25-.25.53-.38.83-.38.25,0,.51.11.76.34s.38.49.38.8c0,.25-.1.51-.3.76-1.67,1.87-3.72,3.82-6.15,5.85-2.43,2.03-5.04,3.76-7.82,5.2s-5.44,2.16-7.97,2.16h-.02Z"/>
      <path class="cls-1" d="M504.58,63.26h-.38c-3.04-.2-4.56-3.06-4.56-8.58,0-2.78.41-6.28,1.22-10.48.2-.86.73-1.29,1.59-1.29.35,0,.67.11.95.34s.42.54.42.95v.3c-.86,4.41-1.29,7.95-1.29,10.63,0,3.44.73,5.34,2.2,5.69l.68.08c1.82,0,4.06-1.1,6.72-3.3,2.66-2.2,5.5-5.18,8.54-8.92.25-.3.56-.46.91-.46.2,0,.43.09.68.27s.38.42.38.72c0,.25-.1.51-.3.76-3.34,4.05-6.58,7.28-9.72,9.68-3.14,2.41-5.82,3.61-8.05,3.61h.01ZM502.91,40.1c-.56,0-.91-.81-1.06-2.43.05-.3.1-.65.15-1.03.05-.38.23-.67.53-.87.3-.2.61-.3.91-.3.41,0,.75.11,1.03.34s.42.57.42,1.03v.15c-.66,2.08-1.32,3.11-1.97,3.11h-.01Z"/>
      <path class="cls-1" d="M520.53,96.29c-.35,0-.68-.15-.99-.46s-.46-.66-.46-1.06v-6c0-23.59.96-39.87,2.89-48.83.91-4.4,2.15-6.61,3.72-6.61.81,0,1.44.36,1.9,1.06.15.25.23.53.23.84,0,.46-.2.86-.61,1.21-.25.2-.51.3-.76.3l-.46-.08c-1.82,3.64-3.06,15.14-3.72,34.48,1.27-8.05,3.09-15.16,5.47-21.34,1.32-3.09,2.77-5.34,4.37-6.76s3.1-2.13,4.52-2.13c1.52,0,2.81.72,3.87,2.16s1.59,3.41,1.59,5.89c0,1.32-.18,2.76-.53,4.33,5.52-2.73,10.02-4.45,13.52-5.16h.23c.35,0,.62.11.8.34s.27.49.27.8c0,.61-.3.96-.91,1.06-3.44.66-8.38,2.61-14.81,5.85-.96,2.68-2.38,5.14-4.25,7.37-2.33,2.68-4.43,4.02-6.3,4.02-1.47,0-2.28-.81-2.43-2.43,0-.96.4-2.06,1.22-3.3.81-1.24,2.13-2.49,3.95-3.76,1.57-1.01,3.27-2.02,5.09-3.04.81-2.28,1.22-4.28,1.22-6,0-3.34-1.11-5.11-3.34-5.32-.96,0-2,.53-3.11,1.59s-2.18,2.78-3.19,5.16c-2.53,6.63-4.4,14.63-5.62,24s-1.82,16-1.82,19.9v.38c0,.4-.15.76-.46,1.06-.3.3-.66.46-1.06.46l-.03.02ZM530.48,64.7c.56,0,1.77-1.01,3.64-3.04.76-.86,1.49-1.92,2.2-3.19l-2.28,1.44c-1.37.96-2.37,1.84-3,2.62-.63.79-.95,1.38-.95,1.78,0,.25.13.38.38.38h.01Z"/>
      <path class="cls-1" d="M555.54,63.64c-.41-.05-.75-.23-1.03-.53s-.42-.63-.42-.99l.76-19.44c0-.4.15-.75.46-1.03.3-.28.66-.42,1.06-.42s.75.15,1.03.46c.28.3.42.66.42,1.06l-.46,11.54c.25-.76.8-2.16,1.63-4.21.84-2.05,1.85-4.04,3.04-5.96,1.19-1.92,2.37-2.89,3.53-2.89.81,0,1.54.51,2.2,1.52.46.71.9,1.53,1.33,2.47s.91,1.78,1.44,2.54,1.18,1.14,1.94,1.14c.96,0,2.18-.89,3.64-2.66.3-.25.58-.38.83-.38s.46.08.61.23c.15.15.23.33.23.53,0,.25-.13.53-.38.84-2.53,2.48-4.56,3.72-6.08,3.72-1.11,0-2.04-.44-2.77-1.33-.73-.88-1.36-1.81-1.86-2.77-.66-1.27-1.27-1.97-1.82-2.13-.81,0-1.72,1.13-2.73,3.38s-1.96,4.67-2.85,7.25c-.89,2.58-1.56,4.61-2.01,6.08-.15.41-.27.73-.34.99-.08.25-.24.48-.49.68-.25.2-.56.3-.91.3h0Z"/>
      <path class="cls-1" d="M584.85,63.19h-.3c-1.27-.25-2.32-1.24-3.15-2.96-.84-1.72-1.25-3.9-1.25-6.53v-.61c-1.01-.66-1.52-1.87-1.52-3.64,0-1.16.24-2.39.72-3.68.48-1.29,1.2-2.38,2.16-3.27.96-.89,2.2-1.33,3.72-1.33l1.14.08c3.39.66,5.09,3.49,5.09,8.51,0,1.87-.2,3.57-.61,5.09,2.18-.35,4.11-1.1,5.81-2.24,1.69-1.14,3.33-2.49,4.9-4.06.25-.25.53-.38.84-.38.25,0,.49.13.72.38s.34.51.34.76c0,.3-.13.58-.38.83-1.82,1.82-3.77,3.38-5.85,4.67-2.08,1.29-4.4,2.09-6.99,2.39-1.57,4-3.37,6-5.39,6h0ZM588.57,54.98c.46-1.52.68-3.27.68-5.24,0-3.75-1.16-5.74-3.49-6-1.21,0-2.35.91-3.42,2.73.3.1.57.29.8.57s.34.62.34,1.03c-.25,1.92-.38,3.62-.38,5.09,1.42,1.22,3.24,1.82,5.47,1.82h0ZM585.15,60.38c1.01,0,1.92-1.06,2.73-3.19-1.57,0-3.11-.4-4.63-1.22.2,2.84.83,4.3,1.9,4.41Z"/>
      <path class="cls-1" d="M606.79,63.26c-2.53-.05-4.34-.78-5.43-2.2-1.09-1.42-1.63-3.14-1.63-5.16,0-3.19,1-6.37,3-9.53s4.32-4.87,6.95-5.13c1.16,0,2.15.55,2.96,1.63.81,1.09,1.22,2.87,1.22,5.35v1.1c0,.33-.11.6-.34.8-.23.2-.52.3-.87.3-.3-.05-.54-.18-.72-.38s-.27-.43-.27-.68v-1.37c0-2.73-.61-4.1-1.82-4.1h-.23c-1.57.36-3.11,1.85-4.63,4.48s-2.28,5.16-2.28,7.59c0,3.14,1.59,4.76,4.78,4.86,2.13,0,4.45-.71,6.99-2.13,2.53-1.42,4.92-3.08,7.18-4.97,2.25-1.9,4.06-3.63,5.43-5.2.25-.25.53-.38.83-.38.25,0,.51.11.76.34s.38.49.38.8c0,.25-.1.51-.3.76-1.67,1.87-3.72,3.82-6.15,5.85-2.43,2.03-5.04,3.76-7.82,5.2s-5.44,2.16-7.97,2.16h-.02Z"/>
      <path class="cls-1" d="M631.47,63.26h-.38c-3.04-.2-4.56-3.06-4.56-8.58,0-2.78.41-6.28,1.22-10.48.2-.86.73-1.29,1.59-1.29.35,0,.67.11.95.34s.42.54.42.95v.3c-.86,4.41-1.29,7.95-1.29,10.63,0,3.44.73,5.34,2.2,5.69l.68.08c1.82,0,4.06-1.1,6.72-3.3,2.66-2.2,5.5-5.18,8.54-8.92.25-.3.56-.46.91-.46.2,0,.43.09.68.27s.38.42.38.72c0,.25-.1.51-.3.76-3.34,4.05-6.58,7.28-9.72,9.68-3.14,2.41-5.82,3.61-8.05,3.61h.01ZM629.8,40.1c-.56,0-.91-.81-1.06-2.43.05-.3.1-.65.15-1.03.05-.38.23-.67.53-.87.3-.2.61-.3.91-.3.41,0,.75.11,1.03.34s.42.57.42,1.03v.15c-.66,2.08-1.32,3.11-1.97,3.11h-.01Z"/>
      <path class="cls-1" d="M666.17,95.69h-.68c-1.77-.25-2.86-2.35-3.27-6.3-.25-2.18-.38-4.83-.38-7.97.2-12.55,1.16-25.84,2.89-39.87-3.39,5.92-6.61,10.68-9.64,14.28-4.1,4.96-7.21,7.44-9.34,7.44-1.37-.15-2.05-1.19-2.05-3.11,0-2.02.63-4.51,1.9-7.44s2.86-5.56,4.78-7.86c1.92-2.3,3.9-3.46,5.92-3.46.71,0,1.35.18,1.94.53.58.36.87.81.87,1.37,0,.2-.05.43-.15.68-.35.51-.79.76-1.29.76-.25,0-.49-.06-.72-.19s-.49-.19-.8-.19c-1.32,0-2.72,1.05-4.21,3.15-1.49,2.1-2.78,4.39-3.87,6.87s-1.63,4.28-1.63,5.39c.05.61.23.91.53.91.91,0,3.06-2.07,6.46-6.23,4.2-5.26,8.25-11.62,12.15-19.06.76-5.52,1.87-11.36,3.34-17.54,2.13-9.16,4.25-13.75,6.38-13.75,1.26.2,1.9,1.39,1.9,3.57,0,4.05-1.8,10.51-5.39,19.36-1.32,3.24-2.33,5.57-3.04,6.99-2.38,16.55-3.7,32.32-3.95,47.31,0,3.04.13,5.64.38,7.82s.43,3.37.53,3.57h.15c.35,0,.68.13.99.38.3.25.46.61.46,1.06,0,.76-.38,1.27-1.14,1.52h-.02ZM670.2,25.45c.3-.76.82-2.23,1.56-4.4.73-2.18,1.44-4.41,2.13-6.68.68-2.28,1.03-3.85,1.03-4.71,0-.3-.05-.48-.15-.53-.56.1-1.42,2.51-2.58,7.21-.91,3.75-1.57,6.78-1.97,9.11h-.02Z"/>
      <path class="cls-1" d="M689.79,63.26c-3.64,0-5.47-2.86-5.47-8.58l.15-2.66-.91,1.14-1.82,2.2c-2.89,3.54-5.29,5.32-7.21,5.32-1.62,0-2.45-1.29-2.51-3.87,0-2.02.71-4.56,2.13-7.59,1.11-2.23,2.56-4.15,4.33-5.77s3.77-2.43,6-2.43c1.11,0,2.25.28,3.42.84.56.35.83.81.83,1.37,0,.2-.05.41-.15.61-.36.56-.81.83-1.37.83l-.61-.15c-.66-.3-1.32-.46-1.97-.46-1.62,0-3.11.67-4.48,2.01s-2.51,2.87-3.42,4.59c-1.17,2.38-1.75,4.23-1.75,5.54,0,1.01.33,1.57.99,1.67.91,0,2.4-1.24,4.48-3.72,1.22-1.57,2.3-3.04,3.27-4.4.56-.81.99-1.43,1.29-1.86s.63-.8.99-1.1.71-.46,1.06-.46c.51,0,.81.53.91,1.59l-.15,1.82c-.3,2.03-.46,3.59-.46,4.71,0,4,1.26,6,3.8,6,2.78,0,6.93-2.3,12.45-6.91l5.77-5.09c.2-.2.43-.3.68-.3.3,0,.57.11.8.34s.34.49.34.8c0,.56-2.08,2.56-6.23,6-6.43,5.32-11.49,7.97-15.19,7.97h0Z"/>
      <path class="cls-1" d="M727.76,95.69h-.68c-1.77-.25-2.86-2.35-3.27-6.3-.25-2.18-.38-4.83-.38-7.97.2-12.55,1.16-25.84,2.89-39.87-3.39,5.92-6.61,10.68-9.64,14.28-4.1,4.96-7.21,7.44-9.34,7.44-1.37-.15-2.05-1.19-2.05-3.11,0-2.02.63-4.51,1.9-7.44s2.86-5.56,4.78-7.86c1.92-2.3,3.9-3.46,5.92-3.46.71,0,1.35.18,1.94.53.58.36.87.81.87,1.37,0,.2-.05.43-.15.68-.35.51-.79.76-1.29.76-.25,0-.49-.06-.72-.19s-.49-.19-.8-.19c-1.32,0-2.72,1.05-4.21,3.15-1.49,2.1-2.78,4.39-3.87,6.87s-1.63,4.28-1.63,5.39c.05.61.23.91.53.91.91,0,3.06-2.07,6.46-6.23,4.2-5.26,8.25-11.62,12.15-19.06.76-5.52,1.87-11.36,3.34-17.54,2.13-9.16,4.25-13.75,6.38-13.75,1.26.2,1.9,1.39,1.9,3.57,0,4.05-1.8,10.51-5.39,19.36-1.32,3.24-2.33,5.57-3.04,6.99-2.38,16.55-3.7,32.32-3.95,47.31,0,3.04.13,5.64.38,7.82s.43,3.37.53,3.57h.15c.35,0,.68.13.99.38.3.25.46.61.46,1.06,0,.76-.38,1.27-1.14,1.52h-.02ZM731.78,25.45c.3-.76.82-2.23,1.56-4.4.73-2.18,1.44-4.41,2.13-6.68.68-2.28,1.03-3.85,1.03-4.71,0-.3-.05-.48-.15-.53-.56.1-1.42,2.51-2.58,7.21-.91,3.75-1.57,6.78-1.97,9.11h-.02Z"/>
    </g>
  </g>
</svg>