<?xml version="1.0" encoding="UTF-8"?>
<svg id="Capa_1" xmlns="http://www.w3.org/2000/svg" version="1.1" viewBox="0 0 85.2 84.4">
  <!-- Generator: Adobe Illustrator 29.5.1, SVG Export Plug-In . SVG Version: 2.1.0 Build 141)  -->
  <defs>
    <style>
      .st0 {
        fill: #fff;
      }

      .st1 {
        fill: #550089;
      }
    </style>
  </defs>
  <path class="st1" d="M84.6,29.3c2.9-11.2-4.4-24.7-16.4-28.3-8.7-2.7-18.9.3-25.6,7.4C36,1.5,26.8-1.6,18.2.8,6,4-1.9,17.2.4,28.7c1.6,7.7,7.3,12,9.4,13.5C8.5,43.3,0,51.6.9,62.5c1.1,13.4,16,24.3,28.5,21.4,7.7-1.8,11.8-8.5,13.2-10.9,1.2,2,6.3,9.3,14.7,11,12.2,2.4,26.3-7.8,27.4-20.9,1-11.9-8.8-20.3-9.7-20.9,2.1-1.4,7.7-5.3,9.6-12.8Z"/>
  <path class="st0" d="M75,42.3c0,.8-.5,1.6-.9,2.2-4.5,5.7-11.7,7.2-16.9,3.2-1-.8-1.9-1.7-.6.1,3,4.2,7.1,8.3,8.4,13.4.4,1.6-.4,2.3-2,1.9-5.4-1.3-10.2-3.8-14.8-6.9-1.5-1.1-1.3-.8-.3.4,3.9,4.9,3.2,11.6-2.6,15.7-.8.5-1.7.9-2.7.8-.9,0-1.7-.5-2.5-1-6.2-4.4-6.8-11.4-1.9-16.2.6-.7.6-.6,0-.2-4.7,3.3-8.9,6.4-14.7,7.6-1.1.2-2.9.8-3.4-.3-.6-2.5,6.8-12.4,9.4-15.9.1-.2.5-.7.5-.7,0,0-.3.2-.6.6-5.2,5-13.3,3.7-18.2-2.3-.6-.7-1-1.5-1-2.4,0-.9.5-1.7,1-2.4,4.7-5.8,12.3-7.5,17.5-3.2.3.2,1.8,1.7,1,.6-4-5.6-8.8-10.9-10.2-17.9-1-4.3,4.2-1.7,6-.7,4.4,2.6,7.8,6.9,11.9,9.9.5.4,1.7,1.3.7.1-5.1-5.4-3.4-14.1,2.6-19.3.6-.6,1.5-1,2.3-1,.8,0,1.6.5,2.3,1,5.8,4.9,7.6,13.1,3.2,18.5-.7.8-1.8,1.9-.1.4,2.7-2.2,4.9-4,7.6-6,20.2-14.8,7,5.9.7,14.3-1.3,1.8,0,.4.7-.2,5.2-4.3,12.6-2.6,17.1,3.4.5.6.9,1.4.9,2.2v.2Z"/>
  <path class="st1" d="M33.8,42.1c0-4.7,3.7-8.6,8.4-8.7.1,0,.2,0,.3,0,4.8,0,8.8,3.8,8.9,8.6,0,0,0,0,0,0,0,4.9-4,8.9-9,8.9-4.9,0-8.8-4-8.7-8.9Z"/>
</svg>