<svg xmlns="http://www.w3.org/2000/svg" xmlns:xlink="http://www.w3.org/1999/xlink" width="228.49" height="224.487" viewBox="0 0 228.49 224.487"><defs><clipPath id="a"><rect width="228.49" height="224.487" transform="translate(1902.25 888.708)" fill="none"/></clipPath></defs><g transform="translate(-1902.25 -888.708)" opacity="0.4"><g clip-path="url(#a)"><path d="M2082,1059.346l2.569-3.2,1.346,4.943c1.146.216,2.427.434,3.693.7,1.359.289,2.706.624,4.058.94.006.017.013.034.02.052l.049-.033,0,0h0l-.092-.08,1.9-.822,2.051,2.342c1.1-1.131.949-1.953.018-2.994a9.409,9.409,0,0,1-1.288-2.7l2.086.639-2.528-3.95c-.637.812-1.023,1.306-1.41,1.8.9.175,2,.151,1.729,1.444-.563.5-1.245,1.39-1.63,1.3a26.289,26.289,0,0,1-4.023-1.626c.061-.239.123-.477.184-.716l2.044-.2c-2.022-1.98-4.32.22-6.589-.362l-2.871-5.331-3.095,1.816c.956.866,2.025,1.385,2.23,2.1.6,2.108-2.556,1.292-2.864,2.473.4,2.014,1.087,3.546,3.49,3.511.258-.357.518-.716.811-1.119l-1.882-.92" fill="#fff"/><path d="M2016.433,1066.352l-.417-.151-3.416,4.494,3.75,4.869,1.318-2.045-2.168-.893.349-.467,2.98.425-3.551-3.967c.4-.776.775-1.521,1.155-2.265" fill="#fff"/><path d="M2010.632,1081.2c-1.819-2.241.132-3.534.863-5.121a.935.935,0,0,0,.009-.363l.022.012.008.005.038.021.013,0-.011,0c.173-.831.347-1.662.517-2.475l-4.314.37c.68,1.6,1.862,2.765.351,4.466-1.3,1.469.164,2.508,2.5,3.093" fill="#fff"/><path d="M1987.413,1082.7a2.862,2.862,0,0,0-2.333-.235c-.775.46-1.021,1.236.218,1.979.64.385.69,1.568,1.009,2.389,2.534-2.1,5.869.234,8.612-1.718l-5.961-.436c-.494-.671-.849-1.547-1.545-1.979" fill="#fff"/><path d="M2093.4,1036.83c-.3-1.156-1.493-1.689-2.887-1.05-.853,1.936,1.252,2.269,2.218,3.057-2.529,5.655-2.529,5.655-1.973,6.512a22.172,22.172,0,0,0,2.655-4.319,7.527,7.527,0,0,0-.013-4.2" fill="#fff"/><path d="M2023.21,923.836l3.342-4.234-6.842-1.077,3.5,5.311" fill="#fff"/><path d="M1957.326,1091.907l-4.949-3.265c-.348,1.429-.533,2.184-.729,2.988l3.807,2.48,1.871-2.2" fill="#fff"/><path d="M2056.49,1061.52c-.275.846-.93,1.771-.74,2.522a11.871,11.871,0,0,0,1.84,3.584,32.409,32.409,0,0,0,2.541,2.944c.66-1.243.266-4.418-1.1-4.983-2.109-.875-2.3-2.241-2.543-4.067" fill="#fff"/><path d="M2028.676,1075.293c-.576-1.36-1.582-2.7-1.638-4.082-.118-2.892-.209-3.123-4.7-2.929l3.521,1.548c.187,2.437.375,4.881.559,7.288l1.905-.479q.177-.674.352-1.346" fill="#fff"/><path d="M2111.573,1099.25a2.445,2.445,0,0,1-3.55-.486l-2.75,3.2,4.813,1.2c.468-1.231.917-2.411,1.487-3.912" fill="#fff"/><path d="M2001.677,1102.736c.038.133.328.207.779.473v-2.9c2.789-1.678,2.789-1.678,2.79-3.752-4.657,2.207-4.7,2.286-3.569,6.179" fill="#fff"/><path d="M2091.423,1049.589c-.9-1.032-2.213-.8-3.59-.491l2.612,4.727c.867-1.439,2.293-2.73.978-4.236" fill="#fff"/><path d="M1924.864,1032.851c1.171,1.016.161,3.41,3.035,3.524a2.815,2.815,0,0,0,.129-3.985c-.441-.493-1.8-.321-2.736-.451l-.428.912" fill="#fff"/><path d="M1934.643,1100.312c.145,2.815.145,2.815,2.932,2.815l-.783-1.536,2-1.451-.175-.46-3.976.632" fill="#fff"/><path d="M2130.056,1036.928a2.2,2.2,0,0,0-.255-1.636c-1.366-.02-2.735.122-4.389.242l2.835,3.035a8.063,8.063,0,0,0,1.809-1.641" fill="#fff"/><path d="M1978.285,1038.172c-1.32-1.641-1.682-2.755-3.646-2-.893.344-2.437-.686-4.09-1.224,1.53,3.513,4.53,2.552,7.736,3.222" fill="#fff"/><path d="M2089.248,1032.437c.766-.947,1.029-1.565,1.519-1.8a13.349,13.349,0,0,1,2.774-.587l-6.359-2.425,2.066,4.816" fill="#fff"/><path d="M1914.125,1042.291c3.576.084,3.576.084,3.659-2.741-2.68-.971-3.186.667-3.659,2.741" fill="#fff"/><path d="M2115.625,1094.875c-2.1.317-3.58.9-3.632,3.935a22.637,22.637,0,0,0,3.838-1.909c.319-.248-.109-1.279-.206-2.026" fill="#fff"/><path d="M2038.271,902.8l-1.936,1.436,2.645,3.308c2.172-2.139-.57-3.092-.709-4.744" fill="#fff"/><path d="M2079.6,1102.514a8.124,8.124,0,0,1-2.514-1.056c.294,2.767.294,2.767,3.527,2.64.508-.974.514-1.571-1.013-1.584" fill="#fff"/><path d="M2076.34,1054.1a6.454,6.454,0,0,0,.968-1.622l-5.126-1.1q-.124.386-.25.771l2.863.729c-.056.622-.094,1.055-.154,1.728a5.289,5.289,0,0,0,1.7-.509" fill="#fff"/><path d="M1985.234,1078.357c-.573.165-.835,1.207-1.574,2.389l5.04-1.087c-.818-1.876-2.3-1.638-3.466-1.3" fill="#fff"/><path d="M1902.789,1095.346c-.056.253-.113.506-.169.759l2.117,1.341,2.986-2.071c-2.017-1.842-3.38.054-4.934-.029" fill="#fff"/><path d="M2056.941,1103.954a13.052,13.052,0,0,1-1.45.862c.458.66.737,1.062.86,1.238l4.355-1.126c-1.305-1.029-2.046-2.323-3.765-.974" fill="#fff"/><path d="M1907.82,1109.033l-5.054-1.443-.519,1.268,5.616.869c-.014-.232-.029-.463-.043-.694" fill="#fff"/><path d="M1923.183,1046.65l2.667,2.039.769-4.683-3.436,2.644" fill="#fff"/><path d="M2029.054,913.189l6.483.836-3.532-2.946-2.951,2.11" fill="#fff"/><path d="M2130.74,1052.3l-3.071-2.64c-.353.473-.774,1.04-1.342,1.8l4.067,1.381c.116-.18.231-.361.346-.541" fill="#fff"/><path d="M2034.973,1076.417c-.117.294-.192.6-.3.955h3.137v-2.99l-2.223.618.006-.016v0c-.006.012.034-.085.034-.085l-.033-.019c0,.032,0,.064,0,.1-.208.478-.425.954-.618,1.437" fill="#fff"/><path d="M1931.489,1023.434a1.587,1.587,0,0,0-1.157.333c-.749.837-1.374,1.765-2.047,2.657l.661.68c1.024-.8,2.1-1.561,3.025-2.444.165-.156-.186-.889-.482-1.226" fill="#fff"/><path d="M1981.4,992.87l2.449-3.889q-.252-.125-.506-.247l-3.169,1.851,1.226,2.285" fill="#fff"/><path d="M2003.928,1074l.064-.008v-.081l-.09.092q-.63-1.038-1.264-2.08c-2.258,1.285-1.022,3.119-.782,4.9l2.072-2.819" fill="#fff"/><path d="M2106.841,1095.963c-1.671-.921-2.629-.192-3.623.667.313,1.263.6,2.439.894,3.614l.722-.133c-.152-.811-.668-1.766-.361-2.4.34-.7,1.432-1.1,2.368-1.753" fill="#fff"/><path d="M2081.234,925.851l-3.825.558,1.325,2.47,2.884-2.446-.384-.582" fill="#fff"/><path d="M2065.734,1091.948h4.5c-1.99-2.345-1.99-2.345-4.5,0" fill="#fff"/><path d="M2048.875,1062.708c-.575-2.333-.575-2.333-3.011-2.273.017,1.831,1.045,2.532,3.011,2.273" fill="#fff"/><path d="M2036.193,1080.9l1.479,2.274,2.982-2.274Z" fill="#fff"/><path d="M2083.1,1061.593c-.337,2.712-.241,2.726,3.642,2.961l-3.642-2.961" fill="#fff"/><path d="M2083.085,1061.422l.043-.034c-.021,0-.035,0-.055,0l-.083.115.115.093c.01-.069.016-.133.026-.207l-.046.037" fill="#fff"/><path d="M2101.714,890.079l3.021,1.185c.34-.639.666-1.251,1.12-2.106-1.44.291-2.892-1.263-4.141.921" fill="#fff"/><path d="M1966.812,941.739c.069.312,1.016.467,1.664.74l1.332-3.326c-1.4,1.122-3.375.87-3,2.586" fill="#fff"/><path d="M2105.748,1103.436c-4,1.255-4.34,1.715-2.273,4.412-1.72-3.189,2.9-2.228,2.273-4.412" fill="#fff"/><path d="M2057.837,1074.6c1.337,1.125,1.337,1.125,4.578-.967l-4.578.967" fill="#fff"/><path d="M1931.2,1041.937c.116-2.206-1.249-2.178-3.14-1.769-.1,2.932,1.869,1.644,3.14,1.769" fill="#fff"/><path d="M2042.77,1103.514c-.724-.233-1.812.453-3.069.843l4.357,1.994c-.564-1.351-.706-2.65-1.288-2.837" fill="#fff"/><path d="M2007.145,1099.809c-.207-.2-.709-.15-1.293-.254-.075.913-.139,1.693-.241,2.938,2.412-.64,2.824-1.441,1.534-2.684" fill="#fff"/><path d="M1952.609,1098.7l-2.793,2.937c2.764.405,3.878-.01,2.793-2.937" fill="#fff"/><path d="M2106.3,1030.079a26.828,26.828,0,0,0-3.414,1.1l.219.582a19.8,19.8,0,0,0,3.187.253c.458-.031.866-.659,1.3-1.016-.434-.327-.949-.988-1.288-.921" fill="#fff"/><path d="M2071.332,1098.746l4.258-1.814c-2.265-.746-2.265-.746-4.258,1.814" fill="#fff"/><path d="M2042.587,893.025c1.407.816,2.636.813,3.737-1.1l-2.865.746v-1.652c-1.262,1.38-1.4,1.7-.872,2.008" fill="#fff"/><path d="M1974.59,1095.546l-4.456.575c1.336.429,2.707,1.644,4.456-.575" fill="#fff"/><path d="M2078.748,931.181l-2.634,1.231c.8.667,1.275,1.063,1.892,1.578l1.3-2.3-.559-.512" fill="#fff"/><path d="M1958.529,1084.571c.7-1.759-.144-2.722-1.282-3.859-1.779,2.039-.588,2.864,1.282,3.859" fill="#fff"/><path d="M1967.033,926.861l1.614,1.148-1.142,1.728c1.985.139,2.4-.831,1.944-1.987-.217-.555-1.233-.866-1.914-1.248-.06-.033-.322.227-.5.359" fill="#fff"/><path d="M2036.624,908.38c.034-.031-.088-.2-.283-.61-1.048.35-2.517-.02-2.722,1.633-.037.293.519.646.8.972.738-.662,1.48-1.321,2.2-1.995" fill="#fff"/><path d="M2017.8,913.315l3.842,2.838c-1.3-3.483-1.3-3.483-3.842-2.838" fill="#fff"/><path d="M2014.538,918.534l2.848-.341.276-.871-3.816-1.16c.329,1.127.5,1.708.692,2.372" fill="#fff"/><path d="M2045.277,904.846l-.612-.16-1.11,2.4,2.318.77c-.255-1.288-.425-2.151-.6-3.013" fill="#fff"/><path d="M2025.6,1085.178c1.23-.868,2.508-1.4,1.593-3.169l-2.856,1.559,1.263,1.61" fill="#fff"/><path d="M2093.008,1018.329c-.656,1.3-1.049,2.086-1.828,3.638l3.674-1.7-1.846-1.936" fill="#fff"/><path d="M2001.106,1091.8q-.187,1.889-.376,3.778l.992-.013c.463-2.116.463-2.116-.616-3.765" fill="#fff"/><path d="M1986.313,1094.613l4.234-1.273c-2.025-.984-3.38-1.645-4.234,1.273" fill="#fff"/><path d="M2026.066,1093.16l-1.161,2.489.411.317,2.276-1.7-1.526-1.109" fill="#fff"/><path d="M2076.423,901.463a4.4,4.4,0,0,1,.837-3.182c-2.314.823-2.314.823-.837,3.182" fill="#fff"/><path d="M1966.9,1039.169l-1.4,2.075c.218.556.227.71.314.765a.412.412,0,0,0,.365-.01,17.448,17.448,0,0,0,1.55-1.726c.069-.094-.356-.486-.834-1.1" fill="#fff"/><path d="M2079.206,1007.235l-3.474-.224c.173.9.291,1.517.426,2.219l3.2-1.452Z" fill="#fff"/><path d="M2069.556,993.165c-2.667-.5-2.084,1.4-2.852,2.2l.864.615,1.988-2.819" fill="#fff"/><path d="M1971.879,1073.642l3.714.32c.036-.313.073-.626.109-.939-1.143.409-2.442-1.938-3.823.619" fill="#fff"/><path d="M1962.863,960.139l2.185.909c.426-.876.805-1.656,1.184-2.434l-.621-.377-2.748,1.9" fill="#fff"/><path d="M1949.43,961.327l4.364.51c-2.25-1.7-2.25-1.7-4.364-.51" fill="#fff"/><path d="M1993.057,965.578l3.877.292c-.6-1-1.084-1.8-1.564-2.594-.8.8-1.462,1.455-2.313,2.3" fill="#fff"/><path d="M2010.948,972.149l1.243,2.309,2.446-1.3q-.088-.333-.178-.664l-3.511-.348" fill="#fff"/><path d="M2005.893,1065.777l3.566-1.107c-1.711-1.272-2.53-.625-3.566,1.107" fill="#fff"/><path d="M1954.469,966.69l.78.172c.472-1.007,1.79-1.782.067-3.285q-.423,1.555-.847,3.113" fill="#fff"/><path d="M2077.237,1064.411q-2.288.135-4.575.271c.037.333.076.665.114,1l4.531-.555c-.025-.238-.047-.476-.07-.714" fill="#fff"/><path d="M2117.434,1060.146l-2.625-.857c.522,1.2.874,2.013,1.389,3.2.478-.905.8-1.519,1.236-2.343" fill="#fff"/><path d="M2032.123,1065.141c-2.477.955-2.477.955-2.6,2.718l.8.338,1.8-3.056" fill="#fff"/><path d="M1938.095,984.591c1.572.616,2.942-.14,5.194-1.26l-5.16.415c-.011.282-.023.563-.034.845" fill="#fff"/><path d="M2119.382,1113.195l-1.635-3.33c-.972,1.587-.148,2.356,1.635,3.33" fill="#fff"/><path d="M2070.291,1111.309l3.323-2.793c-2.582-.316-3.689.209-3.323,2.793" fill="#fff"/><path d="M2055.506,946.34l2.48-1.125-.48-.863-2.374,1.405.374.583" fill="#fff"/><path d="M2069.079,1073.41l-.351,1.106c.923,1.807,2.227.094,3.45-.542l-3.1-.564" fill="#fff"/><path d="M2067.406,1103.034a1.193,1.193,0,0,0-1.029-.27c-1.258.813-.7,1.636.25,2.582.69-.7,1.56-1.259.779-2.312" fill="#fff"/><path d="M2026.973,1102.566l-1.851-2.37c-.187.759-.169,1.135-.363,1.362a5.14,5.14,0,0,1-1.046.739q.225.4.451.8l2.809-.529" fill="#fff"/><path d="M2080.142,1076.449l-2.994-1q-.181.645-.365,1.29l3.122.475.237-.765" fill="#fff"/><path d="M1946.571,1097.343l2.76-1.065.165,1.121,1.781-1.175-.318-.473c-.571.172-1.141.345-1.709.515q-.506-.5-1.005-1.011l-2.008,1.743.334.345" fill="#fff"/><path d="M2046.356,897.8l3.893-1.742c-2.048-.3-3.739-.941-3.893,1.742" fill="#fff"/><path d="M2019.4,1091.31c-.38-.49-.705-.877-.992-1.285-.32-.455-.6-.929-.906-1.4l-.709.452c.437,1.013,0,2.669,2.607,2.228" fill="#fff"/><path d="M1978.88,1085.107c.005.061.01.123.016.184.035-.08.071-.159.107-.239l-.111-.047-.021-.009q.7.086,1.412.175c.027-.228.055-.457.082-.686l-3.564-.635c.228,1.5.907,1.823,2.079,1.257" fill="#fff"/><path d="M2105.987,1087.056l-3.375-.633c.772,2.327,1.992,1.567,3.375.633" fill="#fff"/><path d="M2015.221,910.178l-2.961,2.417c1.736-.016,3.179-.341,2.961-2.417" fill="#fff"/><path d="M2042.348,909.29c-1.62-1.4-2.3.378-3.378.537,1.2.346,2.456.921,3.378-.537" fill="#fff"/><path d="M2079.388,908.727l1.213.566a10.2,10.2,0,0,0,.844-1.768c.029-.1-.768-.394-1.183-.6q-.438.9-.874,1.8" fill="#fff"/><path d="M2009.549,1093.609l1.077-2.939-.922-.285q-.546,1.467-1.093,2.935l.938.289" fill="#fff"/><path d="M2014.938,926.43c.762-1.013,1.265-1.67,1.744-2.342.028-.041-.133-.191-.3-.418l-2.6-.132,1.149,2.892" fill="#fff"/><path d="M2060.467,927.007c.374-.706.665-1.448,1.034-2.293-2.856-.495-1.955,1.259-2.659,2.669,1.151-.255,1.555-.243,1.625-.376" fill="#fff"/><path d="M2030.278,904.917c-.466,1.233-.842,2.227-1.215,3.217.571-.918,3.532-.77,1.215-3.217" fill="#fff"/><path d="M2029.037,908.2c.009-.023.018-.046.026-.069-.007.011-.017.02-.023.031Z" fill="#fff"/><path d="M2091.985,899.3c2.214,1.918,2.709,1.984,4.256.678l-4.256-.678" fill="#fff"/><path d="M2047.745,1077.454c.041,2.867.041,2.867,2.552,2.108l-2.552-2.108" fill="#fff"/><path d="M2086,1105.058q.32,1.252.617,2.416l1.682-1.664-.01-.024c-.348-.987-.348-.987-2.289-.728" fill="#fff"/><path d="M2122.524,1107.391l.07-.009,0,0Z" fill="#fff"/><path d="M2125.362,1107.009l-2.768.372c.67.595,1.316,1.216,2.024,1.771a5.616,5.616,0,0,0,1.32.466c-.225-1.022-.4-1.8-.576-2.609" fill="#fff"/><path d="M2095.6,1108.659l-1.726,2.36.36.539,2.326-1.121-.96-1.778" fill="#fff"/><path d="M2092.483,1109.916l-.734-.427c-.608.652-2.234.739-1.092,2.794l1.826-2.367" fill="#fff"/><path d="M1970.108,954.225a5.576,5.576,0,0,0-1.165,1.482c-.023.036.608.552.74.493a20.276,20.276,0,0,0,2.138-1.295c-.926-.381-1.573-.791-1.713-.68" fill="#fff"/><path d="M2048.36,1070.17a19.492,19.492,0,0,0-1.927-1.262l-.416.409,1.671,2.5c.445-1.063.771-1.571.672-1.651" fill="#fff"/><path d="M2042.481,1069.371c.034-.095-.315-.3-.618-.574l-2.111,1.615c2.2.4,2.211.406,2.729-1.041" fill="#fff"/><path d="M2070.648,1065.013l-.623-.241-2.473,2.022,2.409,1.023c.257-1.044.471-1.924.687-2.8" fill="#fff"/><path d="M1919.951,978.108l-1.489,2.319c2.436-.788,2.436-.788,1.489-2.319" fill="#fff"/><path d="M2074.266,988.664l2.778-.964c-1.319-.643-2.87-1.767-2.778.964" fill="#fff"/><path d="M1908.793,1052.683c1.85,1.75,2.741.725,4.447,0Z" fill="#fff"/><path d="M2069.849,1012.973a.783.783,0,0,0,.234-.143l-.234.143" fill="#fff"/><path d="M2069.849,1012.973c-1,.424-3.272-.543-2.89,1.762l2.89-1.762" fill="#fff"/><path d="M2103.071,1024.731c.078-.133-.327-.5-.8-1.157-.527,1.181-.893,2-1.259,2.825l.59.391a24.911,24.911,0,0,0,1.464-2.059" fill="#fff"/><path d="M1950.815,1041.315l-3.1-.538c.033.628.055,1.057.077,1.471l3.034-.211c-.005-.241-.009-.481-.014-.722" fill="#fff"/><path d="M1947.8,1042.368l-.006-.12-.126.009.132.111" fill="#fff"/><path d="M2103.284,1050.386c-2.017,1.213-2.017,1.213-.912,2.965.317-1.028.56-1.821.912-2.965" fill="#fff"/><path d="M1964.867,994.431l3.105-.382c-2.054-1.123-2.054-1.123-3.105.382" fill="#fff"/><path d="M2073.059,1069.128c1.167-1.858.853-2.672-2.033-2.711l2.033,2.711" fill="#fff"/><path d="M2034.406,1069.658c.094-.1-.1-.423-.2-.808l-3.095.794c1.247,1.524,2.3,1.075,3.3.014" fill="#fff"/><path d="M2022.353,1072.8c.619-1.961-.974-2.133-2.439-2.969.223,1.722,1.274,2.281,2.439,2.969" fill="#fff"/><path d="M1991.232,1074.416l1.2-1.949c-2.015.476-2.015.476-1.2,1.949" fill="#fff"/><path d="M2032.751,1073.265l2.842,1.62c.005-.764.005-1.521.005-2.392l-2.847.772" fill="#fff"/><path d="M2017.835,1075.4l1.982,1.929c.662-1.786.075-2.34-1.2-2.435-.174-.013-.37.231-.78.506" fill="#fff"/><path d="M2029.444,941.862l-2.883-1.947c-.152.2-.305.4-.456.593l3.046,1.7c.1-.114.195-.228.293-.341" fill="#fff"/><path d="M2011.585,1075.751c1.4.513,2.788,1.016,4.516,1.643-1.085-2.6-2.791-2.153-4.516-1.643" fill="#fff"/><path d="M2088.015,931.744c.1,1.779.158,2.7.212,3.632l.944-.175c-.3-.885-.592-1.771-1.156-3.457" fill="#fff"/><path d="M2013.23,927.419a3.116,3.116,0,0,0,1.016-.471l-2.22-1.779c-.429,1.371-.716,2.328,1.2,2.25" fill="#fff"/><path d="M1979.075,1087.467q-.09-1.089-.18-2.176l-.924,2.067,1.1.109" fill="#fff"/><path d="M2025.354,917.088l4.3-.368c-1.734-1.771-2.707-.875-4.3.368" fill="#fff"/><path d="M2087,913.3l.57-.8c-.616-.874-1.419-1.429-3.066-.652l2.5,1.457" fill="#fff"/><path d="M2114.891,1090.989l2.362,2.2c.118-1.864-.066-2.792-2.362-2.2" fill="#fff"/><path d="M2029.032,908.189c.005.013.007-.024.007-.024l-.062-.008c.018.01.036.022.055.032" fill="#fff"/><path d="M2025.368,906.111c.326,2.256,2.173,1.845,3.609,2.046-1.157-.633-1.7-2.172-3.609-2.046" fill="#fff"/><path d="M1936.429,1090.959l1.031,2.392c1.239-1.8,1.239-1.8-1.031-2.392" fill="#fff"/><path d="M2053.256,890.73l2.04.264c-.014-.343.056-.956-.056-.985a12.352,12.352,0,0,0-1.888-.219l-.1.94" fill="#fff"/><path d="M2069,888.708l-2.665,1.4q.414.454.824.911,1.148-.9,2.292-1.807c-.15-.169-.3-.337-.451-.505" fill="#fff"/><path d="M2098.894,1097.629l-1.9,1.833,4.206-.281-2.3-1.552" fill="#fff"/><path d="M1996.893,1101.659l.384-.094V1098.6l-1.091.128q.352,1.467.707,2.932" fill="#fff"/><path d="M2088.7,1101.463l-.883-.5L2086,1103.73l.752.317,1.948-2.584" fill="#fff"/><path d="M1908.9,1103.109l-1.656,1.308c.473.406.947.811,1.961,1.679-.134-1.315-.2-1.933-.3-2.987" fill="#fff"/><path d="M2122.537,1107.386c-.013.005.055-.007.055-.007l0-.021-.051.028" fill="#fff"/><path d="M2122.587,1107.357l2.536-1.425c-2.754-.684-2.924-.586-2.536,1.425" fill="#fff"/><path d="M2005.464,1108.284l-2.848-2.753c-.046,2.1.558,2.653,2.848,2.753" fill="#fff"/><path d="M2069.116,1108.312l-.516-.856-1.716,1.165c.1.162.211.323.317.485l1.915-.794" fill="#fff"/><path d="M1996.4,1110.194l-1.714-.972-.353.68,1.906.58c.053-.1.107-.192.161-.288" fill="#fff"/><path d="M2082.975,1110.866a3.279,3.279,0,0,0-.437-1.263,5.015,5.015,0,0,0-1.362-.75q-.205.228-.412.455l1.449,1.917.762-.359" fill="#fff"/><path d="M2051.764,1112.53c.341-.313.882-.59.958-.948.06-.279-.46-.658-.9-1.217-.492.558-1.047.919-1,1.2.058.355.6.646.94.965" fill="#fff"/><path d="M1919.315,1033.525a4.719,4.719,0,0,0-1.461.166c0,.18,0,.36-.006.539l2.436.676q.129-.331.257-.662a4.281,4.281,0,0,0-1.226-.719" fill="#fff"/><path d="M1969.634,1032.738l-2.93.462c.072.251.145.5.217.754l2.826-.8c-.038-.137-.075-.275-.113-.412" fill="#fff"/><path d="M2122.167,1021.773l1.76,1.3q.268-.264.541-.53l-1.878-1.292c-.142.175-.281.351-.423.526" fill="#fff"/><path d="M1992.748,1014.518c.015.17.029.339.044.509l2.863-.232c-.012-.143-.024-.285-.037-.427l-2.87.15" fill="#fff"/><path d="M1919.122,1016.319q.234-.987.466-1.973l-1.037-.158q-.116,1.016-.23,2.031l.8.1" fill="#fff"/><path d="M2086.32,1041.755c-.2.2-.174.579-.268.936h2.688c-.468-1.73-1.2-2.14-2.42-.936" fill="#fff"/><path d="M1944.262,1042.967c1.132-.141,2.642,1.438,3.366-.6-1.167-.028-2.44-.691-3.366.6" fill="#fff"/><path d="M1947.669,1042.257c-.013.04-.028.07-.041.107.056,0,.113,0,.168,0,.005,0-.127-.108-.127-.108" fill="#fff"/><path d="M2074.073,1100.349l-3.32.676c1.629.879,1.629.879,3.32-.676" fill="#fff"/><path d="M2085.251,1045.2c.244.912.442,1.653.67,2.508,1.13-1.279,1.644-2.219-.67-2.508" fill="#fff"/><path d="M1909.076,1045.7l-.909-.684c-.431.479-.876.951-1.256,1.462a3.59,3.59,0,0,0,.754.56,19.227,19.227,0,0,0,1.411-1.338" fill="#fff"/><path d="M2102.957,1048.253l2.169-1.167-2.169-1.2Z" fill="#fff"/><path d="M1966.724,1003.556c.3.6.592,1.183.983,1.966,1.051-2.057,1.051-2.057-.983-1.966" fill="#fff"/><path d="M1926.109,1101.215c-.292-.526-.65-1.021-.989-1.526l-.9.573,1.39,1.391c.174-.15.528-.381.5-.438" fill="#fff"/><path d="M2098.923,1050.1v2.925c.4-.829,2.083-1.519,0-2.925" fill="#fff"/><path d="M1922.876,1098.312l1.894-1.446-.644-.645-1.831,1.519.581.572" fill="#fff"/><path d="M2065.127,1057.432c-.615-.1-1.229-.218-1.85-.264-.073-.005-.183.4-.276.608l1.822.611q.152-.477.3-.955" fill="#fff"/><path d="M2036.834,892.671c-.08-.121-.425-.1-.733-.161V895.1c2.24-.775,1.249-1.651.733-2.43" fill="#fff"/><path d="M2101.729,1060.242c-.043-.245-.087-.489-.13-.734l-2.655.395q.063.341.125.681l2.66-.342" fill="#fff"/><path d="M2053.58,894.308l.477.391,1.882-1.535-.683-.581-1.676,1.725" fill="#fff"/><path d="M2071.251,976.052c.036.156.071.313.107.469l2.542-.127q-.07-.539-.14-1.077l-2.509.735" fill="#fff"/><path d="M2065.556,1060.244c-.356.01-.7.508-1.044.791.269.2.519.555.808.582a8.714,8.714,0,0,0,1.915-.359c-.9-.575-1.3-1.024-1.679-1.014" fill="#fff"/><path d="M2043.476,1060.615l-3.08,2.048c2.505.315,3.019-.612,3.08-2.048" fill="#fff"/><path d="M2070.836,968.072l-3.068,1.19c2.093.472,3.145.746,3.068-1.19" fill="#fff"/><path d="M1995.587,1094.549c.069-.193-.67-.876-.8-.827a2.811,2.811,0,0,0-1.321.956c-.106.167.474.687.937,1.311a6.057,6.057,0,0,0,1.18-1.44" fill="#fff"/><path d="M2094.6,1065.085c-.412-1.045-.665-1.685-.907-2.3-.554.371-1.118.743-1.918,1.272l2.825,1.029" fill="#fff"/><path d="M2110.083,898.923c-2.285.089-1.752,1.126-1.391,2.6l1.391-2.6" fill="#fff"/><path d="M2010.563,965.254l1.357-2.567c-2.855.2-1.893,1.126-1.357,2.567" fill="#fff"/><path d="M1968.776,1066.3a6.047,6.047,0,0,0-1.445-.792c-.14-.037-.684.613-.73.98a4.7,4.7,0,0,0,.457,1.582l1.718-1.77" fill="#fff"/><path d="M2082.8,1065.526l-1.2,1.542.573.358q.6-.768,1.2-1.537l-.579-.363" fill="#fff"/><path d="M1961.318,960.235l-1.664,1.671c1.808.257,1.808.257,1.664-1.671" fill="#fff"/><path d="M2101.472,1090.944l-3.19,1.88,3.551-1.257q-.182-.311-.361-.623" fill="#fff"/><path d="M2020.357,946.784l-.537,2.552,1.089.155.354-2.608-.906-.1" fill="#fff"/><path d="M2004.865,1075.856l.483-2.028-1.355.165v1.739l.872.124" fill="#fff"/><path d="M2050.343,1075.115l3.388-.811c-1.315-1.084-2.243-1.47-3.388.811" fill="#fff"/><path d="M2042.725,1075.421l-1.426,1.46,3.11.379-1.684-1.839" fill="#fff"/><path d="M1998.626,935.663c.032.2.063.4.095.6l2.266-.44c-.023-.1-.044-.2-.068-.3l-2.293.146" fill="#fff"/><path d="M1962.016,1084.212l-.658.149q.135.891.267,1.783l1.094-.318-.7-1.614" fill="#fff"/><path d="M2067.251,1080.781l1.194-1.274-.554-.478q-.524.759-1.049,1.517l.409.235" fill="#fff"/><path d="M2101.8,1081.086l-.472-.407-1.4,1.267.529.454,1.346-1.314" fill="#fff"/><path d="M2013.274,1084.247a9.815,9.815,0,0,0,1.1-1.486l-.521-.4c-.6.428-1.207.857-2.1,1.492.842.228,1.411.5,1.523.392" fill="#fff"/><path d="M2094.5,925.177l-2.445-.356c-.034.186-.069.372-.1.558l2.34.452c.07-.218.139-.436.209-.654" fill="#fff"/><path d="M2027.459,926.783q-.842-.359-1.684-.714c-.093.206-.186.411-.278.617l1.718.607c.081-.171.163-.34.244-.51" fill="#fff"/><path d="M2089.268,926.285c0,.206.01.411.014.617l1.764-.119q-.018-.32-.034-.64l-1.744.142" fill="#fff"/><path d="M2110.91,1080.789c-.145-.379-.687-.634-1.055-.944l-.479.335c.343.656.687,1.313,1.224,2.343.181-.875.45-1.368.31-1.734" fill="#fff"/><path d="M2083.407,924.815c-.288-.217-.674-.384-.846-.66-.813-1.3-1.145-.574-1.04.261.036.29,1.1.476,1.7.709l.19-.31" fill="#fff"/><path d="M1965.172,1078.91l-1.524-.577c-.117.265-.233.531-.35.8.521.119,1.038.261,1.567.329.072.009.2-.356.307-.548" fill="#fff"/><path d="M1955.1,1079.964l.686.458a9.406,9.406,0,0,0,.57-1.264c.048-.158-.168-.381-.263-.574a4.684,4.684,0,0,0-1.156.571c-.122.107.1.53.163.809" fill="#fff"/><path d="M2041.151,918.4h2.583l-.141-1.041-2.553.579.111.462" fill="#fff"/><path d="M2109.728,1085.138l-.847-.228q-.2.859-.4,1.718l.5.147q.372-.819.745-1.637" fill="#fff"/><path d="M1981.276,1087.259l2.538-1.226c-1.661-.709-2.337-.466-2.538,1.226" fill="#fff"/><path d="M2083.168,912.3c-.218.226-.573.432-.616.682-.047.266.2.574.417,1.092.37-.447.747-.7.75-.958s-.353-.544-.551-.816" fill="#fff"/><path d="M2041.411,1074.62l.505-.629-1.762-1.285-.651.874,1.908,1.04" fill="#fff"/><path d="M2094.405,947.689l-1.4,1.423.723.5,1.214-1.549-.536-.37" fill="#fff"/><path d="M2049.914,907.641a1.05,1.05,0,0,0-.754.566c-.052.222.291.519.459.782l1.471-.78c-.628-.321-.931-.6-1.176-.568" fill="#fff"/><path d="M2035.381,953.871l.989-.188q-.351-.9-.7-1.8l-.534.131q.123.928.245,1.856" fill="#fff"/><path d="M2052.435,1069.783l-.59-.245-1.012,1.583.935.414q.333-.876.667-1.752" fill="#fff"/><path d="M2097.131,1090.638q.555,1.1,1.106,2.2l0,.009.042-.025-.041.014c.552-2.175.55-2.176-1.11-2.2" fill="#fff"/><path d="M2029.766,902.237c-.039.142.656.652.8.59a1.767,1.767,0,0,0,.888-.863c.09-.234-.233-.6-.509-1.207-.707.842-1.082,1.13-1.178,1.48" fill="#fff"/><path d="M2127.165,902.67l.549.2,1.248-2.194-.923-.4q-.437,1.2-.874,2.4" fill="#fff"/><path d="M2086.49,900.722c-.1.172.263.557.556,1.107.465-.49.891-.78,1.034-1.157.07-.187-.382-.533-.6-.808a3.913,3.913,0,0,0-.993.858" fill="#fff"/><path d="M2023.153,900.023c-.163-.075-.584.3-1.161.635a6.6,6.6,0,0,0,1.407.718c.194.044.5-.3.748-.469a4.179,4.179,0,0,0-.994-.884" fill="#fff"/><path d="M2064.876,898.545q-.3.887-.593,1.774l.631.27.924-1.6-.962-.446" fill="#fff"/><path d="M1965.9,965.849l.687,2.022.6-.1q-.378-1.041-.757-2.081l-.53.157" fill="#fff"/><path d="M1926.325,981.268c.1.05.505-.392.874-.692-.394-.312-.665-.694-.951-.7s-.561.372-.842.581a4.231,4.231,0,0,0,.919.815" fill="#fff"/><path d="M2119.066,1056.7l2.1-.76-.275-.7-2.236.565.41.9" fill="#fff"/><path d="M1958.433,1096.325l1.99.867c.079-.171.157-.341.235-.512l-2.057-.718-.168.363" fill="#fff"/><path d="M2087.313,1052.369l-1.585-.654c-.124.215-.249.43-.373.646l1.5.881.461-.873" fill="#fff"/><path d="M2062.692,1098.568c.515-.307,1.376-.756.044-.99-.444-.078-1.045.561-1.574.872l.481.584a9.179,9.179,0,0,0,1.049-.466" fill="#fff"/><path d="M2090.33,1098.14l-.608.249q.384.712.769,1.424l.547-.231-.708-1.442" fill="#fff"/><path d="M2097.689,1051.157l-1.986-.284-.174.876h2.132c.009-.2.019-.4.028-.592" fill="#fff"/><path d="M1923.74,1051.207l1-1.095-.422-.322-1.023,1.079c.149.112.3.225.446.338" fill="#fff"/><path d="M2119.872,1048.973l.875-.059c-.069-.566-.136-1.132-.205-1.7l-.67.047Z" fill="#fff"/><path d="M2082.05,1047.781l.961-.244q-.3-.686-.59-1.37l-.617.149.246,1.465" fill="#fff"/><path d="M2074.518,1005.06c.264-.512.531-1.023.795-1.535l-.522-.335c-.513.339-1.027.677-1.8,1.189l1.532.681" fill="#fff"/><path d="M1970.337,1047.14l2.046-1.484c-1.928-.986-2.211,0-2.046,1.484" fill="#fff"/><path d="M2059.962,1102.338l.622-.392q-.528-.812-1.058-1.622l-.875.559,1.311,1.455" fill="#fff"/><path d="M2013.447,1101.452c-.723,1.3-.723,1.3,1.116,2.335-.561-1.174-.806-1.685-1.116-2.335" fill="#fff"/><path d="M2097.227,1040.76l-1.711,2.387c2.2-.967,2.2-.967,1.711-2.387" fill="#fff"/><path d="M2092.041,1105.808c-.033-.244-.066-.489-.1-.733l-3.649.71.01.024h3.739" fill="#fff"/><path d="M2102.154,1020.286l.818-.425-1.295-1.869-.742.4,1.219,1.9" fill="#fff"/><path d="M2078.506,1035.716a2.538,2.538,0,0,0-.574-.371c-.456.449-.873.93-1.3,1.405l.843.56c.353-.527.717-1.049,1.029-1.594" fill="#fff"/><path d="M1933.94,1022.3c1.334-1.189.989-1.746-.872-2.2l.872,2.2" fill="#fff"/><path d="M1936.931,1023.465a5.118,5.118,0,0,0-.365-1.033c-.123.466-.247.931-.5,1.867.579-.545.879-.708.861-.834" fill="#fff"/><path d="M2058.779,1107.172c-.01-.057-.454-.053-.7-.077v1.957l.893-.069c-.056-.6-.092-1.213-.2-1.811" fill="#fff"/><path d="M2106.287,1024.066q-.416-.9-.832-1.8l-.564.189.594,1.887.8-.272" fill="#fff"/><path d="M1939.047,1027.754c.238,1.012.387,1.643.6,2.543.682-1.535.682-1.535-.6-2.543" fill="#fff"/><path d="M2126.39,1031.111l-1.921-.786-.325.477,1.592,1.115.654-.806" fill="#fff"/><path d="M1924.46,1111.394l.761-2.248c-2.439.38-1.154,1.417-.761,2.248" fill="#fff"/></g></g></svg>