<svg xmlns="http://www.w3.org/2000/svg" xmlns:xlink="http://www.w3.org/1999/xlink" width="279.84" height="260.9" viewBox="0 0 279.84 260.9"><defs><clipPath id="a"><rect width="279.84" height="260.9" transform="translate(1099.64 805.998)" fill="none"/></clipPath></defs><g transform="translate(-1099.64 -805.998)" opacity="0.4"><g clip-path="url(#a)"><path d="M1274.651,1050.229c-.324,2.13-4.375.938-3.435,3.868l.954.251,4.654-1.86-2.173-2.259" fill="#fff"/><path d="M1213.969,1039.055l5.725,1.5c-1.709-1.26-3.344-2.8-5.725-1.5" fill="#fff"/><path d="M1292.206,1059.612l4.771,1.253c-1.426-1.043-2.506-3.4-4.771-1.253" fill="#fff"/><path d="M1281.711,1056.854l3.817,1-.915-1.734-2.9.731" fill="#fff"/><path d="M1237.822,1045.322l4.771,1.253c-1.243-1.74-2.805-2.267-4.771-1.253" fill="#fff"/><path d="M1332.693,1034.962l-.009,0c-.013.016-.022.032-.036.049Z" fill="#fff"/><path d="M1323.485,1017.569c-1.557-.04-3.111-.05-4.668-.095-.073,0-.127-.265-.243-.328-3.748-2.035-4.841-1.72-5.89,1.526a7.218,7.218,0,0,1-1.268,1.839l-4.168-.476,5.69,4.6c2.041-.043,3.746-.493,4.153-2.342.078-.357-.532-.875-.824-1.319l-1.456.666c.613-3.042,1.171-3.371,3.55-2.186a5.238,5.238,0,0,0,1.732.274c.556.058,1.54-.04,1.607.114,1.305,3,4.919,2.961,7.52,4.347a10.487,10.487,0,0,0-.711,2.076,6.166,6.166,0,0,0,.213,1.985c.523,2.382-.191,3.339-2.9,3.281a20.913,20.913,0,0,1-4.2-.835c-1.524-.361-3.032-.788-5.189-1.354.74,3.419-3.969,4.016-2.9,7.174,2.18-1.7,5.854-1.653,6.926-4.653l.943.26c.548,1.585,1.1,3.171,1.7,4.913l-4.913,1.2.664,2.451c2.516-1.455,2.516-1.455,4.958-1.19l-1.477,4.562c3.089-1.82,4.361-4.764,8.3-4.07.2.035.563-1.115.908-1.833-1.79.287-2.288-.023-6.254-3.946,1.348.368,2.58,1.186,3.871,1.368,1.142.161,2.349-.379,3.527-.613,2.243-2.707-1.208-5.145-1.437-7.833l3.407-.58c-2.5-2.327-4.643-4.353-6.839-6.335-.382-.345-1.136-.8-1.479-.7-2.163.614-1.4-1.911-2.851-1.948" fill="#fff"/><path d="M1349.335,1016.565h0l.118.154-.058-.078Z" fill="#fff"/><path d="M1352.016,1010.465l.1,0c.005-.018.01-.036.014-.055l-.18.05c.392-.63.785-1.259,1.644-2.632l-5.611,2.619c-.855-1.087.187-3.527-3.564-2.888,1.759,2.909-4.907,2.2-2.182,5.956-.818-.385-1.184-.457-1.338-.646-.871-1.079-3.45.346-3.619-2.337-.081-1.292-1.173-2.509-.4-4.093.469-.962-.45-2.505-.747-3.788-1.035,1.628-2.348,1.8-4.053,1.441-.306-.064-.684.264-1.124.452l3.719,1.845c-.108.244-.216.49-.323.734l-4.907-1.582-.327.528,1.815,1.293-2.006,2.033,5.786-.846c1.727,3.738,3.634,7.522,1.242,11.378l3.177.71c-.624,1-1.109,1.77-1.595,2.544l-.052,0h0c.014.026.032.052.046.078.01-.022.02-.044.028-.065a.153.153,0,0,0-.043-.01c2.055.211,4.176.521,4.517-2.158a6.66,6.66,0,0,1-3.589-5.082l.857-.534q1.289,1.251,2.575,2.5c-.4-1.851-.4-1.851,1.26-3.269,1.082,1.788,1.086,3.081-1.2,3.736,2.5-.533,5.807.85,7.4-1.814l-2.754-3.585,5.436-2.516" fill="#fff"/><path d="M1177.583,937.669l-5.3-2.992c.375-.688.506-1.435,1.019-1.784,2.907-1.977,2.821-2.014.423-4.386-1.069-1.057-1.484-2.587-2.195-3.9,2.491,1.36,2.491,1.36,5.948.613-.215-3.336.94-5.211,4.471-6.654l-4.329-3.471-2.544,2.484,3.718,1.645-11.914,7.262,4.557,4.826-4.247,1,3.207,1.93-6.33,2.885c.079.166.157.331.235.5l6.639-.7c1.213,1.579-3.761,3.595,1.169,4.66.088-1.6.173-3.172.244-4.461,2.114-.661,3.006,2.53,5.225.544" fill="#fff"/><path d="M1241.515,902.913l1.369-2.162-.569-.408-2.139,1.335c-.506-.651-1-1.29-1.5-1.93l-1.008.019c-.265,1.495-.53,2.991-.8,4.546l-2.913,1.122-2.21-2.879-1.356,3.9,7.441,5.352.984-.478-1.052-4a7.184,7.184,0,0,1,1.414,0c.786.151,1.556.405,2.333.616-.044-.668-.088-1.336-.134-2.042l3.185-1.07-3.039-1.922" fill="#fff"/><path d="M1241.511,907.949l-.008,0,0,.024Z" fill="#fff"/><path d="M1324.158,953.789c-1.54-.467-3.28-.658-4.5-1.46a9.372,9.372,0,0,1-2.64-3.323c-.48-.843-.505-1.85-.956-3.691-.588,2.24-.917,3.494-1.113,4.238l2.2,3.039c2.563.621,4.489,2.048,6.637,3.418,2.024,1.29,2.661,3.686,5.334,4.267.007,1.1.013,2.188.021,3.538,2.984-2.066,2.979-2.066,3.048-4.372.032-1.077.081-2.153.124-3.228a.9.9,0,0,1-.38.065c-2.547.066-1.064-2.263-2.471-2.877l-1.072,2.006c-.77-1.362-1.411-2.495-2.051-3.629-2.4-.673-1.761,1.122-2.185,2.009" fill="#fff"/><path d="M1332.329,955.908c0,.1-.008.2-.012.307.013-.009.03-.016.037-.027.043-.07.008-.18-.025-.28" fill="#fff"/><path d="M1235.936,1009.818l-.019-.046-.088.08c.052.019.091.039.146.057l0-.141-.061,0,.019.046" fill="#fff"/><path d="M1235.917,1005.59h0l.156.02c0-.021,0-.041,0-.061l-.06-.015C1235.981,1005.553,1235.948,1005.571,1235.917,1005.59Z" fill="#fff"/><path d="M1246.189,1018.651c-3.228-1.436-2.619-3.258-1.157-5.187l-3.476-2.622c.366-1.394.77-2.773,1.067-4.176.074-.347-.2-.774-.441-1.614l-2.859,3.348c-.071-1.211-.107-1.81-.142-2.4l-3.108-.39q-.048,2.079-.095,4.158l3.383-.254c.207,1.806-.077,3.416.646,4.655,1.03,1.766-1.041,2.5-.772,3.784.274,1.3.63,2.787,3.027,2.555a21.376,21.376,0,0,1,4.01.422c-.015-.857.249-2.131-.083-2.279" fill="#fff"/><path d="M1346.471,944.038c.943,5.554-4.745,4.62-6.762,6.7l-4.574-2.176-.485.631,6.236,6.775c.383-3.793,1.805-6.128,6.124-6.731.23,2.787.433,5.24.707,8.565,2.711-3.531,1.652-6.544.643-10.012l2.089,2.046,2.458-2.181-6.436-3.618" fill="#fff"/><path d="M1280.856,986.012c.282,1.6,1.611,2.186,3.4,2.6,2.406.551,2.9,1.947,1.479,3.561-.773.875-1.733,1.625-2.694,2.511,5.788,2.117,5.788,2.117,8.348-.826-1.1-.169-1.971-.3-3.107-.476a8.473,8.473,0,0,1-.061-2.632c1.047-3.595.887-3.858-3.348-4.295-2.466-.254-2.687-.7-1.442-2.7a4.559,4.559,0,0,0,.3-1.388c-2.905.362-3.182,1.917-2.876,3.653" fill="#fff"/><path d="M1126.657,945.39l-.036-.077-.145.059c.058,0,.121.012.181.018" fill="#fff"/><path d="M1124.037,947.864c5.3.927,5.187,4.378,5.346,7.787l2.509.146-.771-2.586,3.163.219c-.235-2.255-2.776-1.208-3.425-1.911-1.069-1.158-1.246-2.893-1.737-4.218,4.638-3.213,7.278.775,10.405,2.682,1.244-2.046.356-3.223-1.741-3.675-3.111-.669-6.234-2.22-9.441-.878a4.076,4.076,0,0,1-1.687-.04c.212.459.423.915.594,1.287-1.081.808-3.464-1.431-3.215,1.187" fill="#fff"/><path d="M1353.564,1018.049l2.145-3.008-3.572-1.081c-1.829.167-2.708,1.061-2.681,2.647a4.106,4.106,0,0,1,2.8,3.058,67.425,67.425,0,0,0,2.991,6.368c.937-1.007,1.465-1.588,2.01-2.156.664-.689,2.183,1.673,2.489-.327l.1.144.045-.1-.141-.043c-1.484-2.168-2.6-4.6-6.186-5.5" fill="#fff"/><path d="M1349.394,1016.642l.058.077c0-.039.005-.073,0-.112-.042-.013-.077-.03-.121-.042,0,0,.03.038.059.077" fill="#fff"/><path d="M1352.071,1013.94l.067.02c.051,0,.1-.015.148-.019h-.215" fill="#fff"/><path d="M1256.334,897.944c-2.3,1.568-2.411,1.579-1.967,3.43.593,2.476.7,4.653-3.139,5.41,2.331,1.665-.074,5.027,4.326,6,.15-2.732-1.27-5.68.725-7.652,2.29-2.263,1.076-4.4.055-7.189" fill="#fff"/><path d="M1336.267,1034.389c1.372-1.557,2.073-2.354,2.775-3.149l4.419,3.231c.467-1.777.788-3,.929-3.533l-4.3-3.838-3.478.516c-.106,2.068-.2,3.9-.349,6.773" fill="#fff"/><path d="M1329.734,915.915l-2.761-3.21,1.486-2.26c-2.786-.566-5.227-1.062-7.669-1.56-.58,3.23,4.208,2.689,5.017,4.978-.7.993-1.378,1.944-2.052,2.9l4.946,2.508c.292-1.285-.84-2.853,1.033-3.351" fill="#fff"/><path d="M1243.01,922.343c-.1-1.124-.243-2.714-.391-4.374l3.154-.359c-.025-1.539-.051-3.095-.078-4.651-1.415,2.92-3.275,5.093-7.556,4.707.219,2.52.408,4.713.635,7.331l4.236-2.654" fill="#fff"/><path d="M1311.185,1042.995c.212-1.064,1.115-2.941.571-3.345-1.8-1.337-1.364-2.371-.786-3.278l-4.084-3.889c-1.907,1.514.719,2.782.6,4.008l-2.3,1.838,5.993,4.666" fill="#fff"/><path d="M1228.483,1027.24c1.047-.343,2.094-.688,3.714-1.221-2.206-1.406-.579-4.933-5.091-4.363,2.55.978-2.044,2.7,1.7,3.679-1.868,1.914-3.9,3.463-.883,5.689.25.183-.108,1.021-.23,1.543-.19.815-.419,1.62-.631,2.429,2.744-2.207,3.248-4.8,1.422-7.756" fill="#fff"/><path d="M1357.981,916.792c-.2.12.726,1.568,1.267,2.686l1.862-2.745,4.632-.144c.692-3.565-2.315-1.732-3.858-2.269.227-.863.421-1.6.649-2.467l-3.228-1.886c-1.265,2.172,1.657,5.073-1.324,6.825" fill="#fff"/><path d="M1326.553,946.7c1.461-1.961-.872-2.929-1.015-4.071l-6.484-.061c1.079,2.869,2.158,5.736,3.542,9.416.774-2.947,1.332-5.067,1.909-7.266l2.048,1.982" fill="#fff"/><path d="M1204.985,958.817l.008,0-.006-.01h0v.012" fill="#fff"/><path d="M1207.445,951.089l.075.132h.055l-.083-.085c-.733-2.214-1-4.642-4.815-6.763.67,2.145,1.107,3.4,1.437,4.667a3.031,3.031,0,0,1,.113,1.82c-.8,1.829-1.565,3.549.171,5.562.519.6.411,1.576.588,2.381.137-1.634.274-3.272.467-5.579l1.992-2.134" fill="#fff"/><path d="M1162.3,906.579l4.653-1.53c-.445-1.432-.86-2.767-1.274-4.1,1.286.23,2.673.629,2.811-1.036l-3.211-2.055c-.216.631-.371,1.084-.527,1.538-2.122-.932-2.405.759-3.169,1.575-1.806,1.927,1.511,3.448.717,5.609" fill="#fff"/><path d="M1271.375,990.415l2.217-.155c.527-2.69-1.484-4.513-3.342-6.384l.071-.029c-.007-.021-.014-.043-.02-.064,3.607.3,2.249-1.693,1.747-3.838l-2.226,2.293c-.761.488-1.933.832-2.192,1.5-.437,1.122.613.879,1.348.664.554,1.2,1.1,2.406,1.677,3.675l-2.208,2.376c.836,1.058,1.536,2.028,2.353,2.923.212.233.788.234,1.671.466-.432-1.347-.751-2.346-1.1-3.423" fill="#fff"/><path d="M1290.119,1040.22h-.04l.089.1-.049-.1" fill="#fff"/><path d="M1291.672,1029.566c-3.463,1.876-1.595,5.438-3.342,6.881.742,1.564,1.268,2.675,1.789,3.774l4.367-.033c-4.013-3.567-3.067-6.944-2.814-10.622" fill="#fff"/><path d="M1187.723,942.645l-1.285.3c1.222,1.563-.34,3.512,2.1,4.817,2.033,1.09,2.353,2.273,1.369,3.814-.662,1.036-1.01,2,1.008,2.748l1.892-4.314c-1.707-2.475-3.4-4.922-5.082-7.37" fill="#fff"/><path d="M1151.647,902.145c-.144,1.155-.277,2.229-.413,3.327l2.224-1.662,2.8,4.472,4.094-.867c-1.184-1.575-2.367-3.151-3.67-4.885l-5.036-.385" fill="#fff"/><path d="M1264.463,975.777c.01.017.018.028.018.028,0-.056-.007-.115-.013-.174-.032,0-.067,0-.1,0l.005.008c0,.042-.005.085-.008.127l.112.035Z" fill="#fff"/><path d="M1257.46,974.583l-.969,1.052c2.523.512,1.547,2.733,2.805,3.9.319.3-.005,1.094-.034,1.661l.94.2,1.774-3.714c.805.331,1.455.6,2.224.914.069-1.146.12-1.995.17-2.831l-4.851-1.5-2.059.313" fill="#fff"/><path d="M1329.641,1045.531c0-.25-.01-.5-.018-.923l-3.34-.878c-.533,2.034-.949,3.612-1.414,5.385l5.807,3.4a26.947,26.947,0,0,0-1.239-4.1c-.088-.19-1.162.129-1.5-1.1-.477-1.751,1.7-.861,1.7-1.793" fill="#fff"/><path d="M1243.639,979.881c-2.183.858-.661,2.139.081,3.858l-3.076.365q.079.57.16,1.139l3.971,2.383c1.742-4.814,1.742-4.814-1.136-7.745" fill="#fff"/><path d="M1340.369,918.4c.931-.27,1.3-1.7,1.928-2.6l-.822-.595-2.332,1.2a11.816,11.816,0,0,0-.471-3.14,3.212,3.212,0,0,0-1.85-1.583,2.805,2.805,0,0,0-2.364.539c-.309.484.071,1.583.57,2.166.628.734,2.176,1.114,2.446,1.829.53,1.4,1.181,2.677,2.9,2.18" fill="#fff"/><path d="M1366.438,938.812c.892-.828,3.121-.553,2.725-2.528l-5.452-.1c-.4,2.475-.4,2.475-2.882,2.963l4.212,3.27c.515-1.451.571-2.835,1.4-3.6" fill="#fff"/><path d="M1226.7,1037.861c-3.392-3.4-6.366-4.307-10.96-3.223,3.5,1.181,6.379,4.292,10.96,3.223" fill="#fff"/><path d="M1356.19,1002.15l.8,1.07c.186.616.364,1.234.558,1.849.307.974.623,1.946.935,2.919l3.259-.038c.271-.541.662-1.317,1.1-2.2l-3.251-.192c-1.57-2.929-2.874-5.362-4.174-7.789l-1.665-.152,2.434,4.529" fill="#fff"/><path d="M1225.348,1018.416l-2.649-3.178a14.419,14.419,0,0,0-1.649,2.538c-.954,2.6-2.044,3.149-5.139,2.138l4.728,2.856q.037,1.33.074,2.66l1.612,2.277c.178-1.091,2.858-2.087.017-2.826.478-1.088.645-2.058-1.319-2.226l1.882-3.865,2.443-.374" fill="#fff"/><path d="M1215.286,1019.538l-.141,0c-.022.033-.042.068-.065.1l.007,0c.291.107.562.2.824.285Z" fill="#fff"/><path d="M1267.758,1046.326c-.8-1.2-.5-.616-2.391.137-2.349.936-.117,3.234-2.5,4.059,3.062.525,4.374-1.791,7.235-.233-1.052-1.789-1.639-2.9-2.347-3.963" fill="#fff"/><path d="M1355.41,997.729l-.041-.054c.017.033.035.066.052.1l.025,0h0l.106-.148-.184.047.042.054" fill="#fff"/><path d="M1355.789,989.728l-1.3,1.848,3.232,3.026-2.166,3.026,6.293-1.623-6.056-6.277" fill="#fff"/><path d="M1138.108,903.467c.532-2.957,3.544-1.249,4.856-1.772l-2.9-4.343c-3.964,1.51-4.292,2.343-1.953,6.115" fill="#fff"/><path d="M1357.027,1008.67a5.642,5.642,0,0,1-4.912,1.8c-.223,1.117-1.614,2.183.044,3.38,2.712-2.913,5.734-3.486,9.485-1.8-.086-1.858-1.551-2.978-3.215-3.993a4.515,4.515,0,0,0-1.4.616" fill="#fff"/><path d="M1352.286,1013.941c-.047-.031-.083-.062-.126-.093-.03.031-.06.059-.089.091l.215,0" fill="#fff"/><path d="M1255.39,934.567l-1.274-2.862-2.136-.245c-.165-1.592-.311-3-.457-4.408l-3.612,5.021,7.479,2.494" fill="#fff"/><path d="M1255.772,1006.111c.041,1.1-.432,2.6.234,3.228,1.215,1.138.627,2.235,1.091,3.182.292.594,2.261.69,3.117.915a16.584,16.584,0,0,1-.7-3.915c.135-2.1-.85-3.157-3.739-3.41" fill="#fff"/><path d="M1343.908,1022.521c-.4,1.25-.943,2.858,1.435,4,.992-1.6.909-4.261,4.321-3.026-.476,1.839-1.706,3.9,3.274,4.774-2.7-1.644-1.383-3.483-2.617-4.884.154-.587.309-1.174.586-2.231-1.624.23-2.8.752-3.611.438-1.77-.692-2.975-.343-3.388.93" fill="#fff"/><path d="M1363.2,952.578c-.625,3.833,2.144,6.348,4.808,8.99-1.817-2.843-2.5-5.648-1.106-8.29l-3.7-.7" fill="#fff"/><path d="M1212.69,1010.515l-.3.917,8.665,3.324c.562-.877.979-1.529,1.395-2.18-.285.048-.757.194-.813.122-2.553-3.293-5.91-1.8-8.942-2.183" fill="#fff"/><path d="M1227.846,953.926c-.147.181-.069.505-.118.97l3.574,2.385c.391-1.49.7-2.654,1-3.814l3.056.153c-2.6-.441-5.505-2.17-7.514.306" fill="#fff"/><path d="M1120.125,961.977c-3.516-2.214-6.412.107-8.994-1.171.006,1.738.011,2.979.015,4.044l8.979-2.873" fill="#fff"/><path d="M1290.276,936.482c-1.546-1.192-2.385-.368-2.913.669-.992,1.947-1.657,4.026-.074,6.144.3.4,1.531.318,2.816.543-1.553-5.637-1.553-5.637.171-7.356" fill="#fff"/><path d="M1216.433,981.918c1.261.117,1.81-.572,1.781-1.828-.021-.942.742-1.837,1.339-3.158a15.553,15.553,0,0,0-3.658,1.48,7.84,7.84,0,0,0-2.14,2.9c-.468,1.012-.736,2.217.561,3.206,1.464-.61-.493-2.841,2.117-2.6" fill="#fff"/><path d="M1270.453,1010.832c1.615-2.225,2.953-4.072,4.292-5.918-4.959.614-5.812,1.9-4.292,5.918" fill="#fff"/><path d="M1206.456,980.172c.216-.4.1-1.106.435-1.28,2.294-1.191,2.32-1.158,2.5-2.814-4.761.761-5.244,1.372-4.917,7.392.993-1.637,1.529-2.449,1.983-3.3" fill="#fff"/><path d="M1119.765,950.774l-2.422,1.561c.583,1.891,1.127,3.655,1.67,5.418,2.618-3.088,2.586-6.945.752-6.979" fill="#fff"/><path d="M1334.771,917.058c-.807,1.6-2.1,2.922-1.954,4.234.135,1.217,1.679,2.427,2.663,3.639,1.277-2.525,2.12-5.057-.709-7.873" fill="#fff"/><path d="M1335.48,924.931c-.029.058-.057.115-.087.173l.174-.069c-.027-.035-.059-.069-.087-.1" fill="#fff"/><path d="M1111.176,942.324c1.236,1.47,1.463,2.594.06,4.028-.813.829-.281,2.118,1.74,2.1.05-.627-.164-1.621.2-1.793a8.215,8.215,0,0,1,2.654-.269l-.872-1.066c.435-1.243-2.27-2.423-.376-3.7l-2.849-.873c-.246.638-.773,1.318-.561,1.57" fill="#fff"/><path d="M1203.508,934.766l-2.33-.612c-.34,2.142-.638,4.018-.984,6.2l-2.391,1.868.456.529,3.4-.93c.666-2.533,1.247-4.746,1.854-7.056" fill="#fff"/><path d="M1163.6,958.4c-.339-1.521-.6-2.68-.813-3.653l-7.917,2.5c1.088.875,1.834,1.475,2.631,2.118.182-.691.342-1.3.563-2.138l5.536,1.171" fill="#fff"/><path d="M1281.906,840.056l-5.094-3.585c-.393,1.026-.809,2.108-1.3,3.393,3.945,2.382,3.945,2.382,6.4.192" fill="#fff"/><path d="M1128.316,909.447l-3.336,6.365c4.58-1.081,5.118-2.306,3.336-6.365" fill="#fff"/><path d="M1235.029,1005.465c-1.388,1.273-3.257,1.543-5.479,1.235.427,1.216.767,2.185,1.175,3.351,2.249-2.814,2.366,1.387,4.2.622l.907-.821c-3.371-1.221-.757-2.907-.8-4.387" fill="#fff"/><path d="M1187.667,954.366l-.826-.057q-.214,2.857-.431,5.716l-.029-.012.028.023h0v-.011c1.425.756,2.851,1.511,4.621,2.448-.414-2.781-.414-2.781-3.138-4.972-.086-1.173-.157-2.154-.228-3.135" fill="#fff"/><path d="M1288.145,917.789c-.055-.341-.961-.644-1.475-.964-.864,1.468-4.285-.006-4.289,2.847h3.579l1.87,2.778a9.43,9.43,0,0,0,.315-4.66" fill="#fff"/><path d="M1176.859,971.013c-.061.294,1.054.851,1.716,1.306.853-3.247,1.792-6.482.864-10.049a52.139,52.139,0,0,0-2.58,8.743" fill="#fff"/><path d="M1249.79,915.669l1.226,2.347,4.111-.53c.827-.852,1.667-1.72,3.17-3.27l-8.507,1.453" fill="#fff"/><path d="M1255.215,917.475l-.088.011-.06.062.148-.073" fill="#fff"/><path d="M1108.394,943.935c.047.051.086.1.13.153,0-.083,0-.159,0-.245h0l-.117.049-.042.017c-.486-2.322-.972-4.644-1.625-7.759-.748,1.143-1.591,1.8-1.533,2.457.195,2.184.716,4.371,1.143,6.727l2.038-1.4" fill="#fff"/><path d="M1269.237,964.472l-1.669,3.951,3.048,1.724,2.247-1.815-3.626-3.86" fill="#fff"/><path d="M1269.388,945.085c-1.43,2.357-1.357,3.011.545,6.031.607.963,1.129,2.066,3.007,1.355-3.3-1.924-.5-5.168-3.552-7.386" fill="#fff"/><path d="M1281.158,948.617c.81,1.883,1.386,3.224,1.8,4.19l5.248-2.338-7.05-1.852" fill="#fff"/><path d="M1151.685,934.474q.055-.344.108-.688l-1.173-1.327c-2.952,2.2-3.612,4.87-2.054,7.8,1.014-1.881,2.067-3.833,3.119-5.786" fill="#fff"/><path d="M1335.794,968.207c-.434-.576-1.436-.863-2.18-1.281l-.018-.069c-1.823,2.725,1.865,3.974,2.8,5.958a11.651,11.651,0,0,0,2.039-.213,45.9,45.9,0,0,0-2.645-4.4" fill="#fff"/><path d="M1235.1,1005.31l-.083-.02a1.146,1.146,0,0,1,.01.175c.031-.028.064-.05.095-.079l-.022-.076" fill="#fff"/><path d="M1239.49,1003.527c-2.242-2.782-2.242-2.782-5.286-1.4q.45,1.59.9,3.18l.911.225,3.477-2.007" fill="#fff"/><path d="M1181.559,926.325c.232,2.287.39,3.845.551,5.43l4.417-3.56c-.661-3.316-3.514.643-4.968-1.87" fill="#fff"/><path d="M1144.649,952.355l-2.417,2.164,4.49,4.316c2.457-2.972-1.335-4.157-2.073-6.48" fill="#fff"/><path d="M1266.073,917.85c-1.969,3.184,5.735,3.081,2.939,6.423l3.2-2.435-6.138-3.988" fill="#fff"/><path d="M1154.306,917.667c-.6-1.716-2.693-1.951-4.3-1.981-2.575-.048-3.542,1.482-3.7,4.073l3.682-2.5,3.569,1.284.75-.877" fill="#fff"/><path d="M1153.138,909.647c-2.511-2.409-4.856.625-7.321-.453,3.782,2.822,4.268,2.828,7.321.453" fill="#fff"/><path d="M1351.576,985.319c-.662-.042-1.748-.311-1.914-.072-.9,1.294.179,1.163,1.172,1a7.015,7.015,0,0,0,.357,1.528c.413.883.948,1.732,1.64,2.966.154-2.21.262-3.757.37-5.3-.509-.037-1.067-.082-1.625-.117" fill="#fff"/><path d="M1346.2,975.038c-3.3-.374-6.179-.41-8.912,1.511,3.274.96,5.864.045,8.516-.109.212-.012.265-.9.4-1.4" fill="#fff"/><path d="M1274.657,968.918c-.031.507-.04.911-.084,1.309-.053.5-.135.987-.2,1.454,4.537,1.331,4.537,1.331,3.649-3.017l-3.363.254" fill="#fff"/><path d="M1270.834,999.684c1.963,1.2,3.963,2.363,6.242,3.7-.521-1.526-.931-2.729-1.383-4.051a11.187,11.187,0,0,1-2.749.286,8.282,8.282,0,0,1-2.263-1.228c.08.771-.009,1.19.153,1.289" fill="#fff"/><path d="M1298.586,923.738c-.574,2.361,2.19,2.162,3.687,3.4.185-1.647.327-2.9.519-4.606-2.078-.331-3.8-.463-4.206,1.2" fill="#fff"/><path d="M1256.933,925.393l.512,1.086,4.954-.711c-.159-1.443-.289-2.62-.432-3.914l-5.034,3.539" fill="#fff"/><path d="M1159.62,909.273l8.658,2.851-4.535-5.154c-1.811,2.241-1.811,2.241-3.382.456l0-.006v-.005h0l0,.005c-.24.606-.48,1.211-.736,1.853" fill="#fff"/><path d="M1324.837,929a9.1,9.1,0,0,0-.875-1.41l-4.175,4.2,5.75.269c-.231-1.029-.44-2.047-.7-3.06" fill="#fff"/><path d="M1241.568,937.141c.126.961.239,1.821.328,2.5l5.2.275-1.655-2.943-3.876.167" fill="#fff"/><path d="M1190.192,881.771l-4.141-2.971-1.06.34c.4,1.342.806,2.685,1.272,4.234l3.929-1.6" fill="#fff"/><path d="M1213.533,936.885c-5.443,1.14-5.443,1.14-3.689,4.907.133-2.822,4.8-1.935,3.689-4.907" fill="#fff"/><path d="M1264.853,1002.865l3.817,2.762c.522-.367,1.219-.7,1.157-.839-.852-1.885-1.809-3.743-2.75-5.628-.823,1.37-1.5,2.5-2.224,3.705" fill="#fff"/><path d="M1340.178,989.028c.812,1.312,1.626,2.625,2.963,4.782,1.268-2.617,2.672-4.129.049-5.775l-3.012.993" fill="#fff"/><path d="M1364.324,919.363c.014.071.026.132.04.2.011-.02.025-.035.035-.056l-.011-.021.121-.055-.185-.068" fill="#fff"/><path d="M1367.2,923.215c1.83-.775,1.83-.775,1.125-5.5l-3.82,1.712c.835.3,1.675.615,2.511.928.064,1,.12,1.869.184,2.856" fill="#fff"/><path d="M1164.778,913.927c.712,1.454,1.008,2.07,1.317,2.683.391.777.792,1.552,1.286,2.518l3.874-1.467-6.477-3.734" fill="#fff"/><path d="M1274.912,904.513c.678,4.2,2.377,5.242,5.957,3.608l-5.957-3.608" fill="#fff"/><path d="M1351.228,920.171l3.974,5.3.007-.039c1.427-3.407.592-4.393-3.981-5.261" fill="#fff"/><path d="M1259.9,940.424l2.134-3.575-2.779-.873-2.754,1.693c.923.747,2.168,1.757,3.4,2.755" fill="#fff"/><path d="M1259.251,935.976l.114-.07-.131.064.017.006" fill="#fff"/><path d="M1259.893,944.724l-3.507-4.272c-.386,1.472-.754,2.869-1.228,4.675l4.735-.4" fill="#fff"/><path d="M1213.707,943.56l-1.724-2.648-.955-.091-1.472,5.605,4.151-2.866" fill="#fff"/><path d="M1180.5,940.5l-4.691,4.243c5.489-.737,6.765-2.191,4.691-4.243" fill="#fff"/><path d="M1209.509,1011.2l.482-.855c-1.042-.511-2.535-.834-3.015-1.579-.618-.961-.424-2.26-.58-3.414l-.679-.031c-.3,1.156-.607,2.312-.949,3.613l4.741,2.266" fill="#fff"/><path d="M1287.361,1042.526h0l.084.022Z" fill="#fff"/><path d="M1287.362,1042.527l-1.743-.458c.588,1.949-.491,3.957,1.986,5.616l1.878-1.959c-.827-1.246-1.474-2.223-2.121-3.2" fill="#fff"/><path d="M1117.1,926.407c-2.3-1.386-1.776-2.851-1.22-4.641-.823,1.189-1.645,2.379-2.676,3.87l4.161,2.136c-.04-.518.034-1.185-.265-1.365" fill="#fff"/><path d="M1117.366,927.772c.005.06.01.12.019.175l.125-.1-.144-.074" fill="#fff"/><path d="M1253.781,924.573a20.219,20.219,0,0,0-2.2-3.86c-.624,1.307-1.414,2.259-.02,3.71.475.5.086,1.575.039,2.424,2.515.6,2.583-.9,2.18-2.274" fill="#fff"/><path d="M1251.575,926.927l-.075-.1c.007.075.015.151.023.227l.071-.1c0-.034.006-.072.007-.107-.034-.008-.065-.013-.1-.022,0,0,.05.07.074.1" fill="#fff"/><path d="M1281.351,1043.053l-4.386.064c-.357.964-.693,1.871-1.03,2.778,2.1-.718,5.3.054,5.416-2.842" fill="#fff"/><path d="M1201.861,1034.282c1.189-5.478,1.189-5.478.317-7.169l-2.651,4.38,2.334,2.789" fill="#fff"/><path d="M1330.718,943.162c-.558.249-1.228.833-1.22,1.32a29.405,29.405,0,0,0,.589,4.074l.647.436c.494-1.674,1.034-3.338,1.409-5.04a2.444,2.444,0,0,0-1.425-.79" fill="#fff"/><path d="M1254.458,962.949l-1.5-6.945c-.938,2.347-2.953,4.767,1.5,6.945" fill="#fff"/><path d="M1317.193,1001.5c-1.479.838-2.208,3.014-1.651,5.459,1.843-.75,1.843-.75,1.651-5.459" fill="#fff"/><path d="M1287.893,967.729l2.193,5.221c.822-2.046,1.466-3.653,2.167-5.4l-4.36.179" fill="#fff"/><path d="M1229.195,902.769l.4-.554-2.606-1.836c.19-.721.428-1.63.667-2.538l-.9-.422-2.864,3.526,5.3,1.824" fill="#fff"/><path d="M1188.7,964.3c-2.855,1.189-2.131,3.366-1.886,5.757,4.343-1.125,1.4-3.915,1.886-5.757" fill="#fff"/><path d="M1244.8,1025.517a6.781,6.781,0,0,0-.952-.887c-4.194,1.98-4.223,2.018-3.471,4.1l5.177-1.926a11.213,11.213,0,0,0-.754-1.291" fill="#fff"/><path d="M1277.962,922.391l6.92.46c-3.443-3.414-4.592-3.414-6.92-.46" fill="#fff"/><path d="M1355.461,967.789l4.265,3.256,1.958-3.881-6.223.625" fill="#fff"/><path d="M1287.464,847.455l6.459,1.7c-2.954-4-3.584-4.139-6.459-1.7" fill="#fff"/><path d="M1174.166,911.455c.346-3.35.346-3.35-4.305-4.755,2.419,1.614.174,4.4,4.305,4.755" fill="#fff"/><path d="M1258.069,1014.986l-.944.193c.69,1.7,1.381,3.393,2.158,5.3,1.657-2.073,1.657-2.073-1.214-5.5" fill="#fff"/><path d="M1232.927,895.14l-2.692,2.323,2.911,2.814c.156-2.106,2.507-3.356-.219-5.137" fill="#fff"/><path d="M1335.573,925.035c-.006,0-.18.07-.18.07l.194.083c0-.052-.01-.1-.014-.153" fill="#fff"/><path d="M1340.734,927.407l-5.147-2.219c.279,3.316,1.247,3.856,5.147,2.219" fill="#fff"/><path d="M1293.321,955.98l6.452.632c-1.95-2.587-3.932-3.118-6.452-.632" fill="#fff"/><path d="M1135.152,852.394l1.336.521c.537-.715,1.568-1.423,1.508-2.146-.135-1.629-1.389-2.428-3.679-1.889.282,1.186.558,2.35.835,3.514" fill="#fff"/><path d="M1311.375,965.651c1.881-2.111.492-3.911-.087-6.293-1.82,2.34-2.075,4.111.087,6.293" fill="#fff"/><path d="M1177.083,934.155l4.876,3.4c-.058-1.444-.1-2.634-.176-4.406-.995.262-1.667.461-2.357.613-.59.13-1.2.206-2.343.4" fill="#fff"/><path d="M1280.758,928.877a2.039,2.039,0,0,0-1.654.144c-1.384.967-.346,1.915.518,2.806.307.317.686.586,1.484,1.256a8.626,8.626,0,0,1,.616-1.4c.827-1.158.283-2.114-.964-2.806" fill="#fff"/><path d="M1236.11,1025.074c1.2,1.257,2.4.257,3.455-.465l-3.031-2.968-1.032-.056c.166,1.188-.147,2.7.608,3.489" fill="#fff"/><path d="M1233.94,945.879c-.082,1.68-.14,2.863-.2,4.053l5.92-1.034c-2.128-1.123-3.83-2.022-5.722-3.019" fill="#fff"/><path d="M1222.322,971.692l4.405,5.534c.269-2.018.424-3.185.615-4.613l-5.02-.921" fill="#fff"/><path d="M1332.261,1017.564l1.583-2.477-4.232-2.155c-.58,2.9,2.081,3.116,2.649,4.632" fill="#fff"/><path d="M1205.8,1026.91l.043.006c.037-.028.067-.057.106-.085Z" fill="#fff"/><path d="M1208.213,1028.753c.038-1.6-1.14-1.674-2.371-1.837-1.692,1.307-.375,2.6.4,3.823l3.117-.065c-.425-.644-1.159-1.318-1.144-1.921" fill="#fff"/><path d="M1209.538,1030.67l-.182,0,.038.055.144-.059" fill="#fff"/><path d="M1357.764,976.152c1.612,2.39,2.677,3.967,4.014,5.95l.976-3.712-4.99-2.238" fill="#fff"/><path d="M1173.318,957.993c-.048-1.613-.1-3.227-.156-5.218-3.382,1.986-3.386,2.073.156,5.218" fill="#fff"/><path d="M1103.088,892.861l-1.085-.085c.236,1.757-3.344,3.281,1,5.636.032-2.074.059-3.812.086-5.551" fill="#fff"/><path d="M1282.107,1030.527l-1.544.02c.342,1.357.685,2.715,1.179,4.673,2.7-2.027.77-3.354.365-4.693" fill="#fff"/><path d="M1255.146,1002.677l6.8.1c-3.574-2.467-3.574-2.467-6.8-.1" fill="#fff"/><path d="M1257.169,918.608l-.245-.052-.031.09.149.09.127-.128" fill="#fff"/><path d="M1260.444,919.359c1.031.31,1.008.382,1.942-1.111-3.053-1.613-3.26-1.629-5.217.36,1.1.235,2.206.429,3.275.751" fill="#fff"/><path d="M1310.058,1044.457l.023.02h.039c-.045-.026-.087-.054-.132-.079l-.017-.015c-.013.027-.014.053-.025.079l.135.014Z" fill="#fff"/><path d="M1309.946,1044.464l-2.544-.251,3.533,5.237c2.356-2.388-1.634-3.336-.989-4.986" fill="#fff"/><path d="M1332.352,955.827l-.018-.061v-.022s-.039.081-.036.061c.007.031.018.066.029.1,0-.029,0-.059,0-.088l.02.008" fill="#fff"/><path d="M1335.8,960.3a19.89,19.89,0,0,0-1.43-3.476c-.3-.486-1.3-.693-2.016-1,.493,1.682.989,3.348,1.509,5.094l1.937-.62" fill="#fff"/><path d="M1240.565,893.351c-1.851,2.517-.076,4.2,1.408,6.456,2.086-2.836-1.65-4.1-1.408-6.456" fill="#fff"/><path d="M1368.521,924.621c-1.747.836-3.02,1.527-2.02,3.232a2.171,2.171,0,0,0,1.669.367c2.162-.59,1.674-1.841.351-3.6" fill="#fff"/><path d="M1194.782,924.246l5.229,3.263c-.319-3.893-.493-4.011-5.229-3.263" fill="#fff"/><path d="M1149.094,925.588c-.005-.039,0-.071-.006-.109l-.1-.027Z" fill="#fff"/><path d="M1149.088,925.479l4.629,1.216-1.754-3.619c-2.168-.3-3.058.576-2.875,2.4" fill="#fff"/><path d="M1163.921,857.97l5.5-1.65q-.205-.418-.412-.837c-1.614.413-4.082-.922-5.089,2.487" fill="#fff"/><path d="M1145.906,930.639c2.349.227,3.17-.157,2.8-.465-2.231-1.86-.113-3.1.245-4.578-4.384.106-1.837,3.347-3.045,5.043" fill="#fff"/><path d="M1149.092,925.588l-.107-.136c-.007.049-.023.1-.034.144.05,0,.089-.008.141-.008" fill="#fff"/><path d="M1129.67,999.233c-3.787-.346-3.787-.346-4.147,2.477,1.409-.843,2.779-1.66,4.147-2.477" fill="#fff"/><path d="M1158.014,849.664c.022.212.042.423.068.635l0-.066a3.137,3.137,0,0,0-.065-.569" fill="#fff"/><path d="M1153.506,846.161c-.036.434-.081.973-.134,1.607,1.33.987,4.186-.292,4.642,1.9-.037-.359-.077-.717-.148-1.072-.342-1.714-3.337-3.475-4.36-2.432" fill="#fff"/><path d="M1122.745,943.491l3.682,1.73c-.523-1.6-1.047-3.217-1.676-5.152l-2.006,3.422" fill="#fff"/><path d="M1126.622,945.313l-.195-.093c.016.051.032.1.048.15l.147-.057" fill="#fff"/><path d="M1116.274,936.886l-3.176,1.9c.5.784.918,1.4,1.282,2.045a2.979,2.979,0,0,1,.207.795h0l0,0,.009-.009h0l2.406-4.246-.732-.484" fill="#fff"/><path d="M1314.011,902.2l3.851,1.012.93-.625c-.755-.94-1.511-1.879-2.7-3.358l-2.08,2.971" fill="#fff"/><path d="M1312.918,908.475c-2.3,2.392,1.392,2.813,1.826,4.251,1.773-2.127-1.277-2.749-1.826-4.251" fill="#fff"/><path d="M1114.3,916.811c.707-2.941.707-2.941-.973-4.64-.793,1.617,1.657,4.37-1.852,4.817h0l-.022,0,.021.012v-.013l2.825-.178" fill="#fff"/><path d="M1257.588,1042.428l2.821-1.885-4.592-3.078,1.771,4.963" fill="#fff"/><path d="M1283.357,909.869c.212,1.115.423,2.23.794,4.188l2.724-2.294-2.6-2.193-.915.3" fill="#fff"/><path d="M1133.995,939.232l-5.015.02c-.443.413-.9.838-1.529,1.429,2.475.686,4.241.295,6.544-1.449" fill="#fff"/><path d="M1128.89,939.252h.089l.1-.093Z" fill="#fff"/><path d="M1131.078,958.152c-.318.511-.988,1.05-.886,1.526a27.049,27.049,0,0,0,1.342,3.742l.838.242a29.22,29.22,0,0,0,.274-4.248c-.025-.406-1.018-.841-1.568-1.262" fill="#fff"/><path d="M1143.008,926.779c-.489-2.059-.793-3.34-1.1-4.621l-3.754,1.014,4.852,3.607" fill="#fff"/><path d="M1339.723,931.891c-1.35-1.183-2.481-2.172-4.078-3.572l-2.3,2.638c2.72-.487,4.008,2.035,6.375.934" fill="#fff"/><path d="M1257.812,910.145l3.862.382c-.982,3.125-.2,4.163,3.1,4.116l-1.948-4.38c-.352-.64-.558-1.666-1.085-1.847-1.72-.591-2.709.272-3.926,1.729" fill="#fff"/><path d="M1228.983,1015.079l3.706.068-.586-1.773-1.776-1.452-1.344,3.157" fill="#fff"/><path d="M1224.882,1008.055l2.5,4.488,1.188-.437-2.735-4.46-.953.409" fill="#fff"/><path d="M1184.837,818.647l-2.312,2.549,2.443,1.812c-.009-1.507,2.379-2.4-.131-4.361" fill="#fff"/><path d="M1349.291,938.711l-2.438-4.007c-1.377,2.214-.906,3.554,2.438,4.007" fill="#fff"/><path d="M1174.086,894.246c-2.463,2.179-2.463,2.179-.54,4.377,1.969-1.19,1.018-2.779.54-4.377" fill="#fff"/><path d="M1230.762,935.3c.163,1.832-2.55,3.128.034,6.311.4-2.627.669-4.379.937-6.13l-.971-.181" fill="#fff"/><path d="M1346.118,982.908q.186-2.027.371-4.053l-2.154-.277c.2,1.576.362,2.863.525,4.149l1.258.181" fill="#fff"/><path d="M1218.485,956.356c.494-1.056,1.046-2.233,1.778-3.8-3.627,1.362-3.627,1.362-1.778,3.8" fill="#fff"/><path d="M1234.429,889.285l-3.734-4.118c-.637,1.486-1.033,2.409-1.608,3.748l5.342.37" fill="#fff"/><path d="M1208.5,957.269l-3.506,1.545,2.51,3.854c.309-1.675.612-3.321,1-5.4" fill="#fff"/><path d="M1365.357,965.146c2.116,2.091,2.483,2.221,4.006,1.425-2.214-2.513-2.214-2.513-4.006-1.425" fill="#fff"/><path d="M1182.218,945.081c-3.04,1.672-1.73,3.347-.981,4.969l1.223-.023c-.075-1.524-.149-3.049-.242-4.946" fill="#fff"/><path d="M1186.8,935.711c4.079-.1,4.179-.283,2.7-3.6l-2.7,3.6" fill="#fff"/><path d="M1207.366,910.615c-3.169-1.659-3.169-1.659-5.008.4,1.9-.05,3.519.974,5.008-.4" fill="#fff"/><path d="M1226.413,840.609l-6.493-1.163c2.11,2.551,3.787,2.613,6.493,1.163" fill="#fff"/><path d="M1198.465,1010.809l-2.877,3.045c3.819-.1,4.035-.343,2.877-3.045" fill="#fff"/><path d="M1375.028,908.034c-.251-1.235-.451-2.214-.776-3.81-2.6,1.92-2.6,1.92.776,3.81" fill="#fff"/><path d="M1351.028,993.369l.538.388a.779.779,0,0,0-.363-.451l-.014,0-.1-.018c-.022.026-.034.049-.058.076" fill="#fff"/><path d="M1349.66,990.229l-2.186,2.431,3.612.633c1.2-1.391.594-2.348-1.426-3.064" fill="#fff"/><path d="M1360.169,921.591l1.3,1.667c3.554.125,3.641.082,2.9-3.694-.816,1.476-2.339,1.98-4.194,2.027" fill="#fff"/><path d="M1366.65,911.388c-.755-1.88-1.257-3.128-2.089-5.2-1.135,3.469-1.135,3.469,2.089,5.2" fill="#fff"/><path d="M1358.122,926.337l-2.914-.9s-.006.039,0,.038c1.76.523,1.776,1.311.9,2.438a6.468,6.468,0,0,0-.7,2.045l1.037.256c.55-1.269,1.1-2.538,1.68-3.872" fill="#fff"/><path d="M1348.376,965.336l-4.557-3.665-.785.724c1.573.865.939,3.667,5.342,2.941" fill="#fff"/><path d="M1357.468,905.111c-.624-2.108-1.052-3.562-1.485-5.026l-2.04.269c1.629,1.174.8,3.371,3.525,4.757" fill="#fff"/><path d="M1346.858,933.561c1.474-.486,2.145-.777,2.87-.926a19.1,19.1,0,0,1,2.3-.162c-2.886-2.526-2.886-2.526-5.17,1.088" fill="#fff"/><path d="M1245.814,966.04q.057,1.664.114,3.327c1.088-2.506,1.347-3.11-.114-3.327" fill="#fff"/><path d="M1243.874,965.9c.842.039,1.476.07,1.941.138-.012-.334-.023-.668-.035-1l-1.906.865" fill="#fff"/><path d="M1261.509,900.815l4.839,2.567c.127-.144.255-.287.383-.431l-4.48-3.806-.742,1.67" fill="#fff"/><path d="M1257.663,928.183c1.961,2.766,1.961,2.766,4.616,1.213l-4.616-1.213" fill="#fff"/><path d="M1263.072,941.464l4,1.993-1.1-3.972-2.893,1.979" fill="#fff"/><path d="M1259.508,970.761l-2.048,3.822,2.059-.313c.786-.881,2.072-1.669-.011-3.509" fill="#fff"/><path d="M1304.293,849.81c-.1,1.411-.2,2.8-.361,5.111,2.283-2.922,2.283-2.922.361-5.111" fill="#fff"/><path d="M1142.453,875.209l2.735-2.042-3.727-1.987a3.057,3.057,0,0,0,.545,1.714,14.525,14.525,0,0,1,.447,2.315" fill="#fff"/><path d="M1129.413,903.013a15.55,15.55,0,0,1,1.159,1.76c1.141-2.733.775-3.245-3.352-3.768,1.133,1.024,1.733,1.474,2.193,2.008" fill="#fff"/><path d="M1111.578,972.827l-.655-.679-4.574,2.522c2.905.694,2.905.694,5.229-1.843" fill="#fff"/><path d="M1299.609,996.418l-2.686-3.467-2.2,2.184,4.885,1.283" fill="#fff"/><path d="M1106.961,949.3c2.846-.9,3.459-3.006,1.563-5.209-.054,3.119-.214,3.608-1.563,5.209" fill="#fff"/><path d="M1283.136,1008.945c-3.85-1.445-3.85-1.445-6.037.446l6.037-.446" fill="#fff"/><path d="M1285.661,996.909l-.646-.062-1.7,5.111,2.961-1.5c-.237-1.371-.425-2.461-.613-3.551" fill="#fff"/><path d="M1126.988,892.717c.08.412.349,1.786.617,3.161.959-2.8.959-2.8-.617-3.161" fill="#fff"/><path d="M1293.951,979.961l-.315.818,5.363,1.7a5.723,5.723,0,0,0-5.048-2.515" fill="#fff"/><path d="M1122.931,925.145l-.988-.087q-.016,2.6-.035,5.2l.643.324q.19-2.72.38-5.44" fill="#fff"/><path d="M1311.4,902.569l-3.51-1.455c-.109,1.28-.163,1.921-.235,2.761.971-.074,1.9-.1,2.793-.24.234-.035.371-.393.952-1.066" fill="#fff"/><path d="M1275.094,1038.1a19.189,19.189,0,0,0-2.208-1.589l-1.041.876,2.384,1.87c.307-.4.958-1.072.865-1.157" fill="#fff"/><path d="M1324.078,885.541l5.016,1.786c-.75-1.2-1.255-2.011-2.043-3.273l-2.973,1.487" fill="#fff"/><path d="M1286.647,964.878c.672-1.386,1.344-2.771,2.279-4.7-4.236.687-2.679,2.91-2.279,4.7" fill="#fff"/><path d="M1306.115,881l-2.376,2.22c2,1.384,3.022.57,4.406-.181l-2.03-2.039" fill="#fff"/><path d="M1127.137,976.246l3.239-3.383c-3.664-.327-3.194,1.364-3.239,3.383" fill="#fff"/><path d="M1145.639,966.858l1.507-3.075c-3.569.783-3.569.783-1.507,3.075" fill="#fff"/><path d="M1149.4,957.54c.146,1.556.292,3.112.46,4.9.755-.984,1.376-1.8,2-2.607l-1.544.573q.078-1.559.155-3.118l-1.069.253" fill="#fff"/><path d="M1248.774,1005.69c-.163,2.154,1.223,2.964,4.233,3.439-1.181-1.835-1.667-3.488-4.233-3.439" fill="#fff"/><path d="M1156.591,943.753c1.927-.187,3.7.476,4.1-1.822-1.707.018-3.494-1.008-4.1,1.822" fill="#fff"/><path d="M1311.4,1028.7l3.215,3.405c.378-2.949.378-2.949-3.215-3.405" fill="#fff"/><path d="M1182.992,920.923c-.464.86-.589,1.888,1.47,1.986l1.635-2.815c-1.615-1.14-2.513-.266-3.105.829" fill="#fff"/><path d="M1186.1,920.095c.04.028.078.051.118.082l-.091-.129-.027.047" fill="#fff"/><path d="M1322.92,1011.194q0,2.534-.005,5.067l1.388.161q-.243-2.594-.485-5.188l-.9-.04" fill="#fff"/><path d="M1188.2,972.943l-2.393,3.764c5.367.388,2-2.431,2.393-3.764" fill="#fff"/><path d="M1195.893,953.465l-2.442,3.709c4.349-1.632,4.349-1.632,2.442-3.709" fill="#fff"/><path d="M1361.081,987.241c-.346.465-1.052.961-.958,1.387a7.681,7.681,0,0,0,1.274,2.1l.847-.2a7.912,7.912,0,0,0,.122-2.259c-.079-.37-.835-.685-1.285-1.025" fill="#fff"/><path d="M1350.137,1031.294c.624-.259.793-1.227,1.274-2.047l-4.049.021c.168,1.763.879,2.812,2.775,2.026" fill="#fff"/><path d="M1200.559,962.945c.914,1.729,2.033,2.994,4.359,1.623l-4.359-1.623" fill="#fff"/><path d="M1358.246,921.96l1.562,2.832q.829-.768,1.66-1.534l-1.3-1.667-1.923.369" fill="#fff"/><path d="M1219.019,969.688c-.811.565-1.488,1.038-2.261,1.578l2.768,1.835c1.384-1.35.734-2.313-.507-3.413" fill="#fff"/><path d="M1236.443,894.421c-.148-1.217-.27-2.224-.473-3.892-2.716,1.985-2.7,2.066.473,3.892" fill="#fff"/><path d="M1332.714,1034.951a.422.422,0,0,0-.066.061l.154.021-.088-.082" fill="#fff"/><path d="M1338.57,1035.8l-5.767-.77c.947.876,1.881,1.768,3.035,2.871l2.732-2.1" fill="#fff"/><path d="M1227.583,930.206c2.439,1.57,3.635,1.708,4.609-.8l-4.609.8" fill="#fff"/><path d="M1359.621,958c.457,1.429.809,2.534,1.45,4.539.693-1.6,1.035-2.392,1.411-3.258L1359.621,958" fill="#fff"/><path d="M1235.309,920.726c-3.23-1.058-3.23-1.058-3.573,1.936l3.573-1.936" fill="#fff"/><path d="M1210.5,1035.3c1.627-1.968.971-3.36-1.061-4.538-1.774,1.719.29,2.93,1.061,4.538" fill="#fff"/><path d="M1209.522,1030.676l-.128.052c.017.01.03.021.047.031.029-.028.05-.055.081-.083" fill="#fff"/><path d="M1194.892,982.571c-.1-.051-.409.235-.863.513l1.689,3.025c2.511-1.775.869-2.68-.826-3.538" fill="#fff"/><path d="M1236.35,934.742q.417,2.7.833,5.4l.841-.054-.855-5.408-.819.059" fill="#fff"/><path d="M1248.053,907.015c-1.065,1.646-1.6,2.789-.644,4.794,1.331-1.5,2.263-2.5.644-4.794" fill="#fff"/><path d="M1222.455,1012.57l0,0-.007.01.011,0h.008l-.012-.009,0,0" fill="#fff"/><path d="M1226.768,1013.477l-4.3-.9,4.464,3.557c-.047-.77-.1-1.676-.16-2.655" fill="#fff"/><path d="M1175.157,989.5c1.221,1.746,1.952,2.79,2.821,4.031.83-1.764,1.055-3.158-2.821-4.031" fill="#fff"/><path d="M1342.959,924.007c2.309,1.55,2.309,1.55,5.606.948-2.011-.529-3.394-.916-4.792-1.236-.239-.054-.541.184-.814.288" fill="#fff"/><path d="M1315.291,1045.468l-.228-.78-4.944-.209a17.292,17.292,0,0,0,3.179,1.725c.514.17,1.32-.466,1.993-.736" fill="#fff"/><path d="M1331.108,978.359l-.675,4.1c1.644-1.617,1.644-1.617.675-4.1" fill="#fff"/><path d="M1348.223,908.179c0-1.952.006-3.431.01-4.91l-1.142-.128c-.1,1.5-1.523,2.945,1.132,5.038" fill="#fff"/><path d="M1169.865,972.44c-.283-2-.465-3.276-.646-4.555.025,1.318-2.638,2.5.646,4.555" fill="#fff"/><path d="M1159.671,1012.626l-3.533-2.1c.158,2.092.158,2.092,3.533,2.1" fill="#fff"/><path d="M1199.771,841.311l1.3,3.682c.7-2.394.7-2.394-1.3-3.682" fill="#fff"/><path d="M1268.8,893.79l-1.035.32c-.211.8-.422,1.61-.642,2.445l3.2.356c-.71-1.452-1.118-2.286-1.525-3.121" fill="#fff"/><path d="M1168.489,943.38l-.953-.454-2.253,2.41c3.7,1.27,3.234-.524,3.206-1.956" fill="#fff"/><path d="M1158.313,970.168c-1.953,1.633-.527,2.813.868,4.038-.126-.639-.242-1.278-.379-1.916-.153-.708-.326-1.415-.489-2.122" fill="#fff"/><path d="M1260.713,955.1c2.366-2.064,2.053-2.836-.83-3.617.229,1,.481,2.1.83,3.617" fill="#fff"/><path d="M1280.136,916.669l-1.956-3.911c-1.592,2.258-1.577,2.3,1.956,3.911" fill="#fff"/><path d="M1277.106,927.685c-1.619-.769-3.184-1.235-4.621.406,2.015,1.615,3.237.151,4.621-.406" fill="#fff"/><path d="M1276.527,944.046a15.158,15.158,0,0,0-3.21,1.923l5.173,0c-.826-.832-1.706-2-1.963-1.926" fill="#fff"/><path d="M1157.369,865.58c.146-.108.029-.472.04-1l-3.378-.246c1.022,2.534,2.17,2.108,3.338,1.243" fill="#fff"/><path d="M1130.414,930.947l3.894-.345c-1.357-2.258-2.714-1.521-4.049-.462-.106.085.075.432.155.807" fill="#fff"/><path d="M1123.47,950.807c.138.8-.029,1.885.506,2.3.482.379,1.734.026,3.61-.037l-3.225-2.528-.891.26" fill="#fff"/><path d="M1312.067,938.519c-.033.007-.057.015-.091.022l.1.114c0-.045,0-.091,0-.136" fill="#fff"/><path d="M1311.94,934.412q.063,2.054.127,4.107c3.894-.8.764-2.637-.127-4.107" fill="#fff"/><path d="M1288.23,1021.562l1.338.285c.955-1.29-.457-2.829-.8-4.279q-.27,2-.543,3.994" fill="#fff"/><path d="M1143.276,849.122l-2.456,4.19c3.181-.8,3.034-2.441,3.524-3.708l-1.068-.482" fill="#fff"/><path d="M1135.4,908.228c-1.986.266-1.788,1.257-.3,3.3.393-1.5.613-2.331.814-3.17,0,0-.274-.072-.515-.135" fill="#fff"/><path d="M1121.828,887.226l1.84-2.045-.978-.66L1120.9,886.6l.929.622" fill="#fff"/><path d="M1140.731,911.336c.133-1.177.235-2.075.336-2.974-.436-.054-1.071-.292-1.273-.132-.917.726-1.685,1.565.937,3.106" fill="#fff"/><path d="M1118.744,996.5l1.293-.041c-.212-.89-.416-1.782-.674-2.665a4.337,4.337,0,0,0-.847.038c.042.888.139,1.778.228,2.668" fill="#fff"/><path d="M1146.423,891.7l-1.373,2.639c2.6-.018,3.014-.839,1.373-2.639" fill="#fff"/><path d="M1120.586,992.905l3.764-.874c-3.157-.963-3.157-.963-3.764.874" fill="#fff"/><path d="M1175.383,806c-3.053,1.511-3.266,1.972-1.971,3.928.637-1.271,1.239-2.469,1.971-3.928" fill="#fff"/><path d="M1166.271,869.327c-.471,1.416-.627,2.455,1.326,3.074,1.138-1.481.986-2.434-1.326-3.074" fill="#fff"/><path d="M1155.288,933.371c-1.473-.971-2.592-.711-3.495.415q-.052.345-.108.688c2.106.319,2.106.319,3.6-1.1" fill="#fff"/><path d="M1174.159,864.36l-3.086,2.893c2.633-.182,3.836-.412,3.086-2.893" fill="#fff"/><path d="M1151.921,966.341l-3.706-.37-.117.909c1.379.907,2.671,1.3,3.823-.539" fill="#fff"/><path d="M1154.67,949.677q-.246,1.832-.494,3.662l1.337.227.579-3.664-1.422-.225" fill="#fff"/><path d="M1146.991,1007.953l-4.52-2.131c.46,2.064.46,2.064,4.52,2.131" fill="#fff"/><path d="M1165.964,985.908c.069.033.125.067.188.1a.872.872,0,0,0-.067-.1Z" fill="#fff"/><path d="M1166.152,986.009c.8,1.2-2.65,2.547.625,3.711.176-1.294,1.465-2.6-.625-3.711" fill="#fff"/><path d="M1186.215,920.177c0-.067.021-.116.027-.18l-.121.046.094.134" fill="#fff"/><path d="M1186.242,920q2.108-.791,4.221-1.573c-2.45-.84-4.011-.5-4.221,1.573" fill="#fff"/><path d="M1204.968,876.973c2.543-.99,1.443-2.728,1.113-4.237-.342,1.3-.683,2.6-1.113,4.237" fill="#fff"/><path d="M1193.887,942.018l-1.456,2.513,2.609.8c-.154-1.235-.273-2.184-.392-3.134l-.761-.175" fill="#fff"/><path d="M1182.453,998.889l-5.069.747c.193.663.39,1.336.715,2.452l4.354-3.2" fill="#fff"/><path d="M1200.54,960.741c.441-1.054.806-1.926,1.17-2.8-2.591.983-2.591.983-1.17,2.8" fill="#fff"/><path d="M1190.674,1014.676l-2.462-2.866c-.273,1.816-.418,2.774-.562,3.732l.762.588,2.262-1.454" fill="#fff"/><path d="M1210.241,935.628l1.291-.11-.8-3.086c-2.162,1.426-1.581,2.316-.494,3.2" fill="#fff"/><path d="M1342.365,996.936a1.232,1.232,0,0,0-.613-1.034c-1.655-.4-2.121.448-2.3,1.7,1.394.566,2.559.844,2.911-.663" fill="#fff"/><path d="M1229.95,949.685l-3.568-2.262c1.287,2.246,1.287,2.246,3.568,2.262" fill="#fff"/><path d="M1340.492,983.788q-.508,1.428-1.018,2.856c1.825-.476,2.015-1.476,1.018-2.856" fill="#fff"/><path d="M1215.183,1016.7l-1.837,2.783,1.8.051a2.431,2.431,0,0,1,.639-.808c1.246-.772,1.267-.748-.6-2.026" fill="#fff"/><path d="M1238.858,941.789c-.234,1.4-.8,2.8,1.251,4.952.031-2.2.051-3.568.07-4.939l-1.321-.013" fill="#fff"/><path d="M1268.082,830.97c-.091,1.248-.341,2.551,3.369,3.333l-2.222-3.844-1.147.511" fill="#fff"/><path d="M1245.547,922.12c.234,1.1.469,2.211.765,3.608,2.817-1.536.992-2.577-.765-3.608" fill="#fff"/><path d="M1244.242,974.745c-1.878.488-2.509,1.54-1.958,3.228a6.483,6.483,0,0,0,1.058-.009c.568-.116,1.116-.283,1.595-.408l-.176-2.167,3.179.523c-1.326-1.92-1.326-1.92-3.7-1.167" fill="#fff"/><path d="M1335.926,936.4c-.552.2-.881.787-1.3,1.215l1.359.47c-.562,1.022-1.127,2.045-1.8,3.269l3.2.462c1.138-1.507.616-2.75-1.269-3.775l1.254-.8c-.494-.3-1.18-.941-1.442-.845" fill="#fff"/><path d="M1252.039,997.185l-3.1,1.15c3.087.773,3.087.773,3.1-1.15" fill="#fff"/><path d="M1265.622,933.6c2.636,2.248,2.636,2.248,4.416.874l-4.416-.874" fill="#fff"/><path d="M1257.841,986.919c.2,1.067-.486,2.491,1.736,2.671,1.69-2.1,1.656-2.114-1.736-2.671" fill="#fff"/><path d="M1303.122,1037.778l1.094-.349-.906-2.216-1.529.478,1.341,2.087" fill="#fff"/><path d="M1298.843,1057.99c-.6-1.348-.974-2.206-1.353-3.064l-1.021.226c-.15,1.056-.377,2.139,2.374,2.838" fill="#fff"/><path d="M1275.773,939.244l-1.86-2.784c-.5,2.582-.5,2.582,1.86,2.784" fill="#fff"/><path d="M1265.11,1014c.676-1.763.144-3-2.429-3.987,1.014,1.664,1.721,2.826,2.429,3.987" fill="#fff"/><path d="M1274.173,1045.1l-4.187-2.855,1.757,4.141,2.43-1.286" fill="#fff"/><path d="M1281.644,1045.615c-.1,1-.2,2-.337,3.341,2.244-1.009,2.244-1.009.337-3.341" fill="#fff"/><path d="M1308.384,937.156c-.359.334.354,1.525.632,2.517l2.869-1.1a2.624,2.624,0,0,1-1.027-.528c-.674-.856-1.373-1.915-2.474-.891" fill="#fff"/><path d="M1312.066,938.65c.006.005-.09-.109-.09-.109l-.091.034c.061.025.124.048.181.075" fill="#fff"/><path d="M1295.554,961.859c.788.929,1.4,1.648,2.29,2.7l1.745-3.117-4.035.415" fill="#fff"/><path d="M1307.536,943.727l-.789-.26-1.2,3.247.885.182,1.1-3.169" fill="#fff"/><path d="M1158.352,915.1l2.931,2.326c.677-2.313-1-2.378-2.931-2.326" fill="#fff"/><path d="M1115.829,907.965l-4.359-2.374c-.179,1.229.264,2.052,1.9,2.376.965.191,2.038,1.281,2.458,0" fill="#fff"/><path d="M1108.354,957.121c-.009-.02-.832.078-.833.156-.006.873.076,1.754.134,2.632l1.739-.14c-.334-.886-.663-1.773-1.04-2.648" fill="#fff"/><path d="M1117.385,927.947l.146-.082c0-.01-.006-.019-.008-.029-.013.009-.138.111-.138.111" fill="#fff"/><path d="M1119.626,929.3c.514-.245.27-1.549.431-2.85l-2.527,1.413c.267.991.682,2.11,2.1,1.437" fill="#fff"/><path d="M1132.583,894.139l-1.253-.212a8.911,8.911,0,0,0-.606,1.792c-.04.312.335.694.956,1.858.426-1.622.664-2.53.9-3.438" fill="#fff"/><path d="M1127.2,936.313l-.647,2.463,2.379.361c.613-1.4.178-2.387-1.732-2.824" fill="#fff"/><path d="M1128.892,939.25l.187-.091-.143-.021c-.017.038-.026.073-.044.112" fill="#fff"/><path d="M1122.245,965.03c-1.406.94-2.467,1.649-3.527,2.359,1.434-.334,3.743.189,3.527-2.359" fill="#fff"/><path d="M1373.588,916.033q.383-.959.766-1.917l-1.314-.3q-.107.977-.211,1.951l.759.266" fill="#fff"/><path d="M1349.589,996.106a2.035,2.035,0,0,0,.365,2.031,4.611,4.611,0,0,0,1.555.662l.474-.689-2.394-2" fill="#fff"/><path d="M1329.387,1064.663c.016-.1-.453-.3-.935-.595-.254.967-.488,1.859-.739,2.813,2.463.192,1.534-1.315,1.674-2.218" fill="#fff"/><path d="M1347,940.534l-.654.86,3.6,2.073.507-.693-3.455-2.24" fill="#fff"/><path d="M1304.148,1061.832l.525-.367q-1.149-1.285-2.3-2.572l-.667.458,2.441,2.481" fill="#fff"/><path d="M1306.35,1027.915c.783.415,1.606.769,2.422,1.134l.462-.776-2.405-1.293a8.835,8.835,0,0,0-.479.935" fill="#fff"/><path d="M1340.881,906.847l-3.332,2.473c2.2.247,3.473.436,3.332-2.473" fill="#fff"/><path d="M1310.154,1007.482q-.07,1.34-.142,2.677l1.091.166q.183-1.241.365-2.482l-1.314-.361" fill="#fff"/><path d="M1305.756,1022.113l-1.867,1.262,2.51,1.62c-.273-1.224-.413-1.853-.643-2.882" fill="#fff"/><path d="M1336.684,898.607l.134,3.661,1.169.009c.22-1.046.768-2.115-1.3-3.67" fill="#fff"/><path d="M1318.433,956.415c-.53-1.558-.9-2.639-1.258-3.7-1.791,1.432-1.769,1.453,1.258,3.7" fill="#fff"/><path d="M1317.175,952.713l.042-.034,0,0-.061-.085-.022-.006.043.127" fill="#fff"/><path d="M1290.1,1040.325l-4.41.105c.612.737,1.157,1.4,1.7,2.053.856-.758,3.135-.273,2.708-2.158" fill="#fff"/><path d="M1287.348,1042.519a.952.952,0,0,0,.1.031l-.054-.066c-.014.012-.031.022-.044.035" fill="#fff"/><path d="M1290.079,1040.221c.01.038.012.069.021.105l.068,0-.089-.1" fill="#fff"/><path d="M1279.184,1021.535c-1.091,1.5.077,2.213,1.081,2.932.123.088.482-.075,1.046-.18l-2.127-2.752" fill="#fff"/><path d="M1320.617,859.067c-.121-.214-.242-.429-.364-.643a19.965,19.965,0,0,0-2.58.76,9.372,9.372,0,0,0,.672,1.56l2.272-1.677" fill="#fff"/><path d="M1283.854,978.949c.591.63,1.168,1.27,1.8,1.872a2.05,2.05,0,0,0,.671-.277c-.377-.745-.8-1.476-1.217-2.209l-1.251.614" fill="#fff"/><path d="M1314.864,854.558c3.043-.165,3.043-.165,1.635-2.324l-1.635,2.324" fill="#fff"/><path d="M1266.6,1008.914l-3.357-1.627c.531,2.749,2.219,1.443,3.357,1.627" fill="#fff"/><path d="M1270.654,972.522q-.278.45-.554.9l3.385,2,.591-.839-3.422-2.062" fill="#fff"/><path d="M1274.76,957.753l-2.438-2.942-1.128.758c1.333.41.589,2.452,3.566,2.184" fill="#fff"/><path d="M1266.643,974a11.613,11.613,0,0,0-1.044-.74c-.375.578-.787,1.141-1.108,1.743a1.145,1.145,0,0,0-.023.628c.295-.014.657.031.81-.1a8.8,8.8,0,0,0,1.365-1.53" fill="#fff"/><path d="M1259.637,989.6c-.022,0-.039-.005-.06-.007l-.053.066.058-.03-.058.03.089.024c.008-.028.017-.056.025-.083Z" fill="#fff"/><path d="M1258.808,992.3h-.011l.025.02c.613,1.548-2.381,2.958.181,4.758l2.78-4.513-2.956-.262,0-.007-.021.005" fill="#fff"/><path d="M1262.878,990.536l-3.264-.858q-.395,1.308-.784,2.621,2.072-.5,4.134-1c-.029-.254-.057-.508-.086-.762" fill="#fff"/><path d="M1182.917,888.346l-2.028,1.833c2.179-.253,2.179-.253,2.028-1.833" fill="#fff"/><path d="M1279.382,888.051l2.917,2.408.969-.845-3.258-2.224c-.209.221-.419.441-.628.661" fill="#fff"/><path d="M1260.505,964.8a14.1,14.1,0,0,0-2.091.329c.166.455.332.91.644,1.768a10.55,10.55,0,0,0,1.925-1.125c.123-.115-.352-.976-.478-.972" fill="#fff"/><path d="M1249.156,979.059l1.388,1.465,1.98-1.327-.922-1.26-2.446,1.122" fill="#fff"/><path d="M1245.123,970.715l-.621.82,4.7,1.234-4.078-2.054" fill="#fff"/><path d="M1252.1,936l1.053-.846-2.672-1.656-.607.678L1252.1,936" fill="#fff"/><path d="M1197.612,873.5c-.068-.308-.135-.616-.2-.925l-2.877.418.111.594,2.969-.087" fill="#fff"/><path d="M1259.11,874.562l4.384-1.855c-3.2.061-3.2.061-4.384,1.855" fill="#fff"/><path d="M1225.471,986.832l.207,0-.012-.1Z" fill="#fff"/><path d="M1227.413,986.816l-1.735.015c.07.632.155,1.265.2,1.9a8.953,8.953,0,0,1-.046,1.075l.9-.372c.224-.854.449-1.709.687-2.615" fill="#fff"/><path d="M1264.453,834.818c.153,1.1.308,2.208.556,3.979,1.413-2.048,1.983-3.33-.556-3.979" fill="#fff"/><path d="M1264.3,834.776c.057.013.1.028.157.042,0-.031-.009-.063-.013-.094l-.083-.005-.053.054Z" fill="#fff"/><path d="M1199.642,877.513q.289-1.581.58-3.162l-1.1-.216q-.261,1.586-.523,3.17l1.038.208" fill="#fff"/><path d="M1261.125,833.786c.047.246.094.493.142.739l3.09.194c.338-.344.7-.716,1.593-1.637l-4.825.7" fill="#fff"/><path d="M1210.144,1022.937c-.281,1.362-.489,2.373-.842,4.081,2.407-1.477,2.69-2.456.842-4.081" fill="#fff"/><path d="M1198.82,899.517l-2.227-3.792c-.6,2.021-1.266,3.369,2.227,3.792" fill="#fff"/><path d="M1204.323,866.327c.616,1.157,1.089,2.046,1.563,2.935.515-1.284,1.109-2.55-1.563-2.935" fill="#fff"/><path d="M1223.089,875.732q.045,1.461.088,2.922l1.152.022q-.135-1.458-.274-2.915l-.966-.029" fill="#fff"/><path d="M1181.46,1008.78l-3.482.694c2.138,1.061,2.138,1.061,3.482-.694" fill="#fff"/><path d="M1202.962,912.481l-2.171,1.167.322.429,2.485-.644-.636-.952" fill="#fff"/><path d="M1182.9,958.644l3.486,1.369-2.854-2.246-.632.877" fill="#fff"/><path d="M1197.2,937.021q.432-.988.865-1.977l-1.068-.335q-.276,1.049-.551,2.1l.754.216" fill="#fff"/><path d="M1194.653,958.844l-3.388-1.672c.268,2.233,1.331,2.6,2.871,2.321.212-.038.317-.385.517-.649" fill="#fff"/><path d="M1189.866,927.843l.579.545,2.524-1.174a2.684,2.684,0,0,0-2.308-.472c-.393.138-.539.719-.8,1.1" fill="#fff"/><path d="M1204.73,930.372c.02-.319.041-.637.061-.956l-3.758-.529-.054.808,3.751.677" fill="#fff"/><path d="M1225.886,915.945l1.546-2.3c-2.195.674-2.195.674-1.546,2.3" fill="#fff"/><path d="M1219.13,942.931c.3,1.591.461,2.45.762,4.055,1.65-1.744,1.315-2.591-.762-4.055" fill="#fff"/><path d="M1232.921,911.381q-1.094-.708-2.191-1.417l1.02,1.887,1.171-.47" fill="#fff"/><path d="M1218.53,1004.833c-.61.318-1.163.71-1.734,1.08l.736.736,1.691-1.33c-.239-.171-.618-.525-.693-.486" fill="#fff"/><path d="M1241.6,927.708l1.026-.618-1.454-1.588-.91.59,1.338,1.616" fill="#fff"/><path d="M1162.816,999.6q.12,1.136.25,2.35c1.881-1.555,1.881-1.555-.25-2.35" fill="#fff"/><path d="M1246.288,945.075l2.387.006q-.263-.739-.526-1.48l-2.034.841c.058.211.115.422.173.633" fill="#fff"/><path d="M1167.315,983.513c-1.841.732-1.858.745-1.248,2.344.957-.534,2.265-.9,1.248-2.344" fill="#fff"/><path d="M1165.981,985.905c-.017,0,.1,0,.1,0-.007-.018-.011-.029-.017-.047l-.086.048" fill="#fff"/><path d="M1186.654,895.846c-.243.312-.783.762-.678.912a14.258,14.258,0,0,0,1.619,1.7l.77-.51-1.711-2.1" fill="#fff"/><path d="M1232.128,1013.376l-.067-.132c.014.043.028.087.043.13l.039.032c.011-.037.027-.059.038-.094-.041-.024-.082-.05-.123-.075l.07.139" fill="#fff"/><path d="M1234.65,1013.047c-.8-.567-2.024-1.119-2.469.265,1.044.633,2.123,1.291,4.051,2.467-.761-1.38-.956-2.287-1.582-2.732" fill="#fff"/><path d="M1233.552,1027.384a6.23,6.23,0,0,0-1.814.128l.934,1.661a5.765,5.765,0,0,0,1.387-.847c.12-.129-.256-.877-.507-.942" fill="#fff"/><path d="M1267.167,891.729l3.312-1.577c-2.438-1.642-2.745-.26-3.312,1.577" fill="#fff"/><path d="M1259.306,935.823c.306-.659.614-1.329,1.032-2.241l-3.089-.648,2.057,2.889" fill="#fff"/><path d="M1259.365,935.906l-.059-.083-.067.143c-.005,0,.126-.06.126-.06" fill="#fff"/><path d="M1173.368,949.736a14.452,14.452,0,0,0,.3-1.878l-1.234-.123.111,2.185c.285-.058.784-.057.819-.184" fill="#fff"/><path d="M1274.305,899.455l-1.092,2.693.857.524a17.233,17.233,0,0,0,1.384-2.033c.07-.135-.53-.562-1.149-1.184" fill="#fff"/><path d="M1272.449,914.372c-.191.132.729,1.4,1.135,2.142l.619-.137c-.045-.339-.062-.68-.138-1.016-.183-.816-.328-1.882-1.616-.989" fill="#fff"/><path d="M1276.216,920.213l.562-.942-2.811-1.037-.288.556,2.537,1.423" fill="#fff"/><path d="M1265.6,963.88l-2.073,2.188,1.121.732,1.806-2.354-.854-.566" fill="#fff"/><path d="M1176.949,902.622q-.159-1.019-.317-2.037l-.7-.182-.718,1.9,1.733.32" fill="#fff"/><path d="M1266.4,990.459q.058-1.266.116-2.532l-.906-.066-.324,2.466,1.114.132" fill="#fff"/><path d="M1288.912,891.038q-.207.378-.413.756l2.565,1.3.4-.626-2.551-1.433" fill="#fff"/><path d="M1160.042,968.853q.19-1.674.38-3.349l-1.037-.155-.247,3.369.9.135" fill="#fff"/><path d="M1293.228,900.23l-1.559-3.562c-.733,1.686-.649,2.686,1.559,3.562" fill="#fff"/><path d="M1308.067,841.346l-1.336,2.218,1.366.7q.461-1.267.92-2.535l-.95-.38" fill="#fff"/><path d="M1289.331,932.53a5.71,5.71,0,0,0,.478-.935l-2.275-.865-.507.944c.763.3,1.52.622,2.3.856" fill="#fff"/><path d="M1286.106,953.429l-.942.4,1.386,2.119.933-.4-1.377-2.115" fill="#fff"/><path d="M1178.085,866.325l3.439.027c-.013-.136-.027-.273-.066-.658l-3.361-.173-.012.8" fill="#fff"/><path d="M1281.079,1016.717c-.287,1.093-.5,1.912-.826,3.144,2.721-.67,2.489-1.594.826-3.144" fill="#fff"/><path d="M1309.048,907.721c-.339,1.292-.575,2.187-.923,3.512l3.108-1.2-2.185-2.315" fill="#fff"/><path d="M1300.875,946.759c-1.173.387-2.753.451-1.86,3.164l2.707-2.522-.847-.642" fill="#fff"/><path d="M1306.04,926.563c.4.059.856-.476,1.288-.747a5.268,5.268,0,0,0-1.125-1.157c-.291-.163-.834.032-1.264.066l-.444.88c.513.341,1.006.878,1.545.958" fill="#fff"/><path d="M1315.564,919.2l-.612.291,1.063,1.9,1.027-.4q-.74-.9-1.478-1.79" fill="#fff"/><path d="M1305.523,972.295q-.222-1.666-.445-3.334l-1.417,0q.378,1.711.754,3.423l1.108-.086" fill="#fff"/><path d="M1317.282,932.046l-2.995,2.325.423.479,2.788-.388-.216-2.416" fill="#fff"/><path d="M1311.922,955.032q-.365,1.139-.728,2.278l1.078.287.606-2.307-.956-.258" fill="#fff"/><path d="M1323.586,916.672l-.04.094.151.073s-.062-.094-.094-.141l.095.14.057-.08Z" fill="#fff"/><path d="M1321.912,918.57l.822.095q.405-.949.812-1.9l-1.85-.9c.081,1.02.149,1.863.216,2.706" fill="#fff"/><path d="M1354.286,873.8l-2.948-2.018-.722.971,3.223,1.648.447-.6" fill="#fff"/><path d="M1337.8,948.2l1.32-2.158-1.175-.563q-.619,1.1-1.24,2.2l1.1.523" fill="#fff"/><path d="M1337.473,941.9c-.014-.026-.027-.053-.041-.079l0,0-.046-.007c-.021.028-.033.054-.055.083.051,0,.1,0,.145,0" fill="#fff"/><path d="M1337.473,941.9c.505.969,1.017,1.958,1.888,3.636,1.034-2.717.363-3.637-1.888-3.636" fill="#fff"/><path d="M1352.5,896.166c-.722-.242-1.467-.419-2.206-.613l-.213,1.009c.784.111,1.568.227,2.353.3a2.033,2.033,0,0,0,.066-.7" fill="#fff"/><path d="M1331.334,986.146c-1.355-2.1-1.355-2.1-2.952-.63l2.952.63" fill="#fff"/><path d="M1335.806,960.321l.173.063c.009-.05.018-.1.026-.149l-.206.066.007.02" fill="#fff"/><path d="M1338.021,961.125l-2.042-.742c-.108.619-.222,1.271-.416,2.388l2.458-1.646" fill="#fff"/><path d="M1147.87,944.087l.609-2.32-1.337-.225-.111,2.4.839.142" fill="#fff"/><path d="M1328.838,1042.269a5.1,5.1,0,0,0,.45.68c.732-.2,1.438-.46,2.15-.706l-.363-.68-2.237.706" fill="#fff"/><path d="M1137.131,964.77l-.916.721c.6.521,1.173,1.061,1.822,1.525a6.514,6.514,0,0,0,.912-.691l-1.818-1.555" fill="#fff"/><path d="M1143.031,937.227c-.584-.883-.941-1.421-1.52-2.3l-2.256,2.392,3.776-.1" fill="#fff"/><path d="M1349.969,1007.2c.07-1.1.125-1.962.193-3.05-2.833.772-2.085,1.721-.193,3.05" fill="#fff"/><path d="M1171.226,823.814c.471-2.263-1.009-2.1-3.015-2.246l3.015,2.246" fill="#fff"/><path d="M1355.944,1004.265l1.046-1.046q-.4-.534-.8-1.07c-.443.316-1.1.562-1.245.975-.086.245.639.752,1,1.141" fill="#fff"/><path d="M1375.79,921.5c.38,1.759.56,2.593.807,3.739l2.882-.872-3.689-2.867" fill="#fff"/><path d="M1141.746,906.581l.877-.377-1.158-1.756q-.437.188-.874.372c.385.588.77,1.173,1.155,1.761" fill="#fff"/><path d="M1144.339,881.511c.131,1.418.2,2.223.282,3.057.78-.752,1.691-1.464-.282-3.057" fill="#fff"/><path d="M1106.48,969.465q-.333,1.266-.665,2.531l.785.178.678-2.582-.8-.127" fill="#fff"/><path d="M1099.638,977.965l3.743-1.154c-2.845-1.554-3.1-.456-3.743,1.154" fill="#fff"/><path d="M1103.864,973l-3.046-.049c-.008.207-.017.414-.026.621l3.013.474q.03-.523.059-1.046" fill="#fff"/><path d="M1122.643,916.082l.336-2.122-.752-.2q-.422,1-.841,2l1.257.324" fill="#fff"/><path d="M1129.429,889.114a7.426,7.426,0,0,0-2.537.5q.1.315.2.63a9.127,9.127,0,0,0,1.245.173c1.134.006,1.893-1.182,1.1-1.3" fill="#fff"/><path d="M1135.588,904.158c-.824,1.094-1.4,1.858-1.977,2.622,1.367-.286,3.173-.3,1.977-2.622" fill="#fff"/><path d="M1123.6,958.84c-.019-.684-.11-1.372-.184-2.059l-1.189.118c.171.673.333,1.348.55,2.013a3.432,3.432,0,0,0,.823-.072" fill="#fff"/><path d="M1137.583,911.839l1.467,2.28,1.031-.546-1.779-2.113-.719.379" fill="#fff"/><path d="M1162.113,848.647l-3.775,1.547c1.416-.132,2.827-.252,4.237-.37l-.462-1.177" fill="#fff"/><path d="M1158.087,850.216a.322.322,0,0,0-.005.083l.257-.105-.252.022" fill="#fff"/><path d="M1161.985,839.232l-.393.47,2.522,1.967.759-.765-2.888-1.672" fill="#fff"/><path d="M1137.1,943.495c.26.316.454.776.793.907a3.191,3.191,0,0,0,1.284-.1c-.38-.837-.535-1.18-.691-1.522l-1.386.715" fill="#fff"/><path d="M1369.175,950.031l2.162.432c.011-.27.021-.539.032-.809l-2.2-.039c0,.139,0,.277,0,.416" fill="#fff"/><path d="M1354.457,995.841l-2.891-2.084c.314.885-.325,2.4,2.891,2.084" fill="#fff"/><path d="M1368.053,909.671l-.261,1.06,2.681.48.117-.673-2.537-.867" fill="#fff"/><path d="M1346.448,1002.166c-.477-1.05-.838-1.847-1.2-2.644-.685,1.028-1.51,2.3,1.2,2.644" fill="#fff"/><path d="M1131.367,972.8c.268,1.519.439,2.484.659,3.731,1.5-2.4,1.5-2.4-.659-3.731" fill="#fff"/><path d="M1147.4,923.311c.418-.606.838-1.213,1.538-2.225-3.113-.156-2.069,1.136-1.538,2.225" fill="#fff"/><path d="M1353.02,969.718l-1.25-.484q-.289,1.1-.577,2.194l.94.312q.442-1.011.887-2.022" fill="#fff"/><path d="M1338.592,1025.421a7,7,0,0,0-1.064-2.162c-.367.877-.762,1.765-1.54,3.511,1.51-.754,2.642-1.064,2.6-1.349" fill="#fff"/><path d="M1354.859,935.573l2.121-1.592-1.2-1.06a5.122,5.122,0,0,0-.952,1.074c-.148.309,0,.739.028,1.578" fill="#fff"/><path d="M1347.208,960.6l-.06,2.123.992.047q-.075-1.068-.149-2.134l-.783-.036" fill="#fff"/><path d="M1323,1027.065c1.747,1.348,1.747,1.348,3.283.563l-3.283-.563" fill="#fff"/><path d="M1128.567,1012.872a18.058,18.058,0,0,0,1.764-.519l-.517-.911-1.761.876c.175.2.419.574.514.554" fill="#fff"/><path d="M1352.612,916.62c-.037-.705-.128-1.411-.21-2.118l-.913.116q.132,1.019.265,2.036c.3-.011.859-.012.858-.034" fill="#fff"/><path d="M1334.661,963.729l-.7-.16-.363,3.287s.018.069.021.058c.35-1.07.7-2.127,1.045-3.185" fill="#fff"/><path d="M1351.991,877.954l-2.892.169.2.9,2.816-.322c-.042-.247-.083-.495-.125-.743" fill="#fff"/><path d="M1329.792,937.883l-.925.576,2.262,2.074.636-.48-1.973-2.17" fill="#fff"/><path d="M1146.579,949.4c-.044.32.349.717.554,1.08l1.217-.456-.8-1.191c-.345.186-.941.327-.974.567" fill="#fff"/><path d="M1321.181,974.424l-1.311-.222q0,1.206,0,2.411l.883.124.432-2.313" fill="#fff"/><path d="M1308.091,1014.051a6.206,6.206,0,0,0,.348,1.68c.6-.321,1.241-.483,1.241-.7a3.819,3.819,0,0,0-.541-1.331c-.368.113-1.034.185-1.048.346" fill="#fff"/><path d="M1145.719,968.638,1144,970.549l.7.482,1.608-2.009-.588-.384" fill="#fff"/><path d="M1316.852,964.262l1.4,3.147c.449-2.485.449-2.485-1.4-3.147" fill="#fff"/><path d="M1340.336,875.518q-.155-1.19-.31-2.378l-.573-.042-.366,2.2,1.249.222" fill="#fff"/><path d="M1294.76,1032.094q-.179.493-.358.986l2.914,1.314.43-.752-2.986-1.548" fill="#fff"/><path d="M1315.1,960.218l-.754-.792-1.223,1.407c.236.119.6.387.686.334a12.1,12.1,0,0,0,1.291-.949" fill="#fff"/><path d="M1138.558,1000.572c.292.952.518,1.687.817,2.664,1.59-1.629,1.59-1.629-.817-2.664" fill="#fff"/><path d="M1337.348,851.58l-2.937-1.115q-.126.3-.254.611l3.018,1.031.173-.527" fill="#fff"/><path d="M1309.552,949.826c-.278-.136-.556-.271-.833-.408l-1.177,1.9.9.439,1.11-1.932" fill="#fff"/><path d="M1291.432,1016.218c-.859-1.06-1.116-1.377-1.374-1.694q-.571.438-1.147.875a4.674,4.674,0,0,0,1.037.7,6.446,6.446,0,0,0,1.484.118" fill="#fff"/><path d="M1302.38,957.3c-.552.319-1.112.631-1.631.983a2.534,2.534,0,0,0,.482.6c.6-.189,1.17-.447,1.748-.686-.2-.3-.4-.6-.6-.894" fill="#fff"/><path d="M1291.542,999.172l-2.877-1.131-.307.524,2.546,1.541.638-.934" fill="#fff"/><path d="M1296.907,972.887c.06-.045-.262-.627-.357-.624-.722.025-1.431.133-2.144.216l.921,1.4c.535-.322,1.09-.624,1.58-.99" fill="#fff"/><path d="M1150.323,976.8q.367-.969.734-1.937l-.281-.115-1.037,1.825.584.227" fill="#fff"/><path d="M1163.005,926.21c-.193,1.1-.315,1.8-.492,2.808,2.226-.543,2.349-1.238.492-2.808" fill="#fff"/><path d="M1304.971,918.826c.126.234.252.469.379.7l2.22-.833c-.106-.191-.211-.383-.316-.574l-2.283.7" fill="#fff"/><path d="M1172.432,893.086l2.53-.592-.39-.832-2.483.7c.114.242.229.484.343.727" fill="#fff"/><path d="M1147.957,1001.468l-2.213,1.477.791.681,1.977-1.627-.555-.531" fill="#fff"/><path d="M1192.26,834.3l.87,0c-.032-.639-.066-1.278-.1-1.918l-1.1-.027q.167.973.331,1.947" fill="#fff"/><path d="M1293.175,918.493l-2.094-1.42c-.254.055-.474.048-.527.129s.014.266.075.392c.461.94.995,1.729,2.546.9" fill="#fff"/><path d="M1154.932,979.014l-.339,2.218.769.151q.286-1.092.574-2.184l-1-.185" fill="#fff"/><path d="M1277.868,942.243l1.815-1.29q-.2-.243-.406-.488l-2.114.85.705.928" fill="#fff"/><path d="M1283.93,915.087q.12-.3.239-.609l-2.446-.643c-.031.094-.061.187-.092.28l2.3.972" fill="#fff"/><path d="M1285.332,891.976c-.342.422-.654.863-.969,1.3l.79.4c.241-.467.493-.93.7-1.411a2.656,2.656,0,0,0-.518-.289" fill="#fff"/><path d="M1263.195,968.542a7.315,7.315,0,0,0-2.022-.226c.439.687.583,1.193.844,1.262a6.429,6.429,0,0,0,1.655.031c-.151-.37-.192-.932-.477-1.067" fill="#fff"/><path d="M1283.6,881.3c-.163.188-.456.365-.458.566a5.3,5.3,0,0,0,.4,1.29c.454-.487.913-.755.866-.984-.063-.307-.52-.583-.807-.872" fill="#fff"/><path d="M1256.187,978.2l-2.731.46c.066.177.133.354.2.531l2.735-.341-.2-.65" fill="#fff"/><path d="M1181.477,896.453c.452.511.878,1.041,1.382,1.511.075.069.515-.144.787-.227l-1.052-1.731-1.117.447" fill="#fff"/><path d="M1152.6,1018.005l1.183.128q-.165-1.055-.328-2.109l-.556-.039q-.15,1.01-.3,2.02" fill="#fff"/><path d="M1237.532,1031.3a3.4,3.4,0,0,0,.232,1.324l.763.636c.2-.314.544-.614.551-.945a4.184,4.184,0,0,0-.41-1.288c-.4.086-1.1.1-1.136.273" fill="#fff"/><path d="M1168.423,963.232c-.162-.835-.324-1.67-.651-3.348-1.9,1.959-.559,2.625.651,3.348" fill="#fff"/><path d="M1170.512,960.944c-.232.884-.417,1.586-.818,3.114,1.856-1.322,2.892-1.9.818-3.114" fill="#fff"/><path d="M1255.065,947.41l-.713-.1-.444,2.188,1.29.189q-.066-1.14-.133-2.281" fill="#fff"/><path d="M1247.251,957.959l-.192-1.994-.88.044a15.753,15.753,0,0,0,.227,1.793c.017.076.551.106.845.157" fill="#fff"/><path d="M1262.852,888.081l.165.726,2.536-.225c-.058-.253-.115-.506-.173-.759l-2.528.258" fill="#fff"/><path d="M1255.213,917.476l-.146.072.176.105-.03-.177" fill="#fff"/><path d="M1256.416,920.077l.477-1.431q-.823-.5-1.651-.993.2,1.164.393,2.325l.781.1" fill="#fff"/><path d="M1236.21,942.849q-.148-.875-.3-1.748l-.807.087.468,1.717c.212-.02.423-.037.635-.056" fill="#fff"/><path d="M1225.474,986.829l.192-.1c-.049-.015-.082-.033-.128-.049-.021.049-.043.1-.064.145" fill="#fff"/><path d="M1224.822,984.01c-1.122,1.112-1.153,2.043.717,2.674.424-.955.873-1.911-.717-2.674" fill="#fff"/><path d="M1241.52,907.937a.1.1,0,0,0-.015.034l.058-.018a.428.428,0,0,0-.043-.016" fill="#fff"/><path d="M1241.564,907.953c1.059.372,2.113.757,3.474,1.254-.919-2.007-.93-2.022-3.474-1.254" fill="#fff"/><path d="M1205.8,1026.906c-.005,0,.145-.075.145-.075-.041-.067-.08-.134-.119-.2a1.76,1.76,0,0,0-.026.277" fill="#fff"/><path d="M1204.032,1023.589l1.8,3.041c.154-.943.954-2.011-1.8-3.041" fill="#fff"/><path d="M1209.358,989.875l-1.02-.118q-.161,1.113-.319,2.227l1.427.181q-.044-1.146-.088-2.29" fill="#fff"/><path d="M1229.691,905.2l-.289-.708-2.628.559c.1.248.2.5.3.746l2.616-.6" fill="#fff"/><path d="M1194.255,1030.588a3.689,3.689,0,0,0-1.116-1.112,1.308,1.308,0,0,0-.894.585,8.683,8.683,0,0,0,.021,2.122c1.47-1.165,2.043-1.511,1.989-1.595" fill="#fff"/><path d="M1184.6,952.335l-2.1.685.4.831,2.1-.915-.4-.6" fill="#fff"/><path d="M1226.03,895.078a10.068,10.068,0,0,0-1.925-.536c.528,1.459.614,2.725,3.064,1.725-.5-.546-.748-.976-1.139-1.189" fill="#fff"/><path d="M1209.214,951.338a3.849,3.849,0,0,0-1.638-.118q.847.858,1.695,1.716c.361-.732.312-1.38-.057-1.6" fill="#fff"/><path d="M1187.582,1022.908l-1.358,1.645a5.931,5.931,0,0,0,.778.477c.538-.478,1.02-1,1.515-1.515l-.935-.607" fill="#fff"/><path d="M1178.712,972.535c-.011-.045-.022-.091-.032-.136l.006,0c-.033-.024-.074-.05-.11-.075-.013.051-.027.1-.04.153l.176.062" fill="#fff"/><path d="M1181.564,973.544l-2.853-1.009c.188.794.386,1.606.685,2.831l2.168-1.822" fill="#fff"/><path d="M1213.273,907.884l.207,2.541.468.041.336-2.478-1.011-.1" fill="#fff"/><path d="M1186.034,1009.821c-.4.105-.925.112-1.17.34-.281.263-.316.723-.457,1.1l.595.336,1.5-1.094-.471-.679" fill="#fff"/><path d="M1183.517,1014.59l2.355-.679-.371-.737-2.372.629q.194.395.388.787" fill="#fff"/><path d="M1181.83,1021.484c-.728-.535-1.457-1.068-2.789-2.042.556,2.2.556,2.2,2.789,2.042" fill="#fff"/><path d="M1202.954,885.731l.673.046q.011-1.173.02-2.346l-.711-.14.018,2.44" fill="#fff"/><path d="M1177.218,999.545c0,.039-.007.078-.011.116l0,0,.181-.027c-.005-.015-.01-.032-.014-.048-.055-.014-.1-.029-.152-.043" fill="#fff"/><path d="M1177.218,999.545q.109-1.146.214-2.289c-1.754.834-2.408,1.69-.214,2.289" fill="#fff"/><path d="M1207.278,884.939a4.243,4.243,0,0,0,.455-.584l-1.757-.813-.329.532c.538.3,1.07.608,1.631.865" fill="#fff"/></g></g></svg>