<svg xmlns="http://www.w3.org/2000/svg" xmlns:xlink="http://www.w3.org/1999/xlink" width="405.22" height="191.81" viewBox="0 0 405.22 191.81"><defs><clipPath id="a"><rect width="405.22" height="191.81" transform="translate(1112.15)" fill="none"/></clipPath></defs><g transform="translate(-1112.15)" opacity="0.4"><g clip-path="url(#a)"><path d="M1145.839,79.111h-3.109c-.049.762-.1,1.527-.155,2.377l-3.266-.406c.078,1.314.136,2.305.168,2.853-1.972-.728-3.73-1.484-5.571-2a4.927,4.927,0,0,0-2.405.262c-2.529.694-.88-1.914-2.172-2.183a4.391,4.391,0,0,1-1.253-.418c-.133-.076-.048-.462-.07-.859l2.773-.92c-.48-2.661-.926-5.138-1.46-8.1-2.069,1.466-5.271-1.05-6.355,2.549,3.531-.051,2.394,2.687,2.756,4.225.573,2.437-.337,4.943-1.062,7.365h3.45l.4-1.285c.284.064.66.045.8.2.852.932,1.337,2.4,3.285,1.553.1-.046.618.672.994,1.135l-.057.178.162-.05-.025-.031-.08-.1,4.547,1.047c-.969,1.086-1.608,1.865-2.322,2.584-.85.857-1.765,1.662-2.965,2.783,1.547,1.246,2.579,2.672,3.944,3.01,1.34.331,2.723-.74,3.866-1.826.517-.492,2.29-1.822,3.189.176.479-.776.957-1.552,1.189-1.926l-4.215-1.791c1.71-1.186,2.729-1.89,3.821-2.648q-1.4-1.513-2.791-3.024c2.082.568,4.356.368,5.679,2.28.322.464,1.874.237,3.326.37-2.113-3.246-2.113-3.246-6.087-4.177,2.273-2.709,5.019-.609,7.493-.708a6.085,6.085,0,0,0,2.891,4.527c1.729-3.791-2.625-5.091-3.486-7.705.09-1.1.308-2.621-.379-3.108-1.433-1.017-2.138.754-3.17,1.325l.034-.08.015-.036c-.152-.026-.307-.048-.462-.068a3.661,3.661,0,0,0,.373.167l-2.241,2.481m-12.249,6.347Z" fill="#fff"/><path d="M1140.836,70.909l-.036.021.188,0c.011-.042.023-.083.034-.124-.081.019-.162.035-.243.052l.021.077Z" fill="#fff"/><path d="M1126,54.3a19.766,19.766,0,0,0-.458,3.719,10.79,10.79,0,0,0,.981,2.889c-1.745,1.773-4.126,1.17-6.849.933.8,1.068,1.132,2.035,1.734,2.2a8.585,8.585,0,0,0,2.934-.307v3.533l5.583-3.164c3.222.328,1.856,2.923,2.611,4.458,4.45-2.844,4.45-2.844,6.39-1.245-.214.171-.4.444-.643.494-1.343.28-2.3.925-1.832,2.231a2.01,2.01,0,0,0,2.84,1.179,13.337,13.337,0,0,1,1.49-.368c-.178-.668-.359-1.344-.592-2.219l3.855,1.687c-2.075-1.039-.514-2.591-.669-3.9-.344-2.89-.154-3.06,3.162-2.992,1.975.04,2.253-.434,1.408-2.322-.087-.194.055-.462.04-.693-.106-1.664-.225-3.327-.342-5.008l-2.74-.145c-.991-1.54.389-3.66-1.714-4.827-1.722,1.944-1.712,1.94-.747,3.684.3.535.891,1.461.727,1.6-1.782,1.468-.632,2.35.387,3.628.4.506-.409,2.076-1.09,2.864-.253.293-2.069,1.181-2.617-.7-.223-.77-1.578-1.273-2.419-1.9q1.115,2.043,2.23,4.087c-.25.215-.5.431-.75.645l-5.3-3.225a24.114,24.114,0,0,0,3.3-.323c.269-.065.352-.76.518-1.169-1.3-1.954,1.014-3.757.41-6.009l-2.316,1.67-2.791-2.864L1126,54.3m-.5,11.3c.44-1.906.757-3.281,1.076-4.646l2.581,1.9L1125.5,65.6m6.745-8.25,1.191,1.519c-.29.144-.519.361-.732.347-1.7-.107-3.281-.41-3.712-2.516,1.211-1.179,2.534-2.341,4.776-.271l-1.523.921" fill="#fff"/><path d="M1167.463,68.879l-3.136.409a5.869,5.869,0,0,0-2.338,5.406c.152,1.568-.929,3.219-1.361,4.854a6.559,6.559,0,0,0,.072,1.825l2.607-1.438c.538-.788,1.639-1.783,1.41-2.289-1.371-3.03.893-2.533,2.477-2.024,1.925.618,4.471.547,4.956,3.322.231,1.323,1.349,1.466,2.962,1.074-.123-.074-.333-.13-.357-.225-.537-2.092.276-4.564-2.467-6.033,4.5.6,5.45,2.033,3.885,5.237l4.161-.962-1.036,3.037,5.495.049c.772-3.33,3.274-1.546,5.213-1.434.988.058,1.978.107,3.067.166-.658-1.906-.658-1.906-2.625-2.274l.509-1.242-.029.022c-3.294-1.649-3.275-2.081.322-5.031l-4.1-2.592-1.653,3.233,4.54,5.915a1.152,1.152,0,0,0,.224-.13,1.152,1.152,0,0,1-.224.13l-5.348-.3c-.083-.884.186-2-.313-2.554-1.243-1.38-.544-2.43.21-3.586l-.027.014-4.286-2.954-4.2,2.028c3.111.845,3.111.845,2.378,3.471-2.824-.068-3.224-2.357-4.535-4.91-.157,4.094-3.394,4.071-5.518,4.915-.677.269-2.359-1.516-3.132-2.05l5.9-4.719q-.062-.473-.125-.945a4.9,4.9,0,0,1-5.937-1.434c-1.537-1.6-4.14-1.54-6.71-.887l4.188,2.753-.106.095c.04,0,.068.011.106.014v-.076c2.724-1.705,3.007.918,4.884,2.115" fill="#fff"/><path d="M1179.3,81.073h0l.007.016v-.014h0v0h0" fill="#fff"/><path d="M1190.76,26.507c-.045.191-.089.382-.134.573l-2.46.368c1.735,1.976-.319,5.3,3.1,6.581l3.791-1.426c-.767-1.42-1.93-.628-3.026-.459-.335.052-.74-.263-1.471-.551.537-1.107,1.024-2.108,1.583-3.258l4.466,2.7c3.152-1.508,6.025-2.72,6.643-5.9.031-.162-.241-.372-.438-.654l-3.6.5c-.514,1.161-.933,2.105-1.39,3.136l-1.815-.51c-.636-1.78-1.168-3.193-1.627-4.625-.095-.294.087-.661.159-1.1l2.411,1.619c-.3-2.418-.536-4.367-.806-6.567-1.333,1.032-2.153,2.149-3.23,2.411-3.219.786-5.069,2.881-7.356,5.1l5.2,2.064" fill="#fff"/><path d="M1209.708,127.021a18.445,18.445,0,0,0,1.829-3.674l-.911-.461c-1.083,1.145-2.165,2.291-3.625,3.834-.746-2.364-2.673-3.084-4.925-3.474-.483-.084-.813-.886-1.2-1.341l6.218-3.55c-2.048-.13-4.437-1.146-4.946,1.584-.049.261-.921.379-1.39.6-1.159.543-2.306,1.108-3.466,1.667,2.28,3.579,2.28,3.579-.029,7.4,2.841-.348,5.563,1.227,6.641-2.075a2,2,0,0,1,1.617-.2c1.556,1,3.073,1.1,4.187-.3" fill="#fff"/><path d="M1166.75,123.972c-4.074-2.868-6.666-2.876-10.59-.024a6.687,6.687,0,0,1-1.646.45c2.017,1.23,2.852.689,4.075-.111,1.812-1.185,3.143-.418,3.7,1.638.3,1.09.733,2.15,1.133,3.3,2.545-1.19,2.533-1.081,5.308-.816.89.085,1.869-.578,3.151-1.017-2.119-1.408-3.656-2.38-5.134-3.421" fill="#fff"/><path d="M1351.348,54.17c2.181.084,1.386,2.443,3.184,2.649s3.166-.007,4.144-1.578a29.324,29.324,0,0,1,2.567-3.126l2.174.894q.2-.7.4-1.4c-3.054-.651-1.379-2.648-1.481-4.138-.789-.132-1.574-.267-2.24-.381-.86,2.726-1.694,5.372-2.55,8.087-3.114-1.695-5.515-4.239-9.585-3.375.978,1.029,2.151,2.319,3.383,2.366" fill="#fff"/><path d="M1362.335,47.366c.005.035,0,.071.005.106l.125.021c0-.005-.13-.127-.13-.127" fill="#fff"/><path d="M1118.146,28.7l-5.994,4.213,6.414.916,2.741-5.843-2.2-.9c1.657-.573,2.809-.956,3.949-1.37,1.086-.394,1.786-1,1.287-2.169.916-.109,2.073.038,2.665-.415.4-.3-.006-1.457-.084-2.81l3.046,2.372c.864-.7,1.545-1.442.432-2.5l.916-.769c-.444-1.82-1.473-3.22-3.977-4.552.353,1.752.567,2.816.8,4l-3.737.188c-.613.874,1.78,1.838-.536,2.338-.418.09-.566,1.2-.839,1.835l-2.307-1.36.038.01c-.011-.023-.021-.046-.032-.068l-.027.039a.1.1,0,0,0,.022.013l-1.151-.489c.149,1.62-3.319,1.774-1.913,4.029.52.833.325,2.03.485,3.292" fill="#fff"/><path d="M1414.828,136.589c-3.227-.131-1.56,2.477-2.511,3.4a21.41,21.41,0,0,0-3.942-1.041c-1.036-.075-1.918-2.21-3.1-.237.938,3.151,3.089,4.655,6.847,4.145.478-.065,1.064.57,1.612.861.572.3,1.16.582,1.74.872.376-.633,1.167-1.333,1.057-1.887-.412-2.085-1.12-4.122-1.7-6.111" fill="#fff"/><path d="M1135.376,77.855c.98,2.125,2.436,2.494,4.421,1.844.9-.294,1.853-.449,2.787-.655a5.661,5.661,0,0,1-.345-2.256c.221-.89.745-1.649,2.22-.949a11.04,11.04,0,0,0,3.248.624,2.89,2.89,0,0,1-1.5-3.278l-3.157.752c.225-1.229.4-2.157.566-3.085l-2.627.073q-.493,1.786-.985,3.568l-4.627,3.362" fill="#fff"/><path d="M1142.583,79.044c.005.022.011.044.015.066h.133l.006-.1c-.051.012-.1.022-.154.033m.029.056.082-.058Z" fill="#fff"/><path d="M1141.02,44.845c-3.707-1.047-4.922,1.245-6.344,3.276,2.739,3.051,2.739,3.051,5.368,2.846a5.184,5.184,0,0,0-.7-.891,4.6,4.6,0,0,0-.959-.47l.252-.608,4.082.552c.717-2.092.717-2.092,3.447-2.568.5-1.248.989-2.466,1.462-3.645-.683-.7-1.326-1.355-2.33-2.379a9.566,9.566,0,0,0,.524,2.673,1.635,1.635,0,0,1-.969,2.586,9.1,9.1,0,0,0-4.254,1.776c-.955.611-2.345-.606-2.168-1.734l2.594-1.414" fill="#fff"/><path d="M1424.238,22.482c-.916.693-1.937,1.274-3.145,2.058l4.6,2.327,1.986-1.412c-.523-1.189-1.406-2.179-1.235-2.987.7-3.284.606-3.589-2.662-5.733a10.15,10.15,0,0,1-1.9-2.216c.118,2.793.118,2.793,2.366,4.21,1.934,1.219,1.955,2.265-.012,3.753" fill="#fff"/><path d="M1164.315,69.2c0,.032,0,.062,0,.094l.014,0c.03-.025.055-.052.085-.077-.035-.009-.063-.008-.1-.015" fill="#fff"/><path d="M1151.088,73.44l4.153,1.238,1.16-1.515c2.661.886,3.416-1.444,4.821-2.489.98-.73,1.577-1.813,3.093-1.478.041-1.161-.06-2.236-1.736-2.356v2.227L1158.7,65.8c.187,1.82.309,3.011.465,4.524h-6.312c-.5.891-1.071,1.9-1.761,3.115m5.261-.378c-1.963.426-1.551-1.053-2.055-2.046,2.422-.378,1.841,1.115,2.055,2.046" fill="#fff"/><path d="M1197.287,66.088c-3.566-.551-5-2.882-5.894-5.745l-1.195.251c.18,2.706.361,5.412.549,8.242.465.343,1.017.795,1.618,1.185,2.26,1.464,2.917,1.188,3.651-1.437a2.212,2.212,0,0,1,.694-1.084c1.109-.886,1.258-1.307.577-1.412m-3.43,3.111q-.432-1.455-.863-2.909l.923-.11.681,2.84-.741.179" fill="#fff"/><path d="M1204.972,23.628l1.558-1.162c.826,1.349,1.652,2.7,2.452,4.005,3.985-4.291,4.207-5.209,1.3-7.963-1.828,1.9-4.828,2.45-5.307,5.12" fill="#fff"/><path d="M1129.967,22.7h0l-.147.12Z" fill="#fff"/><path d="M1203.913,62.317c-.683.491-.767,1.657-1.122,2.521l-3.688.313,4.21,4.011q-.432.424-1.7,1.672c5.481-.47,5.719-.746,4.978-5.144l-1.856,1.544-.86-.419q.628-1.761,1.258-3.523l.005,0v0l0,0v0l-.006.007c.2-.962-.009-1.845-1.21-.979" fill="#fff"/><path d="M1163.6,91.373c-3.809,3.685-.85,7.48-.268,11.435,1.428-.166,2.767-.032,2.416-2.009-.544-3.066-.892-6.159-1.366-9.235-.015-.1-.511-.129-.782-.191" fill="#fff"/><path d="M1194.265,124.314l-3-.4c-.067-1.109-.124-2.057-.2-3.359-3.276,1.89-1.465,3.993-1.329,5.746.316,4.069.747,4.226,6.731,3.06-4.26-1.037-2.4-3.146-2.2-5.046" fill="#fff"/><path d="M1258.355,16.3c.532,1.147,1.482,2.086,3.243.466-2.378-1.175-3.429-2.483-2.508-5.14.649-1.872.023-4.307-1.062-6.32-.071-.132-.467-.123-.936-.232.069.946.134,1.822.2,2.679l-2.054.9c1.13,2.808,2.018,5.266,3.12,7.643" fill="#fff"/><path d="M1380.137,35.74l-1.593-1.723c-.686.085-1.713-.035-1.967.309-.945,1.282-.439,2.568.629,3.682-3.737,1.563-3.782,1.708-1.182,5.152,1.475-2.661,2.822-5.092,4.113-7.42" fill="#fff"/><path d="M1477.228,58.87a8.412,8.412,0,0,0,.518,2.349,3,3,0,0,0,1.922,1.326c.514.047,1.187-.784,1.686-1.3a8.417,8.417,0,0,0,.911-1.508c-2.293-.535-3.594-1.288-3.294-3.637.26-2.031-.677-2.312-2.961-1.6.418,1.49.846,2.925,1.218,4.372" fill="#fff"/><path d="M1125.588,85.455l-.158.147q-.434-.82-.868-1.642c-1.384.637-2.513.65-2.989-1.023a3.458,3.458,0,0,0-.845-.074c.449,1.2.838,2.246,1.228,3.293l-2.943.857,4.359,1.323,2.093-2.722.486.174a1.453,1.453,0,0,0-.363-.333" fill="#fff"/><path d="M1125.951,85.788c.815,1.037-.26,2.788,1.435,3.506,1.463.621,2.9,1.29,4.383,1.952.653-2.074,1.21-3.846,1.765-5.609l-4.3,1.324-3.288-1.173" fill="#fff"/><path d="M1142.394,41.045c1-.382,1.692-1.443,2.454-2.256a7.033,7.033,0,0,0-.8-.784c-.02-.035-.036-.069-.054-.1l-.012.014-2.48-3.541a17.1,17.1,0,0,1-.741,2.189,20.357,20.357,0,0,0-1.21,1.914,14,14,0,0,0-.483,2.485c1.121.057,2.394.438,3.321.083" fill="#fff"/><path d="M1269.768,26.235c1.905-.672,4.3-1.015,3.922-3.465-.72-.527-1.617-.85-1.741-1.333-.546-2.124,2.331-1.059,2.9-2.492l-2.777-1.229c-2.368,2.629-3.542,5.352-2.306,8.519" fill="#fff"/><path d="M1443.475,31.231l-.02-.014c-.028.045-.042.085-.074.132Z" fill="#fff"/><path d="M1437.676,28.785c2,2.122,2.271,5.382,5.577,6.615a5.091,5.091,0,0,0-2.011-3.032c-1.866-.993-1.047-1.8-.451-3.092l2.665,1.941c.744-1.2-.02-1.788-1.191-2.381-1.33-.672-2.532-1.551-3.857-2.382-.224.65-1.086,1.955-.732,2.331" fill="#fff"/><path d="M1222.317,52.048c2.54,1.122,2.678,4.74,7.016,4.317l-2.066-2.59c2.005-3.4,1.932-4.507-.8-6.667.166,1.643.292,2.895.428,4.243-.987,1.83-2.638,1.522-4.579.7" fill="#fff"/><path d="M1215.405,24.3l3.958.534c.122.968.207,1.649.293,2.33l.744.185c.794-1.315,1.589-2.63,2.415-4l-6.439-2.26-.971,3.207" fill="#fff"/><path d="M1173.383,33.36c1.209-1.347,2.323-2.587,3.435-3.829-2.589-3.294-2.589-3.294-5.7-2.984.368.908,1.347,2.367,1.019,2.669-2.012,1.848,1.63,1.348,1.1,2.405a6.743,6.743,0,0,1-.741.982l-.116-.088c.02.035.033.066.052.1l.056-.01.9.755" fill="#fff"/><path d="M1363.314,56.654c-.2.123-.029.748-.029,1.949,2.036-1.392,3.677-2.717,5.747-.359-1.263-2.607.845-4.308,1.459-6.415-.758-.093-1.237-.291-1.571-.168-1.543.569-1.656,1.912-2.251,3.106-.445.893-2.239,1.21-3.355,1.887" fill="#fff"/><path d="M1218.232,64.1c-3.366,4.1-3.366,4.1-1.405,9.022,3.463-1.61.445-4.684,1.881-6.732.293-.418-.248-1.311-.476-2.29" fill="#fff"/><path d="M1183.6,94.058c.021,0,.037,0,.057.006l.047-.046Z" fill="#fff"/><path d="M1118.46,55.54l6.053,3.511c.89-3.953-2.906-4.222-4.812-5.548l.783-2.4c-3.309,1.261-1.647,3.225-2.024,4.438" fill="#fff"/><path d="M1400.921,133.444a29.37,29.37,0,0,1,1.547-3.859c.649-1.132.785-1.068-.286-2.591-1.007,1.319-1.752,2.9-3.06,3.832-1.228.878-3.094,1-4.571,1.658-.231.1.077,1.192.156,1.861l4.658-1.749,1.556.848" fill="#fff"/><path d="M1394.707,134.344c-.023.01-.047.018-.07.026.014.026.021.046.035.068.013-.015.03-.027.042-.042l-.007-.052" fill="#fff"/><path d="M1193.156,88.076l1.775.157,2.218,4.38,2.5-3.551c-.773-.785-1.383-1.469-2.068-2.087-1.638-1.48-4.981-.774-4.429,1.1" fill="#fff"/><path d="M1398.661,146.431l2.3-1.551c-1,2.71-1,2.71-2.665,1.936-.373.437-1.161,1.136-1.056,1.27a2.617,2.617,0,0,0,4.568-.29,27.389,27.389,0,0,0,1.307-4.317,29.05,29.05,0,0,1-2.912.24c-2.685-.068-2.462,1.148-1.537,2.712" fill="#fff"/><path d="M1219.611,123.809l2.04-2.161c-3.3-.747-3.221,1.657-4.417,2.778-1.085,1.017-3.2,1.242-2.46,3.9l6.681-3.639-1.844-.878" fill="#fff"/><path d="M1442.228,49.588c-1.934,1.2-2.216,2.869-1.107,4.793,1.739-1.173,3.5-2.365,5.357-3.617-.986-1.758-2.333-2.364-4.25-1.176" fill="#fff"/><path d="M1179.345,29.984,1181.837,33c.7-.741,1.156-1.658,1.907-1.943,2.79-1.062,1.9-2.5.583-4.442l-4.982,3.369" fill="#fff"/><path d="M1414.769,65.658c-.081.933-.147,1.708-.219,2.531l-3.213.51c2.291,1.357,3.977-.152,6.125-.344-.578-1.964-1.066-3.618-1.55-5.263l-4.11,2.566Z" fill="#fff"/><path d="M1209.4,37.971c.13.886-.868,1.907-1.453,3.063h5.039c-2.059-5.364-3.274-6.042-7.3-3.992,1.347.456,3.419-1.045,3.709.929" fill="#fff"/><path d="M1178.623,23.435l1.362-2.25c-3.867-1.507-5.846-1.06-8.97,1.993l2.2.967c.494-.781,2-.927,5.41-.71" fill="#fff"/><path d="M1239.027,27.24l-.093.031.009.013.084-.044" fill="#fff"/><path d="M1236.338,28.12l2.6-.849c-.809-1.15-.418-1.978.753-2.557.813.448,1.539.885,2.318,1.222.075.033.738-.6.687-.841-.363-1.733-.842-3.446-1.524-6.1l-4.83,9.127" fill="#fff"/><path d="M1349.052,68.292h-2.576c-.007.226-.014.452-.023.677l4.385.492,1.788,2.168q1.919,1.808,3.837,3.616a8.11,8.11,0,0,0-.907-3.984c-.013-.027-.734.2-1.124.305-.167-2.834-4.9-2.934-4.505-6.1-.3.952-.588,1.9-.875,2.83" fill="#fff"/><path d="M1210.114,59.27l-4.981,4.018c2,.375,3.989.752,6.017,1.135,1.126-2.457.9-3.446-1.036-5.153" fill="#fff"/><path d="M1450.368,67.951c1.871-2.215,2.625.418,4.295.135-1.214-1.755,2.453-3.417-.144-5.312-2.947,4.11-3.033,4.093-8.747,2.226,1.162,2.2,3.774,3.924,4.6,2.951" fill="#fff"/><path d="M1454.615,62.625l.026-.021h-.124c-.012.047-.031.084-.043.136h0c.018.011.027.022.044.034l.122-.169Z" fill="#fff"/><path d="M1464.484,43.254a39.713,39.713,0,0,1,.329,4.713c.7-1.868.837-3.515,1.8-4.523,1.442-1.507.9-2.557-.192-3.961-.407.722-.762,1.349-.975,1.725l-4.054-1.575c.743,1.333,1.173,2.1,1.6,2.859.567.244,1.437.443,1.495.762" fill="#fff"/><path d="M1463.018,42.545l-.03-.053c-.034-.015-.072-.03-.1-.045Z" fill="#fff"/><path d="M1181.738,42.771l9.286-1.316q.1-.459.2-.917l-7.184-.912-2.3,3.145" fill="#fff"/><path d="M1301.068,73.705c.839,2.851.93,5.887,2.968,8.578.591-.727,1.167-1.435,1.547-1.9-1.289-2.571-2.408-4.8-3.528-7.034l-.987.36" fill="#fff"/><path d="M1363.516,68.256c1.573.545,3.756-.339,5.558-.571l-1.227-3.5-3.584,2.08c-.081-.54-.207-1.384-.332-2.229l-1.054.044c.4,1.435-1.633,3.388.639,4.174" fill="#fff"/><path d="M1113.571,83.931c.55-.454,1.293-1.227,1.5-1.125a33.114,33.114,0,0,1,3.572,2.3c1.2-.695,2.469-1.473.794-2.73-1.573-1.18-3.328-2.162-5.56-3.588-.115,1.959-.209,3.554-.3,5.146" fill="#fff"/><path d="M1179.87,116.75l-2.084,2.587,3.261,5.541,2.53-1.431c-4.028-1.14-1.749-4.667-3.707-6.7" fill="#fff"/><path d="M1219.4,31.91l3.024-2.339c3,1.466-.953,2.78.409,4.424,2.577-1.03,3.733-2.635,3-5.215-6.675.334-7.455.677-6.429,3.13" fill="#fff"/><path d="M1194.9,12.392c-.062,1.1-.123,2.188-.183,3.261l5.085.392c-.87-3.481-.87-3.481-4.9-3.653" fill="#fff"/><path d="M1126.677,51.791c2.814.961,2.546-2,4.411-2.306-.833-1.155-1.468-2.038-2.033-2.822-3.656.837-2.368,3.169-2.378,5.128" fill="#fff"/><path d="M1418.784,151.01h0l0,0c-.55,2.465-.549,2.466,1.665,2.567l-1.648-2.555Z" fill="#fff"/><path d="M1411.964,152.808l6.817-1.8-4.582-3.261-2.235,5.057" fill="#fff"/><path d="M1145.693,68.686l.893,3.556,5.077-3.483c-.455-.725-.878-1.4-1.15-1.831l-4.82,1.758" fill="#fff"/><path d="M1192.385,187c-1.452,1.542-2.708,2.878-4.068,4.324,2.887,1.948,3.983-2.716,6.832-1.67L1192.385,187" fill="#fff"/><path d="M1400.857,160.853l5.141-3.436-5.141-3.044Z" fill="#fff"/><path d="M1400.857,161v-.146l-.1.064Z" fill="#fff"/><path d="M1216.748,60.16c.262-4.19.549-4.352,5.472-3.089-1.744-2.1-3.9-1.93-5.108-3.174l-3.189,4.861,2.825,1.4" fill="#fff"/><path d="M1176.495,90.016a7.106,7.106,0,0,0-.675,1.462c1.363.845,1.227,2.081,1.521,3.336.25,1.065,1.472,1.945,2.325,2.895.122-2.841.7-5.832-3.171-7.693" fill="#fff"/><path d="M1179.674,97.93l-.019.019.125-.116c.583,1.019.791,2.8,2.5,2.261a5.334,5.334,0,0,0,3.181-2.771c.321-.964.769-3.1-1.8-3.26l-3.885,3.767c-.035-.041-.074-.081-.111-.121,0,.079-.008.158-.01.237l.018-.016" fill="#fff"/><path d="M1124.534,83.873l.1.056c.007-.023.015-.047.022-.071h-.151l.017.01-.017-.01.054.1c.026-.012.05-.02.075-.032l-.1-.056" fill="#fff"/><path d="M1218.814,12.945l-3.864-3.236c-.833,1.881-1.275,2.88-1.7,3.837,1.921,1.425,3.551,1.151,5.562-.6" fill="#fff"/><path d="M1182.259,90.251c.225-.139.449-.278.676-.417q-1.82-4.373-3.638-8.746v7.319l2.962,1.844" fill="#fff"/><path d="M1156,53c.16-1.452.288-2.617.488-4.437-2.031,3.316-2.032,3.32-1.594,6.767.389-.1.863-.381,1.147-.269,1.186.468,2.32,1.04,3.47,1.582A5.43,5.43,0,0,0,1156,53" fill="#fff"/><path d="M1159.508,56.64c.009.034.023.065.032.1l.131-.023-.163-.077" fill="#fff"/><path d="M1406.045,152.752c4.735-3.333,4.735-3.333,3.046-5.649-1.155,1.935-4.926,2.4-3.046,5.649" fill="#fff"/><path d="M1126.508,148.393a2.3,2.3,0,0,0-1.751,2.913,36.254,36.254,0,0,0,1.375,4.668l3.153-.766c-1.152-1.209-2.324-1.956-2.682-2.943-.41-1.129-.095-2.47-.095-3.872" fill="#fff"/><path d="M1384.5,48.168a3.554,3.554,0,0,0,4.782,1.232c-.266-1.607-.525-3.168-.938-5.662-.493,1.9-.763,2.942-1.005,3.878l-4.1-1.377c.609.938.933,1.438,1.257,1.939Z" fill="#fff"/><path d="M1123.916,42.584l-2.242-4.249c-1.534.689-1.933,1.254-.642,2.385,2.783,2.439,3.088,2.553,5.956.706l-1.976-2.77c-.308,1.105-.582,2.086-1.1,3.928" fill="#fff"/><path d="M1152.4,129.475c-.265.632-.5,1.247-.778,1.848-1.34,2.919-.353,4.661,3.075,5.3.276.051.647-.316,1.412-.719l-3.473-.84c.121-1.092-.045-2.256.423-3.153.563-1.083,1.984-1.992-.659-2.433" fill="#fff"/><path d="M1369.327,73.3c.121.874.243,1.747.4,2.866,1.412.122,2.778.237,4.237.362-.484-3.744-.484-3.744-4.635-3.228" fill="#fff"/><path d="M1389.918,84.308c7,.961,7,.961,8.954-.342-3.285.078-6.14-3.2-8.954.342" fill="#fff"/><path d="M1379.242,84.348c3.315.447,4.9-1.292,6.321-1.515.084-1.192.138-1.968.257-3.671l-6.578,5.186" fill="#fff"/><path d="M1418.866,132c3.1-1.77-.6-4,.762-5.918-3.679,2.985-3.679,2.985-.762,5.918" fill="#fff"/><path d="M1267.034,70.589c1.158-3.344-2.67-4.543-3.5-7.028.229,2.741.006,5.674,3.5,7.028" fill="#fff"/><path d="M1382.593,59.537c3.494-2.078,3.881-3.391,2.383-7.484-.819,2.569-1.518,4.767-2.383,7.484" fill="#fff"/><path d="M1120.464,77.592c2.164.11,2.788-1.689,2.51-2.215a36.734,36.734,0,0,0-4.1-5.694c-.129-.161-1.053.2-2.1.424,3.142,2.024,4.491,4.375,3.7,7.485" fill="#fff"/><path d="M1204.246,72.387l-.92-.443-5.523,2.267,3.518,2.582,2.925-4.406" fill="#fff"/><path d="M1207.134,138.439l6.031,3.449,3.41-.777c-6.011-2.743-6.432-2.86-9.441-2.672" fill="#fff"/><path d="M1222.725,61.426l-.923-1.336c-1.584,1.053-3.367-1.189-4.935.139l1.988,2.943,3.87-1.746" fill="#fff"/><path d="M1216.867,60.229l-.009-.013-.056.057.057-.057-.112-.055c0,.061-.008.114-.011.177.043-.043.087-.072.131-.109" fill="#fff"/><path d="M1490.6,61.985l-3.4-3.194-2.449,3.285,5.266.9.584-.988" fill="#fff"/><path d="M1256.753,59.184c-1.663.291-3.967-.987-4.974,1.7,3.983,1.754,3.983,1.754,4.974-1.7" fill="#fff"/><path d="M1134.279,102.612l1.026-.4V98.249l-5.088,1.019,4.062,3.344" fill="#fff"/><path d="M1234.51,51.94l4.172,7.851c.749-3.168-.588-6.088-4.172-7.851" fill="#fff"/><path d="M1200.32,56.757c.576-1.58,1.152-3.16,1.659-4.549l-3.386-1.165c-2.286,2.589.9,3.831,1.727,5.714" fill="#fff"/><path d="M1131.323,19.42h0v0l-.005,0h0l.007-.007" fill="#fff"/><path d="M1138.111,23.343c-.971-2.455-1.463-5.129-4.756-6.1l-2.032,2.172c3.564-.614,4.692,2.319,6.788,3.923" fill="#fff"/><path d="M1161.8,154.834a23.389,23.389,0,0,0,4.461-.088c.542-.115.83-1.2,1.233-1.842l-3.064-.926c-.866.94-1.573,1.707-2.63,2.856" fill="#fff"/><path d="M1151.546,40.693c.594-2.858-2.513-2.508-4.213-4.215.164,1.649.279,2.813.4,4.044l3.812.171" fill="#fff"/><path d="M1153.033,91.675l-.018-.005c0,.014,0,.027,0,.041Z" fill="#fff"/><path d="M1152.8,87.385l-3.781,3.194,3.995,1.091c-.186-1.384,2.545-2.765-.214-4.285" fill="#fff"/><path d="M1380.221,133.612l2.762-2.607-2.881-3.276c-.447,2.192-.773,3.549-.957,4.922-.03.226.563.519,1.076.961" fill="#fff"/><path d="M1384,59.594v6.355l3.185-1.711L1384,59.594" fill="#fff"/><path d="M1156.522,28.076c-.012-.063-.022-.126-.035-.189l-.06.072c-.014.011-.025.025-.039.037l.124.068.01.012" fill="#fff"/><path d="M1156.22,22.073l-.739.4q.5,2.707,1.007,5.413c.776-.928,1.555-1.86,2.477-2.961l-2.745-2.853" fill="#fff"/><path d="M1347.143,91.55a19.215,19.215,0,0,1,1.888.576c.177.072.2.444.3.678a1.167,1.167,0,0,1,.174-.368c1.272-1.251.232-3.858-1.889-4.719-.16,1.3-.322,2.6-.474,3.833" fill="#fff"/><path d="M1391.753,39.525V45.44c2.044-1.854,2.044-1.854,0-5.915" fill="#fff"/><path d="M1350.426,57.17l-5.064-2.18c.564,1.622,1.049,3.019,1.648,4.739l3.416-2.559" fill="#fff"/><path d="M1472.953,50.169l2.38.274v-4.43l-1.391-.266-.989,4.422" fill="#fff"/><path d="M1198.986,103.965h6.221l-4.516-4.914c1.263,3.013.255,4.249-1.705,4.914" fill="#fff"/><path d="M1198.5,103.988l-.02-.023c-.011.059-.021.11-.031.165.05-.01.1-.024.148-.033l-.006-.008c.136-.039.269-.08.4-.124h-.508Z" fill="#fff"/><path d="M1362.332,47.361c0,.005.131.127.133.132.006-.036.011-.071.017-.108l-.15-.024" fill="#fff"/><path d="M1363.611,47.562c1.681-2.772,1.66-3.907-.269-5.981-.3,2.026-.579,3.918-.861,5.8.384.059.768.121,1.154.183Z" fill="#fff"/><path d="M1264.485,162.947c-2.042.683-4.947.494-4.192,3.762,1.989-.861,5.324-.294,4.192-3.762" fill="#fff"/><path d="M1497.974,57.822l-4.551,1.626c.155.478.389,1.195.714,2.2,3.778-1.168,3.778-1.168,3.837-3.822" fill="#fff"/><path d="M1390.14,73.576c.75-.253,1.506-.491,2.74-.893l-3.432-2.072-2.37,4.026c1.321-.458,2.189-.766,3.062-1.061" fill="#fff"/><path d="M1370.77,47.761l1.911-2.1-2.192-2.82c-2.844,1.471-.991,3.112-.423,4.666.051.138.461.17.7.251" fill="#fff"/><path d="M1369.875,64.21l2.235-3.439-5.782-1.554c1.407,1.981,2.247,3.164,3.547,4.993" fill="#fff"/><path d="M1194.239,72.29l-4.143,1.338.832,2.731.029-.024c1-1.263,3.786-1.1,3.282-4.045" fill="#fff"/><path d="M1229.784,133.438c-.126.812-.531,1.9-.151,2.214,2.05,1.687,3.7-.131,5.626-.713l-2.663-1.7c-.853,2.192-1.844.9-2.812.2" fill="#fff"/><path d="M1229.745,133.318l.066-.061-.144-.007c0,.043.007.087.011.13l.011-.01c.032.021.063.046.1.069.009-.061.021-.125.027-.182Z" fill="#fff"/><path d="M1362.088,110.111l-.482.781c1.235.72.97,2.911,3.375,2.444,1.207-.235,2.192-.8,1.705-2.195a9.213,9.213,0,0,1-4.6-1.03" fill="#fff"/><path d="M1153.039,91.67a.368.368,0,0,0-.022.041c.017,0,.034-.013.051-.019l-.029-.022" fill="#fff"/><path d="M1158.577,92.073c-2.532-2.82-3.954-.884-5.509-.381.837.638,1.669,1.281,2.481,1.907l3.028-1.526" fill="#fff"/><path d="M1120.608,99.328l3.157,3.682c.643-.83,1.083-1.4,1.591-2.051l-4.083-2.177-.665.546" fill="#fff"/><path d="M1187.145,88.064c-.967,1.509-1.39,2.951-2.03,3.034-2.548.329-1.454,1.764-1.407,2.912l3.924-1.776c-.113-.97-.256-2.2-.487-4.17" fill="#fff"/><path d="M1183.626,94.047c-.021.01.083-.029.083-.029V94.01l-.082.037" fill="#fff"/><path d="M1177.5,104.985v4.428l3.349.586c-.375-1.305-2.64-1.328-1.428-3.272.088-.141-.89-.822-1.921-1.742" fill="#fff"/><path d="M1173.715,82.114c-2.32,1.545-2.259,3.2-1.48,5.014-.035,2.424,1.415,1.473,2.534,1.274l.33-.874q-1.105-.287-2.208-.574c.93-1.4,1.9-2.792.824-4.84" fill="#fff"/><path d="M1362.73,87.907l2.518-2.127-1.643-.5c.4-.535.777-1.054,1.477-2l-3.24,1.463.888,3.166" fill="#fff"/><path d="M1446.22,52.506a11.565,11.565,0,0,1,2.8.961c.443.32.421,1.527.728,1.566a6.559,6.559,0,0,0,2.191-.419c-.362-1.173-.641-2.076-.917-2.969-1.495-.028-3.043-.25-4.8.861" fill="#fff"/><path d="M1451.023,51.645h.051l-.015-.02.015.02c.023-.08.046-.163.069-.243l-.161.122.007.009c.011.037.023.074.034.111" fill="#fff"/><path d="M1164.911,86.6l-.02.016c-.45-.284-1.157-.9-1.313-.8-1.74,1.085-3.4,2.28-5.136,3.49l1.742,2.026c1.7-1.693,3.231-3.216,4.757-4.737l.116-.054c-.01-.01-.019-.022-.029-.031s-.08.064-.117.092" fill="#fff"/><path d="M1167.433,89.752c.579-1.693,1.095-3.2,1.75-5.119l-4.126,1.911c.974.977.54,2.929,2.376,3.208" fill="#fff"/><path d="M1379.415,73.99c.157,1.166.318,2.355.51,3.781.971-.608,1.667-1.042,2.72-1.7-1.389-.442-.461-2.938-3.23-2.082" fill="#fff"/><path d="M1190.164,94.833c.016-.014.031-.03.047-.044l-.105-.027Z" fill="#fff"/><path d="M1190.211,94.789l2.982.764,2.69-3.821a17.173,17.173,0,0,0-3.324,1.027,17.511,17.511,0,0,0-2.348,2.03" fill="#fff"/><path d="M1405.252,69.524l-3.767-.189-.915,1.912c2.723.391,4.4-.18,4.682-1.723" fill="#fff"/><path d="M1463.082,63.942a22.024,22.024,0,0,0-3.656-.063c-.079.223-.158.447-.236.67a22.7,22.7,0,0,0,2.978,1.878,3.508,3.508,0,0,0,2.014-.1c.182-.045.377-.783.224-1.037-.316-.529-.8-1.256-1.324-1.346" fill="#fff"/><path d="M1469.791,100.024l.844-5.764-3.794,3.227,2.95,2.537" fill="#fff"/><path d="M1375.074,97.767c1.785.4,2.6-.729,3.183-2.182h-4.394c.523.993.732,2.075,1.211,2.182" fill="#fff"/><path d="M1410.474,61.409l-1.841-1.567,1.373-1.832-1.982-.559c-.677,4.08-.677,4.08,2.45,3.958" fill="#fff"/><path d="M1153.265,53.5l-3.555,4.283.675.55,4.495-3,.012.006v-.01l-.006,0-1.62-1.827" fill="#fff"/><path d="M1230.825,9.236l-3.834-.19-.942,2.11c3.133.128,4.957-.589,4.776-1.92" fill="#fff"/><path d="M1455.528,148.712c-.054-1.419-.815-2.579-1.917-4.194-1.806,2.679-.307,3.569,1.917,4.194" fill="#fff"/><path d="M1359.229,33.377l-.654-3.723-3.5,1.067,3.378,3.025.773-.369" fill="#fff"/><path d="M1255.414,23.11c2.317-.774,5.4,1.863,7.512-1.762-2.614,1.4-5.509-.413-7.512,1.762" fill="#fff"/><path d="M1247.52,173.478v-7.207l-2.511,3.383,2.511,3.824" fill="#fff"/><path d="M1475.525,85.054l1.127,5.12c1.382-4.06,1.382-4.06-1.127-5.12" fill="#fff"/><path d="M1256.94,20.334c1.549-2.346-.381-3.517-1.457-4.888.034,1.615-.808,3.435,1.457,4.888" fill="#fff"/><path d="M1433.283,71.978c.756-1.562-.465-2.626-1.51-3.74l-3.6.8,5.11,2.942" fill="#fff"/><path d="M1431.787,68.234l-.022-.02.022.02a1.027,1.027,0,0,0,.027-.108h-.144l-.009-.006.007.006h0l.1.112.014,0" fill="#fff"/><path d="M1221.581,179.36c1.355-3.562-2.086-3.488-3.485-5.578-.617,3.42,2.4,3.623,3.485,5.578" fill="#fff"/><path d="M1422.734,146.01a3.215,3.215,0,0,0-.7,1.765,14.5,14.5,0,0,0,.215,2.576c.98-.957,1.792-1.454,2.1-2.136a3.46,3.46,0,0,0-.087-2.163,2.141,2.141,0,0,0-1.527-.042" fill="#fff"/><path d="M1205.224,17.251l4.125-1.9-4.125-2.51Z" fill="#fff"/><path d="M1458.905,61.256l-4.412-1.036c-.572.891-.977,1.52-1.532,2.385h1.557c.668-2.307,3.234.736,4.387-1.349" fill="#fff"/><path d="M1189.067,99.7c.88-.734,1.569-1.309,2.494-2.079-.371-.731-.882-1.735-1.4-2.748-.8.909-1.617,1.8-2.523,2.783.576.826,1.119,1.606,1.426,2.044" fill="#fff"/><path d="M1190.181,94.856c-.017-.023-.075-.094-.075-.094.02.038.039.075.058.113l.017-.019" fill="#fff"/><path d="M1207.63,30.045l.3.913,5.35-1.512c-3.08-2.559-3.977.7-5.65.6" fill="#fff"/><path d="M1407.305,31.265l-5.635-2.85c1.6,1.009,1.58,4.451,5.635,2.85" fill="#fff"/><path d="M1406.658,157.209c1.5,2,3,.078,4.1.205l2.227,2.447c-.266-1.486-.4-2.244-.537-3-1.888.123-3.909-.982-5.791.345" fill="#fff"/><path d="M1412.449,156.865l0-.02a5.388,5.388,0,0,0,.591-1.849c-.028-.521-.467-1.34-.9-1.444-.492-.116-1.174.412-1.658.61.744,1.024,1.355,1.863,1.966,2.7" fill="#fff"/><path d="M1379.5,50.874l.34,1.874a16.932,16.932,0,0,1,3.579-2.066c1.794-.5.966-1.6,1.086-2.513a.034.034,0,0,0-.005.013c-.435,2.672-3.226,1.782-5,2.692" fill="#fff"/><path d="M1187.674,110.319c.314-2.237.5-3.557.688-4.9q-1.584.932-3.165,1.865c.648.794,1.3,1.587,2.477,3.031" fill="#fff"/><path d="M1343.276,112.327l.963-.146v-4.249l-2.945,1.7,1.982,2.7" fill="#fff"/><path d="M1338.056,43.58c-1.667,1.609-4.727,2.837-2.095,6.125l2.095-6.125" fill="#fff"/><path d="M1151.353,151.615a22.11,22.11,0,0,0,2.6,1.208,28.053,28.053,0,0,0,1.886-2.822l-.765-.535-3.725,2.149" fill="#fff"/><path d="M1401.067,152.86c2.566.614,3.609.137,3.5-1.691-.025-.423-.468-.826-.906-1.551l-2.594,3.242" fill="#fff"/><path d="M1163.242,137.592l-1.981,2.347,4.5,3.254c-1.052-2.339-1.752-3.894-2.519-5.6" fill="#fff"/><path d="M1392.185,138.459c1.245-1.408,3.941-1.45,2.486-4.02-.939,1.108-4.175.769-2.486,4.02" fill="#fff"/><path d="M1202.116,162.858l-1.058-.178c-2.015,2.561-2.015,2.561.466,4.244.212-1.454.4-2.76.592-4.066" fill="#fff"/><path d="M1180.868,14.754c3.04-1.493.12-2.872.534-4.678-3.592,1.868,1.291,3.208-.534,4.678" fill="#fff"/><path d="M1397.936,87.849l4.924,1.454.842-.865c-2.435.045-3.339-.834-2.289-3.052-1.417,1-2.2,1.557-3.477,2.463" fill="#fff"/><path d="M1419.768,164.767c2.879-1.748,2.915-3.337,1.15-5.243-.333,1.516-.665,3.031-1.15,5.243" fill="#fff"/><path d="M1329.229,108.919a5.034,5.034,0,0,0-1.834,5.264c2.506-1.446,2.073-3.389,1.834-5.264" fill="#fff"/><path d="M1377.091,23.836c-2.83.247-2.83.247-2.348,3.641l2.348-3.641" fill="#fff"/><path d="M1215.323,50.2c.868-3.665.6-4.125-2.657-4.613l2.657,4.613" fill="#fff"/><path d="M1298.189,67.173c-.095-.686.083-1.672-.345-1.988-.686-.5-1.775-.562-3.474-1.018.725,1.422.936,2.377,1.579,2.9.427.35,1.473.088,2.24.1" fill="#fff"/><path d="M1343.258,51.881c2.576-2.309-.3-3.887-.366-5.73-.454,1.887-.986,3.787.366,5.73" fill="#fff"/><path d="M1342.891,46.151c.014-.061.029-.12.043-.181l-.051.061c0,.04.007.079.008.12" fill="#fff"/><path d="M1434.241,24.509l-2.739,1.959,3.991,2.137c-.54-1.768-.836-2.737-1.252-4.1" fill="#fff"/><path d="M1234.314,28.4c.817-.927.878-1.929-.688-2.548l-2.31,2.472c1.175,1.417,2.223.956,3,.076" fill="#fff"/><path d="M1268.534,108.449c-.5-1.313-.848-2.209-1.524-3.973l-2.227,3.4,3.751.568" fill="#fff"/><path d="M1460.879,51.228c-.561-2.038-1.841-2.288-3.661-1.975-.064,2.985,1.733,2.331,3.661,1.975" fill="#fff"/><path d="M1451.5,129.793c2.026,1,2.911,2.856,5.313,1.378-2.214-1.678-2.214-1.678-5.313-1.378" fill="#fff"/><path d="M1159.179,60.224a20.688,20.688,0,0,0,2.272,2.335l1.825-2.047c-3.6.218-2.836-2.324-3.722-3.746-2.213.935-1.207,2.271-.375,3.458" fill="#fff"/><path d="M1159.65,56.723c.021-.006-.111.016-.111.016s.01.019.015.027c.034-.014.061-.029.1-.043" fill="#fff"/><path d="M1164.5,27.47c-1.994,2.491,1,2.9,1.143,4.635,2.764-2.759-.141-3.195-1.143-4.635" fill="#fff"/><path d="M1359.516,103.509l3.625-1.534-4.261-1.463c.279,1.313.448,2.112.636,3" fill="#fff"/><path d="M1176.567,103.451l2.768-1.669-3.556-2.514c.34,1.807.533,2.832.788,4.183" fill="#fff"/><path d="M1193.056,58.569a14.216,14.216,0,0,0,2.073-.612c.323-.149.477-.594.724-.927-3.144-1.064-3.144-1.064-2.8,1.539" fill="#fff"/><path d="M1410.439,131.968l4.806-2.16c-.674-.555-1.1-.907-1.713-1.41l-3.391,3.21.3.36" fill="#fff"/><path d="M1169.611,119.043c.086.88.149,1.523.28,2.853l3.563-2.39-3.843-.463" fill="#fff"/><path d="M1399.044,31.688c.282-3.152.311-3.521-2.364-4.453,1.886.9,2.152,2.662,2.364,4.453" fill="#fff"/><path d="M1396.68,27.235a5.441,5.441,0,0,0-1.2-.405c.453.15.849.282,1.2.405" fill="#fff"/><path d="M1195.221,107.127c2.762-.836,2.833-.864,3.226-3-1.715.358-3.006,1.09-3.226,3" fill="#fff"/><path d="M1279.137,110.255c1.3-2.423-1.167-3.4-1.77-4.881a4.534,4.534,0,0,0,1.77,4.881" fill="#fff"/><path d="M1143.847,93.236v0l.013.016h0c1.174.544,2.35,1.087,3.876,1.792l1.543-1.128c-1.951-1.022-3.6-1.556-5.43-.684v0l0,0" fill="#fff"/><path d="M1394.747,34.006c.336-.025.608-.749.951-1.21l-3.1-.817-.752,1.729a15.646,15.646,0,0,0,2.9.3" fill="#fff"/><path d="M1342.934,45.971l-.094.046c.009.008.021.017.029.025.014-.012.065-.071.065-.071" fill="#fff"/><path d="M1342.84,46.017c-.181-.163-.482-.37-.444-.487.331-1.008.371-1.946-1.135-1.849-.364.024-.786,1.056-.92,1.67a4.734,4.734,0,0,0,.338,1.713l2.161-1.047" fill="#fff"/><path d="M1156.792,147.911l1.926-4.422c-3.377.215-3.518.537-1.926,4.422" fill="#fff"/><path d="M1204.928,152.926c-.33-.487-.587-1.32-1-1.39a14.091,14.091,0,0,0-3.026.1c-.046.215-.091.432-.136.648a11.974,11.974,0,0,0,2.506,1.39c.418.124,1.1-.475,1.659-.746" fill="#fff"/><path d="M1442.907,40.116l-3.862,2.836c3.234,1.153,3.653.851,3.862-2.836" fill="#fff"/><path d="M1360.1,89.741c.2-.389-.421-1.118-.647-1.652l-4.082,2.287c1.826.335,3.74,1.3,4.729-.635" fill="#fff"/><path d="M1267.066,38.844q.423,2.377.845,4.756l1.288-.25q-.886-2.335-1.771-4.671l-.362.165" fill="#fff"/><path d="M1474.026,33.667c-1.656.532-3.131.922-2.069,2.418,1.668-.163,3.994.067,2.069-2.418" fill="#fff"/><path d="M1413.6,117.177a9.7,9.7,0,0,0-1.085,1.98,10.846,10.846,0,0,0-.04,2.517c2.141-3.081,2.141-3.081,1.125-4.5" fill="#fff"/><path d="M1194.131,81.958c-2.006-1.137-2.012-1.14-4.637-.726a12.594,12.594,0,0,0,2.1,1.763c1.282.718,2.141.212,2.536-1.037" fill="#fff"/><path d="M1359.977,35.29a20.073,20.073,0,0,0-2.01,1.68c-.213.228-.159.658-.189,1.025l3.871.222-1.672-2.927" fill="#fff"/><path d="M1357.777,37.995l-.112-.007.1.117c.006-.035.005-.074.008-.11" fill="#fff"/><path d="M1236.268,10.9c-2.618,1.145-1.578,2.852-.916,4.509-.063-1.563,3.923-2.107.916-4.509" fill="#fff"/><path d="M1173.45,177.648c-2.309-.862-3.137.178-4.22,1.784,2.285.722,3.337,0,4.22-1.784" fill="#fff"/><path d="M1189.214,81.414l.271-.169-.01-.01.019,0c-.043-.038-.084-.079-.127-.117l-.153.3" fill="#fff"/><path d="M1186.863,86.007l2.351-4.593c-1.349.846-2.713,1.689-4.2,2.6l1.847,1.988" fill="#fff"/><path d="M1326.063,115.32l1.611,3.079c1.284-2.831,1.207-2.958-1.611-3.079" fill="#fff"/><path d="M1395.428,148.663c.3-.4-.054-1.191-.136-2.149l-3.648,1.615c1.512,1.084,2.484,2.287,3.784.534" fill="#fff"/><path d="M1271.6,113.982c-1.192.444-2.961.758-2.314,2.778l4.727-1.511c-1.179-.648-2.007-1.418-2.413-1.267" fill="#fff"/><path d="M1438.6,156.84c.749-2.965.749-2.965-1.988-4.154l1.988,4.154" fill="#fff"/><path d="M1454.405,40.435c-.153,1.465,1.026,1.71,2.273,1.844.293.032.583.083.874.125l.331-.4a4.741,4.741,0,0,1-1-.566c-.581-.556-1.092-1.171-1.632-1.762-.3.252-.821.484-.849.758" fill="#fff"/><path d="M1293.475,88.866c-.623-1.157,1.458-2.732-1.162-3.315-1.3,1.525-2.1,2.792,1.162,3.315" fill="#fff"/><path d="M1144.983,113.906q2.358-.919,4.716-1.838c-.112-.253-.225-.507-.337-.762l-4.841,1.656.462.944" fill="#fff"/><path d="M1432.858,46.244q.615,1.935,1.229,3.869l.955-.192c.283-1.508-.15-2.813-2.184-3.677" fill="#fff"/><path d="M1343.838,75.373c.009-.132.085-.329.017-.387-1.136-.952-2.289-1.887-3.439-2.826-.485,2.489.181,3.112,3.422,3.213" fill="#fff"/><path d="M1452.372,47.052c-.429,1.52-.83,2.937-1.23,4.35,2.486-1.882,2.466-1.939,1.23-4.35" fill="#fff"/><path d="M1438.965,90.741c-.5,1.686-.88,2.978-1.391,4.706,2.324-1.393,2.462-1.876,1.391-4.706" fill="#fff"/><path d="M1330.287,105.5l-.979,3.329c1.149.01,2.29.01,3.905.01l-2.926-3.339" fill="#fff"/><path d="M1329.308,108.826h-.071l-.022-.01c0,.035.009.07.014.1.024-.02.045-.043.07-.063l.009-.03" fill="#fff"/><path d="M1465.908,52.062l3.851.373c-1.239-1.422-1.882-2.162-2.99-3.434-.4,1.4-.6,2.149-.861,3.061" fill="#fff"/><path d="M1372.71,31.891c-.6-1.166,0-2.953-2.962-3.494l2.038,3.787.924-.293" fill="#fff"/><path d="M1270.711,101.836l-4.042.354c1.52,1.1,2.921,1.532,4.042-.354" fill="#fff"/><path d="M1471.848,100.989l-1.4,2.838,2.982-.167-.328-2.357-1.258-.314" fill="#fff"/><path d="M1261.776,130.06c1.1-.667,3.332,1.048,3.6-2.563l-4,1.828.4.735" fill="#fff"/><path d="M1156.388,28c-.451-.249-.887-.484-1.208-.657l-2.531,3.855c3.349.5,2.552-2.207,3.739-3.2" fill="#fff"/><path d="M1289.745,103.4l3.208-1.945c-1.747-.153-3.885-.724-3.208,1.945" fill="#fff"/><path d="M1432.248,63.7c-2.139,1.491-.046,3.025-.434,4.425.685.006,1.37.007,2.15.007-.646-1.67-1.164-3.006-1.716-4.432" fill="#fff"/><path d="M1317.425,63.28l.021-.021c-1.227.6-3.872-.588-3.431,2.464,1.6-.475,3.376-.363,3.41-2.443" fill="#fff"/><path d="M1194.979,97.6l-.414.423c.7,1.314,1.4,2.627,2.107,3.958,1.721-1.06.216-2.146-.039-3.119-.133-.51-1.077-.847-1.654-1.262" fill="#fff"/><path d="M1449.877,19.649q-.846,1.729-1.695,3.458l1.262.621c1.175-.979,1.475-2.273.433-4.079" fill="#fff"/><path d="M1323.2,62.126c-1.123-.208-1.908-.586-2.483-.409a22.846,22.846,0,0,0-3.269,1.542l-.019.02c1.729-.416,3.809.873,5.771-1.153" fill="#fff"/><path d="M1196.361,62.238l1-.14c-.1-.975-.193-1.95-.357-3.6-1.667,2.268-1.667,2.268-.642,3.735" fill="#fff"/><path d="M1169.043,26.129c-1.9-1.643-2.87-1.591-3.672-.535-.143.188.218.982.312.977.882-.047,1.756-.208,3.36-.442" fill="#fff"/><path d="M1187.028,169.931v-2.964l-3.92,1.629,3.92,1.335" fill="#fff"/><path d="M1222.89,18.791c.27-1.029.478-1.823.687-2.618l-.9-.432c-.752.593-2.792.358-1.529,2.23.242.358.947.463,1.738.82" fill="#fff"/><path d="M1136.878,100.4q.118.369.238.738l3.962-.94-.18-.857-4.02,1.059" fill="#fff"/><path d="M1426.345,140.853l.882-3.6-3.271,3.756,2.389-.156" fill="#fff"/><path d="M1186.925,102.673c-.08-1.069-.151-2.006-.221-2.942-2.209,2.123-2.209,2.123.221,2.942" fill="#fff"/><path d="M1323.393,100.849l3.409,1.63c-1.425-2.8-1.425-2.8-3.409-1.63" fill="#fff"/><path d="M1452.149,24.815c-.485,1.628-.747,2.506-1.131,3.8l3.607-.664-2.476-3.132" fill="#fff"/><path d="M1496.407,169.416c-.413-1.249-.706-2.136-1.086-3.288-1.421,1.844-1.421,1.844,1.086,3.288" fill="#fff"/><path d="M1454.778,58.094c.214,0,.434-.313.679-.505-.451-1.005-.878-1.959-1.322-2.95-1.721.829-1.3,2.072-.935,3.189.072.219,1.028.259,1.578.266" fill="#fff"/><path d="M1243.016,58.379c1.741-.989,2.7-2.2,1.423-4.066q-.711,2.034-1.423,4.066" fill="#fff"/><path d="M1121.777,68.822c-1.794-2.375-1.794-2.375-4.045-.6l4.045.6" fill="#fff"/><path d="M1174.053,54.77q-1.036-.639-2.071-1.28l-1,1.144a14.317,14.317,0,0,0,2.051,1.264c.11.048.666-.731,1.016-1.128" fill="#fff"/><path d="M1220.329,169.739l1.244-.4c-.121-1,.183-2.125-2.615-2.947.632,1.544,1,2.445,1.371,3.346" fill="#fff"/><path d="M1210.218,53.33c-.275.1-.382.581-.756,1.2l3.841.505c-.736-1.71-1.634-2.22-3.085-1.7" fill="#fff"/><path d="M1412.335,27.568l-3.222,1.13c3.282,1,3.282,1,3.222-1.13" fill="#fff"/><path d="M1340.366,72.134l.01.01a.072.072,0,0,1,.021,0l.02.016,0-.018-.054-.007" fill="#fff"/><path d="M1336.469,71.589c1.413.2,2.656.371,3.9.546-1.075-1.1-2.135-2.209-3.054-3.171-.158.49-.458,1.427-.843,2.625" fill="#fff"/><path d="M1241.415,49.433l4.059,1.1c.154-.851.264-1.463.417-2.309l-4.429.528c-.016.228-.031.455-.047.683" fill="#fff"/><path d="M1271.745,160.524l-1.086-2.259c-.832.881-1.349,1.429-2.134,2.259Z" fill="#fff"/><path d="M1205.619,9.258c-2.685.8-3.224,1.986-2.959,4.128l2.959-4.128" fill="#fff"/><path d="M1447.848,93.513c1.633-1,2.577-1.766,2.4-3.249-.977.777-3.444.37-2.4,3.249" fill="#fff"/><path d="M1450.674,107.965c.1.716-.064,1.615.357,2.108.8.941,1.756.778,2.411-.513l-1.56-1.71-1.208.115" fill="#fff"/><path d="M1436.36,34.052a4.788,4.788,0,0,0,1.1.137c.285-.835.477-1.7.69-2.554l-1.459-.3c-.127.906-.265,1.81-.331,2.719" fill="#fff"/><path d="M1409.845,124.413l-3.355,1.364c.5.57,1.006,1.152,1.878,2.149.621-1.476.954-2.269,1.477-3.513" fill="#fff"/><path d="M1176.807,35.182c.556,1.131,1.113,2.261,1.8,3.656.926-.668,1.451-1.048,2.009-1.453-1.265-.936-2.342-1.733-3.419-2.528l.765-3.228c-3.14,1.745-3.14,1.745-1.153,3.553" fill="#fff"/><path d="M1379.194,145.826c1.662,1.787,1.662,1.787,4.6-.641l-4.6.641" fill="#fff"/><path d="M1268.914,81.963c.463-1.813.763-2.992,1.064-4.17l-1.054-.192c-.6,1.13-2.063,2.115-.01,4.362" fill="#fff"/><path d="M1376.278,89.116V85.45l-3.1,2.057,3.1,1.609" fill="#fff"/><path d="M1400.04,116.037l-2.068-2.837c.346.935-1.492,3.508,2.068,2.837" fill="#fff"/><path d="M1357.665,37.988c0,.07.007.14.01.21a.935.935,0,0,0,.1-.088l-.11-.122" fill="#fff"/><path d="M1357.675,38.2c-.88.745-3.152.175-2.6,2.308,2.77.842,2.676-.739,2.6-2.308" fill="#fff"/><path d="M1366.19,83.722l.864,2.362c.527-.186.8-.268,1.061-.38s.495-.253,1.719-.89l-3.086-1.676-.558.584" fill="#fff"/><path d="M1121.381,1.755l.072-.992C1120.525.532,1119.6.3,1118.388,0c.212,1.189.332,1.869.472,2.657,1-.36,1.761-.634,2.521-.906" fill="#fff"/><path d="M1397.622,35.581l1.818,4.242c.994-2.528-.3-3.489-1.818-4.242" fill="#fff"/><path d="M1277.6,149.692c-.071.222.609.916.909.9a7.125,7.125,0,0,0,2-.907l-1.855-1.35a4.913,4.913,0,0,0-1.053,1.36" fill="#fff"/><path d="M1182.125,35.723c-.135,1.642-.263,3.2-.435,5.292,1.9-2.023,2.555-3.553.435-5.292" fill="#fff"/><path d="M1349.061,119.952l1.679-3.2h-2.725c.3.916.537,1.641,1.046,3.2" fill="#fff"/><path d="M1198.818,37.511l2.519-1.09c-.6-.76-1.162-1.464-2.287-2.879-.11,1.889-.166,2.849-.232,3.969" fill="#fff"/><path d="M1492.267,36.727l-2.712-3.087-.632.451,2.439,3.311.9-.675" fill="#fff"/><path d="M1176.06,113.738c.532.411,1.015.873,2.236,1.936-1.273-2.6-1.273-2.6-4.807-3.737,1.368.953,1.992,1.353,2.571,1.8" fill="#fff"/><path d="M1303.509,112.84l2.624-1.927c-2.963.079-2.963.079-2.624,1.927" fill="#fff"/><path d="M1162.679,44.687l-1.407,3.561c2.977-.921,2.977-.921,1.407-3.561" fill="#fff"/><path d="M1391.549,108.951c-1.09-1.6-1.057-3.017-3.7-3.085.908,1.409,1.363,2.561,3.7,3.085" fill="#fff"/><path d="M1422.312,30.723l.4-3.948c-1.356,1.128-2.587,2.263-.4,3.948" fill="#fff"/><path d="M1444.839,26.771c.125-.161.086-.427.186-1.022H1441.2c1.524,1.668,2.421,2.593,3.64,1.022" fill="#fff"/><path d="M1341.2,59.778l2.089-3.429c-.666-.385-1.135-.659-2.089-1.212Z" fill="#fff"/><path d="M1373.218,56.568c.079,1.1.159,2.2.274,3.805,1.161-2.165,1.161-2.165-.274-3.805" fill="#fff"/><path d="M1225.987,133.057l3.68.193c-.076-.837-.147-1.723-.286-3.481l-3.394,3.288" fill="#fff"/><path d="M1322.122,21.527c-1.594,1.836-1.594,1.836,0,4.113Z" fill="#fff"/><path d="M1301.9,154.209a3.006,3.006,0,0,0,1.167,1.4c.177.106.859-.463,1.656-.921a7.847,7.847,0,0,0-1.781-1.317c-.21-.075-1.106.675-1.042.838" fill="#fff"/><path d="M1429.978,150.141l.092-.032.053-.1Z" fill="#fff"/><path d="M1432.437,149.29l-2.368.82-.649,1.272c2.433.292,2.433.292,3.017-2.092" fill="#fff"/><path d="M1230.208,25.287c.184-1.441.308-2.407.469-3.665l-2.655,1.5,2.186,2.162" fill="#fff"/><path d="M1452.111,132.242l-2.349,2.828c2.7-.125,3.373-.661,2.349-2.828" fill="#fff"/><path d="M1206.441,172.99c.132-1.333-.641-1.916-2.729-1.507a15.3,15.3,0,0,0,1.359,2.112c.074.085,1.345-.353,1.37-.6" fill="#fff"/><path d="M1198.669,21.689l3.846,2.094.643-.9-4.236-1.644-.253.449" fill="#fff"/><path d="M1183.666,20.956l1.943,1.106L1187,19.7c-1.462.186-2.327.3-3.192.406l-.144.849" fill="#fff"/><path d="M1259.007,66.682V62.868c-2.179.959-1.515,2.067,0,3.814" fill="#fff"/><path d="M1410.286,17.948l-.049-.053c-1.366,1.527-.48,2.652.716,4.053,1.76-1.891-.753-2.724-.667-4" fill="#fff"/><path d="M1224.394,67.432c-.283-.929,1.982-3.1-1.465-3.191l1.465,3.191" fill="#fff"/><path d="M1356.754,65.586c-.846-1.74-1.973-1.23-4.022-.087a24.68,24.68,0,0,0,2.8.515,3.762,3.762,0,0,0,1.224-.428" fill="#fff"/><path d="M1119.573,93.762c-.133.02-.19.452-.373.933,1.1.88,2.183,1.146,3.241-.139.186-.226-.014-.71-.035-1.075-.946.084-1.9.14-2.833.281" fill="#fff"/><path d="M1412.784,15.259c-.886.917-1.717,1.776-2.547,2.636l.049.053c3.7-.219,3.824-.333,2.5-2.689" fill="#fff"/><path d="M1173.431,166.116l-3.717,2.462c2.675.881,3.5-.49,3.717-2.462" fill="#fff"/><path d="M1297.986,71.071c-.41-.856-.811-1.716-1.261-2.554a7.381,7.381,0,0,0-1.059.262l1.042,2.679,1.278-.387" fill="#fff"/><path d="M1293.967,94.945l-2.285-2.9c-.014,2.171-.569,3.593,2.285,2.9" fill="#fff"/><path d="M1377.529,73.792l2.254-3.219c-2.5.452-2.5.452-2.254,3.219" fill="#fff"/><path d="M1231.488,14.763c.07-1.051.117-1.772.2-3.022l-3.178,2.5c.909.159,1.828.319,2.978.518" fill="#fff"/><path d="M1290.308,163.705l2.807,2.257c.435-.7.882-1.422,1.529-2.465l-4.336.208" fill="#fff"/><path d="M1204.695,162.956c-.183-.021-.412.271-1.44,1l2.466,2.122c1.4-2.779.182-2.979-1.026-3.121" fill="#fff"/><path d="M1266.79,12.966l3.925-1.326c-3.739-.455-3.739-.455-3.925,1.326" fill="#fff"/><path d="M1461.978,159.93c.521,2.862.521,2.862,2.2,3.5-.618-2.462-.618-2.462-2.2-3.5" fill="#fff"/><path d="M1282.538,75.72a16.315,16.315,0,0,0,2.127-.814q-.12-.489-.241-.978l-2.528.562a7.4,7.4,0,0,0,.642,1.23" fill="#fff"/><path d="M1515.109,158.338c-1.213,1.668-1.213,1.668.718,3.906-.3-1.655-.5-2.722-.718-3.906" fill="#fff"/><path d="M1415.318,158.532l2.967,1.158c.142-.367.283-.737.425-1.106l-3.239-.563c-.051.169-.1.34-.153.511" fill="#fff"/><path d="M1389.079,158.21l.729-.017c.149-.969.3-1.937.48-3.131l-2.413,1.036,1.2,2.112" fill="#fff"/><path d="M1407.45,88.725l2.3-.958-2.308-1.987-.75.365c.231.788.461,1.576.755,2.58" fill="#fff"/><path d="M1240.552,5.259c.088,1.632.133,2.472.187,3.484,2-1.351,2-1.351-.187-3.484" fill="#fff"/><path d="M1474.188,154.449l2.891,2.965.812-.666c-.384-1.319-1.213-2.151-3.7-2.3" fill="#fff"/><path d="M1155.164,153.446l-1.243,3.122h3.354l-2.111-3.122" fill="#fff"/><path d="M1158.76,150.087q2.211.725,4.424,1.449l.271-.709-4.462-1.377c-.078.213-.155.425-.233.637" fill="#fff"/><path d="M1239.3,8.485l-2.965-.54c1.581,1.448,1.581,1.448,2.965.54" fill="#fff"/><path d="M1165.223,12.906c1.412.374,2.174,2.635,4.872,1l-4.838-2.356c-.587.2-1.372.265-1.69.647-.2.244.281.956.457,1.457l1.2-.751" fill="#fff"/><path d="M1120.73,21.816c.66-.984,1.345-1.959,2.459-3.542-3.54.632-3.187,2.023-2.459,3.542" fill="#fff"/><path d="M1184.572,18.544q-.079-.354-.161-.708l-4.766.841.216.921,4.711-1.054" fill="#fff"/><path d="M1226.911,27.5l-.142-.04v.173Z" fill="#fff"/><path d="M1226.769,27.457V24.323c-2.168,2.457-2.208,2.511,0,3.134" fill="#fff"/><path d="M1226.907,27.5s-.138.13-.138.13l.208.076-.07-.206" fill="#fff"/><path d="M1230.179,28.88l-3.2-1.173c.648,1.906.735,1.888,3.2,1.173" fill="#fff"/><path d="M1446.087,29.344l-.5-.221-2.089,2.108c.429.457.852.929,1.637,1.809l.952-3.7" fill="#fff"/><path d="M1443.486,31.218l-.1.13.117-.117-.012-.013" fill="#fff"/><path d="M1170.4,35.393c1.406-.52,3.046-.908,2.03-2.778-1.827.213-2.619,1.058-2.013,2.757Z" fill="#fff"/><path d="M1218.608,35.146c-.551-3.134-2.222-1.632-3.6-1.046l3.6,1.046" fill="#fff"/><path d="M1456.151,34.369c-.012-.142-.3-.266-.761-.636l-1.085,2.859c2.314-.029,1.927-1.224,1.846-2.223" fill="#fff"/><path d="M1460.412,42.139l1.654.256-.186-1.232-1.468.976" fill="#fff"/><path d="M1463.011,42.542c.007,0-.128-.094-.128-.094v.074l.128.02" fill="#fff"/><path d="M1462.448,44.924l.435-.4v-2l-.817-.126q.19,1.263.382,2.528" fill="#fff"/><path d="M1151.108,47.96l-2.579-2.756c-.69,2.356-.02,2.953,2.579,2.756" fill="#fff"/><path d="M1473.681,62.2l.819.44q.35-1.289.7-2.576l-.331-.073q-.594,1.1-1.186,2.209" fill="#fff"/><path d="M1347.68,60.986c-.922,1.249-1.651,2.235-2.524,3.416,2.98.286,3.224-1.052,2.524-3.416" fill="#fff"/><path d="M1426.685,66a6.31,6.31,0,0,0,.831,1.479l1.167-.686-1.26-1.6c-.263.274-.792.6-.738.81" fill="#fff"/><path d="M1498.916,66.355c.17.067.465-.125.788-.222-.422-.832-.839-1.653-1.3-2.555-1.565,1.3-1.087,2.153.508,2.777" fill="#fff"/><path d="M1369.767,65.237l3.66,2.441c-1-2.227-1-2.227-3.66-2.441" fill="#fff"/><path d="M1185.669,67.667l-2.027.333.921,3.463.027-.015c.342-1.2.685-2.4,1.079-3.781" fill="#fff"/><path d="M1429.984,77.483l.981,2.023.92-.373-1.026-2-.875.353" fill="#fff"/><path d="M1445.444,82.33h0q.4,1.878.794,3.755c.369-1.41,2.939-3.163-.529-3.9l-.086.046.085-.046c.375-.768.751-1.536,1.349-2.755-2.592,1.3-2.592,1.3-1.613,2.9" fill="#fff"/><path d="M1163.423,80.014l-.058-.112,0,0-.054.03c-.014.021-.032.043-.046.063l.162.016" fill="#fff"/><path d="M1167.87,80.439l-4.447-.426c.41.784.822,1.579,1.328,2.559l3.119-2.133" fill="#fff"/><path d="M1286.752,83.5c1.491-2.356,1.491-2.356-.258-3.723.076,1.088.134,1.937.258,3.723" fill="#fff"/><path d="M1347.732,82.488,1345.1,84.51c1.565.08,2.371.12,3.488.176l-.855-2.2" fill="#fff"/><path d="M1495.679,92.9c-2.147-.875-2.923-.652-2.636,2.112l2.636-2.112" fill="#fff"/><path d="M1181.926,104.442c.43-.734.861-1.467,1.5-2.552-2.659.189-2.866,1.021-1.5,2.552" fill="#fff"/><path d="M1425.138,103.911c-1.019-.661-1.8-1.171-2.936-1.9-.079,2.177.21,3.277,2.936,1.9" fill="#fff"/><path d="M1288.712,108.5l-2.289-2.4c-.051,1.725.617,2.676,2.289,2.4" fill="#fff"/><path d="M1155.949,111.48l2.556-1.129q-.205-.387-.412-.774l-2.572.945.428.958" fill="#fff"/><path d="M1317.686,109.9c.412,1.073.715,1.865,1.268,3.307,1.113-2.15.978-3.03-1.268-3.307" fill="#fff"/><path d="M1198.089,113.377l2.911,1.794c.849-2.5-1.376-1.669-2.26-2.189-.074-.043-.369.219-.651.395" fill="#fff"/><path d="M1431.315,115.877c.023-2.357-.869-2.786-3.148-2.393l3.148,2.393" fill="#fff"/><path d="M1120.466,116.269l2.414-.917q-.14-.43-.278-.86l-2.56.6q.211.588.424,1.174" fill="#fff"/><path d="M1160.01,118.011a10.343,10.343,0,0,0-1.143-1.214c-.123-.126-.258-.243-.387-.363l-.616.518,2.81,3.116a10.924,10.924,0,0,0-.664-2.057" fill="#fff"/><path d="M1402.04,120.18l2.642,2.674c-.062-2.416-.493-3.244-2.642-2.674" fill="#fff"/><path d="M1387.376,123.392l-1.494-1.473q-.567.665-1.137,1.327l1.927.924.7-.778" fill="#fff"/><path d="M1406.416,125.747l-.07.088.143-.059-.05-.057-.14-.036c.018.048.035.091.055.141l.062-.077" fill="#fff"/><path d="M1406.3,125.683c-.8-2.032-.858-2.011-3.364-.844l3.364.844" fill="#fff"/><path d="M1174.819,129.324c.237-1.539.375-2.433.569-3.686-2.339.987-2.3,1.931-.569,3.686" fill="#fff"/><path d="M1464.15,128.824l.933.3,1.176-2.584-1.1-.392q-.507,1.336-1.013,2.671" fill="#fff"/><path d="M1214.893,129.648l-2.421,2.468,2.769-.332c-.135-.825-.233-1.43-.348-2.136" fill="#fff"/><path d="M1431.013,138.139c-.319.886-.637,1.772-1.069,2.973,2.524-.47,1.871-1.7,1.069-2.973" fill="#fff"/><path d="M1282.793,141.688l3.929-.476c-1.761-2.034-2.643-1.46-3.929.476" fill="#fff"/><path d="M1478.53,143.716l4.3-.688c-2.417-.679-2.417-.679-4.3.688" fill="#fff"/><path d="M1171.514,157.344l-1.689-2.567-1.066.577,1.714,2.573,1.041-.583" fill="#fff"/><path d="M1202.676,157.423l3.061-1.688c-2.637-1.461-2.4.8-3.061,1.688" fill="#fff"/><path d="M1370.209,156.3l3.646,1.137.267-.767-3.7-1q-.109.316-.217.633" fill="#fff"/><path d="M1204.336,158l1.483,2.2,2.854-1.771-4.337-.427" fill="#fff"/><path d="M1469.508,160.524l3.231-1.507c-.124-.214-.249-.427-.374-.641l-3.057,1.816c.066.111.133.221.2.332" fill="#fff"/><path d="M1255.878,162.781c.119.089.461-.064.934-.144l-.724-2.92c-2.278,1.186-1.435,2.145-.21,3.064" fill="#fff"/><path d="M1508.572,177.052l2.744-.771q-.17-.464-.338-.928l-2.719.914c.1.262.209.523.313.785" fill="#fff"/><path d="M1143.708,164.943l-.937.223q.328,1.2.656,2.391l.9-.172a7.23,7.23,0,0,0-.12-1.163,11.126,11.126,0,0,0-.5-1.279" fill="#fff"/><path d="M1398.984,169.733c2.482.776,2.561-.655,2.91-1.723.043-.134-.233-.352-.523-.755l-2.387,2.478" fill="#fff"/><path d="M1419.641,190.852l3.022-1.289q-.114-.271-.234-.544-1.659.344-3.323.685.269.575.535,1.148" fill="#fff"/><path d="M1260.63,177.45c-.115-.721-.226-1.421-.434-2.735-1.816,2.419-1.816,2.419.434,2.735" fill="#fff"/><path d="M1289.566,5.418q-1.014.13-2.027.257c-.006.226-.011.45-.017.674l2.119.411q-.038-.671-.075-1.342" fill="#fff"/><path d="M1273.44,10.116c-.126,1.081-.269,2.313-.413,3.553,1.967-.816,2.028-1.883.413-3.553" fill="#fff"/><path d="M1273.027,13.668c-.054.022-.1.046-.161.068l.138.129c.008-.067.015-.132.023-.2" fill="#fff"/><path d="M1193.058,12.871c-2.182,1.073-2.182,1.073-1.011,3.22l1.011-3.22" fill="#fff"/><path d="M1226.921,14.837l1.366-.57-1.027-1.04-.339,1.61" fill="#fff"/><path d="M1228.288,14.267l.085.086.137-.107-.12-.021-.1.042" fill="#fff"/><path d="M1329.349,27.729c-.423.633-.824,1.233-1.4,2.092,2.358-.7,2.358-.7,1.4-2.092" fill="#fff"/><path d="M1239.013,27.251a.687.687,0,0,0-.07.034c.008.014.019.029.028.043.014-.026.027-.051.042-.077" fill="#fff"/><path d="M1239.293,30.447c1.524-1.48.207-2.252-.323-3.119a2.2,2.2,0,0,0,.323,3.119" fill="#fff"/><path d="M1427.245,30.59c.106-.505.207-.691.148-.751a10.939,10.939,0,0,0-1.4-1.277c-.086-.061-.529.282-.807.438.5.472.99.949,1.5,1.41.086.078.252.085.559.18" fill="#fff"/><path d="M1195.172,32.637l.006-.08h0l-.122.046c.007.012.014.021.021.034Z" fill="#fff"/><path d="M1195.651,35.086l2.038-2.449h-2.517q-.088,1.149-.175,2.3l.654.151" fill="#fff"/><path d="M1144,37.9c.743-.883,1.508-1.746,2.526-2.9-2.794.142-3.505,1.056-2.526,2.9" fill="#fff"/><path d="M1167.195,34.948l.125.016v-.128Z" fill="#fff"/><path d="M1167.32,34.965v1.9l3.075-1.469.017-.02-3.092-.408" fill="#fff"/><path d="M1234.37,35.22q.228,1.324.457,2.648a1.7,1.7,0,0,0,.791-1.425,9.383,9.383,0,0,0-.124-1.321l-1.124.1" fill="#fff"/><path d="M1218.25,37.837q-.585-.9-1.171-1.8l-.766.425,1.242,1.769.695-.39" fill="#fff"/><path d="M1432.639,43.762l-.339-.529-2.573,1.171.506.8,2.406-1.442" fill="#fff"/><path d="M1357,45.3c.18-.335.4-.654.987-1.6l-3.516.767,2.132,1.839c.2-.518.272-.775.4-1.008" fill="#fff"/><path d="M1438.126,46.7a5.193,5.193,0,0,0,.522,1.527c.551-.4,1.155-.706,1.113-.828a7.3,7.3,0,0,0-.85-1.408c-.279.236-.785.472-.785.709" fill="#fff"/><path d="M1258.607,49.742c.384.968.7,1.769,1.217,3.069.276-2.316.276-2.316-1.217-3.069" fill="#fff"/><path d="M1419.258,51.412c.368.035.793-.441,1.6-.952a8.8,8.8,0,0,0-1.855-.74c-.18-.022-.677.553-.611.729.145.385.529.932.866.963" fill="#fff"/><path d="M1161.541,52.029c.7.3,1.4.619,2.125.883a2.5,2.5,0,0,0,.39-.561c-.625-.407-1.276-.781-1.924-1.159l-.591.837" fill="#fff"/><path d="M1178.266,56.039l1.114-.255q-.365-.9-.727-1.8l-.71.167c.109.63.215,1.26.323,1.89" fill="#fff"/><path d="M1311.41,56.3q-.153-1.269-.307-2.537l-.7.069q.153,1.268.307,2.537l.7-.069" fill="#fff"/><path d="M1496.706,56.5l-.237-.782-2.311.6.186.655,2.362-.475" fill="#fff"/><path d="M1268.061,57.339l-.771-.6q-.914,1.055-1.829,2.108l.547.441,2.053-1.949" fill="#fff"/><path d="M1416.269,59.805c-.1,1.1-.188,2.078-.275,3.046,2.418-1.386,2.385-1.421.275-3.046" fill="#fff"/><path d="M1415.866,62.939l.045.153.064-.04c.006-.067.012-.134.02-.2l-.138.078.009.01" fill="#fff"/><path d="M1448.569,60.161l-.563.348,1.765,1.772.353-.311-1.555-1.809" fill="#fff"/><path d="M1400.752,65.193c.122-.935.2-1.561.4-3.058l-2.82,1.955,2.42,1.1" fill="#fff"/><path d="M1307.995,66.842l-1.339-2.565-1.092.326c-.617,1.522,1.134,1.731,2.431,2.239" fill="#fff"/><path d="M1286.984,70.923c.053-.083-.532-.689-.675-.646a2.681,2.681,0,0,0-1.19.743c-.078.088.388.57.748,1.07a7.945,7.945,0,0,0,1.117-1.167" fill="#fff"/><path d="M1209.737,71.467l-.312,1.839c.2.051.4.1.6.153q.613-.873,1.228-1.744l-1.52-.248" fill="#fff"/><path d="M1279.02,73.8c-.029-.277-.354-.53-.757-1.1l-1.742,2.937c1.779-.072,2.636-.523,2.5-1.841" fill="#fff"/><path d="M1158.669,79.536l-4.065-.724c1.011,1.753,1.9,2.172,4.065.724" fill="#fff"/><path d="M1452.762,79.89l1.84,2.534c.271-1.2.866-2.555-1.84-2.534" fill="#fff"/><path d="M1358.529,83.043l3.476-1.909c-2.8-.894-3.337-.119-3.476,1.909" fill="#fff"/><path d="M1369.058,88.372l-3.165-.875c.529,1.079,2.52,1.479,3.165.875" fill="#fff"/><path d="M1153.779,102.562l-1.931,1.657c.2.209.393.42.589.629q1.068-.744,2.136-1.489l-.794-.8" fill="#fff"/><path d="M1157.99,104.177l-1.006,2.87c2.8-1.462,2.8-1.462,1.006-2.87" fill="#fff"/><path d="M1315.039,104.784l-1.527,1.909,3.11.879-1.583-2.788" fill="#fff"/><path d="M1323.61,108.98c.847.242,1.69.495,2.549.695a2.872,2.872,0,0,0,.311-.662c-.8-.372-1.627-.705-2.449-1.044-.137.338-.274.674-.411,1.011" fill="#fff"/><path d="M1133.265,110.48l2.9,1.722c-.147-.819-.063-1.5-.35-1.666-.379-.226-1.049-.056-2.547-.056" fill="#fff"/><path d="M1177.565,123.218c-.857-.393-1.511-.868-1.7-.747a3.68,3.68,0,0,0-1.094,1.372c-.034.06.674.647.843.581a12.856,12.856,0,0,0,1.956-1.206" fill="#fff"/><path d="M1485.93,127.779l.962-.084c-.435-.986.946-2.168-1.275-3.507.136,1.557.224,2.574.313,3.591" fill="#fff"/><path d="M1456.173,126.788c-.317.23-.428.689-.823,1.371l3-.5c-1.156-1.555-1.185-1.589-2.181-.866" fill="#fff"/><path d="M1395.784,127.859l2.437-.319q-.03-.4-.058-.808h-2.469l.09,1.127" fill="#fff"/><path d="M1221.41,126.438l-3.747,2.662c2.4-.374,2.4-.374,3.747-2.662" fill="#fff"/><path d="M1212.944,129.173c.035-.073-.362-.312-.76-.641l-2.556,1.09c1.875,1.511,2.706.83,3.316-.449" fill="#fff"/><path d="M1132.557,134.292v-3.354c-1.466,1.011-2.238,1.818,0,3.354" fill="#fff"/><path d="M1220.307,131.958l-.984-.3-.813,2.232.844.247q.477-1.092.953-2.182" fill="#fff"/><path d="M1426.337,131.516l-2.868.175c1.841,1.488,1.841,1.488,2.868-.175" fill="#fff"/><path d="M1406.908,131.877c-1.149.538-2.81.639-2.468,3.167l3.173-2.52-.705-.647" fill="#fff"/><path d="M1175.53,133.892c-.009.019-.018.038-.026.057l.13.027Z" fill="#fff"/><path d="M1175.5,133.949l-2.5-.525c.6,1.091.944,1.729,1.489,2.728.484-1.058.75-1.638,1.008-2.2" fill="#fff"/><path d="M1204.884,134.048c-2.038,0-2.038,0-1.254,1.675l1.254-1.675" fill="#fff"/><path d="M1166.33,136.15a4.406,4.406,0,0,0,.9,1.018l.766-.94-.953-.8c-.254.248-.771.594-.711.727" fill="#fff"/><path d="M1270.169,141.225l-.885-3.527-1.05.244q.537,1.737,1.075,3.475l.86-.192" fill="#fff"/><path d="M1145.446,140.548l-.162.843,2.837.474c.066-.208.131-.416.2-.623l-2.872-.694" fill="#fff"/><path d="M1407.231,142.364a7.019,7.019,0,0,0-1.413,1.251,4.445,4.445,0,0,0-.235,1.544c2.444-.16,1.958-1.318,1.648-2.795" fill="#fff"/><path d="M1134.066,145.492l2.13.729c-.173-2-.77-2.222-2.13-.729" fill="#fff"/><path d="M1428.214,148.369c-.218,1.165.813,1.4,1.776,1.606.041-.786.081-1.605.15-2.993-1.048.726-1.854,1-1.926,1.387" fill="#fff"/><path d="M1429.981,150.137s.142-.132.142-.132l-.134-.03c0,.054-.005.108-.008.162" fill="#fff"/><path d="M1136.26,148.347a4.429,4.429,0,0,0-1.367.588l.658,1.2,1.475-1.047c-.257-.263-.529-.754-.766-.74" fill="#fff"/><path d="M1382.714,152.328l1.886-.443-1.422-.953Z" fill="#fff"/><path d="M1384.6,151.885l.111.075.062-.116-.173.041" fill="#fff"/><path d="M1384.8,151.85c1.523,1.275,2.411.2,3.757-.627-1.815-.8-2.914-.48-3.757.627" fill="#fff"/><path d="M1384.712,151.96c.028-.04.06-.071.089-.109l-.021-.017c-.007.011-.068.126-.068.126" fill="#fff"/><path d="M1397.684,155.248c.1-.139-.39-.629-1.022-1.573a6.9,6.9,0,0,0-.97,1.674c-.054.242.466.588.726.887a5.573,5.573,0,0,0,1.266-.988" fill="#fff"/><path d="M1195.731,176.2l2.491,1.438.535-.71-2.383-1.616-.643.888" fill="#fff"/><path d="M1481.384,174.267l1.351,2.611.546-.185q-.444-1.4-.886-2.8l-1.011.376" fill="#fff"/><path d="M1158.623,174.29h2.286q-.158-.7-.316-1.391l-2.211.63c.08.254.161.507.241.761" fill="#fff"/><path d="M1148.366,172.3c0-.177,0-.353-.005-.53h-2.906c.009.177.018.353.026.53Z" fill="#fff"/><path d="M1401.593,164.562c-.3-1.313-.543-2.38-.784-3.432-1.206,2.054-1.173,2.084.784,3.432" fill="#fff"/><path d="M1400.876,161.016l-.115-.1c.016.07.032.142.049.213.022-.04.042-.073.066-.114" fill="#fff"/><path d="M1419.739,167.669c.59-.781,1.024-1.354,1.457-1.926-1.868.269-1.868.269-1.457,1.926" fill="#fff"/><path d="M1430.339,166.707h2.239c.011-.183.022-.365.034-.548l-2.285-.228c0,.259.008.517.012.776" fill="#fff"/><path d="M1434.313,167.532l.575.522c.452-.431.922-.848,1.327-1.312.042-.049-.3-.371-.465-.566l-1.437,1.356" fill="#fff"/><path d="M1295.792,167.347l-2.7-1.233c-.352.439-.721.908-1.48,1.874l4.184-.641" fill="#fff"/><path d="M1293.019,149.879l.076-.1.013-.007-.062-.05-.079.128.052.024" fill="#fff"/><path d="M1192.263,162.458c.122,1.157.2,1.864.286,2.705,2.283-.981,1.674-1.659-.286-2.705" fill="#fff"/><path d="M1175.418,171.274l1.718,1.263.617-.723-1.926-1.052-.409.512" fill="#fff"/><path d="M1254.81,172.694l.888-.208c-.253-.691-.5-1.386-.792-2.063-.009-.021-.517.134-.793.207q.348,1.032.7,2.064" fill="#fff"/><path d="M1170.431,160.733c-.036-.29-.42-.546-.648-.816-.325.323-.9.639-.908.972-.014.374.477.763,1.124,1.677a7,7,0,0,0,.432-1.833" fill="#fff"/><path d="M1213.627,149.018l-2.194-.777-.444.61c.772.282,1.542.568,2.326.815.018.006.2-.422.312-.648" fill="#fff"/><path d="M1441.609,173.557c.592-.314,1.193-.615,1.756-.966.042-.025-.187-.4-.291-.619l-1.8,1.007c.113.192.224.385.338.578" fill="#fff"/><path d="M1453.417,175.975a17.907,17.907,0,0,0,.789-1.664c.024-.063-.442-.276-.681-.419q-.422.859-.844,1.72l.736.363" fill="#fff"/><path d="M1258.521,156.075l.733.317q.441-.926.883-1.85l-.593-.241-1.023,1.774" fill="#fff"/><path d="M1194.2,157.266l.544.026v-2.806l-.4-.021q-.072,1.4-.143,2.8" fill="#fff"/><path d="M1140,155.13l-.6-.265c-.239.319-.6.615-.684.963a2.924,2.924,0,0,0,.2,1.132l.654-.026.426-1.8" fill="#fff"/><path d="M1495.115,153.71a17.675,17.675,0,0,0,1.718.577c.075.018.284-.4.431-.623l-1.694-.782-.455.828" fill="#fff"/><path d="M1160.018,155.451l.809-.2q-.375-1.327-.751-2.655l-.762.192q.352,1.329.7,2.658" fill="#fff"/><path d="M1465.317,151.233l2.984.353c-.92-.537-1.715-1.675-2.984-.353" fill="#fff"/><path d="M1517.368,148.268c-2.29.337-3.47.528-2.384,2.593l2.384-2.593" fill="#fff"/><path d="M1372.853,142.757c-.426.033-.8.592-1.2.921.388.322.76.879,1.169.9s.873-.477,1.552-.9c-.668-.434-1.121-.958-1.522-.927" fill="#fff"/><path d="M1495.133,137.653a5.435,5.435,0,0,0,.127,1.474l1.59-1.746-1.009-.551c-.248.273-.655.523-.708.823" fill="#fff"/><path d="M1159.977,135.721l1.268,4.205.008.022.008-.009-.008-.007c-.017-1.184.717-2.485-1.276-4.211" fill="#fff"/><path d="M1470.873,135.837c.249-.233.636-.438.7-.709.059-.235-.24-.545-.469-.994-.453.466-.852.709-.923,1.014-.041.179.441.456.687.689" fill="#fff"/><path d="M1174.858,130.682c.365,1.551.559,2.374.744,3.159,2.073-.92,1-1.677-.744-3.159" fill="#fff"/><path d="M1175.518,133.881c.013.012.116.1.116.1-.01-.045-.021-.091-.032-.136-.029.014-.053.027-.084.04" fill="#fff"/><path d="M1195.994,129.868l1.473,3.038c.412-2.227.412-2.227-1.473-3.038" fill="#fff"/><path d="M1168.823,131.295l-1.807-2.5-1.09.953,2.218,2.157.679-.608" fill="#fff"/><path d="M1421.59,128.458l1.767-1.783-.583-.439-1.62,1.79.436.432" fill="#fff"/><path d="M1183.793,127.286h2.574l.552,3.864c1.8-1.713.19-2.73-.393-3.969-.618-2.074-1.719-.845-2.733.105" fill="#fff"/><path d="M1134.308,117.105l-.558-.38q-.866.969-1.73,1.94l.63.427,1.658-1.987" fill="#fff"/><path d="M1409.1,116.9c.484-.06.891-.625,1.333-.97l-.375-.637-2.939.721c.982.469,1.522.942,1.981.886" fill="#fff"/><path d="M1369.453,111.844c.051.307.1.614.151.922l2.577-.485c-.024-.146-.046-.291-.071-.437Z" fill="#fff"/><path d="M1336.182,112.363c-.183-.192-.366-.385-.55-.577l-2.088,1.5.653.729,1.985-1.651" fill="#fff"/><path d="M1291.305,109.837q.177-.543.355-1.086l-2.531-.163q1.094.62,2.176,1.249" fill="#fff"/><path d="M1288.9,108.47c-.068.014-.124.014-.189.025l.067.07.35.023c-.073-.042-.145-.085-.218-.126l-.01.008" fill="#fff"/><path d="M1313.4,106.733c-1.619-.165-1.854.673-1.777,2.1,1.573-.305,2.253-.835,1.777-2.1" fill="#fff"/><path d="M1313.478,106.736l.034-.042-.139-.04c.011.028.014.051.024.079.03,0,.052,0,.082,0Z" fill="#fff"/><path d="M1208.115,108.166l.843.751q.736-.775,1.475-1.549l-.654-.631-1.664,1.429" fill="#fff"/><path d="M1352.58,104.693l.805.052.492-1.707a9.337,9.337,0,0,0-1.088-.074,14.3,14.3,0,0,0-.209,1.729" fill="#fff"/><path d="M1259.146,103.963l2.07,1.678.457-.692-2.02-1.5-.507.519" fill="#fff"/><path d="M1487.943,103.521l.5.383,1.806-1.895-.512-.392q-.9.953-1.793,1.9" fill="#fff"/><path d="M1144.875,102.13l1.947,2.35.852-1.553-2.8-.8" fill="#fff"/><path d="M1124.993,99.081l2.755.165q0-.4.01-.806h-2.748c-.006.214-.011.427-.017.641" fill="#fff"/><path d="M1142.621,95.639q.315,1.027.631,2.054l1.062-.325-1.063-1.949-.63.22" fill="#fff"/><path d="M1128.6,96.842,1131.89,96c-2.037-1.847-2.59-1.02-3.289.847" fill="#fff"/><path d="M1390.444,94.346l2.159.711c.077-.332.155-.663.232-1l-2.293-.175c-.033.153-.065.306-.1.459" fill="#fff"/><path d="M1207.514,96.2a1.42,1.42,0,0,0,.9-.255,10.824,10.824,0,0,0-.541-1.655c-.514.579-.908.827-.914,1.083a1.074,1.074,0,0,0,.553.827" fill="#fff"/><path d="M1369.784,92.56q-.357-1.113-.712-2.225l-.354.065q.189,1.15.376,2.3l.69-.141" fill="#fff"/><path d="M1385.768,89.441c.012.26.527.75.644.711a6.128,6.128,0,0,0,1.252-.73l-1.425-1.052c-.184.383-.487.733-.471,1.071" fill="#fff"/><path d="M1297.856,83.4l-.2.507,2.033.946.437-.42a6.315,6.315,0,0,0-1.033-.73,6.438,6.438,0,0,0-1.236-.3" fill="#fff"/><path d="M1175.8,84.058l1.821,1.952.727-.517-1.75-2-.8.567" fill="#fff"/><path d="M1368.778,82.383c-.4-1.978-1.688-1.666-2.709-1.733-.127-.008-.278.274-.571.584l3.28,1.149" fill="#fff"/><path d="M1200.917,82.851l.3-.784a4.7,4.7,0,0,0-1.374-.66,6.45,6.45,0,0,0-1.692.231c.021.18.042.361.064.541l2.7.672" fill="#fff"/><path d="M1460.52,80.269c.048.249.1.5.145.746l2.87-.367-.222-.794-2.793.415" fill="#fff"/><path d="M1207.6,80.943l.663.46,1.432-2.076-.535-.338-1.56,1.954" fill="#fff"/><path d="M1256.641,77.962c.132.92.234,1.629.364,2.539,1.19-1.382,1.19-1.382-.364-2.539" fill="#fff"/><path d="M1367.45,74.59a6.934,6.934,0,0,0-1.431.025c-.2.052-.331.335-.493.515.313.17.67.517.925.464.3-.062.5-.474,1-1" fill="#fff"/><path d="M1296.613,73.8c-.464-.861-1.294-1.515-1.663-.208-.264.935.046,2.4,2.3,2.477l-.649-2.261h0c.989.652,1.976,1.306,3.111,2.057.683-3.287-1.71-1.977-3.1-2.065" fill="#fff"/><path d="M1293.62,75.7l-2.316-2.3c-.346,1.649.031,2.448,2.316,2.3" fill="#fff"/><path d="M1406.083,72.69l-.753-.227-.555,1.916.5.147.81-1.836" fill="#fff"/><path d="M1444.049,70.948l-2.712.187q.047.364.095.726l2.688-.376c-.024-.179-.047-.359-.071-.537" fill="#fff"/><path d="M1410.627,71.018c-2.017,1.847-.965,2.181,1.6,2.279l-1.6-2.279" fill="#fff"/><path d="M1453.139,69.266c-.118-.02-.546.54-.475.716.121.3.528.5.985.88.217-.475.553-.859.45-1.073a1.43,1.43,0,0,0-.96-.523" fill="#fff"/><path d="M1485.721,70.479c2.689.758,3.53.5,2.931-1.687l-2.931,1.687" fill="#fff"/><path d="M1476.437,68.832c-.093.244-.187.487-.28.73l2.035.48c.044-.206.089-.413.134-.619l-1.889-.591" fill="#fff"/><path d="M1253.582,70.292l-1.012-1.386c-.249.317-.714.646-.694.949.027.418.42.817.657,1.224l1.049-.787" fill="#fff"/><path d="M1127.043,69.349l3.45-1.49c-2.041-.235-3.348-.735-3.45,1.49" fill="#fff"/><path d="M1438.482,66.065c-.067.3.226.667.8,2.083.369-1,.631-1.377.607-1.74-.021-.319-.364-.621-.564-.93-.3.193-.795.35-.847.587" fill="#fff"/><path d="M1422.456,63.519l.457-.567-2.024-1.583-.6.784,2.165,1.366" fill="#fff"/><path d="M1228.677,61.677l1.306,1.877.936-.594-1.7-1.646c-.181.122-.361.243-.542.363" fill="#fff"/><path d="M1226.427,59.277l-2.017-1.739c-.636,1.8-.636,1.8,2.017,1.739" fill="#fff"/><path d="M1491.8,58.55c-.387-1.758-1.465-1.953-3.139-1.979.567,1.58,1.208,2.388,3.139,1.979" fill="#fff"/><path d="M1207.027,57.723l.339.305,1.129-1.353-.593-.354-.875,1.4" fill="#fff"/><path d="M1163.785,54.841c-1.941.159-1.941.159-1.55,2.179l1.55-2.179" fill="#fff"/><path d="M1190.59,54.964l.489.5,2.3-1.432a7.584,7.584,0,0,0-1.8.141,4.359,4.359,0,0,0-.984.789" fill="#fff"/><path d="M1503.918,53.687l-1.239,1.565,3.141.648-1.9-2.213" fill="#fff"/><path d="M1240.208,53.021q-.414,1.011-.827,2.021l.6.219q.5-.989,1-1.977l-.767-.263" fill="#fff"/><path d="M1439.146,55.27c.147-2.532-.885-2.94-3.1-3l3.1,3" fill="#fff"/><path d="M1170.573,51.982l-.467-.6-2.148,1.224.545.7,2.07-1.321" fill="#fff"/><path d="M1500.359,52.549c-.249-.3-.5-.593-.823-.986-.36.25-.828.416-.907.677-.074.24.27.584.431.882l1.3-.573" fill="#fff"/><path d="M1426.017,51.4c.017.307.479.593.747.888l1.264-1.243c-.61-.239-1.026-.549-1.279-.464-.331.11-.747.543-.732.819" fill="#fff"/><path d="M1366.77,49.421c-.094-2.926-2.027-1.631-3.158-1.859a.255.255,0,0,0,.028.006c.935.551,1.864,1.1,3.13,1.853" fill="#fff"/><path d="M1183.779,49.117c.7-.125,1.4-.235,2.078-.42a3.961,3.961,0,0,0-.209-.95c-.729.058-1.45.2-2.173.318q.152.525.3,1.052" fill="#fff"/><path d="M1248.361,44.643l-.665-.154q-.5,1.244-1,2.486l1.158.215.5-2.547" fill="#fff"/><path d="M1176.947,42.243q.136,1.306.272,2.613l.538-.024a11.806,11.806,0,0,0-.013-1.445,8.825,8.825,0,0,0-.343-1.26l-.454.116" fill="#fff"/><path d="M1129.459,44.481l.536-.012q-.164-.948-.324-1.9l-.212.018Z" fill="#fff"/><path d="M1379.681,43.992c.444-1.323.706-2.1.968-2.887-1.018.58-2.383,1.069-.968,2.887" fill="#fff"/><path d="M1165.374,33.879a1,1,0,0,0-.31.986c.1.227.671.406,1.022.389a3.355,3.355,0,0,0,1.073-.352c-.2-.338-.34-.757-.651-.963a1.326,1.326,0,0,0-1.134-.06" fill="#fff"/><path d="M1167.188,34.954l.131-.118c-.053.02-.106.044-.16.066.01.017.018.036.029.052" fill="#fff"/><path d="M1130.087,33.423a19.744,19.744,0,0,0-1.649,1.143l.761.793,1.613-1.139a8.612,8.612,0,0,0-.725-.8" fill="#fff"/><path d="M1154.307,33.19c.031-.063-.353-.288-.543-.438q-.5.865-1.005,1.73l.626.3c.318-.526.657-1.043.922-1.589" fill="#fff"/><path d="M1378.571,34.015l-.093-.133a.757.757,0,0,0,.051.133h.015l.027,0" fill="#fff"/><path d="M1376.429,30.968c.777,1.105,1.415,2.014,2.048,2.915-.347-1.04,1.408-2.945-2.048-2.915" fill="#fff"/><path d="M1476.681,29.377a4.971,4.971,0,0,1,1.092.33l.084-.693-2.218-.143c.338.627.7.481,1.042.506" fill="#fff"/><path d="M1253.365,29.72c.275-.363.835-.793.755-1.074-.111-.392-.7-.673-1.256-1.145-.3.57-.693.984-.588,1.175a4.966,4.966,0,0,0,1.089,1.044" fill="#fff"/><path d="M1302.64,27.343q-.541-.783-1.084-1.567l-.622.383,1.225,1.475.481-.291" fill="#fff"/><path d="M1129.97,22.7l-.149.12.228.206a1.548,1.548,0,0,0-.079-.326" fill="#fff"/><path d="M1132.548,25.288l-2.5-2.265c.133.888-.166,2.072,2.5,2.265" fill="#fff"/><path d="M1144.99,23.443l1.064-1.075a7,7,0,0,0-1.449-.575c-.147-.024-.617.54-.553.652a5.521,5.521,0,0,0,.938,1" fill="#fff"/><path d="M1250.191,20.261l-.252-.714-2.141.61c.084.24.169.48.253.72l2.14-.616" fill="#fff"/><path d="M1190.029,16.591l-.673-.127-.54,2.544.391.084.822-2.5" fill="#fff"/><path d="M1214.635,18.366q-.469-1.11-.938-2.221l-.711.221q.36,1.142.722,2.282l.927-.282" fill="#fff"/><path d="M1273,13.865l-.136-.129-.093.163.229-.034" fill="#fff"/><path d="M1272.773,13.9l-3.607.539c2.4,1.279,3.053.431,3.607-.539" fill="#fff"/><path d="M1437.624,13.09c-.606-.225-1.205-.469-1.828-.645-.06-.017-.265.382-.4.588l1.929.849q.15-.4.3-.792" fill="#fff"/><path d="M1303.684,10.591l-.625-.1-.537,1.9.933.136q.114-.969.229-1.937" fill="#fff"/><path d="M1274.732,7.054l-2.279-1.306c-.162.221-.325.441-.488.662l2.144,1.443.623-.8" fill="#fff"/></g></g></svg>