<svg xmlns="http://www.w3.org/2000/svg" xmlns:xlink="http://www.w3.org/1999/xlink" width="210.398" height="177.47" viewBox="0 0 210.398 177.47"><defs><clipPath id="a"><rect width="210.398" height="177.47" transform="translate(664.328 8.07)" fill="none"/></clipPath></defs><g transform="translate(-664.328 -8.07)" opacity="0.4"><g clip-path="url(#a)"><path d="M785.595,148.075c3.213-.521,3.008,2.611,4.466,4.6,1.34-2.624,2.961-4.676,3.36-6.9s1.743-2.509,3.9-3.157l-5.168-3.115a26.5,26.5,0,0,1-1.5,2.521c-.2.263-.421.514-.647.761.687,2.874.535,2.942-1.913,4.03.262-1.013.491-1.894.713-2.766-.044.047-.089.092-.133.139l.1-.172c-1.677-1.082-3.346-2.173-4.962-3.229l-1.021,5.111.641.2,1.655-2.26c.5.783.412,1.35.043,1.667-1.828,1.568-3.73,3.07-5.6,4.6,2.194-.426,4.032-1.7,6.067-2.027" fill="#fff"/><path d="M788.807,144.051c.4-.422.81-.837,1.2-1.264-.045-.19-.094-.391-.146-.606l-1.084,1.836.033.022,0,.012" fill="#fff"/><path d="M724.258,39.465c.844,1.3,1.467,2.258,2.263,3.484l4.1-.437c-1.488-1.1-2.427-1.8-3.551-2.637,2.968-1.276,3.784-3.39,3-6.2l-5.036-.753c3.1,1.385.837,3.027,1.334,3.742,1.782,2.566-2.265,1.785-2.106,2.8" fill="#fff"/><path d="M716.187,31.845l11.893-1.129-1.463-2.423h-9.491c2.259,2.217-1.447,1.753-.939,3.552" fill="#fff"/><path d="M697.284,176.315c-1.462-3.867-1.167-4.7,2.744-6.893.532-.3,1.565.05,2.042-.272.525-.354.675-1.137,1.279-2.286-5.04.532-7.034,4.043-11.024,5.1,2.585,3.35,3.537,4.13,4.959,4.35" fill="#fff"/><path d="M797.946,137.355l-4.335.63c4.108-.081,5.936,2.658,8.423,5.558l3.5-5.785-.581-.508-5.033,2.233-1.97-2.128" fill="#fff"/><path d="M785.844,158.322l1.042-4.019c-3.133,3.643-7.318,1.735-11.362,1.692l4.233,3.355c1.265-2.116,3.634-1.018,6.087-1.028" fill="#fff"/><path d="M718.163,146.287c.846,2.076,3.05,1.94,4.983,2.46l3.062-2.87-3.542-1.642c-.429,2.355-2.626,1.893-4.5,2.052" fill="#fff"/><path d="M823.352,36.3c2.607.825,5.3,1.444,8.065,2.166.054-.829.091-1.379.127-1.926l-9.75-2.021c.585.7.931,1.583,1.558,1.781" fill="#fff"/><path d="M670.421,168.579l.11-.153a1.705,1.705,0,0,0-.134-.466,1.93,1.93,0,0,0,.024.619" fill="#fff"/><path d="M665.96,164.7c.385,2.462,3.688,1.552,4.437,3.261.128-1,1.279-.982,2.273-1.117l-1.089-1.764,2.656-2,1.706.3.476-.706-3.282-2.281-.665.618,1.246,1.629c-1,.316-2.291.39-2.938,1a4.5,4.5,0,0,1-4.82,1.061" fill="#fff"/><path d="M812,9.7a5.274,5.274,0,0,0-.73,2.444c-.043.3.4.649.765,1.19.793-.828,1.411-1.474,2.419-2.525.368,1.229.585,1.954.8,2.679l1.051.288a12.652,12.652,0,0,0,.716-2.576c.036-.474-.486-.981-.757-1.474C814.8,12.01,813.339,7.944,812,9.7" fill="#fff"/><path d="M774.648,48.383l-.028-.026-.08.039.19.064.011.011c0-.05,0-.093,0-.142l-.122.028Z" fill="#fff"/><path d="M774.742,48.329l5.083-1.154-.8-3.767c-4.2,1.538-4.262,1.567-4.282,4.921" fill="#fff"/><path d="M785.748,134.982l-.814,2.2c1.774,2.895,3.982,1.519,6.224.731-.432-3.158-3.779-1.548-5.41-2.931" fill="#fff"/><path d="M778.1,101.168c-.555-4.875-5.166-3.366-7.48-5.751-.322,5.774,5.1,3.224,7.48,5.751" fill="#fff"/><path d="M673.217,166.833l1.42,2.012-3.95-.249,3.091,3.383c1.438-2.638.918-5.658,5.495-5.514-3.711-1.428-3.711-1.428-6.056.368" fill="#fff"/><path d="M670.421,168.579l.266.017-.156-.17Z" fill="#fff"/><path d="M690.2,57.143l8.5.633c-2.679-3.705-5.656-1.717-8.5-.633" fill="#fff"/><path d="M783.392,133.5l.8.636c1.794-1.25,3.609-2.479,5.353-3.781.208-.155.029-.712.029-1.3l-3.992.671-2.19,3.77" fill="#fff"/><path d="M730.347,134.627c.966-2.1.955-3.812-1.251-4.922-1.419.384-2.673.721-3.667.989l4.083,1.249-2.053,2.815,2.888-.131" fill="#fff"/><path d="M723.367,60.9c.874,3.991,4.748,1.906,7.606,3.442-1.311-2.162-4.273-3.292-7.606-3.442" fill="#fff"/><path d="M766.347,108.55c.6.871,1.27,1.85,2.063,3.007l2.279-3.013c-1.488-1.7-2.95-2.08-4.342.006" fill="#fff"/><path d="M709.985,177.592l5.624.82c-1.2-3.847-1.2-3.847-5.624-.82" fill="#fff"/><path d="M725.24,164.1c-1.322-3.949-4.507-1.832-6.9-2.649-.595,2.613.86,3.736,2.3,2.538,1.739-1.449,2.945-.429,4.6.111" fill="#fff"/><path d="M675.02,155.987c.446-1.2.752-2.032,1.178-3.18h-3.171c-.152-.8-.257-1.345-.535-2.8-.906,3.68-.927,3.7.418,4.733a22.212,22.212,0,0,0,2.11,1.245" fill="#fff"/><path d="M801.748,120.276c-.621,3.824-.621,3.824,3.009,4.928-1.179-1.727.955-4.243-3.009-4.928" fill="#fff"/><path d="M734.364,73.118l1.53,2.373,3.33-.495c-1.069-2.706-1.147-2.743-4.86-1.878" fill="#fff"/><path d="M781.443,131.864l3.578-4.679c-4.846.625-5.509,1.488-3.578,4.679" fill="#fff"/><path d="M729.746,139.109c-2.382-2.248-3.447-.078-4.827.657.549.939,1.043,1.782,1.653,2.824l3.174-3.481" fill="#fff"/><path d="M703.2,124.8l-6.875.971c5.777,1.286,5.777,1.286,6.875-.971" fill="#fff"/><path d="M745.995,72.239q.355,3.038.713,6.081c.383-1.843,2.571-3.077,2.207-5.194-.279-1.616-1.214-1.58-2.92-.887" fill="#fff"/><path d="M695.865,150.675l-.028-.032-.065-.055Z" fill="#fff"/><path d="M739.445,63.916c2.435.96,5.409.6,5.325,3.461l2.149-.464c-1.461-2.942-3.76-3.645-7.474-3" fill="#fff"/><path d="M791.906,43.111c-1.69,1.956-1.869-1.516-3.487-.583-1.07,3.128,4.248,1.176,3.765,3.8.741-1.3,1.781-2.458-.278-3.213" fill="#fff"/><path d="M791.02,39l-2.232-5.686c-.434,1.783-.742,3.046-1.066,4.378L791.02,39" fill="#fff"/><path d="M707.663,147.855l2.044-2.315-5.518-2.084,3.474,4.4" fill="#fff"/><path d="M665.113,152.233l-.785.706,3.706,3.5c.987-2.723.987-2.723-2.921-4.21" fill="#fff"/><path d="M771.162,113.551c-.17.995-.326,1.91-.585,3.43,3.632-1.94,3.632-1.94.585-3.43" fill="#fff"/><path d="M697.505,11.989l6.784,1.121-2.8-2.926-3.981,1.805" fill="#fff"/><path d="M850.156,52.038l-2.025-4.127-3.694,1.254.225.824,3.158-.542c.818,1-.391,2.931,2.336,2.591" fill="#fff"/><path d="M732.44,45.606l3.593,1.483c.236-.623.791-1.726.657-1.8-1.076-.554-2.131-2.078-4.25.312" fill="#fff"/><path d="M793.173,134.226l5.393-2.434c-3.1-.676-5.159-.651-5.393,2.434" fill="#fff"/><path d="M704.266,29.934c2.11,1.21,3.636.315,5.173-.006-.384-.8-.779-1.615-1.414-2.931l-3.759,2.937" fill="#fff"/><path d="M806.164,129.448l.431-.009c-.09-.045-.179-.1-.27-.136l-.149.092c0,.017,0,.03-.007.048Z" fill="#fff"/><path d="M814.474,130.964c-.6-.609-1.064-1.5-1.592-1.535-2.086-.125-4.19-.027-6.288.01a7.77,7.77,0,0,0,2.1.912c1.745.3,3.538.39,5.784.613" fill="#fff"/><path d="M818.811,120.324l-2.921-.946-1.04.549,2.968,3.948c.511-1.83.756-2.7.993-3.551" fill="#fff"/><path d="M860.831,112.094c.307-1.694.555-3.063.923-5.091-3.29,2.227-3.29,2.227-.923,5.091" fill="#fff"/><path d="M760.205,100.284c3.322,1.838,3.322,1.838,5.48.089l-5.313-1.038c-.055.316-.111.633-.167.949" fill="#fff"/><path d="M848.661,79.5c-.2.479.893,1.37,1.753,2.573.648-1.584.953-2.332,1.255-3.073-1.231-.842-2.5-.736-3.008.5" fill="#fff"/><path d="M684.508,14.635l-2.361-2.25c-.15,1.382-.3,2.8-.558,5.161l2.919-2.911" fill="#fff"/><path d="M759.649,20.458c-3.132-.826-3.252,1.03-4.118,2.838,3.125.193,3.3-1.4,4.118-2.838" fill="#fff"/><path d="M721.846,14.484l1.422.069-.237-4.466h-1.185Z" fill="#fff"/><path d="M712.9,168.639c-.011.023-.022.046-.034.069.015.008.023.016.037.025.01.026,0-.094,0-.094" fill="#fff"/><path d="M713.313,164.556l-3.085,3.175,1.889,2.523.75-1.546c-2.572-1.525,1.841-2.388.446-4.152" fill="#fff"/><path d="M803.978,128.437a15.842,15.842,0,0,0-2.016,2.865l.551.352,3.663-2.259c.476-2.4-2.013-1.137-2.2-.958" fill="#fff"/><path d="M734.664,142.43l-.373-.456a1.092,1.092,0,0,0,.373.456" fill="#fff"/><path d="M736.831,145.082l1.01-.787c-.031-1.43-2.207-1.142-3.177-1.865l2.167,2.652" fill="#fff"/><path d="M670.221,42.268l-4.2-.869c.664,2.492,2.049,2.705,4.2.869" fill="#fff"/><path d="M726.717,25.96c2.167.031,4.2.59,4.729-2.463-1.983.543-3.823.314-4.729,2.463" fill="#fff"/><path d="M704.518,152.921l2.676,1.484,1.494-3.048-3.955.58c-.072.328-.143.656-.215.984" fill="#fff"/><path d="M726.538,50.2l-3.874-.594c.71,2.646,2.044,2.517,3.874.594" fill="#fff"/><path d="M823.566,119.563c-.25,1.067-.5,2.132-.835,3.556l3.428-.835-1.543-2.576-1.05-.145" fill="#fff"/><path d="M710.916,60.222C709.044,59.144,708.5,57.285,706,57.6c1.775,2.843,1.775,2.843,4.913,2.623" fill="#fff"/><path d="M729.192,57.469v2.362l5.213-.911-5.213-1.451" fill="#fff"/><path d="M712.907,168.661c-.006-.022.007.1,0,.072.017,0,.036,0,.054,0l-.051-.068" fill="#fff"/><path d="M811.833,20.215c-1.309-2.366-2.552-3.2-5.145-1.164l5.145,1.164" fill="#fff"/><path d="M822.432,99.977l2.646-1.927L823.1,94.724c-.218,1.716-.388,3.061-.665,5.253" fill="#fff"/><path d="M838.676,91.9l-4.3-.415q-.142.557-.284,1.112h4.582v-.7" fill="#fff"/><path d="M803.315,8.869l1.242,2.109,1.889-.983q-.922-.964-1.847-1.929l-1.284.8" fill="#fff"/><path d="M742.512,77.91l2.608,3.119c.594-1,1.084-1.832,1.575-2.66l.017-.005h0l-.006-.045c0,.015-.008.029-.011.044l-4.184-.453" fill="#fff"/><path d="M716.068,10.573c-3.594,1.5-3.594,1.5-1.377,3.6.432-1.128.843-2.2,1.377-3.6" fill="#fff"/><path d="M708.124,183.009l1.595,2.531c.005-.723,1.951-3.072-1.595-2.531" fill="#fff"/><path d="M778.243,109.845l-3.386,1.187.472,1,3.306-1.426c-.131-.254-.261-.509-.392-.763" fill="#fff"/><path d="M693.017,178.382q.1.531.208,1.061l5.424-1.026c-.047-.214-.093-.429-.141-.643l-5.491.608" fill="#fff"/><path d="M666.726,161.288c1.245,1.734,2.491,1.8,3.56.508.218-.263-.644-1.214-1.02-1.87l-2.54,1.362" fill="#fff"/><path d="M768.449,47.891c-3.133,1.452-2.078,2.373,0,3.6Z" fill="#fff"/><path d="M859.585,46.72,856,49.692c2.381.458,2.381.458,3.582-2.972" fill="#fff"/><path d="M783.737,46.23c2.1-.936,2.1-.936.434-3.029-.166,1.155-.283,1.97-.434,3.029" fill="#fff"/><path d="M691.1,138.377l-.745.857,1.63,3.056c.738-1.367,1.564-2.194,1.4-2.817-.132-.5-1.477-.74-2.284-1.1" fill="#fff"/><path d="M713.87,33.321l-.129,1.071h4.891c-1.7-1.862-3.166-1.965-4.762-1.071" fill="#fff"/><path d="M757.218,45.219h3.436L759,43.181l-1.778,2.038" fill="#fff"/><path d="M704.836,47.778l3.252,3.279c.61-2.444-.06-3.582-3.252-3.279" fill="#fff"/><path d="M835.913,54.289l-1.183-.1v4.553l.835.03.348-4.482" fill="#fff"/><path d="M733.476,67.519c-.869,1.663-1.474,2.823-2.08,3.983l.975.454c.29-1.295,2.528-1.9,1.105-4.437" fill="#fff"/><path d="M825.025,108.908c-.289.493-.044,1.228-.044,1.853l.774.482,1.48-2.165c-.618-.475-1.238-1.827-2.21-.17" fill="#fff"/><path d="M715.379,173.024c1.358-.118,3.01.284,3.693-1.907l-3.207.369c1.341-1.177,1.12-2.175-.6-2.746a6.855,6.855,0,0,0-2.307-.011c.788,1.059,1.57,2.1,2.351,3.136q.036.579.071,1.159" fill="#fff"/><path d="M803.321,171c-1.556.863-2.379,1.771-.216,3.724.105-1.8.16-2.764.216-3.724" fill="#fff"/><path d="M708.241,165.749l-4.475.264c3.16,2,3.16,2,4.475-.264" fill="#fff"/><path d="M823.479,133.324c-.373-.432-1.205-.558-2.054-.918l.734,3.236c2.235-.294,2.232-1.262,1.32-2.318" fill="#fff"/><path d="M769.981,13.69l2.448,1.594.727-.926L770.6,12.887l-.618.8" fill="#fff"/><path d="M775.779,26.11c.236.811.461,1.591.867,2.984,1.223-2.624,1.223-2.624-.867-2.984" fill="#fff"/><path d="M709.7,30.069c-.025-.058-.049-.112-.075-.174l-.006.006.011-.011c-.062.01-.125.024-.187.037l.049.1.208.04" fill="#fff"/><path d="M713.354,30.778,709.7,30.07c.764,1.782.855,1.755,3.657.708" fill="#fff"/><path d="M765.313,46.785c.266-1.365.532-2.729.841-4.318-3.135,1.2-.821,2.989-.841,4.318" fill="#fff"/><path d="M708.052,45.256q.279.468.558.934l2.434-.882q-.405-.669-.811-1.339l-2.181,1.287" fill="#fff"/><path d="M854.5,50.215c.694-1.528,1.751-2.576-.685-4.085.294,1.521-1.686,2.351.685,4.085" fill="#fff"/><path d="M744.266,49.17c-3.493-.548-1.264,2.01-1.833,2.9l1.833-2.9" fill="#fff"/><path d="M715.009,55.173c-.783,1.226-1.216,1.6-1.227,1.994a5.931,5.931,0,0,0,.44,1.679l.787-.107Z" fill="#fff"/><path d="M729.663,78.767l3.082-1.033c-.106-.252-.212-.5-.319-.755l-3.1.994.336.794" fill="#fff"/><path d="M821.308,102.516c-2.281,1.062-2.691,1.984-1.389,3.863l1.389-3.863" fill="#fff"/><path d="M806.738,124.777c2.07-1.944,2.367-3.062.253-4.279-.077,1.3-.141,2.377-.253,4.279" fill="#fff"/><path d="M808.541,147.391l-3.37-2.015c.023,2.4,1.037,2.727,3.37,2.015" fill="#fff"/><path d="M803.222,153.01c.084,0,.182-.279.443-.7l-3.726,1.341c2.2,2.689,2.13-.685,3.283-.638" fill="#fff"/><path d="M696.09,163.153l-.311.68,2.214.926.318-.562-2.221-1.044" fill="#fff"/><path d="M792.966,180.506l-3.914,2.22c2.155.411,3.246.137,3.914-2.22" fill="#fff"/><path d="M710.244,172.807l-.211-.5-3.409.742.214.778,3.406-1.024" fill="#fff"/><path d="M766.691,169.045l-2.818.523c.025.233.049.466.074.7l2.915-.646-.171-.576" fill="#fff"/><path d="M834.374,162.132l-1.754-2.92-.995.445,1.671,2.953,1.078-.478" fill="#fff"/><path d="M791.125,128.036l3.748,2.578c-.388-2.55-2.038-2.6-3.748-2.578" fill="#fff"/><path d="M797.672,126.822l.591.914,2.971-1.479-.411-.694-3.151,1.259" fill="#fff"/><path d="M722.4,127.32l2.205-.965q-.042-.315-.086-.63l-2.293-.171c.05.508.1,1.016.174,1.766" fill="#fff"/><path d="M726.44,122.675l1.957,2.286,1.3-2.286Z" fill="#fff"/><path d="M702.99,121.466q-.09.283-.181.567l2.693,1.175.609-.43a7,7,0,0,0-1.4-1.034,7.136,7.136,0,0,0-1.723-.278" fill="#fff"/><path d="M712.179,122l-3.263-1.5c.343,2.724,1.69,1.986,3.263,1.5" fill="#fff"/><path d="M798.306,114.893h-3.923l3.78,1.033c.048-.344.095-.689.143-1.033" fill="#fff"/><path d="M788.67,113.257l1.86-2.526q-.441-.222-.884-.442c-.958.687-2.726,1.1-.976,2.968" fill="#fff"/><path d="M854.286,103.887l.79-2.4q-.435-.249-.873-.5-.5,1.3-.995,2.6l1.078.294" fill="#fff"/><path d="M763.4,74.048l-3.013-1.36c.9,2.176.9,2.176,3.013,1.36" fill="#fff"/><path d="M752.864,72.432c.276-.094.8-.206.79-.278-.066-.662-.223-1.317-.354-1.975l-1.208.264.772,1.989" fill="#fff"/><path d="M700.611,68.231q.021.528.042,1.056l2.888-.244-.066-.812Z" fill="#fff"/><path d="M716.889,66.94l3.1-.249c-.076-.551-.153-1.1-.292-2.1l-2.806,2.351" fill="#fff"/><path d="M872.6,62.367c-.057.152.622.743.785.691a5.851,5.851,0,0,0,1.34-.816l-1.143-1.07a4.922,4.922,0,0,0-.982,1.195" fill="#fff"/><path d="M798.848,52.819v2.866c1.688-2.053,1.688-2.053,0-2.866" fill="#fff"/><path d="M793.456,50.573l2.2-1.011q-.225-.413-.449-.825l-2.366.98.617.856" fill="#fff"/><path d="M771.752,49.752,774.54,48.4c-2.323-.792-2.341-.739-2.788,1.356" fill="#fff"/><path d="M837.587,48.106c.4-.02.784-.387,1.615-.847l-1.87-1.071a5.434,5.434,0,0,0-.746,1.353c-.033.134.661.582,1,.565" fill="#fff"/><path d="M722.057,46.782l.422.333,2.236-1.221-.736-.924-1.922,1.812" fill="#fff"/><path d="M716.2,44.394l4.543,1.118c-.836-2.032-1.723-2.816-4.543-1.118" fill="#fff"/><path d="M770.33,43.959l1.764-1.376-.762-.77-1.652,1.6.65.541" fill="#fff"/><path d="M865.71,39.689l-4.276,1.28c3.623.246,3.623.246,4.276-1.28" fill="#fff"/><path d="M709.884,20.692a5.154,5.154,0,0,0,.149,1.345l3.3-1.519c-.1-.237-.2-.475-.295-.712-1.057.282-2.124.541-3.154.886" fill="#fff"/><path d="M682.042,12.23c.006.024.013.048.02.072h0l.086.081.018-.166c-.045.006-.08.007-.123.012" fill="#fff"/><path d="M680.173,9.913c.613.777-1.2,2.686,1.869,2.317q-.363-1.342-.728-2.685l-1.141.368" fill="#fff"/><path d="M784.8,8.769a5.5,5.5,0,0,0-1.329.9c.342.234.735.7,1.012.654a7.719,7.719,0,0,0,1.839-.939c-.812-.347-1.263-.7-1.522-.616" fill="#fff"/><path d="M749.351,15.284l.807-.006V13.072l-.807.006Z" fill="#fff"/><path d="M708.107,17.24h2.918c-.428-.7-.721-1.177-1.153-1.885l-1.765,1.885" fill="#fff"/><path d="M796.072,19.749l1.686-.945-.454-.577-1.621,1.013c.129.17.259.339.389.509" fill="#fff"/><path d="M764.326,26.449c.525-.027,1.2.111,1.539-.125.441-.308.615-.912.9-1.389l-.572-.407q-1.066.673-2.133,1.347c.088.191.175.382.263.574" fill="#fff"/><path d="M750.135,27.939a5.24,5.24,0,0,0,1.777-.175c.017-.2.033-.405.049-.607l-2.273-.861-.619.613c.349.36.633.917,1.066,1.03" fill="#fff"/><path d="M842.877,28.489l1.045-1.057a4.725,4.725,0,0,0-1.323-.777c-.206-.047-.891.6-.828.728a5.175,5.175,0,0,0,1.106,1.106" fill="#fff"/><path d="M732.442,31.439a10.484,10.484,0,0,0,1.426-.839l-3.025-.128c1.125.695,1.465,1.023,1.6.967" fill="#fff"/><path d="M849.534,31.354l-.213.776,2.343.426c.06-.214.119-.428.179-.642l-2.309-.56" fill="#fff"/><path d="M766.621,32.933l2.92.79c.107-.276.213-.553.32-.829l-2.9-.822-.342.861" fill="#fff"/><path d="M793.705,33.332h2.843c-.007-.2-.015-.4-.023-.594l-2.847.189.027.405" fill="#fff"/><path d="M797.87,44.7l.711.89,1.724-1.146c-.155-.212-.313-.422-.469-.634l-1.966.89" fill="#fff"/><path d="M810.234,53.177l.126-2.147-.825-.111-.558,2.061,1.257.2" fill="#fff"/><path d="M749.567,57.488c.094.234.188.467.281.7l2.521-.74c-.1-.249-.2-.5-.3-.748l-2.5.787" fill="#fff"/><path d="M854.393,59.481l2.8,2.233c.762-2.236-.137-2.506-2.8-2.233" fill="#fff"/><path d="M759.671,62.083a10.1,10.1,0,0,0-2.528,1.168l3.326.488.428-.826c-.411-.3-.846-.858-1.226-.83" fill="#fff"/><path d="M705.215,63.925l1.851,2.113.821-.66q-1.022-.957-2.044-1.913l-.628.46" fill="#fff"/><path d="M695.671,64.841l2.143,1.048.371-.6-2.019-.92-.495.468" fill="#fff"/><path d="M727.185,68.652l-2.721-.119-.084.689,2.6.422.2-.992" fill="#fff"/><path d="M717.551,76.128l-.138-.485-2.643-.111-.156.5a5.376,5.376,0,0,0,1.525.552,4.225,4.225,0,0,0,1.412-.451" fill="#fff"/><path d="M752.016,77.7l3.059-1.013c-1.9-.94-2.816-.926-3.059,1.013" fill="#fff"/><path d="M752.381,84.48c.368,0,.736-.006,1.1-.011v-1.8a3.491,3.491,0,0,0-.786.017c-.15.591-.223,1.195-.318,1.8" fill="#fff"/><path d="M720.222,91.7v-.53l-2.344-.114.03.787,2.314-.143" fill="#fff"/><path d="M762.712,94.526l-2.188-.937c.928,1.607.928,1.607,2.188.937" fill="#fff"/><path d="M849.176,98.44l1.152.969.728-.894c-.394-.319-.694-.75-.982-.743-.3.007-.6.428-.9.668" fill="#fff"/><path d="M861.07,100.011a8.093,8.093,0,0,0,.831,1.229l1.117-.9c-.614-.383-1.036-.664-1.492-.892-.029-.015-.512.442-.456.564" fill="#fff"/><path d="M814.45,117.071l2.461-.967c-1.38-.834-2.97-1.557-2.461.967" fill="#fff"/><path d="M785.963,117.1l3.477.487-2-1.958-1.478,1.471" fill="#fff"/><path d="M793.617,117.248c.008.548.635,1.088.986,1.632l.54-.388q-.418-1.8-.836-3.6h.077l-.082-.023h0l0,.022h0v.016a8.051,8.051,0,0,0-.681,2.339" fill="#fff"/><path d="M815.844,126.736c-.16,1.17-.29,2.12-.42,3.069l1.409.027c0-.872.009-1.745-.018-2.616,0-.069-.254-.132-.971-.48" fill="#fff"/><path d="M738.844,128.445l-.835-.93a7.637,7.637,0,0,0-.789,1.085c-.027.054.454.441.6.4a4.527,4.527,0,0,0,1.02-.555" fill="#fff"/><path d="M772.623,130.712c.292.119.818-.207,1.548-.428l-1.916-1.557c-.185.322-.579.688-.506.955a1.7,1.7,0,0,0,.874,1.03" fill="#fff"/><path d="M734.8,133.031l2.887.329.111-.657-2.876-.407c-.041.245-.081.49-.122.735" fill="#fff"/><path d="M803.492,135.094l.641.805,2.459-1.822-.526-.579-2.574,1.6" fill="#fff"/><path d="M845.295,142.765l1.084-.045-.405-2.455-.943.082.264,2.418" fill="#fff"/><path d="M727.693,143.913l.471.334,1.946-1.551-.867-.705q-.774.962-1.55,1.922" fill="#fff"/><path d="M718,146.251l-1.884-2.171c-.309,1.684-.5,3.387,1.884,2.171" fill="#fff"/><path d="M718,146.251l.04.047h0c.041,0,.082-.007.123-.01-.013-.032-.029-.062-.042-.1-.044.023-.08.039-.122.06" fill="#fff"/><path d="M825.76,145.208h3.6c-2.213-1.069-2.213-1.069-3.6,0" fill="#fff"/><path d="M695.748,150.68c-.887.049-1.783.1-2.919.165,1.682,1.816,2.5,1.509,2.919-.165" fill="#fff"/><path d="M695.863,150.673l-.091-.084c-.007.031-.016.059-.024.09l.115-.006" fill="#fff"/><path d="M779.706,152.649a3.659,3.659,0,0,0,1.26.329c.341-.038.633-.412,1.141-.777-.606-.271-1.1-.649-1.311-.552a4.391,4.391,0,0,0-1.09,1" fill="#fff"/><path d="M697.633,152.34q-1.813.756-3.627,1.509c1.429-.189,3.652.68,3.627-1.509" fill="#fff"/><path d="M697.633,152.34l.158-.064-.038-.034.038.031-.16-.136c.382-.179,1.114-.406,1.092-.53-.434-2.433-1.747-3.331-4.986-3.412l2.1,2.448,1.793,1.5c.005.071,0,.132,0,.2" fill="#fff"/><path d="M751.311,162.586l.243-.39-2.279-1.073c-.081.124-.162.248-.244.371l2.28,1.092" fill="#fff"/><path d="M724.293,169.593l-2.551,1.861c2.316-.255,2.316-.255,2.551-1.861" fill="#fff"/><path d="M821.859,176.82q-.078-1.518-.157-3.035l-1.312.084q.361,1.525.721,3.052l.748-.1" fill="#fff"/><path d="M685.538,179.007c.119.226.2.616.364.649a15.262,15.262,0,0,0,1.863.163c-.008-.271-.016-.541-.023-.812Z" fill="#fff"/><path d="M716.487,181.578l-.672,2.4.928.168q.267-1.218.533-2.436l-.789-.134" fill="#fff"/><path d="M781.465,39.7a3.363,3.363,0,0,0-.816.1c-.019.7.032,1.4.067,2.1l1.231-.032c-.148-.725-.287-1.452-.482-2.167" fill="#fff"/></g></g></svg>