<svg xmlns="http://www.w3.org/2000/svg" xmlns:xlink="http://www.w3.org/1999/xlink" width="229.66" height="215.057" viewBox="0 0 229.66 215.057"><defs><clipPath id="a"><rect width="229.66" height="215.057" transform="translate(1984.29 678.134)" fill="none"/></clipPath></defs><g transform="translate(-1984.29 -678.134)" opacity="0.4"><g clip-path="url(#a)"><path d="M2209.044,738.867c2.28-.183,2.149,3.205,4.911,1.877v-.791l-3.173-3.234-1.738,2.148" fill="#fff"/><path d="M2213.955,788.249V783.5c-.835,1.583-1.979,3.166,0,4.75" fill="#fff"/><path d="M2213.955,723.327v-3.959c-.689,1.32-2.826,2.639,0,3.959" fill="#fff"/><path d="M2213.955,732.036v-3.167l-1.537,1.064,1.537,2.1" fill="#fff"/><path d="M2213.955,768.456V764.5c-1.456,1.32-1.576,2.639,0,3.96" fill="#fff"/><path d="M2177.631,696.927l0,.007c.02.007.039.01.059.017Z" fill="#fff"/><path d="M2162.217,707.622c.38,1.217.79,2.425,1.165,3.643.017.057-.239.153-.272.256-1.081,3.324-.461,4.108,3.164,4.26a9.478,9.478,0,0,1,2.236.609c.2,1.047.363,1.9.637,3.332,1.336-2.24,2.278-3.818,3.194-5.353-.6-1.576-1.522-2.808-3.535-2.746-.389.012-.757.59-1.135.908l1.079.994c-3.3.145-3.786-.221-3.21-2.309a3.251,3.251,0,0,0-.186-1.4c-.091-.443-.458-1.187-.318-1.27,2.739-1.626,1.718-4.423,2.441-6.725a14.687,14.687,0,0,0,2.329.129,7.958,7.958,0,0,0,1.986-.57c2.31-.892,3.489-.533,4.163,1.584a12.736,12.736,0,0,1,.277,3.432c.04,1.257.009,2.515.009,4.3,3.319-1.271,5.208,2.262,8.17.789-2.34-1.345-3.285-4.207-6.663-4.427,0-.262.008-.523.012-.785l4.6-2.322,2.566,3.568,2.343-1.015c-2.178-1.656-2.178-1.656-2.566-3.606l5.1.217c-2.709-2.027-6.083-2.414-6.436-5.616a8.677,8.677,0,0,0-2.132-.331c.78,1.331.595,1.781-2.37,5.659.014-1.121.522-2.244.361-3.284-.143-.919-1.025-1.745-1.585-2.612-3.393-1.189-4.97,1.987-7.675,2.713l-1.518-2.526c-1.719,2.415-3.225,4.491-4.672,6.6-.251.367-.512,1.044-.319,1.291,1.217,1.554-1.588,1.476-1.234,2.61" fill="#fff"/><path d="M2154.192,687.761h0l.126-.122-.064.061Z" fill="#fff"/><path d="M2147.188,686.924c-.007-.027-.016-.051-.023-.078-.02,0-.041,0-.06,0l.1.129-3.153-.739,4.213,3.821c-.888.885-3.682.574-2.009,3.355,2.519-1.958,3.589,3.361,6.721.479-.175.713-.15,1.013-.3,1.17-.876.9,1.289,2.608-1.427,3.286-1.308.327-2.266,1.422-4.1,1.146-1.118-.167-2.457.862-3.7,1.354,1.955.471,2.486,1.455,2.579,2.852.017.249.456.476.769.78.332-1.213.613-2.238.893-3.263l.844.1q-.152,2.066-.3,4.132l.633.145.838-1.672,2.637,1.142-2.436-4.318c3.381-2.1,6.76-4.355,11.377-3.284-.051-1.032-.086-1.739-.129-2.612l3.05.719.011.041h0l.068-.052-.074-.008a.1.1,0,0,0,0,.035c-.337-1.637-.592-3.348-3.443-3.066a6.092,6.092,0,0,1-4.26,3.823l-.781-.556,1.878-2.51c-1.8.688-1.8.688-3.7-.311,1.547-1.205,2.878-1.471,4.169.167-1.223-1.829-.7-4.681-3.868-5.373l-2.945,2.869-4.061-3.707" fill="#fff"/><path d="M2119.432,837.17l-1.647,4.721a6.6,6.6,0,0,1-2.113-.427c-2.821-1.853-2.835-1.779-4.628.566-.8,1.046-2.262,1.679-3.424,2.5.727-2.211.727-2.211-.977-4.742-3.376.847-5.619.333-8.06-2.114l-2.4,4.068,3.245,1.469.688-3.222,10.7,7.767,3.735-4.522,2.182,3.092,1.12-2.882,4.681,4.324q.225-.141.448-.284c-.85-1.692-1.7-3.385-2.515-5.01,1.3-1.263,4.718,2.186,4.48-1.857l-4.658.72c-1.252-1.507,1.792-2.85-.853-4.167" fill="#fff"/><path d="M2066.363,794.633l-2.6-.622-.266.525,1.953,1.388-1.581,1.559c.1.26.2.519.292.779l4.9-.3,1.942,2.033-2.365,2.3,4.383.257,3.5-6.868-.758-.666-3.834,1.633a4.732,4.732,0,0,1-.382-1.1c-.057-.641,0-1.29,0-1.936l-2.066.52c-.507-.583-1.075-1.235-1.963-2.254-.5,1.2-.816,1.942-1.156,2.751" fill="#fff"/><path d="M2071.548,793.609v.007l.024-.006Z" fill="#fff"/><path d="M2096.382,720.108c-.064,1.291.21,2.68-.285,3.791a8.138,8.138,0,0,1-2.707,2.726,19.931,19.931,0,0,1-3.541,1.495h4.664l2.532-2.331c-.055-2.116.893-3.9,1.723-5.849.78-1.834,3.075-2.816,2.949-5.01l3.637-.738c-2.934-1.9-2.933-1.891-5.325-1.474-1.118.2-2.238.376-3.357.562a.651.651,0,0,1,.171.282c.756,1.963-2.042,1.287-2.294,2.5l2.355.423-3.18,2.333c-.045,2,1.63,1.138,2.658,1.286" fill="#fff"/><path d="M2096.353,713.333l.319-.053a.142.142,0,0,0-.037-.024.483.483,0,0,0-.282.077" fill="#fff"/><path d="M2177.918,777.16l-.042.024.106.052c.005-.044.015-.079.019-.125l-.146.026.021.047.042-.024" fill="#fff"/><path d="M2173.571,778.038h0c-.007-.042-.015-.084-.022-.126l-.063.011v.051Z" fill="#fff"/><path d="M2184.237,767.4c-.6,2.8-2.645,2.7-5.027,1.956l-1.758,3.233c-1.535,0-3.063-.032-4.588.023a6.046,6.046,0,0,0-1.542.672l4.22,1.536-2.432.6c.154.875.3,1.684.439,2.492l4.3-.774-1.176-2.574c1.8-.529,3.537-.638,4.617-1.451,1.54-1.16,2.858.3,4.1-.173,1.268-.479,2.7-1.057,1.811-2.871a13.259,13.259,0,0,1-.651-3.2c-.878.186-2.261.241-2.323.529" fill="#fff"/><path d="M2080.309,704.777c5.462-1.864,6.038,2.741,8.727,3.882l-1,3.995.781.247,5.287-6.222c-4.008.476-6.8-.152-8.585-3.381l8.626-2.3c-4.368-1.383-7.184.053-10.48,1.543l1.541-2.039-2.91-1.463-1.984,5.734" fill="#fff"/><path d="M2141.263,747.148c1.569-.545,1.814-1.7,1.752-3.17-.084-1.98,1.219-2.651,3.265-1.875,1.111.422,2.142,1.014,3.313,1.579.615-4.924.615-4.924-3.107-6.311l.35,2.509a11.377,11.377,0,0,1-2.693.584c-3.984-.08-4.211.1-3.515,3.474.406,1.967.006,2.229-2.393,1.671a6.506,6.506,0,0,0-1.51.051c1.159,2.182,2.834,2.08,4.538,1.488" fill="#fff"/><path d="M2141.153,875.125l-.07.044.1.1c-.013-.046-.02-.1-.03-.144" fill="#fff"/><path d="M2144.409,876.655c-.479-4.3,3.1-4.919,6.57-5.738-.171-.641-.33-1.237-.528-1.977L2148,870.066c-.246-.978-.438-1.738-.63-2.5-2.258.642-.492,2.4-1.04,3.048-.9,1.066-2.642,1.557-3.873,2.208-4.561-2.944-1.171-5.807-.053-8.623-2.442-.548-3.415.381-3.312,2.1.152,2.552-.6,5.291,1.649,7.507.306.3.313.849.415,1.318l1.165-.724c1.124.675-.536,2.981,2.091,2.254" fill="#fff"/><path d="M2154.576,684.176l-3.677-1.051c-.048.989-.1,1.991-.146,2.992a2.782,2.782,0,0,0,3.449,1.542c.076-1.418,1.056-2.116,2.392-2.795,1.909-.969,3.619-2.256,5.746-3.619-1.289-.523-2.031-.814-2.763-1.121-.889-.374,1.132-2.036-1.01-1.866l.121-.11-.114-.014c0,.04,0,.079-.007.118-1.83,1.594-4.033,2.961-3.991,5.924" fill="#fff"/><path d="M2154.256,687.7l.064-.061c-.041.009-.077.012-.117.02,0,.035-.01.066-.011.1l.064-.061" fill="#fff"/><path d="M2150.75,686.173l0-.056c-.019-.039-.042-.071-.059-.111l.056.167" fill="#fff"/><path d="M2057.24,784.144c2.238,1.468,2.278,1.549,4.063.827,2.388-.965,4.6-1.491,6.417,1.333,1.084-2.149,5.2-.967,5.008-4.581-2.853.441-5.5,2.144-8.073,1-2.949-1.315-4.817.062-7.415,1.424" fill="#fff"/><path d="M2176.074,694.27l-3.992-1.512,2.13-4.089h-3.887l-2.789,4.117c.553.974,1.152,2.029,1.472,2.594l7.066-1.11" fill="#fff"/><path d="M2055.887,723.5c-.848.927-1.7,1.854-2.558,2.8l-2.728-.692c.171,2.278.321,4.273.469,6.27,3.481-.208,1.629-3.815,3.767-4.909l3.535,1c.392-1.373.786-2.753,1.244-4.351-1.4.036-2.709,1.234-3.729-.118" fill="#fff"/><path d="M2085.96,789.51l-4.4,1.2-1.223-2.376-4.766,1.009c3.388.5,6.128,1.5,6.888,4.906l7.376-1.988-3.878-2.747" fill="#fff"/><path d="M2191.717,711.984c-1.152.052-3.329-.266-3.6.239a2.4,2.4,0,0,1-3.162,1.279l-2.9,3.963c2.075,1.172,2.669-1.126,3.962-1.285l2.514,1.408c1.156-2.037,2.167-3.816,3.182-5.6" fill="#fff"/><path d="M2197.867,779.393c-.636-.742-1.275-1.486-2.262-2.634-.85,2-4.921,1.456-3.114,4.841.318-2.179,3.332,1.036,3.329-2.068,2.475,1.059,4.618,2.321,6.093-.476.122-.231,1.081-.124,1.651-.136.89-.018,1.781-.005,2.671-.005-3.014-1.68-5.822-1.542-8.368.478" fill="#fff"/><path d="M2049.15,701.4c.178.133,1.418-.883,2.423-1.531l-3.329-.886q-.745-1.895-1.4-3.566c-3.856.19-1.157,2.151-1.292,3.457h-2.715l-1.068,2.89c2.577.54,4.774-2.321,7.383-.364" fill="#fff"/><path d="M2088.436,719.7c-2.415-.734-2.78,1.275-3.916,1.618.585,1.749,1.136,3.391,1.69,5.045l8.735-4.669h-8c.582-.782.972-1.3,1.487-1.994" fill="#fff"/><path d="M2133.79,811.587l-.005-.005-.008.006h0l.015,0" fill="#fff"/><path d="M2125.169,811.254l.116-.085c0-.014-.011-.029-.015-.043l-.065.082c-2.082,1.021-4.509,1.722-5.66,5.117,2.027-.957,3.2-1.553,4.416-2.068a3.988,3.988,0,0,1,1.842-.459c2.1.248,4.076.492,5.679-1.266.479-.526,1.512-.641,2.293-.943l-5.871.776-2.735-1.111" fill="#fff"/><path d="M2091.562,855.376l-2.833-3.3-3.877,1.826c-.111-1.045-.075-2.2-1.827-1.971l-1.247,2.911,1.726.1c-.386,1.837,1.432,1.712,2.478,2.139,2.472,1.008,3.14-1.877,5.58-1.7" fill="#fff"/><path d="M2148.36,753.609c-.244-.543-.485-1.078-.759-1.689-2.912.14-4.245,2.072-5.667,3.9l-.05-.049-.061.028c-.661-2.862-2.35-1.4-4.423-.573l2.963,1.26c.708.491,1.379,1.331,2.133,1.4,1.272.111.739-.655.319-1.181,1.087-.675,2.178-1.345,3.329-2.051l3.043,1.229c.863-.864,1.672-1.606,2.373-2.423.182-.212.027-.659.027-1.392l-3.227,1.549" fill="#fff"/><path d="M2194.558,728.9l.011.031.082-.09-.093.059" fill="#fff"/><path d="M2183.171,729.869c2.868,2.306,6.029.129,7.988,1.19l3.4-2.158c-.305-.846-.612-1.7-1.215-3.383-2.587,3.843-6.319,3.8-10.173,4.351" fill="#fff"/><path d="M2121.812,828.284q.33.468.662.935c1.277-1.267,3.7-.452,4.391-2.611.571-1.8,1.7-2.289,3.554-1.84,1.247.3,2.33.377,2.558-1.343l-4.954-.589c-2.085,1.83-4.148,3.639-6.211,5.448" fill="#fff"/><path d="M2089.879,864.548l3.536-.358L2091.1,862.8l3.845-3.087c-.725-1.086-1.362-2.044-2-3l-4.035,3.846c.3,1.245.649,2.682.965,3.987" fill="#fff"/><path d="M2135.161,761.96l.024-.02c-.058.012-.117.029-.175.046.01.023.018.05.03.074l.007-.007c.044-.005.088-.013.133-.019,0-.031,0-.063.005-.094Z" fill="#fff"/><path d="M2135.826,767.64l1.345.537c-.155-2.062,2.4-1.757,3.261-2.973.221-.309,1.128-.219,1.719-.313-.016-.257-.032-.513-.047-.77l-4.3-.619c.122-.693.221-1.252.338-1.913l-2.959.445q-.117,2.035-.232,4.072l.878,1.534" fill="#fff"/><path d="M2189.336,697.141c-.258.05-.514.109-.946.2v2.771h5.926c.573-1.543,1.2-3.217,1.931-5.2a31.165,31.165,0,0,0-3.881,1.8c-.172.106.447.876-.724,1.386-1.673.728-1.346-1.142-2.306-.955" fill="#fff"/><path d="M2145.018,777.287c1.474,1.52,2.38.077,3.95-.85l1.207,2.313,1.13-.356c.441-1.142.882-2.285,1.378-3.568-5.426-.371-5.426-.371-7.665,2.461" fill="#fff"/><path d="M2055.573,714.741c-.531-.668-2.1-.666-3.2-.967-.129.253-.26.507-.389.76l1.868,1.565a14.939,14.939,0,0,0-3.1,1.006,2.4,2.4,0,0,0-1.129,1.759,2.172,2.172,0,0,0,1.193,1.725,2.764,2.764,0,0,0,2.077-.884c.586-.637.557-1.916,1.222-2.272,1.3-.7,2.435-1.463,1.46-2.692" fill="#fff"/><path d="M2069.53,690.343c-1.093-.523-1.413-2.31-3.339-1.6L2067.56,693c2.654-.2,2.654-.2,3.829,1.633.7-1.229,1.362-2.409,2.227-3.937-1.633-.1-3.073.136-4.086-.349" fill="#fff"/><path d="M2209.282,778.61c-2.579,3.325-2.712,5.82-.354,9.165.269-2.961,2.693-5.827.354-9.165" fill="#fff"/><path d="M2137.5,685.38q.442-.42.885-.838c.584-.271,1.171-.534,1.752-.81.92-.438,1.835-.882,2.752-1.323-.285-.784-.574-1.576-.92-2.521l-2.559-.409c.3,1.112.567,2.136.681,2.563-2.591,1.815-4.742,3.323-6.888,4.828.094.424.188.851.293,1.323,1.478-1.037,2.741-1.925,4-2.813" fill="#fff"/><path d="M2189.632,783.626l-2.555,2.7a19.143,19.143,0,0,0,3.059.763c2.938.209,3.794.944,3.591,3.553l1.661-4.253,2.718-.6,1.908-1.715c-1.172.084-2.922-1.793-2.914.563-1.249-.15-2.292-.081-1.934,1.478l-4.488-.673-1.046-1.82" fill="#fff"/><path d="M2193.508,791.207l.034.11c.04.011.081.019.12.031l-.006-.005c.032-.248.053-.477.071-.7Z" fill="#fff"/><path d="M2206.891,745.014c-1.017.864-.5.512.788,1.828,1.6,1.633,3.361-.569,4.853,1.11-.287-2.483-3.026-3.03-2.2-5.568-1.557,1.181-2.544,1.864-3.445,2.63" fill="#fff"/><path d="M2133.16,686.888l-.044.043.087-.061,0-.019h0l-.181-.052.1.133.044-.043" fill="#fff"/><path d="M2124.821,688.225l2.255.635c.907-1.267,1.686-2.353,2.24-3.126l3.7,1.064c-1.154-1.558-2.305-3.112-3.372-4.554l-4.824,5.981" fill="#fff"/><path d="M2094.9,874.787c-3.188.19-2.244-2.5-3.137-3.408l-3.686,3.14c2.626,2.768,3.573,2.853,6.823.268" fill="#fff"/><path d="M2143.985,683.4c1.916.9,2.707,1.706,3.179,3.446,1.21-.055,2.684.807,3.468-.724-3.732-1.51-5.14-3.74-4.42-6.994-1.889.445-2.645,1.811-3.24,3.309a4.009,4.009,0,0,0,1.013.963" fill="#fff"/><path d="M2150.694,686.006c-.019.043-.041.077-.062.117.041.016.078.034.118.05l-.056-.167" fill="#fff"/><path d="M2095.194,777.407l-2.6,1.572c.161.85.252,1.324.325,1.709l-4.414,1.253,6.145,1.78c.185-2.143.365-4.232.545-6.314" fill="#fff"/><path d="M2168.737,762.52c1.125-.257,2.8-.2,3.26-.84.842-1.175,2.131-.942,2.98-1.5.532-.347.1-1.9.1-2.606a20.741,20.741,0,0,1-3.841,1.344c-2.2.325-3.019,1.3-2.5,3.6" fill="#fff"/><path d="M2161.791,690.759c1.4.06,3.2.149,3.728-1.929-1.919-.443-4.632.163-4.283-2.738,2.022-.005,4.474.53,4.029-3.515-.962,2.435-3.212,1.785-4.32,3.028h-2.455c.676,1.214,1.533,2.024,1.427,2.714-.234,1.515.452,2.379,1.874,2.44" fill="#fff"/><path d="M2084.576,690.049c4.114-.3,5.955-2.959,7.954-5.566-2.436,1.99-5.138,3.094-8.235,2.55.1,1.071.178,1.913.281,3.016" fill="#fff"/><path d="M2184.922,795.062l1.026.05c.354-2.427.707-4.853,1.079-7.4l-2.622-.639c.127.212.405.548.345.607-2.7,2.653-.254,4.954.172,7.386" fill="#fff"/><path d="M2122.572,794.84a3.267,3.267,0,0,0,1.031-.107c.431-.947.9-1.979,1.488-3.26h-4.2l-.669-2.4c.247,2.106-.746,4.716,2.347,5.77" fill="#fff"/><path d="M2159.994,876.813c-1.328,3.18,1.844,4.955,1.227,7.219l4.159-.836-5.386-6.383" fill="#fff"/><path d="M2087.73,749.938c-.809,1.442.266,1.927,1.477,2.125,2.273.372,4.592.464,6.344-1.2.326-.31-.087-1.253-.2-2.3-5.383,2.355-5.383,2.355-7.619,1.369" fill="#fff"/><path d="M2154.473,797.989c-.22-1-1.078-1.288-2.364-1.01-.963.209-2.091-.2-3.612-.4a13.563,13.563,0,0,0,2.512,2.538,10.07,10.07,0,0,0,3.562,1.07c1.169.157,2.481.119,3.149-1.089-1.023-1.012-2.791.962-3.247-1.114" fill="#fff"/><path d="M2169.626,750.16l-7.253-2.124c1.974,3.724,3.526,4.124,7.253,2.124" fill="#fff"/><path d="M2155.374,806.09c-.473-.085-1.166.148-1.436-.077-1.846-1.537-1.819-1.564-3.573-1.365,2.072,3.54,2.832,3.79,8.939,2.308-1.952-.437-2.933-.687-3.93-.866" fill="#fff"/><path d="M2148.559,879.377l2.262,1.561,5.125-2.4c-3.887-1.4-7.848-.59-7.387.84" fill="#fff"/><path d="M2055.7,719.361c1.867.3,3.575,1.033,4.887.653,1.217-.353,2.044-1.8,3.027-2.809-2.946-.476-5.781-.614-7.914,2.156" fill="#fff"/><path d="M2063.614,717.205l.2.032-.119-.121c-.028.028-.055.06-.083.089" fill="#fff"/><path d="M2142.184,887.768a3.159,3.159,0,0,1,4.13-.868c1.074.461,2.256-.214,1.689-1.779-.659.09-1.624.458-1.9.208a5.747,5.747,0,0,1-1-2.005l-.861.894c-1.4-.085-1.881,2.257-3.7,1.045-.04.753-.081,1.507-.128,2.39.723.06,1.566.331,1.768.115" fill="#fff"/><path d="M2109.431,817.639v1.934l6.65-.5,2.569,1.476.421-.462-1.875-2.446Z" fill="#fff"/><path d="M2144.548,843.8l-3.54,1.376,4.716,5.635,1.469-2.475h-2.353c-.085-1.324-.17-2.645-.292-4.536" fill="#fff"/><path d="M1990.735,776.1l-2.312,4.685,3.844.318c1.385-3.548,1.385-3.548-1.532-5" fill="#fff"/><path d="M2103.706,881.169l7.454,1.292c-2.351-3.335-3.758-3.5-7.454-1.292" fill="#fff"/><path d="M2173.682,778.752a4.934,4.934,0,0,1,2.753,4l3.132-1.6c-3.5-1.171.788-2.119-.495-3.383l-1.09-.537c-.345,2.866-2.788,1.181-4.3,1.515" fill="#fff"/><path d="M2133.892,825.938l.164.653,6-.832,0,.025.015-.026h-.011c.392-1.26.784-2.521,1.27-4.086-2.75.889-2.75.889-4.27,3.45l-3.165.816" fill="#fff"/><path d="M2069.065,755.4c-.336.112-.4.877-.593,1.342,1.744.371,1.152,3.327,4.09,2.748l-.969-2.778,2.355-2.018a12.923,12.923,0,0,0-4.883.706" fill="#fff"/><path d="M2153.951,830.931c.32-.013.591-.992.88-1.6-3.573,0-7.157-.068-10.578,1.38a73.583,73.583,0,0,0,9.7.219" fill="#fff"/><path d="M2077.256,785.608l2.084-1.431c-.635-1.18-1.147-2.133-1.657-3.082l-4.224-1.794,3.8,6.307" fill="#fff"/><path d="M2077.647,781.029l.036.066c.026.011.054.022.079.034l-.115-.1" fill="#fff"/><path d="M2144.595,889.6c.04-.047.082-.088.122-.132l-.253.046h0l.083.08.029.029-7.548,2.844c1.379.348,2.278.869,2.944.689,2.2-.6,4.3-1.447,6.615-2.259l-1.99-1.3" fill="#fff"/><path d="M2122.232,760.56l4.518.489c.286-.818.62-1.772.951-2.717l-2.477-1.374-2.992,3.6" fill="#fff"/><path d="M2102.235,764.4c2.813.63,3.467.439,6.061-1.653.827-.667,1.821-1.3.581-2.61-1.087,2.956-5.185,1.439-6.642,4.263" fill="#fff"/><path d="M2102.688,754.54l3.826-2.254-3.826-3.6Z" fill="#fff"/><path d="M2123.148,857.924l-.738.056-1.048,1.182c3.062,1.842,5.99,1.81,8.586,0l-6.8-1.241" fill="#fff"/><path d="M2108.076,708.135c-.475.454-.5,1.291-.729,1.954l-.066.028c3.3.858,3.587-2.259,5.375-3.392a8.091,8.091,0,0,0-.771-1.54,44.589,44.589,0,0,0-3.809,2.95" fill="#fff"/><path d="M2173.5,778.727c0,.023,0,.045,0,.068a1.667,1.667,0,0,1,.178-.043c-.036-.018-.067-.04-.106-.057l-.073.032" fill="#fff"/><path d="M2170.481,775.685c-2.257,2.308-2.257,2.308-.01,4.388l3.031-1.345c0-.251-.01-.5-.015-.753l-3.006-2.29" fill="#fff"/><path d="M2106.679,836.4l5.441-1.535c-1.684-.936-3.231-1.8-4.86-2.7-3.235,1.19,1.613,2.6-.581,4.238" fill="#fff"/><path d="M2143.456,859.739l2.882,1.435,3.228-4.366c-3.724-1.3-3.919,1.884-6.11,2.931" fill="#fff"/><path d="M2075.1,772.524c3.811.879,1.622-5.08,5.817-3.592l-3.372-1.986c-.884,2.018-1.652,3.77-2.445,5.578" fill="#fff"/><path d="M2105.138,859.318c-1.6.814-1.28,2.488-.876,3.743.647,2.009,2.484,2.447,5.193,2.041-1.5-.989-2.545-1.675-3.567-2.349.122-1.041.238-2.037.355-3.032l-1.1-.4" fill="#fff"/><path d="M2097.2,861.86c-1.8,2.44,1.957,3.642,1.514,5.775,1.882-3.511,1.757-3.89-1.514-5.775" fill="#fff"/><path d="M2121.422,692.394c.136.522.152,1.42.443,1.5,1.577.436,1.15-.376.71-1.113a8.592,8.592,0,0,0,1.477-.588c.8-.5,1.525-1.089,2.608-1.878l-5.557.794c.1.4.2.845.319,1.285" fill="#fff"/><path d="M2112.293,698.662c.507,2.637,1.249,4.88,3.966,6.609.1-2.737-1.54-4.561-2.415-6.588-.07-.161-1-.021-1.551-.021" fill="#fff"/><path d="M2125.343,755.446c.531-.079.948-.155,1.37-.2.525-.059,1.053-.1,1.552-.139.142-3.794.142-3.794-4.093-2.217l1.171,2.558" fill="#fff"/><path d="M2158.047,752.139c.709-1.77,1.361-3.558,2.124-5.6l-3.8,1.9a7.757,7.757,0,0,1,1.038,2.076c.09.547-.355,1.166-.652,2.007.773-.219,1.227-.236,1.286-.382" fill="#fff"/><path d="M2072.365,746.086c2.585-.036,1.633-2.14,2.506-3.556l-4.882.536c.222,1.681.552,3.046,2.376,3.02" fill="#fff"/><path d="M2085.334,778.081l.979-.619-2.071-3.7-3.912,1.134,5,3.186" fill="#fff"/><path d="M2095.06,856.905c.189-2.331.364-4.481.593-7.3l-4.079,4.571c2.8.948,2.8.948,1.385,2.533l-.007,0h0l0,0,0,0c.689.061,1.376.126,2.106.193" fill="#fff"/><path d="M2070.685,724.635a8.809,8.809,0,0,0-1.216.967l5.455,2.383-1.279-4.516c-1,.388-1.989.758-2.96,1.166" fill="#fff"/><path d="M2101.583,787.612l2.485-.764c-.422-1.535-.768-2.8-1.124-4.1l-2.581,1.885c.384.936.76,1.854,1.22,2.974" fill="#fff"/><path d="M2058.482,838.783l-1.938,3.82.636.754,4.015-1.851-2.713-2.723" fill="#fff"/><path d="M2108.9,809.425c2.646,3.992,2.646,3.992,6.049,1.863-2.941.472-3.289-3.329-6.049-1.863" fill="#fff"/><path d="M2162.94,756.132l1.811-3.526c-.519-.33-1.054-.8-1.177-.728-1.71,1.047-3.363,2.168-5.05,3.283l4.416.971" fill="#fff"/><path d="M2128.323,700.485c1.129-.9,2.262-1.8,4.122-3.274-3.039-.451-4.975-1.233-5.958,1.139l1.836,2.135" fill="#fff"/><path d="M2050.082,695.951c.069-.026.128-.047.2-.071-.024-.005-.044-.013-.069-.017l-.019.013-.088-.083c-.007.053-.014.106-.02.158" fill="#fff"/><path d="M2053.268,692.93c-1.293-1.262-1.293-1.262-5.962.247l2.8,2.616c.085-.709.18-1.425.276-2.138l2.89-.725" fill="#fff"/><path d="M2098.455,851.952c1.3-.85,1.858-1.205,2.406-1.569.694-.462,1.383-.932,2.243-1.512l-2.557-2.708c-.763,2.11-1.3,3.606-2.092,5.789" fill="#fff"/><path d="M2058.978,768.383c4.138-1.383,4.754-2.914,2.1-5.36l-2.1,5.36" fill="#fff"/><path d="M2054.454,705.952l4.382-4.166-.042,0c-3.894-.413-4.683.436-4.34,4.163" fill="#fff"/><path d="M2100,772.715l-4.257-.927c-.057.9-.1,1.616-.147,2.335l2.487,1.792,1.917-3.2" fill="#fff"/><path d="M2095.6,774.123l-.1-.074.1.089v-.015" fill="#fff"/><path d="M2104.432,771.84c-1.281,1.334-2.281,2.375-3.449,3.593h5.145c-.694-1.468-1.116-2.363-1.7-3.593" fill="#fff"/><path d="M2115.726,807.928l-2.26,1.879.165.759h6.168l-4.073-2.638" fill="#fff"/><path d="M2121.555,834.332l5.637,2.776c-2.244-4.111-4.085-4.8-5.637-2.776" fill="#fff"/><path d="M2186.489,797.392l-1.011-.2c-.244.913-.172,2.138-.81,2.662-.821.676-2.211.791-3.356,1.147l.15.533h3.976l1.051-4.142" fill="#fff"/><path d="M2197.678,730.572h0v0Z" fill="#fff"/><path d="M2197.679,730.572v1.446c1.848-.854,4.206-.426,5.244-2.686l-2.524-1.059-2.72,2.3" fill="#fff"/><path d="M2124.2,886.415c-.8,2.07-2.454,1.96-4.448,1.893l4.708,1.289c.36-1.229.716-2.448,1.073-3.666-.522.137-1.229.215-1.333.484" fill="#fff"/><path d="M2125.53,885.931c.061-.016.121-.032.176-.05l-.139-.077c-.012.043-.025.085-.037.127" fill="#fff"/><path d="M2085.342,780.694a20,20,0,0,0-3.379,2.5c1.514.217,2.708.636,3.825-.742.38-.47,1.6-.388,2.484-.525-.059-2.075-1.627-1.821-2.93-1.228" fill="#fff"/><path d="M2088.362,781.927l-.086.079.228-.064-.12-.035h0c-.035.007-.075.01-.111.016,0,.029,0,.053,0,.083l.086-.079" fill="#fff"/><path d="M2199.845,735.13l1.253,3.391,3.139.233c-1.309-1.487-1.379-4.122-4.392-3.624" fill="#fff"/><path d="M2212.316,798.621c-5.96.194-5.96.194-7.466,1.216l5.227,1.165,2.239-2.381" fill="#fff"/><path d="M2083.669,717.183a2.359,2.359,0,0,0,1.689.678,37.656,37.656,0,0,0,4.034-1.288c.091-.2.183-.394.274-.591-1.857-.042-3.716-.122-5.569-.066-.178.005-.6,1.1-.428,1.267" fill="#fff"/><path d="M2124.662,772.342l-6.744,2.578c2.669.249,5.705,1.32,6.744-2.578" fill="#fff"/><path d="M2147.378,715.783c1.262.977,3.7,1.1,6.066.169-1.27-1.279-1.27-1.279-6.066-.169" fill="#fff"/><path d="M2120.54,745.414l4.781-2.767-6.145-.581,1.364,3.348" fill="#fff"/><path d="M2069.547,804.225l-.678-.2c-.4.807-.8,1.613-1.185,2.4h-2.793l-.192.783,4.405,1.5c.179-1.815.311-3.151.443-4.488" fill="#fff"/><path d="M2143.835,823.106c2,1.974,4.041.968,6.437.29-2.333-3.142-4.408-.285-6.437-.29" fill="#fff"/><path d="M2191.681,767.08a5.284,5.284,0,0,0-.656.92c3.173,2.852,3.22,2.867,5.164,1.857l-3.383-3.626a10.949,10.949,0,0,0-1.125.849" fill="#fff"/><path d="M2076.556,762.37c-.438-1.713-.833-3.255-1.4-5.465-2.583,3.369-2.272,4.261,1.4,5.465" fill="#fff"/><path d="M2102.327,692.954l2.2-3.974-4.525-.729,2.326,4.7" fill="#fff"/><path d="M1996.849,770.277v-5.36c-3.314,3.108-3.29,3.627,0,5.36" fill="#fff"/><path d="M2093.372,845.169c-3.542.415-3.542.415-3.73,4.312,1.007-2.208,4.481-1.033,3.73-4.312" fill="#fff"/><path d="M2177.251,758.926l.455.694c1.559-.882,3.118-1.765,4.875-2.758-2.582-.863-2.582-.863-5.33,2.064" fill="#fff"/><path d="M2060.685,802.885l3.119,1.615,2.11-2.833c-2.211.308-4.133-1.261-5.229,1.218" fill="#fff"/><path d="M2063.7,717.112s.12.125.12.125c.011-.055.023-.112.034-.167l-.154.042" fill="#fff"/><path d="M2064.741,712.622c-.351,1.752-.623,3.108-.892,4.448,3.338-.893,3.632-1.754.892-4.448" fill="#fff"/><path d="M2106.977,743.6c-.344-1.615-.688-3.231-1.095-5.137-2.135,2.04-2.145,3.687,1.095,5.137" fill="#fff"/><path d="M2043.128,887.5c.058-.381.117-.762.174-1.143-.881-.271-1.888-.927-2.616-.733-1.641.437-2.124,1.573-.95,3.241l3.392-1.365" fill="#fff"/><path d="M2112.05,727.611c-2.682-1.03-4.159.416-6.455,1.351,2.9.936,4.794.772,6.455-1.351" fill="#fff"/><path d="M2115.95,838.275l2.178-4.478-4.488,1.036c.538.718.925,1.2,1.269,1.7.293.431.537.89,1.041,1.738" fill="#fff"/><path d="M2082.476,758.877a1.422,1.422,0,0,0,.6,1.255c1.37.877,2.064-.122,2.748-.975.243-.3.417-.652.892-1.408a12.013,12.013,0,0,1-1.608-.192,1.92,1.92,0,0,0-2.628,1.32" fill="#fff"/><path d="M2193.575,773.914c.969-1.186-.384-1.912-1.413-2.587-.853,1.129-1.545,2.043-2.236,2.958l.222.813c1.177-.371,2.816-.437,3.427-1.184" fill="#fff"/><path d="M2112.64,791.75l4.226-.673c-.87-1.431-1.666-2.739-2.667-4.384-.58,1.88-1.043,3.385-1.559,5.057" fill="#fff"/><path d="M2142.354,795.5l4.5-4.548-4.913.464c.148,1.479.259,2.585.409,4.084" fill="#fff"/><path d="M2159.839,700.811l-2.978-.724-1.074,3.725c3.144-.142,2.645-2.25,4.052-3" fill="#fff"/><path d="M2203.663,797.068l-.006-.035c-.039-.022-.076-.04-.115-.064Z" fill="#fff"/><path d="M2204.907,794.818c-1.653.295-1.416,1.225-1.25,2.215,1.8,1.047,2.778-.239,3.827-1.089-.327-.867-.619-1.638-.909-2.4-.549.46-1.043,1.168-1.668,1.279" fill="#fff"/><path d="M2206.521,793.4c.019.046.036.094.053.14.017-.013.031-.028.048-.04l-.1-.1" fill="#fff"/><path d="M2110.313,689.461l5.039-4.33h-4.084c-.243,1.1-.512,2.322-.955,4.33" fill="#fff"/><path d="M2141.506,836.336l-5.329,1.185c2.959,2.22,3.05,2.206,5.329-1.185" fill="#fff"/><path d="M2100.747,890.435l.207.86c1.743-.542,4.281,1.926,5.531-1.926l-5.738,1.066" fill="#fff"/><path d="M2186.748,737.1l.438,1.2,4.492-1.869c-2.817-1.681-3.662.087-4.93.674" fill="#fff"/><path d="M2165.372,763.706c-.758-2.321-1.236-3.779-1.73-5.3-1.573,3.277-1.573,3.277,1.73,5.3" fill="#fff"/><path d="M2078.285,779.281c0,.067.009.134.012.2l.1.005c.018-.045.035-.089.052-.134l-.166-.072" fill="#fff"/><path d="M2078.173,776.586c.041-.863.121-.86-1.668-1.281-.835,2.7-.8,2.863,1.78,3.976a25.359,25.359,0,0,1-.112-2.7" fill="#fff"/><path d="M2193.527,712.561l.014-.022-.009-.03c-.015.039-.032.078-.046.118l-.011.016c.032.005.058,0,.089,0-.008-.036-.016-.073-.023-.108Z" fill="#fff"/><path d="M2193.564,712.646l.43,2.026,4.435-3.81c-3.095-1.342-2.992,1.948-4.865,1.784" fill="#fff"/><path d="M2096.264,713.331c-.019.009-.038.018-.058.026l-.023,0s.094.014.073.016c.03-.012.063-.028.1-.044l-.092.015,0-.017" fill="#fff"/><path d="M2099.938,709.744a21.579,21.579,0,0,0-3.191,1.819c-.42.335-.362,1.154-.484,1.769,1.6-.726,3.179-1.451,4.837-2.211l-1.162-1.377" fill="#fff"/><path d="M2056.777,797.321c3.091.923,4.34-.8,6.265-2.41-3.484-1.04-3.778,2.118-6.265,2.41" fill="#fff"/><path d="M2054.358,691.621c1.333,1.185,2.389,2.033,3.874.909.245-.186.181-1.036-.074-1.371-1.192-1.558-2.348-.923-3.8.462" fill="#fff"/><path d="M2100.963,826.558l1.944-4.724c-3.92,1.041-3.995,1.2-1.944,4.724" fill="#fff"/><path d="M2114.7,861.748c-.039.012-.073.016-.111.027v.085Z" fill="#fff"/><path d="M2114.59,861.775v-3.841l-3.251,2.1c.272,1.745,1.42,2.256,3.251,1.741" fill="#fff"/><path d="M2041.087,864.03,2037.9,860.1l-.751.491c.862,1.168.155,3.357,3.937,3.443" fill="#fff"/><path d="M2120.762,863.192c-.4-1.869-1.019-2.429-1.236-2.078-1.311,2.111-3.162.72-4.779.743,1.295,3.382,3.943.744,6.015,1.335" fill="#fff"/><path d="M2114.7,861.75l-.111.111c.052-.005.1,0,.157,0-.015-.039-.032-.068-.046-.108" fill="#fff"/><path d="M2195.763,861.806c.667,3.01.667,3.01,3.671,2.714l-3.671-2.714" fill="#fff"/><path d="M2034.134,870.308c.212-.06.424-.119.635-.182l-.067.016a3.9,3.9,0,0,0-.568.166" fill="#fff"/><path d="M2031.747,874.522l1.691-.224c.656-1.233-1.434-3.189.7-3.99-.359.1-.716.206-1.063.333-1.672.615-2.675,3.3-1.324,3.881" fill="#fff"/><path d="M2140.256,878.549c.318-1.3.554-2.265.785-3.21l-4.85,2.351,4.065.859" fill="#fff"/><path d="M2141.083,875.169l-.042.17.14-.068-.1-.1" fill="#fff"/><path d="M2135.208,884.919l2.814,2.078c.673-.545,1.2-1,1.759-1.412a3.493,3.493,0,0,1,.761-.323h0v0l0,0-.011,0h0l-5.022-1c-.1.222-.2.444-.3.667" fill="#fff"/><path d="M2046.021,738.506v-3.2l-.9-.594L2042.4,737.5l3.621,1.008" fill="#fff"/><path d="M2052.776,738.074c3.086,1.3,2.519-1.654,3.882-2.284-2.669-.943-2.484,1.551-3.882,2.284" fill="#fff"/><path d="M2115.078,890.548c-3.219.051-3.219.051-4.513,1.7,1.879.287,4.05-2.177,5.459.456l.009.016.006-.018-.013,0c-.318-.723-.636-1.446-.948-2.157" fill="#fff"/><path d="M2205.629,753.7l-2.7-1.8L2201,756.09l4.63-2.387" fill="#fff"/><path d="M2062.207,760.736l4.1-1.472-3.1-1.646-1.554,2.468c.186.216.371.432.556.65" fill="#fff"/><path d="M2132.83,870.685l1.376,3.889,1.886.9c.036-2.061-.844-3.352-3.262-4.784" fill="#fff"/><path d="M2134.231,874.644c-.008-.023-.017-.047-.024-.07l-.123-.058Z" fill="#fff"/><path d="M2153.094,869.091c.612.143,1.348.552,1.811.377a30.727,30.727,0,0,0,3.489-1.8c.007-.233.015-.467.022-.7a40.443,40.443,0,0,0-4.447.653c-.411.1-.59.962-.875,1.475" fill="#fff"/><path d="M2117.573,866.229l-4.46,1.794c.517.68,1.033,1.359,2.06,2.708l2.4-4.5" fill="#fff"/><path d="M2069.63,712.492c-.851,1.289-1.565,2.368-2.573,3.894l3.336,1.245c-1.238-2.012,1.01-3.526-.763-5.139" fill="#fff"/><path d="M2069.4,780.508c-.292-1.377-.471-2.226-.65-3.075,3.481.124,4.339-.69,3.4-3.244l-3.981,2.4c-.564.4-1.565.773-1.609,1.219-.143,1.455,1.013,2.047,2.842,2.7" fill="#fff"/><path d="M2185.213,781.485l-.932-2.891-1.667.817-1.014,1.675,3.613.4" fill="#fff"/><path d="M2179.093,786.1l3.944-2.856c-.257-.277-.515-.555-.771-.833l-3.852,3.032.679.657" fill="#fff"/><path d="M1994.951,855.814l3.249,1.275,1.2-2.266c-1.548.314-3.11-1.358-4.453.991" fill="#fff"/><path d="M2074.063,703.674l-3.465,2.71c2.651.617,3.9-.022,3.465-2.71" fill="#fff"/><path d="M2075.679,848.74c2.91,1.467,2.91,1.467,4.652-.474-1.758-1.285-3.136-.223-4.652.474" fill="#fff"/><path d="M2102.615,796.373c1.842-.5,3.91,1.341,6.487-1.314l-6.563.524q.037.395.076.79" fill="#fff"/><path d="M2120.417,697.123l-4.272.538c.1.562.193,1.124.3,1.729l4.129-1.254c-.051-.337-.1-.675-.154-1.013" fill="#fff"/><path d="M2127.6,801.61l-4.393-.6c2.384,2.538,2.384,2.538,4.393.6" fill="#fff"/><path d="M2054.252,802.913c-1.423,1.646-2.139,2.476-3.229,3.738l4.292.484c-.335-1.331-.584-2.321-1.063-4.222" fill="#fff"/><path d="M2131.246,809.175l2.539,2.406c1.087-.9,2.175-1.809,3.289-2.734l-5.828.328" fill="#fff"/><path d="M2096.93,685.812c1.58-2.069,1.615-2.38.384-3.4-1.988,2.232-1.988,2.232-.384,3.4" fill="#fff"/><path d="M2125.808,832.06c2.544,2.018,3.913.66,5.381-.252-.118-.315-.237-.63-.355-.945l-5.026,1.2" fill="#fff"/><path d="M2114.924,830.414c-1.206-3.146-1.423-3.186-4.438-1.365l4.438,1.365" fill="#fff"/><path d="M2083.528,819.569c-.851,2.8-.851,2.8,1.768,3.805-.564-1.461.052-2.93-1.768-3.805" fill="#fff"/><path d="M2006.314,819.063c.208,1.963.349,3.3.559,5.278,2.055-2.16,1.665-3.474-.559-5.278" fill="#fff"/><path d="M2189.072,806.044l3.913,1.612c-1.136-2.944-1.445-3.062-3.913-1.612" fill="#fff"/><path d="M2035.525,689.953l-3.712,1.379c2.681,1.631,2.681,1.631,3.712-1.379" fill="#fff"/><path d="M2129.857,691.179l.254-.5a.682.682,0,0,0-.367.374l.009.01c0,.027.007.056.01.082.033.013.06.018.094.031" fill="#fff"/><path d="M2127,692.88l3.094,1.2c-.135-1.218-.231-2.081-.325-2.933-1.756-.644-2.579.018-2.769,1.732" fill="#fff"/><path d="M2053.5,698.722l1.365-1.348c-.833-2.784-.9-2.843-4.586-1.494a4.116,4.116,0,0,1,3.221,2.842" fill="#fff"/><path d="M2041.243,695.773l-4.786,2.682c3.878.173,3.878.173,4.786-2.682" fill="#fff"/><path d="M2058.938,699.343l-.144,2.446.04-.006c.063-1.473.869-1.646,2.266-1.2a9.021,9.021,0,0,0,2.295.129q-.008-.429-.017-.858l-4.44-.514" fill="#fff"/><path d="M2101.718,698.954l-2.541,4.285.958.461c.466-1.4,3.521-1.476,1.583-4.746" fill="#fff"/><path d="M2037.265,704.18l-4.773,2.178c.275.506.514.946.829,1.528.769-1.5,3.255-1.306,3.944-3.706" fill="#fff"/><path d="M2069.42,706.613a26.021,26.021,0,0,1-1.729-2.039,12.8,12.8,0,0,1-.789-1.752c-1.82,2.755-1.82,2.755,2.518,3.791" fill="#fff"/><path d="M2130.182,778.421l3.394-.767c-2.874-.334-3.566-.411-3.394.767" fill="#fff"/><path d="M2130.565,779.956a13.594,13.594,0,0,1-.382-1.535l-1.024.232,1.406,1.3" fill="#fff"/><path d="M2058.8,779.542c.475-1.524.9-2.9,1.334-4.279l-.548-.211-2.706,4.255c.9.11,1.427.173,1.92.235" fill="#fff"/><path d="M2088.009,776.945c2.316-2.087,2.316-2.087,0-3.83Z" fill="#fff"/><path d="M2100.216,770.038c.338-1.22.576-2.082.971-3.509-1.586.7-2.516,1.106-3.79,1.666l2.819,1.843" fill="#fff"/><path d="M2131.338,766.83l4.489.81q-.441-.766-.879-1.534c-1.12-.43-2.279-1.268-3.61.724" fill="#fff"/><path d="M1994.722,756.734l5.359-.762c-3.625-1.176-3.625-1.176-5.359.762" fill="#fff"/><path d="M2064.639,877.178l-2.842-1.707c-.43,1.367-.733,2.333-1.037,3.3a3.485,3.485,0,0,0,1.617-.773,18.139,18.139,0,0,1,2.262-.819" fill="#fff"/><path d="M2096.786,881.629a14.655,14.655,0,0,1,1.5-1.259c-3.122-.327-3.549.061-2.972,3.371a23.185,23.185,0,0,1,1.474-2.112" fill="#fff"/><path d="M2173.475,881.234l-.521.647,3.832,3.036c-.071-2.4-.071-2.4-3.311-3.683" fill="#fff"/><path d="M2146.9,730.469l-2.842,2.792,2.842,1.261Z" fill="#fff"/><path d="M2150.5,889.617a3.568,3.568,0,0,0-5.785-.151c3.226-.594,3.772-.569,5.785.151" fill="#fff"/><path d="M2164.253,740.7c-.446,3.283-.446,3.283,2.092,4.6l-2.092-4.6" fill="#fff"/><path d="M2151.18,741.2l.111.514,5.721.279L2154.67,740l-3.49,1.2" fill="#fff"/><path d="M2086.844,885.611l3.087-1.124c-3.145-.172-3.145-.172-3.087,1.124" fill="#fff"/><path d="M2131.492,738.217l.927.078q.149-2.254.3-4.51a3.775,3.775,0,0,0-1.223,4.432" fill="#fff"/><path d="M2121.322,882.146c.059.262.117.523.177.784l5.366-1.034c.052-.188.106-.377.159-.565l-5.7.815" fill="#fff"/><path d="M2047.107,740.457c-.188,1.037-.352,1.939-.548,3.021l2.905-.38c-.339-.739-.62-1.452-1-2.12-.1-.174-.5-.207-1.355-.521" fill="#fff"/><path d="M2196.439,741a13.531,13.531,0,0,0-1.039,2.038l1.184.629q.641-1.114,1.28-2.231a6.364,6.364,0,0,0-1.425-.436" fill="#fff"/><path d="M2026.151,734.089c.175-1.547.3-2.665.482-4.258l-2.816,2.253,2.334,2.005" fill="#fff"/><path d="M2117.942,746.963l-5.452-.811c1.853,3.148,3.721,1.486,5.452.811" fill="#fff"/><path d="M2026.339,748.958l2.928,1.392c.884-1.836-.231-2.462-1.378-3.383l-1.55,1.991" fill="#fff"/><path d="M2172.786,868.46l-4.358-1.824c.654,2.91,2.267,2.2,4.358,1.824" fill="#fff"/><path d="M2158.118,856.013l-3.573-.543c1.772,2.611,1.772,2.611,3.573.543" fill="#fff"/><path d="M2147.509,854.993l4.919-1.356-3.224-1.019,1.007,1.081-3.251.516.549.778" fill="#fff"/><path d="M2170.2,768.037c2.261-.313,2.72-1.554,2.4-3.987-1.57,1.291-3.141,2.005-2.4,3.987" fill="#fff"/><path d="M2131.372,852.224c-.712-1.458-.51-2.968-2.984-2.81.48,1.321-.093,2.917,2.984,2.81" fill="#fff"/><path d="M2176.946,714.729l2.635-3.19c-3.137.308-3.137.308-2.635,3.19" fill="#fff"/><path d="M2100.731,836.387c1.011.185,2.1.072,1.647-1.546l-3.34-.7c-.737,1.486.406,2.005,1.693,2.241" fill="#fff"/><path d="M2099.039,834.146c.018-.037.032-.071.052-.109l-.108.1.056.012" fill="#fff"/><path d="M2155.808,709.361l5.217-1.029q-.1-.555-.209-1.111l-5.21,1.435.2.705" fill="#fff"/><path d="M2152.871,821.735l4.521,1.09c-1.052-4.245-3.041-1.053-4.521-1.09" fill="#fff"/><path d="M2130.74,819.736l4.478,1.139c-2.855-3.043-2.855-3.043-4.478-1.139" fill="#fff"/><path d="M2120.83,684.625c.572.174,1.273.62,1.687.461a7.439,7.439,0,0,0,1.814-1.417l-.435-.617a10.753,10.753,0,0,0-2.358.367c-.36.137-.48.787-.708,1.206" fill="#fff"/><path d="M2169.137,684.135c-.435-.432-1.478-.366-2.451-.571.426,1.2.73,2.055,1.116,3.138,1.769-.49,2.656-1.256,1.335-2.567" fill="#fff"/><path d="M2139.236,814.181c1.533-1.062,2.533-2.189.492-3.714q-.246,1.857-.492,3.714" fill="#fff"/><path d="M2054.4,700.139l2.492-1.79-2.027-.976-1.365,1.349.9,1.417" fill="#fff"/><path d="M2141.185,798.477l2.236,1.433c.382-.846.741-1.638,1.14-2.523-1.764-.8-2.579-.1-3.376,1.09" fill="#fff"/><path d="M2058.994,800.3l-3.879,1.161c2.779,1.7,2.856,1.671,3.879-1.161" fill="#fff"/><path d="M2177.614,696.913a.479.479,0,0,0,.081.038c-.007-.041-.014-.082-.02-.123l-.061.085" fill="#fff"/><path d="M2176.908,692.194c.329,1.986.549,3.32.767,4.634.646-.914,1.312-1.821,2.134-2.942l-2.9-1.692" fill="#fff"/><path d="M2098.226,799.882c.956-2.214.775-3.171-2.069-3.415l2.069,3.415" fill="#fff"/><path d="M2091.128,691.721l4.281-2.051-3.736-.431c-.178.813-.313,1.428-.545,2.482" fill="#fff"/><path d="M2086.378,795.817c-.215,2.723-.215,2.723,2.959,2.379l-2.959-2.379" fill="#fff"/><path d="M2211.024,791.706c-2.466-.861-3.721-.069-4.384,1.749,2.249,1.027,2.937-.822,4.384-1.749" fill="#fff"/><path d="M2206.533,793.409l.089.089c0-.016.013-.028.018-.043-.036-.017-.07-.028-.107-.046" fill="#fff"/><path d="M2160.971,814.577c-.025.088.353.269.761.565l2.658-1.928c-2.507-1.587-2.994-.128-3.419,1.363" fill="#fff"/><path d="M2100.525,792.151l5.336-1.749-.282-.641-5.336,1.766.282.624" fill="#fff"/><path d="M2068.818,788.721c1.982.491,3.3.671,5.109-.478-1.908-.727-3.189-1.246-5.109.478" fill="#fff"/><path d="M2184.4,787.064l0,0,.013,0-.006-.008v-.006l-.006.01,0,0" fill="#fff"/><path d="M2184.164,783.531c.085,1.266.161,2.4.236,3.524.81-1.383,1.621-2.766,2.454-4.19l-2.69.666" fill="#fff"/><path d="M2173.443,828.482l3.387-3.012c-2.041-.285-3.537-.175-3.387,3.012" fill="#fff"/><path d="M2060.64,711.588c.971-2.109.971-2.109-.541-4.544,0,1.668-.025,2.82.025,3.971.008.2.336.382.516.573" fill="#fff"/><path d="M2193.152,708.292l-.741.336q.561,1.941,1.121,3.88a11.148,11.148,0,0,0,.917-2.819c.036-.434-.837-.929-1.3-1.4" fill="#fff"/><path d="M2119.793,709.7l4.4-.312c-2.111-.947-2.111-.947-4.4.312" fill="#fff"/><path d="M2042.923,710.731l-5.057.993c.058.3.118.609.177.913,1.569-.225,3.444.581,4.88-1.906" fill="#fff"/><path d="M2157.312,836.07,2152.8,837.5c1.349-.289,3.286,1.537,4.514-1.431" fill="#fff"/><path d="M2201.435,835.787c-.487,1.281-.811,2.133-1.205,3.171,2.111-.55,2.111-.55,1.205-3.171" fill="#fff"/><path d="M2014.242,839.6l3.438-1.762c-2.653-.054-2.653-.054-3.438,1.762" fill="#fff"/><path d="M2049.594,775.317l.61.738h2.69c-.139-.712-.255-1.307-.5-2.558l-2.8,1.82" fill="#fff"/><path d="M2127.77,843.064c-.07.277-.14.555-.209.832l3.09,1.258c.307-3.131-1.414-2.4-2.881-2.09" fill="#fff"/><path d="M2158.1,845.5c2.209,1.183,3.038-.165,3.923-1.5-.624.228-1.25.448-1.871.685-.687.263-1.368.541-2.052.812" fill="#fff"/><path d="M2114.891,769.088c-2.765-1.416-3.474-1.016-3.5,1.382l3.5-1.382" fill="#fff"/><path d="M2070.078,761.849l-3.5,2.316c2.755.775,2.795.754,3.5-2.316" fill="#fff"/><path d="M2082.237,761.955c-.354,1.413-.41,2.723,1.667,3.5,1.118-1.893-.719-2.544-1.667-3.5" fill="#fff"/><path d="M2099.235,759.067a14.939,14.939,0,0,0,2.847,2.1c-.641-1.845-.958-2.756-1.4-4.015-.633.811-1.6,1.732-1.451,1.916" fill="#fff"/><path d="M2050.693,867.563c-.151-.092-.493.074-1.037.173.191.775.381,1.545.66,2.672,2.332-1.31,1.583-2.115.377-2.845" fill="#fff"/><path d="M2125.27,875.155l-1.409-2.952c-1.957,1.513-.831,2.416.62,3.237.116.065.424-.147.789-.285" fill="#fff"/><path d="M2147.592,876.494c.783-.27,1.948-.362,2.236-.863.26-.451-.443-1.351-1.015-2.794l-1.73,3.018.509.639" fill="#fff"/><path d="M2083.933,732.607c.016.024.031.041.047.067l.092-.1-.139.031" fill="#fff"/><path d="M2079.74,733.544l4.193-.936c-1.874-2.861-2.92-.056-4.193.936" fill="#fff"/><path d="M2175.863,734.173c-.023-.365-.046-.731-.07-1.1-1.585-.479-2.787.931-4.189,1.489l4.259-.393" fill="#fff"/><path d="M2037.562,881.86l4.978,1.052c-1.69-2.3-3.334-1.857-4.771-1.979l-.207.927" fill="#fff"/><path d="M2100.537,875.922c.811,1.488,1.777,1.132,3.483-.442-1.647,0-2.565,0-3.483.015v.427" fill="#fff"/><path d="M2082.587,890.736l-2.6-1.012-.414.9,2.628.965q.193-.424.389-.848" fill="#fff"/><path d="M2102.292,871.146l-3.152.345c.061.35-.011.892.208,1.016,1,.563,2.068.989,2.944-1.361" fill="#fff"/><path d="M2195.9,870.845q-.2-.5-.392-.995c-.859.346-1.722.686-2.561,1.067a2.9,2.9,0,0,0,.269.649c.9-.213,1.792-.47,2.684-.721" fill="#fff"/><path d="M2080.544,870.732l3.088.528c-.723-2.018-1.679-2.169-3.088-.528" fill="#fff"/><path d="M2191.706,870.147c-.548-.785-1.06-1.517-1.918-2.743-.137,2.647-.137,2.647,1.918,2.743" fill="#fff"/><path d="M1984.488,865.732c2.381,2.062,2.913,2.133,4.576.729l-4.576-.729" fill="#fff"/><path d="M2052.141,859.889c1.585.076,2.7-.014,2.806-1.656-1.833-.582-2.773-.269-2.806,1.656" fill="#fff"/><path d="M2121.037,855.352c-.6,1.342-.031,2.157,1.373,2.628l.737-.056c-.242-1.7-.242-1.7-2.11-2.572" fill="#fff"/><path d="M2044.9,854.78l3.813,1.8c-.9-2.007-1.462-2.894-3.813-1.8" fill="#fff"/><path d="M2155.887,851.242c.229,1.09.425,2.021.621,2.952l.968-.095c.56-1.255.613-2.338-1.589-2.857" fill="#fff"/><path d="M2137.989,852.507l3.9-.364q-.064-.542-.128-1.084l-3.928.3.153,1.15" fill="#fff"/><path d="M2200.054,846.582c-.34,1.381-.645,2.621-.971,3.943,2-.778,2-.778.971-3.943" fill="#fff"/><path d="M2172.23,836.351c.015-.061.035-.111.052-.167a.738.738,0,0,0-.089.074Z" fill="#fff"/><path d="M2172.283,836.184c1.018-.868,3.339,1.538,3.651-1.242-1.38.127-3.075-.607-3.651,1.242" fill="#fff"/><path d="M2099.091,834.037c-.07.011-.125.007-.192.015l.08.086.112-.1" fill="#fff"/><path d="M2098.9,834.053q-1.384-1.474-2.761-2.956c-.2,2.074.571,3.216,2.761,2.956" fill="#fff"/><path d="M2049.546,828.293c-1.707-1.772-3.2-.564-4.662,0Z" fill="#fff"/><path d="M2119.5,823.627l2.981.618c.044-.86.069-1.337.113-2.188l-3.12.944c.009.208.017.417.026.626" fill="#fff"/><path d="M2181.133,820.9l2.14,3.782,2.331-1.055-4.471-2.727" fill="#fff"/><path d="M2136.972,814.645l-3.2-.338c1.713,1.811,1.713,1.811,3.2.338" fill="#fff"/><path d="M2195.16,811.3l-2.285,2.495,3.994-.324.4-.712-2.108-1.459" fill="#fff"/><path d="M2108.5,812.237l-.463-.98-2.961,1.249c2.054,1.387,2.812.754,3.424-.269" fill="#fff"/><path d="M2135.872,697.175c-.32.006-.9.452-.9.687.03,1.367,1.034,1.555,2.368,1.437.205-1.2.177-2.158-1.47-2.124" fill="#fff"/><path d="M2117.637,794.071q-.683,1.616-1.363,3.231c1.964-1.457,1.964-1.457,1.363-3.231" fill="#fff"/><path d="M2122.844,701.311l3.216.207c-.985-1.319-2.065-1.262-3.216-.207" fill="#fff"/><path d="M2190.615,791.866l3.362.858-.435-1.406a3.1,3.1,0,0,1-1-.331c-1.131-.81-1.113-.832-1.923.879" fill="#fff"/><path d="M2107.1,788.767c1.5-.1,3.1.049,4.759-1.981l-5.1.953.344,1.028" fill="#fff"/><path d="M1985.122,788.684c1.309-.184,2.718-.255,2.52-3.3l-3.357,2.509.837.786" fill="#fff"/><path d="M2085.044,787.586l3.508-1.33c-2.344-1.873-2.922-.244-3.508,1.33" fill="#fff"/><path d="M2139.568,777.867a2.77,2.77,0,0,0,3.853.862,4.289,4.289,0,0,0-.3-.82c-.273-.417-.593-.809-.852-1.155l-2.183.579c-.1-.772-.192-1.544-.321-2.574-1.618,1.42-1.618,1.42-.2,3.108" fill="#fff"/><path d="M2075.3,714.519a4.852,4.852,0,0,0,1.6.763c.038-.385.075-.768.116-1.151l3.853.732c-.166-1.094-.28-1.84-.392-2.58-1.858-.576-3,.083-3.543,1.755l-1.158-.81c-.179.445-.648,1.107-.479,1.291" fill="#fff"/><path d="M2160.558,767.238l2.023,2.173c-.04-2.554-.04-2.554-2.023-2.173" fill="#fff"/><path d="M2091.43,769.662c1.6-2.5,1.6-2.5-.294-3.606.081,1,.149,1.833.294,3.606" fill="#fff"/><path d="M2148.421,764.827c1.043-.376,2.7-.131,2.28-1.892-2.624-.883-2.624-.855-2.28,1.892" fill="#fff"/><path d="M2188.528,719.307q-.328-.389-.655-.778-1.018.578-2.036,1.156l.906,1.089,1.785-1.467" fill="#fff"/><path d="M2210.491,718.506l-2.788,1.675.509.747c1.128-.1,2.3-.144,2.279-2.422" fill="#fff"/><path d="M2094.5,760.632c-.791.674-1.464,1.246-2.362,2.012,2.792-.14,2.792-.14,2.362-2.012" fill="#fff"/><path d="M2174.332,753.662c-2-.165-3.131.5-3.447,2.7l3.447-2.7" fill="#fff"/><path d="M2203.891,740.285l-1.806,3.832,3.786-2.208-1.98-1.624" fill="#fff"/><path d="M2202.4,734.38l3.53-.42c-1.645-1.536-1.645-1.536-3.53.42" fill="#fff"/><path d="M2083.526,735.744c.441.211,1.474-.586,2.421-1l-1.907-2a1.687,1.687,0,0,1-.266.905c-.7.7-1.6,1.456-.248,2.1" fill="#fff"/><path d="M2084.069,732.582s-.088.092-.088.092c.019.021.04.043.06.063.009-.052.016-.106.028-.155" fill="#fff"/><path d="M2112.425,740.665l2.161-2.329-3.679-.718,1.518,3.047" fill="#fff"/><path d="M2090.52,735.062q-.029.333-.055.666l3.668.268c-.017-.241-.035-.482-.052-.723l-3.561-.211" fill="#fff"/><path d="M2101.406,856.7l1.6-2.75c-2.564-.054-2.178,1.259-1.6,2.75" fill="#fff"/><path d="M2117.3,888.836c-.451,1.381-.857,2.625-1.264,3.868,1.314-.112,2.04-.623,1.931-1.96-.064-.789.769-1.844-.667-1.908" fill="#fff"/><path d="M2158.179,886.94c-.018.011.3.63.386.615.9-.174,1.784-.417,2.673-.641l-.615-1.322c-.821.441-1.645.877-2.444,1.348" fill="#fff"/><path d="M2125.706,885.88l-.124-.1-.029.013.153.084" fill="#fff"/><path d="M2126.5,883.864c-.391-.349-1.667.107-3.05.247l2.137,1.673c.948-.409,1.988-.96.913-1.92" fill="#fff"/><path d="M2086.794,880.978c.04.339.081.677.122,1.016a12.465,12.465,0,0,0,2.007.1c.332-.033.624-.4,1.654-1.121Z" fill="#fff"/><path d="M2131.662,876.552h2.711c-.11-.777-.192-1.355-.272-1.92-1.609-.19-2.505.349-2.439,1.92" fill="#fff"/><path d="M2134.228,874.643l-.144-.127c.006.039.011.078.017.116.044.005.082.005.127.011" fill="#fff"/><path d="M2162.563,874.544l3.383,2.257c-.733-1.045-.818-2.944-3.383-2.257" fill="#fff"/><path d="M2044.148,689.44l-2.18-.2q.023.54.047,1.081,1.032-.117,2.065-.234.033-.322.068-.644" fill="#fff"/><path d="M2133.064,691.737a2.466,2.466,0,0,0,1.992-.7c.27-.323.187-.886.261-1.342l-.837-.228-1.416,2.267" fill="#fff"/><path d="M2209.1,693.436c-.11.009-.183.412-.36.847h3.1c-.469-1.951-1.769-.923-2.736-.847" fill="#fff"/><path d="M2076.558,705.078c.354.112.708.221,1.062.332l1.16-3.219-.85-.251q-.686,1.57-1.372,3.138" fill="#fff"/><path d="M2213.01,713.6c-.173-.111-.346-.222-.52-.332l-2.024,2.308.65.425q.95-1.2,1.894-2.4" fill="#fff"/><path d="M2177.5,718.813c.217-.693.357-1.4.512-2.112l-.922-.2-.682,2.129c.381.064,1.083.21,1.092.182" fill="#fff"/><path d="M2043.538,716.7l3.447,2.082c-.339-1.754-.49-2.784-3.447-2.082" fill="#fff"/><path d="M2155.44,720.027l2.794-.436c-.041-.294-.083-.587-.124-.881l-2.653.223c-.006.365-.011.729-.017,1.094" fill="#fff"/><path d="M2171.689,720.457l1.8,1.192c.263-.607.527-1.213.988-2.279l-2.792,1.087" fill="#fff"/><path d="M2036.192,721.639l3.732-.851c-.1-.3-.2-.606-.307-.909-1.135.043-2.385-.165-3.425,1.76" fill="#fff"/><path d="M2100.634,724.016l-3.471,1.732c1.959,1.1,1.974,1.076,3.471-1.732" fill="#fff"/><path d="M2097.163,725.748l-.046-.026,0,0-.07.065a.111.111,0,0,0,0,.018l.119-.059" fill="#fff"/><path d="M2194.672,728.9l1.3,3.4,1.653-1.74c-1.012-.51-1.129-2.378-2.954-1.662" fill="#fff"/><path d="M2197.674,730.584c0-.012,0-.082,0-.082-.016.018-.034.037-.053.055.018.009.031.019.049.027" fill="#fff"/><path d="M2194.57,728.933c.036-.016.067-.024.1-.037-.007-.018-.013-.036-.02-.053l-.082.09" fill="#fff"/><path d="M2178.282,741.2c1.842.541,2.258-.511,2.726-1.437.057-.114-.208-.359-.468-.776l-2.258,2.213" fill="#fff"/><path d="M1999.836,742.175l-.564.414a16.159,16.159,0,0,0,1.481,1.848,10.282,10.282,0,0,0,1.424-.841l-2.341-1.421" fill="#fff"/><path d="M2133.182,746.261c.489-.587.992-1.166,1.441-1.777.034-.046-.445-.478-.466-.464-.666.445-1.3.922-1.946,1.395l.971.846" fill="#fff"/><path d="M1996.75,747.56c-.993-2.329-.993-2.329-2.834-.8l2.834.8" fill="#fff"/><path d="M2168.693,753.542c-.223.854-.446,1.707-.766,2.938,2.685-.973.885-2.017.766-2.938" fill="#fff"/><path d="M2130.136,757.818l1.075.247q.573-1.518,1.145-3.036l-1.022-.288q-.6,1.539-1.2,3.077" fill="#fff"/><path d="M2113.823,757.643l-2.369,2.493,1.085.72c.061-1.117,2.365-.956,1.284-3.213" fill="#fff"/><path d="M2132.743,760.63a8.048,8.048,0,0,0-.479.961c.7.174,1.386.378,2.094.5a1.551,1.551,0,0,0,.652-.109c-.094-.226-.145-.517-.323-.608a10.7,10.7,0,0,0-1.944-.748" fill="#fff"/><path d="M2150.691,762.887c.005.017.005.031.01.048l.082.028-.047-.039.047.039v-.074l-.092,0Z" fill="#fff"/><path d="M2153.7,762.978l0,.009.014-.024c1.428-.791,3.689,1.245,4.849-1.111l-5.4-1.237c.2.9.366,1.625.53,2.348h-.008l.011.015" fill="#fff"/><path d="M2150.783,760.18v2.709q1.453.038,2.909.074-1.072-1.506-2.148-3.005l-.761.222" fill="#fff"/><path d="M2067.217,843.09l2.435,1.2c-.849-1.64-.849-1.64-2.435-1.2" fill="#fff"/><path d="M2040.823,768.271l1.69-2.756-1.132-.579-1.407,2.982.849.353" fill="#fff"/><path d="M2124.928,767.271a10.2,10.2,0,0,0,.9,1.556l1.646-.861a10.429,10.429,0,0,0-1.679-1.265c-.151-.071-.909.473-.871.57" fill="#fff"/><path d="M2142.68,773.172l1.133-1.376-1.9-1.266-1.047.972,1.816,1.67" fill="#fff"/><path d="M2135.181,778l1.012.315v-3.9L2135.181,778" fill="#fff"/><path d="M2097.555,779.667l-1.156-.644-.981,2.411.862.333,1.275-2.1" fill="#fff"/><path d="M2047.957,834.711l-.9.346,1.208,2.148.582-.207q-.447-1.143-.893-2.287" fill="#fff"/><path d="M2032.421,786.757l-3.095-3.025c.928,2.472.928,2.472,3.095,3.025" fill="#fff"/><path d="M2157.087,789.972c-.019-.053-.038-.107-.058-.16l-.1.029Z" fill="#fff"/><path d="M2156.545,788.468c.187.517.337.936.484,1.344.633-.184,1.262-.379,1.9-.541.363-.093.745-.124,1.119-.183l-.625-.62Z" fill="#fff"/><path d="M1990.064,790.716l3.946-1.243c-2.491-.679-3.965-.86-3.946,1.243" fill="#fff"/><path d="M1990.063,790.847c0-.047,0-.086,0-.131l-.094.03c.006.022.012.043.017.065l.071.031Z" fill="#fff"/><path d="M2051.542,832.316l-3.41.2q.036.447.073.894l3.4-.241q-.034-.423-.067-.848" fill="#fff"/><path d="M1989.9,793.51l.724-.261q-.32-1.218-.637-2.438c-.446-.192-.925-.4-2.117-.9.931,1.653,1.482,2.627,2.03,3.6" fill="#fff"/><path d="M2198.4,794.505l4.428-.179c-2.17-1.567-3.255-1.587-4.428.179" fill="#fff"/><path d="M2074.415,828.466l-3.3,2.5c2.242.053,3.811.3,3.3-2.5" fill="#fff"/><path d="M2038.762,830.964l2.6-1.812c-1.46-.138-2.925-.341-2.6,1.812" fill="#fff"/><path d="M2043.368,814.479l2.984-.663c-.1-.3-.192-.6-.289-.9l-2.926.807.231.756" fill="#fff"/><path d="M2191.583,819.658l1.656,2.561c.514-1.876.514-1.876-1.656-2.561" fill="#fff"/><path d="M2086.64,822.608l1.789,1.447.354-.337-1.335-1.8-.808.688" fill="#fff"/><path d="M2139.586,828.769q.233-1.492.466-2.985-.771,1.336-1.539,2.673l1.073.312" fill="#fff"/><path d="M2113.458,822.074l-2.269-.268c-.019.3-.037.6-.056.9h2.307c.006-.21.012-.419.018-.629" fill="#fff"/><path d="M2136.612,819.6c-.223.822-.443,1.637-.805,2.971,2.227-.664,2.318-1.564,1.613-2.7-.1-.157-.483-.168-.808-.269" fill="#fff"/><path d="M2106,829.64l.4-.561-1.891-1.719a1.7,1.7,0,0,0,.138,1.888c.249.277.886.271,1.349.392" fill="#fff"/><path d="M2104.578,817.586l-1,.148.471,3.024.847-.122q-.159-1.525-.318-3.05" fill="#fff"/><path d="M2084,804.107l-2.784-.731c1.287,1.565,1.287,1.565,2.784.731" fill="#fff"/><path d="M2113.611,803.847l3.968-1.419c-2.241-.924-3.023-.492-3.968,1.419" fill="#fff"/><path d="M2077.405,799.577q-.434.993-.866,1.99l1.666-1.177-.8-.813" fill="#fff"/><path d="M2177.494,791.688c.493.409,1.046.758,1.58,1.125q.281-.36.559-.721l-1.826-1.041c-.112.22-.374.587-.313.637" fill="#fff"/><path d="M2091.864,789.511l-.913-.671-1.242,1.453.853.586,1.3-1.368" fill="#fff"/><path d="M2187.181,836l2.351-.673c-2.109-1.144-2.109-1.144-2.351.673" fill="#fff"/><path d="M2108.473,782.33q-.319-.927-.64-1.854l-1.381.71,1.416,1.407.6-.263" fill="#fff"/><path d="M2169.4,835.791c1.251,1.28,1.27,1.29,2.75.491-.808-.634-1.538-1.575-2.75-.491" fill="#fff"/><path d="M2172.222,836.338a.746.746,0,0,0-.029-.08l-.043.023.072.057" fill="#fff"/><path d="M2073.927,838.659c.387.125,1,.453,1.122.34a11.408,11.408,0,0,0,1.312-1.6l-.733-.494-1.7,1.757" fill="#fff"/><path d="M2182.61,779.391l-.118.079.122-.06.023-.037c-.041,0-.068-.009-.107-.01l-.044.111.124-.083" fill="#fff"/><path d="M2181.589,777.5c-.368.735-.6,1.8.94,1.862.37-.939.755-1.911,1.445-3.647-1.216.872-2.1,1.208-2.385,1.785" fill="#fff"/><path d="M2196.644,775.428c0,.389.327.777.623,1.382l1.456-1.064a5.767,5.767,0,0,0-1.246-.9c-.166-.066-.834.378-.833.586" fill="#fff"/><path d="M2047.913,777l-2.519-2.249c-1.031,2.227.476,2.183,2.519,2.249" fill="#fff"/><path d="M2095.428,774.112c-.76-.1-1.534-.205-2.586-.344.066.992.114,1.712.169,2.53l2.417-2.186" fill="#fff"/><path d="M2095.5,774.049l-.07.063.166.022c.006,0-.1-.085-.1-.085" fill="#fff"/><path d="M2132.993,837.981c-.67-.008-1.343.088-2.014.147q.1.492.205.983l2.219-.531c-.136-.21-.27-.6-.41-.6" fill="#fff"/><path d="M2053.935,769.886l3.068.3.308-.771a22.525,22.525,0,0,0-2.468-.66c-.158-.027-.435.525-.908,1.133" fill="#fff"/><path d="M2069.792,768.284c.187.121,1.244-.851,1.9-1.318-.1-.15-.206-.3-.307-.452-.338.1-.685.187-1.009.314-.791.308-1.85.638-.582,1.456" fill="#fff"/><path d="M2074.786,764.17l-1.121-.244q-.155,1.2-.307,2.394l.649.11q.39-1.129.779-2.26" fill="#fff"/><path d="M2122.606,763.5l2.813,1.163.45-1.019-2.912-.922-.351.778" fill="#fff"/><path d="M2083.526,844.81l-2.011.662c0,.193,0,.386,0,.578l2.148.17q-.069-.7-.139-1.41" fill="#fff"/><path d="M2149.752,757.466l-2.638.426.177.717,2.627-.251c-.055-.3-.111-.595-.166-.892" fill="#fff"/><path d="M2041.32,760.265l.89.167q.324-1.129.647-2.257l-.752-.183-.785,2.273" fill="#fff"/><path d="M2156.276,844.426l-3.55.388c.041.278.081.558.122.837l3.534-.5c-.035-.244-.071-.486-.106-.729" fill="#fff"/><path d="M2049.615,755.04l-3.245,1.937c1.933.224,2.941-.045,3.245-1.937" fill="#fff"/><path d="M1984.988,755.531l2.644.585.348-1.2-2.858-.2c-.045.271-.089.543-.134.815" fill="#fff"/><path d="M2083.917,751.477a7.846,7.846,0,0,0-1.091-.18q-.138.97-.275,1.942l1.108.2a17.735,17.735,0,0,0,.258-1.963" fill="#fff"/><path d="M2106.3,749.718l.667.649,1.806-1.507-.668-.642-1.8,1.5" fill="#fff"/><path d="M2045.856,851.331q-.451-1.338-.9-2.675l-.66.185c.242.874.486,1.76.731,2.645l.831-.155" fill="#fff"/><path d="M2172.81,740.712h3.46c-1.426-1.975-2.314-1.607-3.46,0" fill="#fff"/><path d="M2053.047,741.232h3.865l-2.073-2.169c-.769.932-1.209,1.464-1.792,2.169" fill="#fff"/><path d="M2095.443,739.614c.716.832,1.209,2.045,3.76.8l-3.328-1.587-.432.788" fill="#fff"/><path d="M2073.256,739.724c-.046-.321-.722-.568-1.117-.847a4.2,4.2,0,0,0-.887,1.109c-.089.259.258.641.41.967l1.026.165c.212-.467.631-.959.568-1.394" fill="#fff"/><path d="M2063.1,733.832l.465.415,1.669-1.212-.691-.715-1.443,1.512" fill="#fff"/><path d="M2120.472,730.8l-3.312,1.025q.191.551.38,1.1l3.32-1.284-.388-.842" fill="#fff"/><path d="M2075.86,729.88l3.2,1.851c.126-.142.253-.284.379-.427l-1.154-2.084-2.428.66" fill="#fff"/><path d="M2100.971,729.352l2.542.1q0-.449,0-.9h-2.539c0,.264-.005.529-.007.794" fill="#fff"/><path d="M2058.329,728.122l.107.012c.012-.044.024-.089.035-.133l-.12.1.119-.1-.1-.028C2058.358,728.023,2058.343,728.073,2058.329,728.122Z" fill="#fff"/><path d="M2060.736,729.034q-.063-.328-.124-.657l-2.175-.243c-.111.423-.23.872-.428,1.62l2.727-.72" fill="#fff"/><path d="M2005.9,713.035q-.641,1.35-1.279,2.7l1.194.362q.414-1.419.825-2.838l-.74-.224" fill="#fff"/><path d="M2086.945,710.661l-2.578-.584q-.132.513-.262,1.026l2.6.514q.122-.477.242-.956" fill="#fff"/><path d="M2080.545,712.2l-.071.048,0,0c0,.012,0,.024,0,.037.035.011.066.014.1.026-.015-.039-.025-.075-.038-.113" fill="#fff"/><path d="M2080.545,712.2c.861-.589,1.74-1.189,3.232-2.207-3.077-.248-3.842.46-3.232,2.207" fill="#fff"/><path d="M2029.4,709.862c-.052.609-.035,1.224-.035,1.837l1.1-.04c-.1-.631-.192-1.263-.329-1.888a2.807,2.807,0,0,0-.734.091" fill="#fff"/><path d="M2127.748,707.938c-1.794,1.48-1.794,1.48.149,2.42-.042-.691-.08-1.3-.149-2.42" fill="#fff"/><path d="M2099.956,709.734c.006-.048.012-.1.018-.147l-.161.01c.041.048.083.1.125.146l.018-.009" fill="#fff"/><path d="M2100.184,707.851c-.1.81-.157,1.288-.211,1.736l2.57-.163-2.359-1.573" fill="#fff"/><path d="M2134.075,858.926h-2.553q.064.54.13,1.083l2.5-.4c-.027-.226-.053-.453-.08-.679" fill="#fff"/><path d="M2186.2,698.429a4.717,4.717,0,0,0,.577-.488c-.405-.527-.861-1.022-1.306-1.525l-.6.421,1.332,1.592" fill="#fff"/><path d="M2158.27,863.042l.99.564a17.842,17.842,0,0,0,1.076-1.725,6.647,6.647,0,0,0-.958-.567l-1.108,1.728" fill="#fff"/><path d="M2128.322,864.081l-1.953,1.648,3.072,1.263-1.119-2.911" fill="#fff"/><path d="M2144.382,689.179l-3.191.472c1.56,2.042,2.335,1.269,3.191-.472" fill="#fff"/><path d="M2003.951,865.325c-2.457.1-1.884,1.211-1.5,2.8l1.5-2.8" fill="#fff"/><path d="M2139.744,685.14l-1.359-.6-.885.84c.445.279.876.74,1.339.767.276.017.6-.649.9-1.008" fill="#fff"/><path d="M2049.179,686.615l3.63-1.389c-.636-.781-1.017-1.25-1.677-2.059-.766,1.352-1.154,2.04-1.953,3.448" fill="#fff"/><path d="M2097.123,871.328l-.625-.6-1.5,1.257.621.6,1.5-1.255" fill="#fff"/><path d="M2070.615,874.428l3.07-.842c-.985-.453-1.964-1.015-3.07.842" fill="#fff"/><path d="M2171.393,885.877h2.785c-.01-.215-.019-.43-.029-.646h-2.841c.028.216.057.431.085.646" fill="#fff"/><path d="M2181.992,889.455c-.823-1-1.3-1.581-2.2-2.67-.831,2.525.368,2.5,2.2,2.67" fill="#fff"/><path d="M2175.742,887.187l.774,2.374.646-.106-.328-2.436-1.092.168" fill="#fff"/><path d="M2112.07,884.218l-2.275.172c0,.208,0,.417,0,.625l2.286.245-.006-1.042" fill="#fff"/><path d="M2082.475,884.451c.092.657.776,1.247,1.2,1.867l.6-.281a5.661,5.661,0,0,0-.16-1c-.3-.882-1.728-1.229-1.638-.585" fill="#fff"/><path d="M2096.294,876.6l3.234,1c-.663-1-1.169-2.4-3.234-1" fill="#fff"/><path d="M2155.826,874.758c-.7.154-1.382.365-2.069.563l.443.9c.646-.27,1.3-.534,1.924-.838a2.384,2.384,0,0,0-.3-.624" fill="#fff"/><path d="M2103.661,873.487l1.95-1.6-.841-.689-1.694,1.812.585.481" fill="#fff"/><path d="M2031.978,867.334l2.613,2.614c-.519-1.072-1.023-2.142-1.526-3.213l-1.087.6" fill="#fff"/><path d="M2034.682,870.14a.508.508,0,0,0,.087-.013c-.059-.06-.118-.119-.178-.178.031.064.06.127.091.191" fill="#fff"/><path d="M2022.322,869.354l.59.209,1.343-2.359-.993-.433-.94,2.583" fill="#fff"/><path d="M2136.378,867.406c.255-.265.676-.51.719-.8s-.281-.642-.449-.975l-1.381.846,1.111.93" fill="#fff"/><path d="M2080.337,685.931c-.045-.589-.093-1.177-.139-1.766l-.843.14.555,1.712.427-.086" fill="#fff"/><path d="M2131.475,688.013l-1.364,2.669c.827-.424,2.563-.238,1.364-2.669" fill="#fff"/><path d="M2039.1,695.034l1.162-.013q-.116-1.09-.232-2.18l-.723.047q-.1,1.073-.207,2.146" fill="#fff"/><path d="M2140.151,692.939l-2.4,1.47c1.243.322,2.777.7,2.4-1.47" fill="#fff"/><path d="M2168.1,865.879l3.662-1.273c-2.879-.674-2.879-.674-3.662,1.273" fill="#fff"/><path d="M2112.815,863.528l-2.706-.74c.682,2.448,1.729,1.374,2.706.74" fill="#fff"/><path d="M2104.973,694.456q-.079.534-.16,1.069h2.414c.022-.264.045-.528.067-.793l-2.321-.276" fill="#fff"/><path d="M2166.214,694.294a7.237,7.237,0,0,0-1.937,1.267c1,.106,2.022.231,4.03.479-1.185-1.018-1.81-1.833-2.093-1.746" fill="#fff"/><path d="M2069.327,699.992l-2.213-1.321q-.384.571-.767,1.145a6.349,6.349,0,0,0,1.363.519,6.17,6.17,0,0,0,1.617-.343" fill="#fff"/><path d="M2097.162,700.826l2.2-.386c-.074-.26-.147-.52-.221-.78l-2.156.551c.058.205.117.41.175.615" fill="#fff"/><path d="M2172.123,706.059c.915-1.631.915-1.631-.31-2.663.109.93.185,1.586.31,2.663" fill="#fff"/><path d="M2210.1,859.88a14.493,14.493,0,0,0-1.011-1.263l-.8.587,1.379,1.188c.153-.176.477-.442.431-.512" fill="#fff"/><path d="M2050.426,705.6c-.717.172-1.418.387-2.124.6.123.228.245.457.366.685l2.025-.621a6.751,6.751,0,0,0-.267-.659" fill="#fff"/><path d="M2103.773,709.927q.014.289.026.578l3.482-.388s.065-.028.053-.028l-3.561-.162" fill="#fff"/><path d="M2010.791,713.969q.478,1.105.955,2.21l.869-.338-1.093-2.12-.731.248" fill="#fff"/><path d="M2078.485,718.979l.843.6,1.523-2.18-.665-.4-1.7,1.974" fill="#fff"/><path d="M2139.9,858.843c.342-.031.643-.417.962-.65l-.8-.852-1.01.862c.284.23.591.663.847.64" fill="#fff"/><path d="M2118.428,718.21l.126,1.063,2.483-.489c-.037-.237-.074-.473-.11-.71l-2.5.136" fill="#fff"/><path d="M2162.76,720.289a7.674,7.674,0,0,0,1.635-.612c-.494-.405-.833-.865-1.052-.823a4.211,4.211,0,0,0-1.223.692c.216.263.47.765.64.743" fill="#fff"/><path d="M2159.928,855.588l2.432.944.307-.64-2.5-.839c-.079.179-.157.357-.236.535" fill="#fff"/><path d="M2109.139,723.642,2112,721.91c-2.679.158-2.679.158-2.859,1.732" fill="#fff"/><path d="M2011.436,723.513l-2.365.726c.038.151.075.3.113.453l2.361-.164c-.036-.339-.073-.677-.109-1.015" fill="#fff"/><path d="M2184.938,726.957l1.112.077q.282-1.266.565-2.53l-.891-.18q-.393,1.316-.786,2.633" fill="#fff"/><path d="M2105.45,725.827l-.612.747,1.779.662c.06-.207.238-.541.159-.6a13.126,13.126,0,0,0-1.326-.808" fill="#fff"/><path d="M2194.737,854.633l2.521-1.178c-2.107-.9-2.107-.9-2.521,1.178" fill="#fff"/><path d="M1987.6,730.715l-.354,2.507.7.072q.123-1.275.245-2.552l-.589-.027" fill="#fff"/><path d="M2096.252,732.254c-.064.243-.128.487-.193.73l2.275.526q.1-.395.208-.788l-2.29-.468" fill="#fff"/><path d="M2169.5,732.778l-1.372,1.411,1.211.712a3.234,3.234,0,0,0,.441-.947,4.03,4.03,0,0,0-.28-1.176" fill="#fff"/><path d="M2105.882,736.3c.478.364.95.734,1.453,1.067.02.013.516-.459.484-.5-.358-.429-.776-.817-1.179-1.216l-.758.646" fill="#fff"/><path d="M2151.919,736.169q-.192,1.231-.386,2.464l.623.131.9-2.29Z" fill="#fff"/><path d="M2123.411,737.366c-.062-.038-.575.331-.546.4.221.555.525,1.084.8,1.62l1.191-1c-.477-.35-.938-.72-1.447-1.025" fill="#fff"/><path d="M2167.083,850.35l-2.193-.175-.042.242,2.159.433c.025-.167.051-.333.076-.5" fill="#fff"/><path d="M2111.58,850.823l3.024-.191c-1.162-1.617-1.911-1.57-3.024.191" fill="#fff"/><path d="M2065.581,742.132l.621-.437-1.457-1.554-.506.362,1.342,1.629" fill="#fff"/><path d="M2074.932,850.261l-1.293-1.843-.751.473,1.388,1.785.656-.415" fill="#fff"/><path d="M2193.118,847.155l2.119,1.416c.162-.251.325-.5.487-.752l-2.21-1.2-.4.539" fill="#fff"/><path d="M2009.053,846.86l-.237-.675-1.948.467.27.862,1.915-.654" fill="#fff"/><path d="M2068.429,751.356l-.9,1.915c.125.186.177.359.275.383a.618.618,0,0,0,.383-.138c.844-.55,1.511-1.125.237-2.16" fill="#fff"/><path d="M2168.118,846.32l2.375-.189c-.018-.209-.035-.419-.052-.628h-2.4q.04.41.081.817" fill="#fff"/><path d="M2097.017,758.394q-.909-.573-1.819-1.145l-.392.414,1.447,1.468.764-.737" fill="#fff"/><path d="M2067.424,759.227l-.692-.061V761.2l.314.015.378-1.983" fill="#fff"/><path d="M2043.254,762.852c.527.18,1.065.331,1.6.487.066-.232.131-.463.2-.7-.546-.092-1.09-.192-1.641-.253a1.794,1.794,0,0,0-.157.461" fill="#fff"/><path d="M2128.057,764.42c-.1.393.143.855.315,1.615.588-.48,1.069-.695,1.07-.912a4.178,4.178,0,0,0-.415-1.291c-.341.193-.908.339-.97.588" fill="#fff"/><path d="M2032.737,766.376c.237.088.5.28.706.24a6.165,6.165,0,0,0,1.22-.573c-.623-.253-1.024-.554-1.247-.471-.3.111-.459.522-.679.8" fill="#fff"/><path d="M2139.89,767.891l1.213,2.026.492-.263L2140.5,767.6l-.614.29" fill="#fff"/><path d="M2075.952,842.554a17.615,17.615,0,0,0,1.181-1.381c.052-.072-.287-.371-.445-.564l-1.5,1.169.762.776" fill="#fff"/><path d="M2208.885,840.179c-.063-.315-.125-.629-.188-.944l-2.083.685.111.439,2.16-.18" fill="#fff"/><path d="M2199.6,771.54a4.269,4.269,0,0,0,1.3-.45l.448-.722a3.16,3.16,0,0,0-1.123-.235,4.824,4.824,0,0,0-1.214.581c.2.292.4.831.588.826" fill="#fff"/><path d="M2148.223,839.067l-3.271,1.188c2.53,1.072,2.854-.1,3.271-1.188" fill="#fff"/><path d="M2145.3,837.912h3.427c-1.864-1.171-2.74-1.857-3.427,0" fill="#fff"/><path d="M2108.5,775.04c.031.191.063.382.094.573l2.373-.1q-.078-.519-.155-1.04l-2.312.569" fill="#fff"/><path d="M2121.475,778.954l-2,.556c.094.225.188.449.283.674.6-.171,1.209-.319,1.783-.542.074-.029-.039-.449-.066-.688" fill="#fff"/><path d="M2045.325,781.1l.7-.276q-.459-.961-.916-1.922l-.735.288.949,1.91" fill="#fff"/><path d="M2077.65,781.031l.113.1.061-.157-.174.059" fill="#fff"/><path d="M2080,779.566l-1.6-.079c-.192.495-.385.989-.575,1.485q1.144-.39,2.287-.78c-.037-.208-.073-.417-.11-.626" fill="#fff"/><path d="M2108.907,790.607l-1.719.586.308.609,1.64-.715-.229-.48" fill="#fff"/><path d="M2157.083,789.97l-.151-.129c0,.041-.012.07-.015.109l.166.02" fill="#fff"/><path d="M2154.358,791.051c1.448.644,2.415.478,2.559-1.1-1.1-.134-2.2-.287-2.559,1.1" fill="#fff"/><path d="M2071.533,793.6a.235.235,0,0,0,.04.005c-.014-.015-.023-.028-.036-.043l0,.038" fill="#fff"/><path d="M2071.538,793.568c.1-.9.207-1.8.351-2.953-1.817,1.123-1.83,1.135-.351,2.953" fill="#fff"/><path d="M2203.658,797.066c.005,0-.116-.1-.116-.1l-.176.134a2.078,2.078,0,0,0,.292-.037" fill="#fff"/><path d="M2200.722,799.117l2.644-2.014c-1.012.072-2.327-.331-2.644,2.014" fill="#fff"/><path d="M2164.577,801.859c.052.272.1.544.155.816l2.378-.206q-.1-.573-.2-1.145l-2.333.535" fill="#fff"/><path d="M2071.913,803.345l-.65.369,1.285,1.926.688-.386-1.323-1.909" fill="#fff"/><path d="M2210.571,805.278a2.912,2.912,0,0,0-.843,1.093c-.04.1.542.57.844.575a11.813,11.813,0,0,0,2.178-.449,15.284,15.284,0,0,0-2.179-1.219" fill="#fff"/><path d="M2132.631,828.735l1.274,1.493.747-.48-1.51-1.444-.511.431" fill="#fff"/><path d="M2062.486,808.251a6.1,6.1,0,0,0-.031,1.6c1.359-.707,2.639-1.033.946-2.731-.425.5-.8.78-.915,1.127" fill="#fff"/><path d="M2124.948,809.83c-.134.358.18.853.322,1.3q.653-.834,1.307-1.667c-.85-.131-1.5.039-1.629.371" fill="#fff"/><path d="M2204.47,812.024l2.061.718a3.951,3.951,0,0,0,.28-.7c-.637-.321-1.307-.588-1.969-.868l-.372.85" fill="#fff"/><path d="M2155.016,829.183l-.132.053-.005,0c-.016.03-.032.067-.048.1H2155c.006-.049.012-.1.017-.149" fill="#fff"/><path d="M2155.283,826.763c-.115,1.044-.191,1.743-.267,2.42.767-.307,1.549-.627,2.729-1.109l-2.462-1.311" fill="#fff"/><path d="M2079.118,815.541l2.56-.679q-.044-.186-.084-.372l-2.642.245c.055.268.111.537.166.806" fill="#fff"/><path d="M2191.418,815.9c.216.29.365.7.667.839a3.84,3.84,0,0,0,1.252.131l.186-.53-1.533-.944-.572.5" fill="#fff"/><path d="M2197.007,816.876l-1.336-1.69-.658.439,1.289,1.713.705-.462" fill="#fff"/><path d="M2204.56,816.78c-.354.674-.706,1.349-1.348,2.581,2.119-.881,2.119-.881,1.348-2.581" fill="#fff"/><path d="M2059.106,828.069l-.135-.532-2.42.463c.016.194.032.387.048.581l2.507-.512" fill="#fff"/><path d="M2183.223,824.834l.123-.015,0,0c-.026-.045-.051-.091-.077-.136l-.046.021c0,.046,0,.084,0,.127" fill="#fff"/><path d="M2183.223,824.834q-1.209.148-2.414.3c1.333,1.191,2.391,1.524,2.414-.3" fill="#fff"/><path d="M2057.121,824.875a5.406,5.406,0,0,0-.725-.234l-.36,1.53.636.146c.161-.478.337-.954.449-1.442" fill="#fff"/></g></g></svg>